<?xml version="1.0" encoding="utf-8"?>
<!-- Generator: Adobe Illustrator 25.4.1, SVG Export Plug-In . SVG Version: 6.00 Build 0)  -->
<svg version="1.1" id="Calque_1" xmlns="http://www.w3.org/2000/svg" xmlns:xlink="http://www.w3.org/1999/xlink" x="0px" y="0px"
	 viewBox="0 0 35 35" style="enable-background:new 0 0 35 35;" xml:space="preserve">
<style type="text/css">
	.st0{fill:none;stroke:#56DCFC;stroke-width:1.75;stroke-linecap:round;stroke-linejoin:round;stroke-miterlimit:10;}
</style>
<circle class="st0" cx="8.8" cy="17.5" r="4.6"/>
<path class="st0" d="M33.8,21.4c0,2.4-1.3,4.6-3.2,6c-1.7,1.3-3.8,1.9-5.9,1.9c-6.4,0-11.4-5.5-11.3-11.7l0,0
	c-0.1-6.3,4.9-11.8,11.3-11.8c2.7,0,5.5,1.1,7.2,3.2c1.4,1.7,2.2,4,1.6,6.1c-0.2,0.8-0.6,1.6-1.3,2.1c-0.2,0.2-0.5,0.3-0.8,0.4
	c0,0,0,0,0,0c0.4,0.1,0.8,0.3,1.1,0.6C33.5,19,33.8,20.2,33.8,21.4z"/>
<circle class="st0" cx="24.6" cy="4" r="1.7"/>
<circle class="st0" cx="24.6" cy="31" r="1.7"/>
<line class="st0" x1="4.2" y1="17.5" x2="1.2" y2="17.5"/>
</svg>
