<?xml version="1.0" encoding="utf-8"?>
<!-- Generator: Adobe Illustrator 25.4.1, SVG Export Plug-In . SVG Version: 6.00 Build 0)  -->
<svg version="1.1" id="Calque_1" xmlns="http://www.w3.org/2000/svg" xmlns:xlink="http://www.w3.org/1999/xlink" x="0px" y="0px"
	 viewBox="0 0 35 35" style="enable-background:new 0 0 35 35;" xml:space="preserve">
<style type="text/css">
	.st0{fill:none;stroke:#56DCFC;stroke-width:1.75;stroke-linecap:round;stroke-linejoin:round;stroke-miterlimit:10;}
</style>
<path class="st0" d="M7.8,21.5c0,0.9-0.7,1.6-1.6,1.6l0,0c-0.9,0-1.6-0.7-1.6-1.6l0,0c0-0.9,0.7-1.6,1.6-1.6l0,0
	C7.1,19.9,7.8,20.7,7.8,21.5L7.8,21.5z"/>
<path class="st0" d="M30.4,21.5c0,0.9-0.7,1.6-1.6,1.6l0,0c-0.9,0-1.6-0.7-1.6-1.6l0,0c0-0.9,0.7-1.6,1.6-1.6l0,0
	C29.7,19.9,30.4,20.7,30.4,21.5L30.4,21.5z"/>
<path class="st0" d="M33.7,23.6c0,1.8-1.5,3.2-3.2,3.2H4.6c-1.8,0-3.2-1.5-3.2-3.2v-4c0-1.8,1.5-3.2,3.2-3.2h25.9
	c1.8,0,3.2,1.5,3.2,3.2V23.6z"/>
<path class="st0" d="M30.8,16.3c-0.1,0-0.2,0-0.3,0H4.6c-0.1,0-0.2,0-0.3,0l0.3-1.6l1.6-8.1C6.6,5,7.6,3.4,9.4,3.4h16.2
	c1.8,0,2.8,1.6,3.2,3.2l1.6,8.1L30.8,16.3z"/>
<path class="st0" d="M7.8,26.8V30c0,0.9-0.7,1.6-1.6,1.6H4.6C3.7,31.6,3,30.9,3,30v-3.7"/>
<path class="st0" d="M32,26.3V30c0,0.9-0.7,1.6-1.6,1.6h-1.6c-0.9,0-1.6-0.7-1.6-1.6v-3.2"/>
<line class="st0" x1="18.6" y1="6.6" x2="12.1" y2="13.1"/>
<line class="st0" x1="22.3" y1="8.6" x2="18.3" y2="12.6"/>
</svg>
