<?xml version="1.0" encoding="utf-8"?>
<!-- Generator: Adobe Illustrator 25.4.1, SVG Export Plug-In . SVG Version: 6.00 Build 0)  -->
<svg version="1.1" id="Calque_1" xmlns="http://www.w3.org/2000/svg" xmlns:xlink="http://www.w3.org/1999/xlink" x="0px" y="0px"
	 viewBox="0 0 35 35" style="enable-background:new 0 0 35 35;" xml:space="preserve">
<style type="text/css">
	
		.st0{fill-rule:evenodd;clip-rule:evenodd;fill:none;stroke:#56DCFC;stroke-width:1.75;stroke-linecap:round;stroke-linejoin:round;stroke-miterlimit:10;}
	.st1{fill:none;stroke:#56DCFC;stroke-width:1.75;stroke-linecap:round;stroke-linejoin:round;stroke-miterlimit:10;}
</style>
<path class="st0" d="M16.6,1.2c-1.2,0-2.2,1-2.2,2.2c0,1.2,1,2.2,2.2,2.2c1.2,0,2.2-1,2.2-2.2C18.9,2.2,17.9,1.2,16.6,1.2z"/>
<path class="st0" d="M16.6,5.7C6.8,9.3,6.2,18.3,11.1,19.6l-1.9,4.6c2.1,2.9,12.5,3,14.8,0l-1.9-4.6C27,18.3,26.4,9.3,16.6,5.7z"/>
<path class="st0" d="M16.6,26.7c-2,1.4-3.9,3.7-6.7,2c-2.6-1.6-8.1,2.3-8.7,2.8l2,2.1c4.2-3.2,9.1-0.1,13.4-3
	c3.9,3,9.8-0.6,14.7,3.1l2.5-2.3c0,0-7.4-3.5-9.9-2.8C19.6,29.8,18.5,28.1,16.6,26.7z"/>
<line class="st0" x1="16.6" y1="10.6" x2="16.6" y2="15.1"/>
<line class="st0" x1="14.4" y1="12.8" x2="18.9" y2="12.8"/>
<path id="path4588" class="st1" d="M10.9,19.7c3-1.5,8.4-1.2,11.4,0"/>
<path id="path4590" class="st1" d="M9.7,24.2c4.3-2.4,8.9-2.7,13.6-0.1"/>
</svg>
