<?xml version="1.0" encoding="utf-8"?>
<!-- Generator: Adobe Illustrator 25.4.1, SVG Export Plug-In . SVG Version: 6.00 Build 0)  -->
<svg version="1.1" id="Calque_1" xmlns="http://www.w3.org/2000/svg" xmlns:xlink="http://www.w3.org/1999/xlink" x="0px" y="0px"
	 viewBox="0 0 35 35" style="enable-background:new 0 0 35 35;" xml:space="preserve">
<style type="text/css">
	.st0{fill:none;stroke:#56DCFC;stroke-width:1.75;stroke-linecap:round;stroke-linejoin:round;stroke-miterlimit:10;}
</style>
<g>
	<path class="st0" d="M14.9,1.3c7.4,0,13.4,6,13.4,13.4c0,3.7-3,6.7-6.7,6.7c-1.9,0-3.4-1.5-3.4-3.4"/>
	<g>
		<path class="st0" d="M1.2,16.1c2.3-7,9.9-10.9,16.9-8.6c3.5,1.1,5.5,4.9,4.3,8.5c-0.6,1.8-2.5,2.7-4.2,2.2"/>
	</g>
	<g>
		<path class="st0" d="M11.1,33.7c-6-4.4-7.3-12.8-3-18.7c2.2-3,6.4-3.7,9.4-1.5c1.5,1.1,1.8,3.2,0.7,4.7"/>
	</g>
	<g>
		<path class="st0" d="M30.8,29.7c-6,4.4-14.4,3-18.7-3c-2.2-3-1.5-7.2,1.5-9.4c1.5-1.1,3.6-0.8,4.7,0.7"/>
	</g>
	<g>
		<path class="st0" d="M33.1,9.7c2.3,7-1.6,14.6-8.6,16.9c-3.5,1.1-7.3-0.8-8.5-4.3c-0.6-1.8,0.4-3.7,2.2-4.2"/>
	</g>
</g>
</svg>
