<?xml version="1.0" encoding="utf-8"?>
<!-- Generator: Adobe Illustrator 26.5.0, SVG Export Plug-In . SVG Version: 6.00 Build 0)  -->
<svg version="1.1" id="Calque_1" xmlns="http://www.w3.org/2000/svg" xmlns:xlink="http://www.w3.org/1999/xlink" x="0px" y="0px"
	 viewBox="0 0 35 35" style="enable-background:new 0 0 35 35;" xml:space="preserve">
<style type="text/css">
	.st0{fill:none;stroke:#56DCFC;stroke-width:1.8985;stroke-linecap:round;stroke-linejoin:round;stroke-miterlimit:10;}
</style>
<polygon class="st0" points="13,14.9 13,20.1 17.5,22.7 22,20.1 22,14.9 17.5,12.3 "/>
<path class="st0" d="M31,14.7c0.9-2.1,0.8-4.6-0.4-6.8l0,0C28.5,4.2,23.8,3,20.2,5.1L13,9.2l0,5.7"/>
<path class="st0" d="M26.7,27.8c2.3-0.3,4.4-1.6,5.7-3.8l0,0c2.1-3.6,0.9-8.3-2.8-10.4l-7.2-4.2l-4.9,2.8"/>
<path class="st0" d="M13.2,30.6c1.4,1.8,3.6,3,6.1,3h0c4.2,0,7.6-3.4,7.6-7.6l0-8.3L22,14.9"/>
<path class="st0" d="M4,20.3c-0.9,2.1-0.8,4.6,0.4,6.8l0,0c2.1,3.6,6.8,4.9,10.4,2.8l7.2-4.2v-5.7"/>
<path class="st0" d="M8.3,7.2C6,7.5,3.8,8.8,2.6,11l0,0c-2.1,3.6-0.9,8.3,2.8,10.4l7.2,4.2l4.9-2.8"/>
<path class="st0" d="M21.8,4.4c-1.4-1.8-3.6-3-6.1-3h0c-4.2,0-7.6,3.4-7.6,7.6v8.3l4.9,2.8"/>
</svg>
