<?xml version="1.0" encoding="utf-8"?>
<!-- Generator: Adobe Illustrator 25.4.1, SVG Export Plug-In . SVG Version: 6.00 Build 0)  -->
<svg version="1.1" id="Calque_1" xmlns="http://www.w3.org/2000/svg" xmlns:xlink="http://www.w3.org/1999/xlink" x="0px" y="0px"
	 viewBox="0 0 35 35" style="enable-background:new 0 0 35 35;" xml:space="preserve">
<style type="text/css">
	.st0{fill:none;stroke:#56DCFC;stroke-width:1.75;stroke-linecap:round;stroke-linejoin:round;stroke-miterlimit:10;}
</style>
<polyline class="st0" points="27.2,11.9 17.5,17.5 7.8,11.9 "/>
<line class="st0" x1="17.5" y1="28.7" x2="17.5" y2="17.5"/>
<path class="st0" d="M3,11.1v12.8c0,1.2,0.7,2.4,1.7,3l11.1,6.4c1.1,0.6,2.4,0.6,3.5,0l11.1-6.4c1.1-0.6,1.7-1.8,1.7-3V11.1
	c0-1.2-0.7-2.4-1.7-3L19.2,1.7c-1.1-0.6-2.4-0.6-3.5,0l-11,6.4C3.6,8.7,3,9.9,3,11.1z"/>
</svg>
