<?xml version="1.0" encoding="utf-8"?>
<!-- Generator: Adobe Illustrator 25.4.1, SVG Export Plug-In . SVG Version: 6.00 Build 0)  -->
<svg version="1.1" id="Calque_1" xmlns="http://www.w3.org/2000/svg" xmlns:xlink="http://www.w3.org/1999/xlink" x="0px" y="0px"
	 viewBox="0 0 35 35" style="enable-background:new 0 0 35 35;" xml:space="preserve">
<style type="text/css">
	.st0{fill:none;stroke:#56DCFC;stroke-width:1.75;stroke-linecap:round;stroke-linejoin:round;stroke-miterlimit:10;}
</style>
<path class="st0" d="M26.6,33.9H8.4c-0.9,0-1.6-0.7-1.6-1.6V2.6c0-0.9,0.7-1.6,1.6-1.6h13c0.4,0,0.8,0.2,1.1,0.5l5.1,5.1
	c0.3,0.3,0.5,0.7,0.5,1.1l0,24.6C28.1,33.2,27.4,33.9,26.6,33.9z"/>
<path class="st0" d="M27.9,7.1h-4.4c-0.8,0-1.5-0.7-1.5-1.5V1.2"/>
<path class="st0" d="M21.8,16.4L21.8,16.4c0,0.8-0.7,1.5-1.5,1.5h-5.6c-0.8,0-1.5-0.7-1.5-1.5v-0.2c0-2.6,2.4-4.7,5.1-4.2
	C20.4,12.4,21.8,14.3,21.8,16.4z"/>
<circle class="st0" cx="17.5" cy="7.6" r="2.1"/>
<line class="st0" x1="10.8" y1="22.3" x2="24.2" y2="22.3"/>
<line class="st0" x1="10.8" y1="25.8" x2="24.2" y2="25.8"/>
<line class="st0" x1="10.8" y1="29.3" x2="17.5" y2="29.3"/>
</svg>
