<?xml version="1.0" encoding="utf-8"?>
<!-- Generator: Adobe Illustrator 25.4.1, SVG Export Plug-In . SVG Version: 6.00 Build 0)  -->
<svg version="1.1" id="Calque_1" xmlns="http://www.w3.org/2000/svg" xmlns:xlink="http://www.w3.org/1999/xlink" x="0px" y="0px"
	 viewBox="0 0 35 35" style="enable-background:new 0 0 35 35;" xml:space="preserve">
<style type="text/css">
	.st0{fill:none;stroke:#56DCFC;stroke-width:1.75;stroke-linecap:round;stroke-linejoin:round;stroke-miterlimit:10;}
</style>
<path class="st0" d="M30.4,24H4.6c-1.8,0-3.3-1.5-3.3-3.3V6.4c0-1.8,1.5-3.3,3.3-3.3h25.8c1.8,0,3.3,1.5,3.3,3.3v14.3
	C33.7,22.5,32.2,24,30.4,24z"/>
<rect x="13.2" y="24" class="st0" width="8.6" height="4.2"/>
<path class="st0" d="M26.4,31.9H8.6c-1,0-1.9-0.8-1.9-1.9v0c0-1,0.8-1.9,1.9-1.9h17.7c1,0,1.9,0.8,1.9,1.9v0
	C28.2,31.1,27.4,31.9,26.4,31.9z"/>
<line class="st0" x1="5.5" y1="7.6" x2="13.4" y2="7.6"/>
<line class="st0" x1="5.5" y1="11.5" x2="19" y2="11.5"/>
<line class="st0" x1="5.5" y1="15.5" x2="10.5" y2="15.5"/>
<line class="st0" x1="5.5" y1="19.5" x2="15.6" y2="19.5"/>
</svg>
