<?xml version="1.0" encoding="utf-8"?>
<!-- Generator: Adobe Illustrator 25.4.1, SVG Export Plug-In . SVG Version: 6.00 Build 0)  -->
<svg version="1.1" id="Calque_1" xmlns="http://www.w3.org/2000/svg" xmlns:xlink="http://www.w3.org/1999/xlink" x="0px" y="0px"
	 viewBox="0 0 35 35" style="enable-background:new 0 0 35 35;" xml:space="preserve">
<style type="text/css">
	.st0{fill:none;stroke:#56DCFC;stroke-width:1.75;stroke-linecap:round;stroke-linejoin:round;stroke-miterlimit:10;}
</style>
<g>
	<path class="st0" d="M30.6,17.1c1-0.4,2.1,0.1,2.6,1.1l0,0c0.4,1-0.1,2.1-1.1,2.6l-6.8,2.8c-2,0.8-4.3-0.1-5.1-2.1l0,0
		c-0.8-2,0.1-4.3,2.1-5.1l8.8-3.7c1-0.4,2.1,0.1,2.6,1.1v0c0.4,1-0.1,2.1-1.1,2.6l-8.7,3.7"/>
	<path class="st0" d="M11.7,25.8L11.7,25.8c-3.8,1.6-8.3-0.2-9.9-4l-0.3-0.8c-0.7-1.6,0.1-3.4,1.7-4.1l4.1-1.7
		c2.9-1.2,6.3,0.2,7.5,3.1l0,0C16,21.2,14.6,24.5,11.7,25.8z"/>
	<line class="st0" x1="22.9" y1="10" x2="23.8" y2="12"/>
	<path class="st0" d="M22.9,16c-2.4-0.2-4.4-1.5-5.2-3.6c-1-2.4-0.2-5,1.6-6.7"/>
	<path class="st0" d="M7,15.2c0.5-1.6,1.4-3.2,2.7-4.7C14.1,5.3,21.4,4.2,25.9,8c1.7,1.4,2.7,3.3,3.2,5.4"/>
	<path class="st0" d="M27.4,22.7c-0.4,0.6-0.8,1.2-1.3,1.8c-4.5,5.2-11.7,6.3-16.2,2.5c-0.2-0.2-0.5-0.4-0.7-0.6"/>
</g>
</svg>
