<?xml version="1.0" encoding="utf-8"?>
<!-- Generator: Adobe Illustrator 25.4.1, SVG Export Plug-In . SVG Version: 6.00 Build 0)  -->
<svg version="1.1" id="Calque_1" xmlns="http://www.w3.org/2000/svg" xmlns:xlink="http://www.w3.org/1999/xlink" x="0px" y="0px"
	 viewBox="0 0 35 35" style="enable-background:new 0 0 35 35;" xml:space="preserve">
<style type="text/css">
	.st0{fill:none;stroke:#56DCFC;stroke-width:1.75;stroke-linecap:round;stroke-linejoin:round;stroke-miterlimit:10;}
</style>
<line class="st0" x1="33.8" y1="17.5" x2="33.8" y2="28.3"/>
<polyline class="st0" points="6.7,6.7 1.2,6.7 1.2,17.5 "/>
<polyline class="st0" points="22.9,6.7 17.5,6.7 17.5,1.2 1.2,1.2 "/>
<polyline class="st0" points="28.3,6.7 28.3,1.2 17.5,1.2 "/>
<polyline class="st0" points="22.9,28.3 22.9,33.8 33.8,33.8 "/>
<polyline class="st0" points="12.1,33.8 1.2,33.8 1.2,17.5 6.7,17.5 6.7,12.1 12.1,12.1 12.1,6.7 "/>
<polyline class="st0" points="22.9,12.1 28.3,12.1 28.3,17.5 33.8,17.5 33.8,1.2 28.3,1.2 "/>
<polyline class="st0" points="22.9,33.8 12.1,33.8 12.1,28.3 6.7,28.3 6.7,22.9 12.1,22.9 12.1,17.5 "/>
<polyline class="st0" points="17.5,28.3 17.5,22.9 17.5,17.5 "/>
<polyline class="st0" points="28.3,28.3 28.3,22.9 22.9,22.9 22.9,17.5 17.5,17.5 17.5,12.1 12.1,12.1 "/>
</svg>
