<?xml version="1.0" encoding="utf-8"?>
<!-- Generator: Adobe Illustrator 25.4.1, SVG Export Plug-In . SVG Version: 6.00 Build 0)  -->
<svg version="1.1" id="Calque_1" xmlns="http://www.w3.org/2000/svg" xmlns:xlink="http://www.w3.org/1999/xlink" x="0px" y="0px"
	 viewBox="0 0 35 35" style="enable-background:new 0 0 35 35;" xml:space="preserve">
<style type="text/css">
	.st0{fill:none;stroke:#56DCFC;stroke-width:1.75;stroke-linecap:round;stroke-linejoin:round;stroke-miterlimit:10;}
</style>
<g>
	<path class="st0" d="M7.8,10.6c0,0.5-0.1,1-0.4,1.5c-0.2,0.5-0.6,0.8-1,1.1c-0.5,0.3-1.1,0.5-1.7,0.5c-1.7,0-3.1-1.4-3.1-3.1
		c0-1.7,1.4-3.1,3.1-3.1c1.3,0,2.3,0.8,2.8,1.8C7.6,9.7,7.8,10.1,7.8,10.6z"/>
	<path class="st0" d="M7.8,24.4c0,0.5-0.1,0.9-0.3,1.3c-0.5,1.1-1.6,1.8-2.8,1.8c-1.7,0-3.1-1.4-3.1-3.1c0-1.7,1.4-3.1,3.1-3.1
		c0.6,0,1.2,0.2,1.7,0.5c0.4,0.3,0.8,0.7,1,1.1C7.6,23.4,7.8,23.9,7.8,24.4z"/>
</g>
<g>
	<path class="st0" d="M20.6,4.7c0,0.9-0.3,1.6-0.9,2.2c-0.6,0.6-1.4,0.9-2.2,0.9c-0.6,0-1.2-0.2-1.7-0.5C15.3,7,14.9,6.6,14.7,6
		c-0.2-0.4-0.3-0.8-0.3-1.3c0-1.7,1.4-3.1,3.1-3.1S20.6,3,20.6,4.7z"/>
</g>
<path class="st0" d="M33.5,17.5c0,1.7-1.4,3.1-3.1,3.1c-0.9,0-1.6-0.3-2.2-0.9c-0.6-0.6-0.9-1.3-0.9-2.2s0.3-1.6,0.9-2.2
	c0.6-0.6,1.4-0.9,2.2-0.9C32.1,14.4,33.5,15.8,33.5,17.5z"/>
<line class="st0" x1="14.7" y1="6" x2="7.5" y2="9.3"/>
<polyline class="st0" points="7.4,12.1 11.3,14.2 14.7,16 "/>
<polyline class="st0" points="6.3,13.2 9.1,17.5 11.3,20.8 15.8,27.7 "/>
<line class="st0" x1="14.7" y1="29" x2="7.5" y2="25.7"/>
<polyline class="st0" points="7.4,22.9 11.3,20.8 14.7,19 "/>
<polyline class="st0" points="6.3,21.8 9.1,17.5 11.3,14.2 15.8,7.3 "/>
<path class="st0" d="M20.6,30.3c0,1.7-1.4,3.1-3.1,3.1s-3.1-1.4-3.1-3.1c0-0.5,0.1-0.9,0.3-1.3c0.2-0.5,0.6-1,1.1-1.3
	c0.5-0.3,1.1-0.5,1.7-0.5c0.9,0,1.7,0.3,2.2,0.9C20.3,28.6,20.6,29.4,20.6,30.3z"/>
<line class="st0" x1="28.1" y1="19.7" x2="19.7" y2="28.1"/>
<line class="st0" x1="27.2" y1="17.5" x2="20.6" y2="17.5"/>
<path class="st0" d="M20.6,17.5c0,1.7-1.4,3.1-3.1,3.1c-1.2,0-2.2-0.7-2.7-1.6v0c-0.2-0.4-0.4-0.9-0.4-1.5s0.1-1,0.4-1.5v0
	c0.5-1,1.6-1.6,2.7-1.6C19.2,14.4,20.6,15.8,20.6,17.5z"/>
<line class="st0" x1="28.1" y1="15.3" x2="19.7" y2="6.9"/>
</svg>
