<?xml version="1.0" encoding="utf-8"?>
<!-- Generator: Adobe Illustrator 25.4.1, SVG Export Plug-In . SVG Version: 6.00 Build 0)  -->
<svg version="1.1" id="Calque_1" xmlns="http://www.w3.org/2000/svg" xmlns:xlink="http://www.w3.org/1999/xlink" x="0px" y="0px"
	 viewBox="0 0 35 35" style="enable-background:new 0 0 35 35;" xml:space="preserve">
<style type="text/css">
	.st0{fill:none;stroke:#56DCFC;stroke-width:1.75;stroke-linecap:round;stroke-linejoin:round;stroke-miterlimit:10;}
</style>
<g id="Logo_1_">
	<path id="white_background" class="st0" d="M30.4,10.9c0,0.3,0,0.6,0,0.9c0,8.8-6.7,19-19,19v0c-3.6,0-7.2-1-10.2-3
		c0.5,0.1,1.1,0.1,1.6,0.1c3,0,5.9-1,8.3-2.9c-2.9-0.1-5.4-1.9-6.2-4.6c1,0.2,2,0.2,3-0.1c-3.1-0.6-5.3-3.4-5.3-6.5c0,0,0-0.1,0-0.1
		c0.9,0.5,2,0.8,3,0.8c-2.9-2-3.8-5.9-2.1-8.9c3.4,4.2,8.4,6.7,13.7,7c-0.5-2.3,0.2-4.7,1.9-6.4c2.7-2.5,6.9-2.4,9.4,0.3
		c1.5-0.3,2.9-0.8,4.2-1.6c-0.5,1.5-1.5,2.9-2.9,3.7c1.3-0.2,2.6-0.5,3.8-1C32.8,8.8,31.7,9.9,30.4,10.9z"/>
</g>
</svg>
