<svg xmlns="http://www.w3.org/2000/svg" viewBox="0 0 163.79 163.79"><defs><style>.cls-1{fill:#fff;}.cls-2{fill:#f2a88a;}.cls-3{fill:#111116;}.cls-4{fill:#ffc4a4;}.cls-5{fill:#301605;}.cls-6{fill:#330505;}.cls-7{fill:#ff3636;}</style></defs><g id="Calque_2" data-name="Calque 2"><g id="Calque_5" data-name="Calque 5"><circle class="cls-1" cx="81.89" cy="81.89" r="81.89"/><path class="cls-2" d="M54.79,100H93.63a0,0,0,0,1,0,0v23.83a19.42,19.42,0,0,1-19.42,19.42h0a19.42,19.42,0,0,1-19.42-19.42V100A0,0,0,0,1,54.79,100Z"/><path class="cls-3" d="M114.55,87.3h0A2.48,2.48,0,0,0,117,84.82V61.12A27.79,27.79,0,0,0,89.25,33.33H80.63V64.07l31.44,1.45v19.3A2.48,2.48,0,0,0,114.55,87.3Z"/><circle class="cls-4" cx="114.51" cy="86.44" r="8.12"/><circle class="cls-2" cx="114.51" cy="86.44" r="3.63"/><path class="cls-4" d="M114.51,69V96.07a32.62,32.62,0,1,1-65.24.22V67.76a32,32,0,0,1,32-32h0A33.25,33.25,0,0,1,114.51,69Z"/><path class="cls-5" d="M75.79,83.72a5.5,5.5,0,0,1-3.52,5.13h0a5.4,5.4,0,0,1-2,.37,5.5,5.5,0,1,1,5.5-5.5Z"/><circle class="cls-5" cx="104.45" cy="83.72" r="5.5"/><circle class="cls-2" cx="84.55" cy="96.33" r="1.47"/><circle class="cls-2" cx="91.69" cy="96.33" r="1.47"/><path class="cls-6" d="M96.12,107.24a10.36,10.36,0,0,1-.64,3.07,10.64,10.64,0,0,1-2.91,4.27,10.85,10.85,0,0,1-3.88,2.21,10.62,10.62,0,0,1-3.83.47H84.8a10.67,10.67,0,0,1-9.26-6.65,9.37,9.37,0,0,1-.48-1.5,10.72,10.72,0,0,1-.28-3.12Z"/><path class="cls-1" d="M96.12,107.24a10.36,10.36,0,0,1-.64,3.07l-20.42-1.2a10.72,10.72,0,0,1-.28-3.12Z"/><path class="cls-7" d="M88.69,116.79a10.62,10.62,0,0,1-3.83.47H84.8a10.67,10.67,0,0,1-9.26-6.65,11.67,11.67,0,0,1,3.3-.26A11.82,11.82,0,0,1,88.69,116.79Z"/><path class="cls-3" d="M114.51,68.26a22.34,22.34,0,0,0-7.85-15.72,24.56,24.56,0,0,0-2.15-1.61h0a21.09,21.09,0,0,0-2.26-1.31l-.75-.36a22.73,22.73,0,0,0-3.92-1.37l-.46-.1h0l-.7-.14c-.29-.06-.59-.11-.89-.15l-1-.12a22.05,22.05,0,0,0-2.31-.12H86.36a33.31,33.31,0,0,0-10.43,1.67c-.74.25-1.47.52-2.19.82A33.16,33.16,0,0,0,53.3,78.55L54,82.73H47V62.85a34.9,34.9,0,0,1,59.58-24.68q.78.77,1.5,1.59l-5.65,1.14c.42.38.82.77,1.22,1.17l.21.21c.48.49,1,1,1.4,1.5l.07.08a37.59,37.59,0,0,1,4.48,6.34h0c.27.48.54,1,.79,1.47A37,37,0,0,1,114.51,68.26Z"/><path class="cls-3" d="M105.25,43.78c-.19.21-.39.41-.59.6l-.34.32A12.72,12.72,0,0,1,102,46.29a12.33,12.33,0,0,1-1.91.84c-.23.08-.47.16-.7.22a12.29,12.29,0,0,1-2.37.42l-.7-.14c-.29-.06-.59-.11-.89-.15l-1-.12a23.15,23.15,0,0,0-3.11-1.17l-2.63-.77a13.33,13.33,0,0,1-1.56-1.36,12.15,12.15,0,0,1-2-2.74,12.37,12.37,0,0,1-1-9.45v0c.07-.23.14-.46.22-.68a12.56,12.56,0,0,1,1.81-3.31,12,12,0,0,1,2-2.08,11.57,11.57,0,0,1,1.91-1.28l10.91-5.94L107,29.45a11.45,11.45,0,0,1,.67,1.42q.12.3.21.6a12.29,12.29,0,0,1,.57,2.58A12.44,12.44,0,0,1,105.25,43.78Z"/><path class="cls-3" d="M117,31.88,115.9,42a10.11,10.11,0,0,1-6.1,8.24c-.27.11-.54.22-.82.31a10.1,10.1,0,0,1-3.22.5,8.85,8.85,0,0,1-1-.06l-.25,0a21.09,21.09,0,0,0-2.26-1.31l-.75-.36a19,19,0,0,0-1.35-2.12l-.38-.51a21,21,0,0,0-3.89-3.87c0-.19-.06-.37-.09-.56a10.4,10.4,0,0,1,.76-5.38l.11-.24c.13-.26.26-.52.41-.78a10.18,10.18,0,0,1,2.55-2.91,10.06,10.06,0,0,1,7.31-2.09l.76.08.82.09.15,0Z"/><path class="cls-3" d="M94.68,39.14a10.66,10.66,0,0,1-5.1,6.07,9.26,9.26,0,0,1-1.11.51l-.42-.13a33.31,33.31,0,0,0-10.43-1.68,10.88,10.88,0,0,1-1.31-1.32,10.71,10.71,0,0,1-2-9.81,10.58,10.58,0,0,1,1.57-3.2l2.39-3.33,3.83-5.33,8.66,6.22.38.29a10.65,10.65,0,0,1,3.53,11.71Z"/><circle class="cls-4" cx="49.27" cy="86.44" r="8.12"/><circle class="cls-2" cx="49.27" cy="86.44" r="3.63"/><path class="cls-3" d="M112.21,44.48h0a4.72,4.72,0,0,1,4.72,4.72v4.72a0,0,0,0,1,0,0h-4.72a4.72,4.72,0,0,1-4.72-4.72v0A4.72,4.72,0,0,1,112.21,44.48Z" transform="translate(16.35 125.51) rotate(-62.2)"/><path class="cls-3" d="M83.1,33.29a6.92,6.92,0,0,1,0,2,6.58,6.58,0,0,1-1.15,2.8,7,7,0,0,1-.48.6l-.27,0a20.54,20.54,0,0,0-6.32,2,7.92,7.92,0,0,1-1.1-.38,6.72,6.72,0,0,1-3.86-5,7,7,0,0,1,0-2.23l.41-2.54L71,26.57l6.59,1.08.3.06a6.6,6.6,0,0,1,3.52,2A6.72,6.72,0,0,1,83.1,33.29Z"/><rect class="cls-3" x="62.82" y="70.76" width="14.89" height="4.73" rx="2.36"/><rect class="cls-3" x="97.02" y="70.76" width="14.89" height="4.73" rx="2.36"/></g></g></svg>