<?xml version="1.0" encoding="UTF-8"?><svg id="a" xmlns="http://www.w3.org/2000/svg" xmlns:xlink="http://www.w3.org/1999/xlink" viewBox="0 0 2500 2500"><defs><clipPath id="c"><polygon points="50.151 43.482 69.196 43.482 50.151 62.527 50.151 43.482" fill="none"/></clipPath><clipPath id="b"><polygon points="12.06 5.391 -6.985 5.391 12.06 -13.654 12.06 5.391" clip-path="url(#c)" fill="none"/></clipPath></defs><path d="M560.375,2218.783L60.435,1352.829c-39.121-67.759-39.121-151.243,0-219.002l499.94-865.934c39.127-67.77,111.438-109.515,189.692-109.511h999.88c78.247.002,150.549,41.747,189.672,109.511l499.94,865.934c39.128,67.764,39.128,151.257,0,219.021l-499.94,865.934c-39.128,67.756-111.43,109.494-189.672,109.492h-999.88c-78.255.009-150.568-41.738-189.692-109.511v.019Z" fill="#4386fa"/><path d="M2272.65,1641.94l-333.03,576.84c-39.13,67.76-111.43,109.5-189.67,109.49h-39.54l-764.82-764.82,39.48-39.48,85.83,64.09s164.13,51.7,188.91,51.7,103.74-20.49,111.48-25.37c7.74-4.89,131.61-65.35,134.71-74.33,3.1-8.97,74.56-100.64,79.2-106.83,4.65-6.2,46.22-106.84,46.22-106.84v-130.07l-30.97-140.9-62.92-83.9,32.35-32.35,702.77,702.77Z" fill="#3c79e1"/><g clip-path="url(#b)"><path d="M2301.862,1671.477l-735.226-735.264-316.629-84.733-284.404,105.702-109.834,286.156,88.313,318.609,779.678,779.678,165.447-7.352,412.655-662.797Z" isolation="isolate" opacity=".07"/></g><path d="M1250.007,801.562c-243.971,0-441.757,197.786-441.757,441.776s197.786,441.757,441.757,441.757,441.737-197.786,441.737-441.757-197.786-441.776-441.737-441.776M1250.007,1578.517c-185.121,0-335.198-150.077-335.198-335.198s150.077-335.179,335.198-335.179,335.198,150.077,335.198,335.198-150.077,335.198-335.198,335.198" fill="#fff"/><path d="M1040.318,1226.273v137.317c20.317,34.88,48.982,64.167,83.419,85.228v-222.545h-83.419ZM1205.726,1110.516v369.689c14.189,2.609,28.701,4.19,43.614,4.19,13.598,0,26.854-1.428,39.862-3.6v-370.279h-83.476ZM1378.868,1283.333v163.066c34.985-22.247,63.711-53.057,83.457-89.513v-73.534l-83.457-.019ZM1567.893,1515.439l-45.766,45.804c-8.071,8.089-8.071,21.184,0,29.273l173.598,173.541c8.089,8.071,21.184,8.071,29.273,0l45.766-45.747c8.017-8.103,8.017-21.15,0-29.254l-173.617-173.617c-8.095-8.038-21.159-8.038-29.254,0" fill="#fff"/></svg>