<?xml version="1.0" encoding="utf-8"?>
<!-- Generator: Adobe Illustrator 25.4.1, SVG Export Plug-In . SVG Version: 6.00 Build 0)  -->
<svg version="1.1" id="Calque_1" xmlns="http://www.w3.org/2000/svg" xmlns:xlink="http://www.w3.org/1999/xlink" x="0px" y="0px"
	 viewBox="0 0 512 512" style="enable-background:new 0 0 512 512;" xml:space="preserve">
<style type="text/css">
	.st0{fill:url(#SVGID_1_);}
	.st1{fill:url(#SVGID_00000107559189678745217640000015630497542121759413_);stroke:#FFFFFF;}
</style>
<linearGradient id="SVGID_1_" gradientUnits="userSpaceOnUse" x1="55.546" y1="417.1349" x2="494.2086" y2="68.9243" gradientTransform="matrix(1 0 0 -1 0 514)">
	<stop  offset="0" style="stop-color:#9013FE"/>
	<stop  offset="1" style="stop-color:#6610F2"/>
</linearGradient>
<path class="st0" d="M60.4,108.3C59.4,81.1,80.6,56,109.3,56h293.5c28.6,0,49.8,25.1,48.9,52.3c-0.9,26.1,0.3,60,8.8,87.6
	c8.5,27.7,23,45.2,46.6,47.4v25.5c-23.6,2.2-38,19.7-46.6,47.4c-8.5,27.6-9.7,61.4-8.8,87.6c0.9,27.2-20.2,52.3-48.9,52.3H109.3
	c-28.6,0-49.8-25.1-48.9-52.3c0.9-26.1-0.3-60-8.8-87.6C43,288.5,28.6,271,5,268.7v-25.5c23.6-2.2,38-19.7,46.6-47.4
	C60.1,168.2,61.3,134.4,60.4,108.3z"/>
<linearGradient id="SVGID_00000076602326030137422620000016447191033796539063_" gradientUnits="userSpaceOnUse" x1="190.4528" y1="347.8908" x2="288.5056" y2="182.0621" gradientTransform="matrix(1 0 0 -1 0 514)">
	<stop  offset="0" style="stop-color:#FFFFFF"/>
	<stop  offset="1" style="stop-color:#F1E5FC"/>
</linearGradient>
<path style="fill:url(#SVGID_00000076602326030137422620000016447191033796539063_);stroke:#FFFFFF;" d="M266.9,362.3
	c46.4,0,74.3-22.7,74.3-60.2c0-28.3-19.9-48.8-49.5-52V249c21.8-3.5,38.8-23.7,38.8-46.3c0-32.1-25.4-53.1-64-53.1h-87v212.8H266.9z
	 M213.3,176.6h45c24.5,0,38.4,10.9,38.4,30.7c0,21.1-16.2,32.9-45.5,32.9h-37.9C213.3,240.1,213.3,176.6,213.3,176.6z M213.3,335.4
	v-70H258c32,0,48.6,11.8,48.6,34.8c0,23-16.2,35.2-46.7,35.2H213.3z"/>
</svg>
