<?xml version="1.0" encoding="utf-8"?>
<!-- Generator: Adobe Illustrator 25.4.1, SVG Export Plug-In . SVG Version: 6.00 Build 0)  -->
<svg version="1.1"
	 id="svg2" xmlns:cc="http://creativecommons.org/ns#" xmlns:dc="http://purl.org/dc/elements/1.1/" xmlns:inkscape="http://www.inkscape.org/namespaces/inkscape" xmlns:rdf="http://www.w3.org/1999/02/22-rdf-syntax-ns#" xmlns:sodipodi="http://sodipodi.sourceforge.net/DTD/sodipodi-0.dtd" xmlns:svg="http://www.w3.org/2000/svg"
	 xmlns="http://www.w3.org/2000/svg" xmlns:xlink="http://www.w3.org/1999/xlink" x="0px" y="0px" viewBox="0 0 486.7 486.7"
	 style="enable-background:new 0 0 486.7 486.7;" xml:space="preserve">
<style type="text/css">
	.st0{fill:#973497;}
	.st1{fill:#602276;}
	.st2{fill:#7B2487;}
	.st3{fill:#FFFFFF;}
</style>
<sodipodi:namedview  bordercolor="#666666" borderopacity="1" gridtolerance="10" guidetolerance="10" id="namedview4" inkscape:pageopacity="0" inkscape:pageshadow="2" inkscape:window-height="480" inkscape:window-width="640" objecttolerance="10" pagecolor="#ffffff">
	</sodipodi:namedview>
<g id="g10" transform="matrix(1.3333333,0,0,-1.3333333,0,486.66667)" inkscape:groupmode="layer" inkscape:label="ink_ext_XXXXXX">
	<g id="g12" transform="scale(0.1)">
		<path id="path14" class="st0" d="M3416.3,2561.9c0,60.1-12.9,113.3-38.9,158.9c-25.5,44.8-63.8,82.4-115.2,112.2
			c-423.7,244.3-847.8,487.9-1271.4,732.4c-114.2,65.9-224.9,63.5-338.2-3.4c-168.6-99.5-1013-583.2-1264.6-728.9
			c-103.6-60-154-151.8-154.1-271.1c-0.2-491.3,0-982.6-0.2-1473.9c0-58.8,12.3-110.9,37.2-155.9c25.7-46.2,169.9-14.7,222.5-45.1
			C745,741.4,1466.8,406,1635.4,306.5c113.4-66.9,152.9-42.7,267.1,23.2c423.6,244.6,822.7,293.8,1246.5,538.1
			c52.5,30.4,204.8,18.3,230.4,64.5c24.8,44.9,37.2,97,37.2,155.9C3416.5,1088.2,3416.5,2070.5,3416.3,2561.9"/>
		<path id="path16" class="st1" d="M1830.1,1829.8l-1559-897.6c25.5-46.2,64.3-84.9,116.9-115.3C639.6,671.2,1484,187.5,1652.6,88
			c113.4-66.9,224.1-69.3,338.3-3.4c423.6,244.6,847.7,488.1,1271.5,732.4c52.5,30.4,91.3,69,116.9,115.2L1830.1,1829.8"/>
		<path id="path18" class="st1" d="M1368.3,1563.9c90.7-158.4,261.3-265.2,456.9-265.2c196.8,0,368.3,108.2,458.6,268.2
			l-453.7,262.8L1368.3,1563.9"/>
		<path id="path20" class="st2" d="M3416.3,2561.9c0,60.1-12.9,113.3-38.9,158.9l-1547.4-891l1549.3-897.5
			c24.8,44.9,37.2,97,37.2,155.9C3416.5,1088.2,3416.5,2070.5,3416.3,2561.9"/>
		<path id="path22" class="st3" d="M2473.5,1457c-97.7,56.6-219.5,43-305-30.8c-92.1-79.5-212.1-127.6-343.3-127.6
			c-195.6,0-366.2,106.8-456.9,265.2c-45.6,79.7-71.2,172.4-69.3,271.2c5.4,287.1,244.7,519.2,531.9,516.2
			c128.9-1.4,246.6-49.1,337.4-127.3c83.6-72,204-82,299.6-27l6.7,3.8c155.3,89.4,177.7,306.1,42.2,423.4
			c-185.4,160.5-427.1,257.7-691.6,257.7c-585-0.1-1062.3-482.2-1056.7-1067.1c1.8-187.7,52.5-363.6,139.9-515.7
			c182.4-317.3,524.7-530.9,916.9-530.9c266.5,0,510,98.7,695.9,261.5c134.9,118.1,114.1,333.8-41,423.7L2473.5,1457z"/>
		<path class="st3" d="M2832.8,2077.7v-511.9c0-31.5-25.6-57.1-57.1-57.1l0,0c-31.5,0-57.1,25.6-57.1,57.1v511.9
			c0,31.5,25.6,57.1,57.1,57.1l0,0C2807.2,2134.8,2832.8,2109.2,2832.8,2077.7z"/>
		<path class="st3" d="M3086.1,2077.7v-511.9c0-31.5-25.6-57.1-57.1-57.1l0,0c-31.5,0-57.1,25.6-57.1,57.1v511.9
			c0,31.5,25.6,57.1,57.1,57.1l0,0C3060.5,2134.8,3086.1,2109.2,3086.1,2077.7z"/>
		<path class="st3" d="M3158.3,1891.3h-511.9c-31.5,0-57.1,25.6-57.1,57.1l0,0c0,31.5,25.6,57.1,57.1,57.1h511.9
			c31.5,0,57.1-25.6,57.1-57.1l0,0C3215.4,1916.9,3189.8,1891.3,3158.3,1891.3z"/>
		<path class="st3" d="M3158.3,1638h-511.9c-31.5,0-57.1,25.6-57.1,57.1l0,0c0,31.5,25.6,57.1,57.1,57.1h511.9
			c31.5,0,57.1-25.6,57.1-57.1l0,0C3215.4,1663.6,3189.8,1638,3158.3,1638z"/>
	</g>
</g>
</svg>
