<?xml version="1.0" encoding="utf-8"?>
<!-- Generator: Adobe Illustrator 25.4.1, SVG Export Plug-In . SVG Version: 6.00 Build 0)  -->
<svg version="1.1" id="Calque_1" xmlns="http://www.w3.org/2000/svg" xmlns:xlink="http://www.w3.org/1999/xlink" x="0px" y="0px"
	 viewBox="0 0 232.8 232.8" style="enable-background:new 0 0 232.8 232.8;" xml:space="preserve">
<style type="text/css">
	.st0{fill:#2553D6;}
	.st1{fill:#DD2A34;}
	.st2{fill:#2CC65C;}
	.st3{fill:#B4BFD1;}
</style>
<g id="Calque_2_00000115484477379062630420000016928006501163860654_">
	<g id="Calque_6">
		<path class="st0" d="M123.8,108.8c0.1,1-0.3,1.9-1.1,2.5l-54.6,40.4l-9.1,6.7L5.6,197.8c-1.2,0.9-2.9,0.7-3.9-0.5
			c-0.5-0.6-0.7-1.4-0.6-2.2c0.4-2.5,1.3-4.7,2.5-6.9L98.8,23.7c2.7-4.6,7.1-8.1,12.4-9.4c1.5-0.4,3,0.5,3.3,2
			c0,0.1,0.1,0.3,0.1,0.4L123.8,108.8z"/>
		<path class="st1" d="M226.2,208.3L141.7,178c-1-0.4-1.7-1.3-1.8-2.3l-6.1-61l-1.1-10.9l-8.4-83.5c-0.1-1.5,1-2.9,2.5-3
			c0.7-0.1,1.4,0.1,2,0.6c2,1.6,3.7,3.6,4.9,5.7l32.1,55.6l4.7,8.2l58.2,100.8c3.3,5.6,3.7,12.6,0.8,18.5
			C229,208.1,227.6,208.8,226.2,208.3z"/>
		<path class="st2" d="M212.3,213.2c1.4,0.5,2.2,2.1,1.6,3.5c-0.4,1.1-1.4,1.8-2.5,1.8H21.2c-5.4,0-10.7-2.2-14.5-6.1
			c-1-1.1-1-2.9,0.2-3.9c0.1-0.1,0.2-0.1,0.2-0.2L68.5,163c0.7-0.5,1.7-0.7,2.6-0.4l60.3,21.7l9.8,3.6L212.3,213.2z"/>
		<path class="st3" d="M126.3,172.5l-42.7-15.3c-1.4-0.5-2.2-2.1-1.7-3.5c0.2-0.5,0.5-1,0.9-1.3l38.3-28.3c1.2-0.9,2.9-0.7,3.8,0.6
			c0.3,0.4,0.5,0.9,0.5,1.4l4.4,43.6c0.2,1.5-0.9,2.9-2.4,3C127.1,172.7,126.6,172.6,126.3,172.5z"/>
	</g>
</g>
</svg>
