<?xml version="1.0" encoding="utf-8"?>
<!-- Generator: Adobe Illustrator 25.4.1, SVG Export Plug-In . SVG Version: 6.00 Build 0)  -->
<svg version="1.1" id="Layer_1" xmlns="http://www.w3.org/2000/svg" xmlns:xlink="http://www.w3.org/1999/xlink" x="0px" y="0px"
	 viewBox="0 0 344.4 344.4" style="enable-background:new 0 0 344.4 344.4;" xml:space="preserve">
<style type="text/css">
	.st0{fill:#2A528C;}
	.st1{opacity:0.4;fill:#5884BA;enable-background:new    ;}
	.st2{fill:#5884BA;}
	.st3{fill:#FFFFFF;}
</style>
<path class="st0" d="M318.3,256.5c2.4-4.1,3.8-8.7,3.8-12.8V100.6c0-4.1-1.5-8.7-3.8-12.8l-71.2,23.4l-88.5,61l88.5,61.7
	L318.3,256.5z"/>
<path class="st1" d="M318.3,256.5c2.4-4.1,3.8-8.7,3.8-12.8V100.6c0-4.1-1.5-8.7-3.8-12.8l-71.2,23.4l-88.5,61l88.5,61.7
	L318.3,256.5z"/>
<path class="st0" d="M185.2,337.8l124-71.6c3.6-2.1,6.8-5.6,9.2-9.7l-146.2-84.3l-77.1,25.3l-69,59c2.4,4.1,5.6,7.6,9.2,9.7
	l124,71.6C166.4,341.9,178,341.9,185.2,337.8z"/>
<path class="st2" d="M318.3,87.8c-2.4-4.1-5.6-7.6-9.2-9.7L185.2,6.5c-7.1-4.1-18.8-4.1-26,0l-124,71.6c-7.1,4.1-13,14.2-13,22.5
	v143.1c0,4.1,1.5,8.7,3.8,12.8l146.2-84.3L318.3,87.8z"/>
<g>
	<path class="st3" d="M165.2,272.1c-55.1,0-100-44.8-100-100s44.8-100,100-100c24.3,0,47.5,8.9,65.4,24.4
		c12.8,11.1,10.8,31.5-3.9,40l-0.8,0.5c-9,5.2-20.3,3.9-28.2-2.9c-8.9-7.7-20.5-12.1-32.5-12.1c-27.6,0-50,22.4-50,50s22.4,50,50,50
		c12.1,0,23.6-4.4,32.5-12.1c7.9-6.8,19.2-8.1,28.2-2.9l0.8,0.5c14.7,8.5,16.7,29,3.9,40C212.7,263.2,189.5,272.1,165.2,272.1z"/>
</g>
<g>
	<path class="st3" d="M249.3,165.4h-6.8v-6.8c0-3.7-3-6.8-6.8-6.8l0,0c-3.7,0-6.8,3-6.8,6.8v6.8h-6.8c-3.7,0-6.8,3-6.8,6.8l0,0
		c0,3.7,3,6.8,6.8,6.8h6.8v6.8c0,3.7,3,6.8,6.8,6.8l0,0c3.7,0,6.8-3,6.8-6.8V179h6.8c3.7,0,6.8-3,6.8-6.8l0,0
		C256.1,168.4,253,165.4,249.3,165.4z"/>
</g>
<g>
	<path class="st3" d="M300,165.4h-6.8v-6.8c0-3.7-3-6.8-6.8-6.8l0,0c-3.7,0-6.8,3-6.8,6.8v6.8h-6.8c-3.7,0-6.8,3-6.8,6.8l0,0
		c0,3.7,3,6.8,6.8,6.8h6.8v6.8c0,3.7,3,6.8,6.8,6.8l0,0c3.7,0,6.8-3,6.8-6.8V179h6.8c3.7,0,6.8-3,6.8-6.8l0,0
		C306.8,168.4,303.8,165.4,300,165.4z"/>
</g>
</svg>
