<?xml version="1.0" encoding="utf-8"?>
<!-- Generator: Adobe Illustrator 25.4.1, SVG Export Plug-In . SVG Version: 6.00 Build 0)  -->
<svg version="1.1" id="Calque_1" xmlns="http://www.w3.org/2000/svg" xmlns:xlink="http://www.w3.org/1999/xlink" x="0px" y="0px"
	 viewBox="0 0 209.9 209.9" style="enable-background:new 0 0 209.9 209.9;" xml:space="preserve">
<style type="text/css">
	.st0{fill:#0069DB;}
	.st1{fill:#2C8BF2;}
	.st2{fill:#FFFFFF;}
</style>
<g id="Calque_2_00000176761978675279295730000002595306755628987047_">
	<g id="Calque_6">
		<path class="st0" d="M13.5,18l13.1,158.4c0.5,6.1,4.7,11.3,10.6,13.1l57.5,17.2c6.7,2,13.9,2,20.6,0l57.5-17.2
			c5.9-1.7,10.1-6.9,10.7-13.1l13-158.4c0.7-8.2-5.4-15.4-13.6-16.1c-0.4,0-0.8-0.1-1.2-0.1H28.3c-8.2,0-14.9,6.7-14.9,14.9
			C13.4,17.1,13.4,17.6,13.5,18z"/>
		<path class="st1" d="M179.4,24.1l-13.2,141c-0.3,3.4-2.6,6.2-5.9,7.2l-48.5,14.5c-4.4,1.3-9.1-1.2-10.5-5.6
			c-0.2-0.8-0.4-1.6-0.4-2.4V23.3c0-4.6,3.7-8.4,8.4-8.4H171c4.6,0,8.4,3.8,8.4,8.4C179.4,23.6,179.4,23.9,179.4,24.1z"/>
		<path class="st2" d="M105,84.9h44.6c3.4,0,6.1,2.7,6.1,6.1c0,0.2,0,0.3,0,0.5l-1.4,16.2l-1.8,21.6l-1.8,21.4
			c-0.2,2.5-1.9,4.5-4.2,5.3l-20.9,6.7l-22,7.1c-1.2,0.4-2.5,0.4-3.7,0l-23.1-7.2l-20.9-6.5c-2.4-0.7-4-2.8-4.2-5.3l-1.8-21.4
			l-0.3-3.9c-0.3-3.4,2.2-6.3,5.6-6.6c0.2,0,0.3,0,0.5,0h12.6c3.2,0,5.9,2.5,6.1,5.7l0.9,12.7l26.6,8.4l25.6-8.2l2-29.7h-76
			c-3.2,0-5.8-2.4-6.1-5.6l-1-12.9c-0.2-2.6,1.3-5.1,3.7-6.1l51.9-22H49.6c-3.2,0-5.8-2.4-6.1-5.6l-1-11.6c-0.3-3.4,2.2-6.3,5.6-6.6
			c0.2,0,0.3,0,0.5,0h105c3.4,0,6.1,2.7,6.1,6.1c0,0.2,0,0.3,0,0.5l-1.1,13.6c-0.2,2.2-1.6,4.2-3.6,5.1L105,84.9z"/>
	</g>
</g>
</svg>
