<?xml version="1.0" encoding="UTF-8"?><svg id="a" xmlns="http://www.w3.org/2000/svg" viewBox="0 0 2548.012 2548.012"><path d="M2060.002,1793.464l-207.306-136.739-172.939,288.872-201.137-58.81-177.1,270.307,9.079,85.087,962.907-177.421-55.929-601.635-157.575,330.339ZM1162.016,1534.07l154.49-21.243c24.997,11.232,42.398,15.51,72.371,23.134,46.676,12.164,100.714,23.833,180.738-16.499,18.624-9.225,57.414-44.697,73.098-64.921l632.975-114.827,64.572,781.5-1084.398,195.433-93.846-782.577ZM2337.816,1252.473l-62.477,11.902L2155.303,24.206,110.006,261.368l251.974,2044.773,239.403-34.745c-19.118-27.295-48.887-60.323-99.724-102.605-70.508-58.578-45.57-158.069-3.987-220.895,55.027-106.155,338.545-241.061,322.482-410.741-5.762-61.691-15.568-142.006-72.836-197.034-2.153,22.843,1.717,44.843,1.717,44.843,0,0-23.513-30.002-35.24-70.916-11.64-15.685-20.777-20.69-33.144-41.642-8.817,24.24-7.653,52.35-7.653,52.35,0,0-19.235-45.454-22.348-83.807-11.407,17.169-14.288,49.789-14.288,49.789,0,0-24.997-71.643-19.293-110.229-11.407-33.581-45.221-100.219-35.647-251.683,62.419,43.737,199.827,33.348,253.371-45.57,17.78-26.132,29.944-97.484-8.875-238.064-24.938-90.151-86.688-224.387-110.753-275.312l-2.881,2.066c12.687,41.03,38.848,127.049,48.887,168.749,30.38,126.496,38.528,170.524,24.269,228.84-12.135,50.692-41.234,83.865-115.002,120.938-73.768,37.189-171.659-53.311-177.857-58.316-71.672-57.093-127.107-150.241-133.305-195.491-6.431-49.528,28.547-79.267,46.181-119.774-25.229,7.217-53.369,20.021-53.369,20.021,0,0,33.581-34.745,74.99-64.805,17.14-11.349,27.208-18.566,45.279-33.581-26.161-.436-47.403.32-47.403.32,0,0,43.62-23.571,88.841-40.739-33.086-1.455-64.747-.233-64.747-.233,0,0,97.338-43.533,174.22-75.484,52.874-21.679,104.526-15.277,133.538,26.684,38.091,54.969,78.103,84.825,162.9,103.333,52.059-23.076,67.889-34.949,133.305-52.758,57.588-63.321,102.809-71.527,102.809-71.527,0,0-22.436,20.573-28.43,52.903,32.65-25.724,68.442-47.2,68.442-47.2,0,0-13.851,17.111-26.772,44.29l2.997,4.452c38.091-22.843,82.876-40.856,82.876-40.856,0,0-12.804,16.179-27.819,37.131,28.721-.233,86.979,1.222,109.589,3.783,133.48,2.939,161.183-142.559,212.398-160.805,64.136-22.901,92.799-36.753,202.097,70.596,93.788,92.159,167.061,257.124,130.686,294.081-30.496,30.671-90.674-11.96-157.371-95.098-35.24-44.028-61.895-96.058-74.379-162.201-10.534-55.813-51.535-88.201-51.535-88.201,0,0,23.804,52.903,23.804,99.637,0,25.52,3.201,120.938,44.115,174.481-4.045,7.828-5.936,38.732-10.418,44.639-47.607-57.53-149.834-98.706-166.508-110.841,56.424,46.239,186.121,152.453,235.94,254.244,47.112,96.262,19.351,184.492,43.184,207.335,6.78,6.547,101.325,124.343,119.512,183.531,31.719,103.158,1.892,211.554-39.634,278.804l-115.962,18.071c-16.965-4.714-28.401-7.071-43.62-15.888,8.381-14.841,25.055-51.856,25.229-59.48l-6.547-11.494c-36.084,51.128-96.553,100.772-146.779,129.29-65.736,37.247-141.512,31.515-190.835,16.238-139.998-43.184-272.373-137.787-304.295-162.638,0,0-.989,19.846,5.034,24.298,35.298,39.808,116.166,111.83,194.327,162.027l-166.625,18.333,78.773,613.362c-34.92,5.005-40.361,7.449-78.598,12.891-33.697-119.047-98.153-196.772-168.603-242.051-62.128-39.925-147.826-48.916-229.858-32.679l-5.267,6.111c57.035-5.936,124.372,2.328,193.542,46.123,67.889,42.922,122.597,153.792,142.734,220.546,25.782,85.32,43.62,176.577-25.782,273.304-49.382,68.762-193.542,106.767-309.998,24.56,31.108,50.022,73.156,90.936,129.755,98.648,84.04,11.407,163.802-3.172,218.713-59.538,46.88-48.189,71.731-148.961,65.183-255.087l74.175-10.767,26.772,190.486,1227.946-147.855-100.19-977.165ZM1590.741,735.168c-3.434,7.828-8.817,12.949-.727,38.412l.495,1.455,1.28,3.288,3.376,7.624c14.579,29.798,30.584,57.908,57.326,72.254,6.926-1.164,14.084-1.95,21.505-2.328,25.113-1.106,40.972,2.881,51.041,8.293.902-5.005,1.106-12.338.553-23.134-1.95-37.742,7.479-101.936-65.067-135.721-27.383-12.717-65.794-8.788-78.598,7.071,2.328.291,4.423.786,6.053,1.339,19.351,6.78,6.227,13.444,2.765,21.446M1794.06,1087.332c-9.516-5.238-53.98-3.172-85.233.553-59.538,7.013-123.819,27.674-137.903,38.673-25.608,19.788-13.968,54.3,4.947,68.471,53.049,39.634,99.55,66.202,148.641,59.742,30.147-3.958,56.715-51.681,75.543-94.981,12.891-29.827,12.891-62.011-5.995-72.458M1266.95,781.902c16.79-15.947-83.632-36.898-161.561,16.238-57.472,39.197-59.305,123.237-4.278,170.873,5.5,4.714,10.039,8.061,14.288,10.796,16.063-7.566,34.367-15.219,55.435-22.057,35.589-11.553,65.183-17.518,89.511-20.69,11.64-13.008,25.171-35.909,21.796-77.376-4.598-56.25-47.229-47.316-15.19-77.783" fill="#632ca6"/></svg>