<?xml version="1.0" encoding="UTF-8"?><svg id="a" xmlns="http://www.w3.org/2000/svg" viewBox="0 0 2269 2269"><path d="M2223.036,942.854c-6.178-5.086-61.788-46.77-181.238-46.77-30.894,0-62.82,3.052-93.71,8.135-22.655-155.557-153.437-230.792-158.586-234.857l-31.922-18.304-20.595,29.487c-25.744,39.652-45.31,84.387-56.638,130.139-21.623,88.453-8.239,171.822,37.072,242.988-54.577,30.504-143.138,37.621-161.672,38.635H93.469c-38.1,0-68.994,30.504-68.994,68.122-2.057,126.07,19.566,252.14,63.848,371.093,50.456,130.139,125.632,226.726,222.431,285.696,109.155,66.083,287.304,103.701,488.108,103.701,90.621,0,181.238-8.131,270.83-24.4,124.6-22.369,244.054-65.07,354.241-127.087,90.299-51.683,171.666-117.599,240.965-195.205,116.365-129.122,185.359-273.492,235.815-401.597h20.595c126.664,0,204.925-49.818,248.175-92.522,28.833-26.435,50.456-58.966,65.905-95.566l9.271-26.435-21.623-15.252Z" fill="#0091e2"/><path d="M229.404,1050.62h195.655c9.271,0,17.509-7.114,17.509-17.279v-172.84c0-9.152-7.21-17.283-17.509-17.283h-195.655c-9.267,0-17.506,7.114-17.506,17.283v172.84c1.028,10.166,8.239,17.283,17.506,17.283v-.004ZM499.202,1050.62h195.658c9.267,0,17.506-7.114,17.506-17.279v-172.84c0-9.152-7.21-17.283-17.506-17.283h-195.662c-9.267,0-17.506,7.114-17.506,17.283v172.84c1.032,10.166,8.242,17.283,17.506,17.283M774.146,1050.624h195.658c9.267,0,17.506-7.117,17.506-17.283v-172.84c0-9.152-7.21-17.283-17.506-17.283h-195.658c-9.267,0-17.506,7.114-17.506,17.283v172.84c0,10.166,7.21,17.283,17.506,17.283ZM1044.977,1050.624h195.658c9.267,0,17.506-7.117,17.506-17.283v-172.84c0-9.152-7.21-17.283-17.506-17.283h-195.658c-9.267,0-17.506,7.114-17.506,17.283v172.84c0,10.166,8.239,17.283,17.506,17.283ZM499.202,803.566h195.655c9.267,0,17.506-8.131,17.506-17.283v-172.84c0-9.152-7.21-17.287-17.506-17.287h-195.658c-9.267,0-17.506,7.117-17.506,17.287v172.84c1.032,9.148,8.242,17.283,17.506,17.283M774.146,803.566h195.658c9.267,0,17.506-8.131,17.506-17.283v-172.84c0-9.152-7.21-17.287-17.506-17.287h-195.658c-9.267,0-17.506,7.117-17.506,17.287v172.84c0,9.148,7.21,17.283,17.506,17.283M1044.977,803.566h195.658c9.267,0,17.506-8.131,17.506-17.283v-172.84c0-9.152-8.242-17.287-17.506-17.287h-195.658c-9.267,0-17.506,7.117-17.506,17.287v172.84c0,9.148,8.239,17.283,17.506,17.283M1044.977,555.491h195.658c9.267,0,17.506-7.117,17.506-17.283v-172.84c0-9.152-8.242-17.287-17.506-17.287h-195.658c-9.267,0-17.506,7.117-17.506,17.287v172.84c0,9.148,8.239,17.283,17.506,17.283M1317.864,1050.624h195.658c9.267,0,17.506-7.117,17.506-17.283v-172.84c0-9.152-7.206-17.283-17.506-17.283h-195.655c-9.271,0-17.509,7.114-17.509,17.283v172.84c1.032,10.166,8.242,17.283,17.509,17.283" fill="#0091e2"/></svg>