<?xml version="1.0" encoding="utf-8"?>
<!-- Generator: Adobe Illustrator 26.5.0, SVG Export Plug-In . SVG Version: 6.00 Build 0)  -->
<svg version="1.1" id="Calque_1" xmlns="http://www.w3.org/2000/svg" xmlns:xlink="http://www.w3.org/1999/xlink" x="0px" y="0px"
	 viewBox="0 0 800 800" style="enable-background:new 0 0 800 800;" xml:space="preserve">
<path d="M355.9,219.8c9-16-37.3-21.6-6.1-5.7C352.7,215.1,352.1,220.9,355.9,219.8z M103.2,83.6c-19.7-25.7,37,4.3,17-22.6
	C103.4,47.6,87.2,76.1,103.2,83.6z M144.5,116c28-3.7-7.1-12-5.6-0.3L144.5,116z M122.4,110.7C128.4,102.5,111.8,114.8,122.4,110.7z
	 M166.9,159.7c17.4,0.4-7.5-23.3,13.2-12.6c-3.4-11.1-24.1-13.2-34.2-17.6C140.2,139.7,157.5,159.9,166.9,159.7L166.9,159.7z
	 M112.9,157.5c14.9-11.2,51.3,6.6,27.9-11.1C138.5,144.4,89.6,159.9,112.9,157.5L112.9,157.5z M97.6,186.7
	c26-8.8,61.6-18.8,73.9,4.4c-12.5-15-5-29.9,6.8-7.9c16.7,22.3,25-10.1,14.1-17.6c12.4,15.4,26.4,22.6,8.3,1
	c19.7-23.7-39.5,3.1-53,2.8C141.3,172.3,80.8,184.8,97.6,186.7L97.6,186.7z M146.1,267.7C152.4,259.8,137.4,265.6,146.1,267.7z
	 M130.9,308.3C129.3,298.9,126.4,313.2,130.9,308.3z M118,301.8c14.5-1,22.8-16.1-2.8-15.2c-39.7-4.1,35,13.6-5.1,8.5
	C104.7,298.7,117.8,302.8,118,301.8L118,301.8z M738.4,695.8c18,0,54.5-5.6,15.4-5.6C747.6,691.2,717.9,691,738.4,695.8L738.4,695.8
	z M652.1,645.2C654.1,632,643.4,646.4,652.1,645.2z M719.7,691.4C720.1,679.9,709.9,696.5,719.7,691.4z M54.3,275
	C67.2,265.2,39.1,271.3,54.3,275z M103.4,309.9C111.3,301.5,86.3,306.5,103.4,309.9z M86.8,305.3C109.3,291.5,62.8,293.3,86.8,305.3
	z M253.3,200.4c7.5-19.8,29.3-7.9,3.5-4C257.3,198.6,256,206.7,253.3,200.4z M232.6,200.6C230.8,161.4,268.7,214.5,232.6,200.6z
	 M159.9,211.8c11.9-14.3,67.7-9.1,26.9-1.4C175.9,202.1,167.5,215.2,159.9,211.8z M154.9,215.1C162,206.7,156.9,222.5,154.9,215.1z
	 M135.3,223c1-13.3,32.9,7,5.3,4.8L135.3,223z M120.9,222.8C132.2,214.4,126.9,227.5,120.9,222.8z M119.4,236.8
	c7.9-28.9,42,23.7,12.8,3.8c-3.1-2.5-7.1-3.9-11.5-3.9C120.3,236.7,119.8,236.7,119.4,236.8L119.4,236.8L119.4,236.8z M38.8,277.8
	c-3-17.3-2.6-47.6,26.2-37.3c-38.5,7.6,26.6,47.8,18.4,16.1c16.2,0.8,31.7-9.6,23.1,6.1c31.9-3.5,53.9-31.1,84.8-27.3
	c28-2.3,53.8-7.7,78.4-15.9l-2.4,0.7c21.2-1.6,41.7-24.4,30-37.9c-5.6-0.3-12.2-0.5-18.9-0.5c-25.7,0-50.7,2.9-74.6,8.5l2.2-0.4
	c-35.5,7.4-67.7,21.4-103.5,27.4c-34.9,4.7,7,12.9-3,14.7c-18.2,6.3,21.7,10.6-2.4,17.2c-14.9-2.8-30.4-7.9-24-23.6
	c-33.4,4.3-62.8,18.2-36.4,52.2L38.8,277.8L38.8,277.8z M94.9,315.4C96.7,303.1,81.7,317.8,94.9,315.4z M682.2,695
	C686.4,682.3,671.4,696.6,682.2,695z M618.4,661.9C629,652.1,604.8,658.9,618.4,661.9z M90.8,336c16.7-6.6-30.4-13.6-3.4-1.3
	L90.8,336z M51.4,312.5C50.3,302.2,45.3,313.8,51.4,312.5z M44.3,317.9C43.7,309.2,39.6,321.2,44.3,317.9z M92.3,349
	C90.1,330.1,65.2,346.2,92.3,349z M185.3,417.7C189.3,414.1,176,415.1,185.3,417.7z M101.2,363.8C97.3,360.7,98.1,367.7,101.2,363.8
	z M87.8,357.3C88.1,349.2,66.4,350,87.8,357.3z M64.4,351.4C60,326.3,47.5,347.6,64.4,351.4z M162.5,419.5
	C162.8,406.3,152.3,419,162.5,419.5z M605.8,695.6c16.5-3.4,54.2,8.4,60.3-4.4c-20-0.5-69.5-14.1-71.8,3.2l4.4,0.7L605.8,695.6z
	 M150.7,416.5C150.4,412.2,146.7,418.1,150.7,416.5z M113.3,398.4C126.2,394,101.4,395.5,113.3,398.4z M411.4,599.7
	C411.2,586.7,398.7,602.9,411.4,599.7z M121.3,416.8C141.3,409,99.8,411.3,121.3,416.8z M509.2,666.1
	C516.2,661,500.5,665.5,509.2,666.1z M436.5,620.3C435.2,615.3,431.4,621.2,436.5,620.3z M427.6,613.8
	C424.1,604.9,413.8,613.6,427.6,613.8z M244.1,498.1C244.1,485,220.7,492.8,244.1,498.1z M222.9,493.2
	C214.3,486,222.5,492.2,222.9,493.2z M83.3,407.1c3-12.4-27.6-68.1-14.4-27.9C73.6,387.6,73.1,403.5,83.3,407.1z M159.4,467.2
	c16.7,3.7,66.7,41.1,37.2,2.6c-15.1-4.4-6-41.4-21.5-34.9c10.3,17.3,8.5,24.6-13.2,13.8c-27.3-13.3-15.3,6.6-10,12.1
	C144.6,462.4,161.5,467,159.4,467.2L159.4,467.2z M577.5,736.3C589.9,728,562.3,733.6,577.5,736.3z M532.9,706.7
	C551.4,691.1,513.3,713.5,532.9,706.7z M541.6,710.9c22.8-16.5-13.8-3.2-4.8,3.1L541.6,710.9z M286.6,559.6
	C282,550,279.4,561.1,286.6,559.6z M271.8,551C271.1,543.2,262.4,551.6,271.8,551z M513.1,703.1c17.8-11.5-4.1-9.7-3.2,1
	L513.1,703.1z M147.9,472.8C153.2,465,134.4,471.8,147.9,472.8z M518.9,710.6C537.3,694.9,507.3,707.3,518.9,710.6z M490.9,699.6
	C527.6,675.9,475.9,689.3,490.9,699.6z M102.4,456.3c-17-24.2-10.6-35.2-27-54.9c-3.1-15.2-28.1-49.5-12.9-13.1
	C76.4,409.6,80.5,442.5,102.4,456.3L102.4,456.3z M497.2,706.4C517.1,685.2,477.9,707.6,497.2,706.4z M497.1,713.1
	C497.2,708.3,489.4,715.2,497.1,713.1z M459.7,687.4C477.7,672.3,442.2,694.2,459.7,687.4z M295,585.7c11.7,10.3,53.7,7.6,14.2,1.3
	C303.4,578.3,272.1,580.4,295,585.7z M175.2,513.5C167.4,500.5,147.3,501.7,175.2,513.5z M154.2,499.6
	C150.9,486.9,131.5,487,154.2,499.6z M467.2,696.2c10.5-10.2,0.4,16.3,17.4-2.5c0.2-13.4-0.5-21.3-19.6-5
	C459.8,691.6,457.5,704,467.2,696.2z M447.5,688C448.1,678.9,441.2,695.7,447.5,688z M255.6,571.7
	C301.1,586.4,233.3,553.8,255.6,571.7z M218.1,550.2c11,8.2,41.4,23.2,15.6,3.1c8.7-10.1-16.6-15.4-8.2-22.2
	c-21.3-13.1-16.8-11.9-1.9-11.5c-25.6-11.4,3.7-10.6,2.2-16.5c-9.8-1.9-49.1-17.4-26,1.3c-23.4-11.9-5.6,4.4-12.7,2.7
	c-24-6.5,21.3,18.2-3.8,12.1c13.7,10.9,37,27.9,5.8,11.5C185.2,536.7,211.6,545.7,218.1,550.2L218.1,550.2z M288.9,597.2
	c19.9,5.2,19.8-3.1,1.8-5.5c-9.7-9-40.2-18.6-12.9-1.1C279.6,595.1,285.4,595,288.9,597.2L288.9,597.2z M253,579.1
	C248.9,575.5,253.6,581.3,253,579.1z M270.5,236.3C273.5,232.6,271.1,240.8,270.5,236.3z M260,298.4c-7-12.3,8.8-54,10.5-28.1
	c-7.3,20.2-2.1,31.5,3,4.4C283,253.4,271.5,316.8,260,298.4L260,298.4z M249.9,314.8C248.2,304.5,255.7,327.9,249.9,314.8z
	 M256.1,331.3C246,306.2,265.6,344.5,256.1,331.3z M260.4,340.7C260.3,335.3,261.8,348.5,260.4,340.7z M187.3,300
	C193.9,286,199.6,315.6,187.3,300z M161.4,284.6C165.5,282.8,163.6,290.1,161.4,284.6z M272.1,371
	C275.9,340.5,275.4,388.9,272.1,371z M172.8,312.8c5.5-8-14.5-36.2,2.9-10.1c7.5,6,21.7,10,9.1,12.5
	C204.5,332.6,180,319.9,172.8,312.8L172.8,312.8z M277.8,379.4c1.4-26.8,8-16,0.1,3.8L277.8,379.4z M162.8,322.1
	c13.4-2.8,55.5,23.5,16.8,7.5C175.3,324.8,166.2,327,162.8,322.1L162.8,322.1z M285.3,406.7C289.5,391.8,285.6,416.6,285.3,406.7z
	 M230.9,371.9C228.8,345.7,235.7,376.2,230.9,371.9z M159.4,333.9c-22.5-31.1,65.5,31.4,14.4,7.9
	C168.5,340.4,162.1,339.9,159.4,333.9z M283.6,418.1C285.3,411,283.8,426.5,283.6,418.1z M290.1,424.5
	C291.6,408,293.3,435.8,290.1,424.5z M252.9,402.6c-15.2-9.1-4-64.1,1.2-26.5c14.8-4.8-0.8,19.4,10.2,19.2
	C262.6,410.5,257.6,416,252.9,402.6L252.9,402.6z M152.5,344.2c-35.1-31.2,44.1,16.3,5.7,5.8L152.5,344.2z M175,365.7
	C164.4,345.8,187.9,374,175,365.7z M163.7,362.1C170.7,355.1,167.4,368.9,163.7,362.1z M145.3,362.6c-12.1-11.9-20.8-23,0.5-7.4
	c8.2,0.3-18.3-25.1,1.9-8.1C169.1,351,158.3,382,145.3,362.6L145.3,362.6z M180.3,389.7C187.3,375,192.1,410.1,180.3,389.7z
	 M165.7,384.7C167,365.2,173.1,398,165.7,384.7z M198.1,407c-6.8-11.6-10.8-25.5-10.8-40.4c0,0,0-0.1,0-0.1l0,0
	c2.5,12.2,26,52.5,11.5,16.7c-15.9-30,19,9.7,22.7,17.2c1.6,7.4-9.8-2-2.1,15.4C205.3,396,211.1,426.9,198.1,407L198.1,407z
	 M303,476.9c-11.4-25.5,8.1-14,2.5,4.2L303,476.9z M242.2,457.4C237.2,448.5,252.6,465.8,242.2,457.4z M313,506.7
	C317.3,490.4,318.1,520.4,313,506.7z M212.7,452.4C219.8,450.4,216.2,464.4,212.7,452.4z M338.7,539.3
	C326.7,516,353.9,545.9,338.7,539.3z M349.1,553.3C348.8,538.2,352.6,564.9,349.1,553.3z M468.8,644.2
	C474.8,643.9,469,648.8,468.8,644.2z M364.2,577.8c-9.6-10-12-28.7-1.7-12.4C367.8,567.5,379.5,595.9,364.2,577.8z M396.3,668.5
	c25-14.9,16.7,34.9,42.3,4.2c25.3-18.4-21.8,22.8,9.4,3.3c22.5-15.1,55.8,7.1,76.7,14.4c15.1-0.7,29.8,13.1,45.3,4.7
	c29.8-8.1-58.3-11.9-35.2-26.2c-3.6,0.8-7.7,1.3-11.9,1.3c-20.8,0-39-11.2-48.9-28l-0.2-0.3c-33.6-5.6-62.1-23.8-81.1-49.5l-0.2-0.3
	c-6.2-10.2,9,1.4-5.4-15.2c-15.7-15.8-29-33.9-39.5-53.7l-0.6-1.2c-14.8-7.9-16.5-31.1-18-0.8c0.1-19.2-17.9-32.1-22.2-26.7
	c-0.1-18.5,19.2-9.2,5.7-22.8c-2.9-19.1-12.5-39.1-15.4-60.6c-4.4-10.4-0.6-32.6-15.3-9.1c-5.3,24.9-1.8-30.6,6.5-12.3
	c10.9-18.7-3.9-16.5-4.5-13.9c7.1-15.8,4.5-38.1-1.8-29.6c3.8-16.7,6-61.4-5.7-53.5c7-17.4,13.4-79.9-17.2-56.1
	c-16,0.6-31.1,4.1-44.9,9.9l0.9-0.3c31.8,17.6-3.2,6.3-16.2,3.5c-1.7,16.2-14.5,9.2-30.6,9.4c25.6,3.2-12.5,26.2-27.2,17.2
	c-19,9.1,16.5,31.9,0.4,38.9c1.9,10.6-29.2-3.9-26.8,20.7c-18.5-7.8-2.5,29.1,6.7,16.6c31.5,8.5,22.2,28,22.9,46.4
	c-5.1,10.8-25.3-25.3-4.5-23.6c-16.4-26.7-18.1-9.7-31.8,2.7c-3.2,0.9,34.8,17.7,11,25.9c21,3.2,21.6,21.6,25.8,33.3
	c12.6,13.2,10-14.5,25.1,1.3c-9.6-14.1-50.6-39.7-17.6-31.5c-0.2-14.2-6-25.6,4.2-25.3c10-18.1-10.5,44.8,12.1,21.7
	c6.2-2.7,7.8-18.2,19,1.4c16.3,16.1,5.9,27.7-17.2,13c4.1,14,30.8,19,25.8,40.9c5.3,19.2,12.8,12.1,19.3,11c5.1,18.7,8,4.9,8.2-4
	c23.3,5,17.8,18.7,25.1,28.4c16.1,7.2-23-49.2,4.6-17c29,26.2,10.9,37.1-15.2,33c16.5-1.3,21.8,22.3,42.4,21.5
	c18.8,8.9,31.5,43.3-0.9,29c-11.2-10.1-51-22.6-18.5-3.4c33.1,13.6,60.4,26.9,86.6,41.6l-3.9-2c20.7,14.8,29.6,31.7,37.5,35.1
	c-17.4,8.3-52.4-6.6-26.4-11.2c-16.3-2.9-34.5-11.1-19,9c13.2,11.1,46.8,9.9,52.9,11.1c-5.1,11.2-13.9,12.1,0.2,13
	C374.1,662.5,394.8,663.8,396.3,668.5L396.3,668.5z M303.4,611.4c26.7,3.4-31.8-18.2-5.8-1.9L303.4,611.4z M374.7,659.8
	C397.9,650.6,352.1,655.2,374.7,659.8z M237.7,574.6C252.6,573,213.8,564.5,237.7,574.6z M318.6,626
	C320.6,617.8,301.6,623.5,318.6,626z M437,702.6C436.7,696.3,431.1,705.1,437,702.6z M328.3,635.9
	C324.6,631.8,326.5,636.9,328.3,635.9z M153.6,525C151.2,515.4,131.9,507.7,153.6,525z M220.2,568
	C240.2,566.8,192.8,559.2,220.2,568z M276.3,608.5C274.2,602.3,265.4,608.3,276.3,608.5z M425.9,700.8
	C426.8,689,414.5,709.5,425.9,700.8z M216.9,572.1C215.5,565.6,208.3,572.6,216.9,572.1z M366.9,667.7
	C401.8,668,335.4,662.9,366.9,667.7z M303.1,630.8c36.8,10.4-30.9-23.3-9.1-3.8l4.8,2.2L303.1,630.8L303.1,630.8z M334.9,656.1
	C341.2,645.5,308.6,650,334.9,656.1z M230.3,592.2c15,11.6,60.7,1.5,23.1-6.9c-17.1-9.1-55.8-15.4-29.5,5.5L230.3,592.2z
	 M313.7,649.5C327.6,644.3,291.2,644.2,313.7,649.5z M282.5,630.3C292.2,623.6,262.5,625.2,282.5,630.3z M245.4,608.7
	C244.1,603.3,225.5,602.7,245.4,608.7z M372,707.4c12.8,8.1,74.9,17.8,36,3.3C401.6,712,336,692.2,372,707.4L372,707.4z
	 M292.3,657.6C291.8,652.2,286.6,660,292.3,657.6z M276.3,649.6C292,639.4,256,649.5,276.3,649.6z M346.3,698.5
	C352.5,689.4,326.6,695,346.3,698.5z M309.9,678.1C320,668.4,294.2,672.1,309.9,678.1z M288.6,669.2
	C286.9,660.7,280.8,674,288.6,669.2z M271.6,663C278.5,659.9,261.6,659.2,271.6,663z M143.9,550.1
	C144.9,545.4,149.6,560.3,143.9,550.1z M234.1,649.2c31.3,11.6-0.1-22-14.5-20.1c-6.3-11-24.2-18-11.6-23.9
	c-22.7,7.9-23.8-30-34.6-24.6c-24-7.6-9.4-34.6-38-51c-2.6-17.4-28.5-32.6-36.8-58.9c-3.6-13.4-29.2-52.1-13.5-16.2
	c16.7,35.8,35.6,66.7,57.4,95.1l-0.9-1.2c14.1,30.5,34.8,55.8,60.4,74.9l0.5,0.4C211.9,632.7,220.9,646.4,234.1,649.2L234.1,649.2z
	 M295.6,692.6c28.7,14.8,62,26.3,97,32.8l2.3,0.4c33.7,7.7,72.3,12.1,112.1,12.1c20.6,0,41-1.2,61-3.5l-2.4,0.2
	c-25.5-11.5-51.9,4.5-77.4-8.2c-9,1-19.5,1.6-30.2,1.6c-22.7,0-44.8-2.7-66-7.7l1.9,0.4c-42.2-15.4-77.2-31.2-110.9-49.2l4.6,2.2
	c-41.3-15,21.3,19.3,32.5,22.1c25.8,14.6-28.3-7.5-36-13.6c-21.6-12.1-24.3-9.6-2.1,2.7C286.5,687.6,290.9,690.4,295.6,692.6
	L295.6,692.6z M243.4,670c-31.7-21.8-58.9-47.2-82-76.1l-0.6-0.7c-43.3-53.2-78.6-115-102.6-182.2l-1.4-4.3
	c-14.4-43.8-19.4-90.7-37.9-132.8c-3.7-6.9-5.9-15.1-5.9-23.8c0-25.1,18.4-46,42.4-49.8l0.3,0c14.9-2.8,41.1-16.9,9.5-6.8
	c-28.4,20.8-31.1-18.9-2-21.4c12.6-0.1,22.8-10.4,22.8-23.1c0-3.8-0.9-7.4-2.6-10.6l0.1,0.1c-21.3-13.9,51.7-29.2,15-49.9
	c-38.2-41.3,53.5-49.2,30.9-2.4c-5.4,36,64.1-6.6,48,35c16.4,20,61.4,4.5,60.2,32.6c23.9,1.6,32.1,21.7,54.5,23.3
	c23.3,10.5,65.3,18.7,73.2,44.9c-23,18.3-76.4-37.6-78.9,12.8c0.6,79.5,12.4,156,33.9,228.3l-1.5-5.8c17.3,43,41.9,79.7,72.5,110.4
	l0,0c27.9,31.1,61.4,56.4,99.1,74.5l1.9,0.8c30,14.2,64.8,25.3,101.3,31.7l2.5,0.4c14.5-11.1,40.1-52.2,62.6-34.9
	c1.1,19.5-44.8,40.8-2.2,38.6c25.1-7.5,42.4,19.4,63.1-4.9c19,22.5,79-14.4,65.5,31.7c-18.3,11.8-44.9,4.7-63.3,20.9
	c-30.2-15.1-54.3,13.5-87.7,9.9c-32.9,6-70.7,9.4-109.3,9.4c-1.1,0-2.3,0-3.4,0h0.2c-65.9-1.2-128.9-11.5-188.4-29.7l4.8,1.3
	c-36-12.2-67.3-28.2-95.6-48.1L243.4,670L243.4,670z"/>
</svg>
