<?xml version="1.0" encoding="UTF-8"?><svg id="a" xmlns="http://www.w3.org/2000/svg" xmlns:xlink="http://www.w3.org/1999/xlink" viewBox="0 0 2500 2500"><defs><linearGradient id="b" x1="1215.091" y1="1366.998" x2="1215.091" y2="1110.741" gradientTransform="translate(-6929.404 9973.471) scale(6.732 -6.732)" gradientUnits="userSpaceOnUse"><stop offset="0" stop-color="#f05a28"/><stop offset="1" stop-color="#fbca0a"/></linearGradient></defs><path d="M2370.68,1106.619c-4.039-41.062-10.77-88.183-24.234-140.689-13.463-51.833-33.658-109.051-63.276-168.288s-67.988-120.494-117.802-180.405c-19.521-23.56-41.062-46.447-63.949-68.661,34.331-136.65-41.735-255.125-41.735-255.125-131.265-8.078-214.735,41.062-245.7,63.276-5.385-2.019-10.097-4.712-15.482-6.732-22.214-8.751-45.101-17.502-69.335-24.907-23.56-7.405-47.794-14.136-72.7-20.195s-49.813-10.77-75.393-14.809c-4.712-.673-8.751-1.346-13.463-2.019-57.218-183.097-221.467-259.837-221.467-259.837-183.77,116.455-218.101,279.358-218.101,279.358,0,0-.673,3.366-2.019,9.424-10.097,2.693-20.195,6.058-30.292,8.751-14.136,4.039-28.272,9.424-41.735,14.809-14.136,5.385-27.599,10.77-41.735,16.829-27.599,12.117-55.198,25.58-82.124,40.389-26.253,14.809-51.833,30.965-76.739,47.794l-6.732-2.693c-254.451-96.934-479.957,19.521-479.957,19.521-20.868,270.607,101.646,440.914,125.879,471.879-6.058,16.829-11.444,33.658-16.829,50.486-18.848,61.257-32.984,123.86-41.735,189.156-1.346,9.424-2.693,18.848-3.366,28.272-235.603,116.455-304.938,354.078-304.938,354.078,195.887,225.506,424.759,239.642,424.759,239.642l.673-.673c28.946,51.833,62.603,100.973,100.3,147.42,16.156,19.521,32.311,37.697,49.813,55.872-71.354,204.638,10.097,374.272,10.097,374.272,218.101,8.078,361.482-95.588,391.774-119.148,21.541,7.405,43.755,14.136,65.969,19.521,67.315,17.502,135.977,27.599,204.638,30.292,16.829.673,34.331,1.346,51.16.673h24.234l10.77-.673v.673c102.992,146.747,283.397,167.615,283.397,167.615,128.572-135.304,135.977-269.934,135.977-298.879v-12.117c26.926-18.848,52.506-39.043,76.739-61.257,51.16-46.447,96.261-99.626,133.957-156.844l10.097-16.156c145.401,8.078,248.393-90.202,248.393-90.202-24.234-151.459-110.397-225.506-128.572-239.642s-.673-.673-2.019-1.346-1.346-1.346-1.346-1.346c-.673-.673-2.019-1.346-3.366-2.019.673-9.424,1.346-18.175,2.019-27.599,1.346-16.156,1.346-32.984,1.346-49.14v-25.58l-.673-10.097-.673-13.463c0-4.712-.673-8.751-1.346-12.79s-.673-8.751-1.346-12.79l-1.346-12.79-2.019-12.79c-2.693-16.829-5.385-32.984-9.424-49.813-15.482-65.296-41.062-127.226-74.047-183.097-33.658-55.872-75.393-105.012-123.187-146.747-47.121-41.735-100.3-75.393-155.498-100.3-55.872-24.907-113.763-41.062-171.654-48.467-28.946-4.039-57.891-5.385-86.837-4.712h-21.541l-10.77.673c-4.039,0-8.078.673-11.444.673-14.809,1.346-29.619,3.366-43.755,6.058-57.891,10.77-112.416,31.638-160.21,60.584s-89.529,64.623-123.187,105.012-59.91,85.49-78.086,131.938-28.272,94.914-30.965,141.362c-.673,11.444-.673,23.56-.673,35.004v8.751l.673,9.424c.673,5.385.673,11.444,1.346,16.829,2.019,23.56,6.732,46.447,12.79,67.988,12.79,43.755,32.984,83.471,57.891,117.128s55.198,61.257,86.837,83.471c31.638,21.541,65.969,37.023,99.626,47.121s67.315,14.136,98.953,14.136h17.502c2.019,0,4.039,0,6.058-.673,3.366,0,6.732-.673,10.097-.673.673,0,2.019,0,2.693-.673l3.366-.673c2.019,0,4.039-.673,6.058-.673,4.039-.673,7.405-1.346,11.444-2.019s7.405-1.346,10.77-2.693c7.405-1.346,14.136-4.039,20.868-6.058,13.463-4.712,26.926-10.097,38.37-16.156,12.117-6.058,22.887-13.463,33.658-20.195,2.693-2.019,6.058-4.039,8.751-6.732,10.77-8.751,12.79-24.907,4.039-35.677-7.405-9.424-20.868-12.117-31.638-6.058l-8.078,4.039c-9.424,4.712-18.848,8.751-28.946,12.117s-20.868,6.058-31.638,8.078c-5.385.673-10.77,1.346-16.829,2.019-2.693,0-5.385.673-8.751.673h-16.156c-3.366,0-6.732,0-10.097-.673h-4.039c-1.346,0-3.366,0-4.712-.673-3.366-.673-6.058-.673-9.424-1.346-24.907-3.366-49.813-10.77-73.373-21.541-24.234-10.77-47.121-25.58-67.988-44.428s-39.043-41.062-53.179-66.642-24.234-53.852-28.946-83.471c-2.019-14.809-3.366-30.292-2.693-45.101,0-4.039.673-8.078.673-12.117v-5.385c0-2.019.673-4.039.673-6.058.673-8.078,2.019-16.156,3.366-24.234,11.444-64.623,43.755-127.899,93.568-175.693,12.79-12.117,26.253-22.887,40.389-32.984s29.619-18.848,45.774-26.253,32.311-13.463,49.813-18.175c16.829-4.712,34.331-7.405,52.506-9.424,8.751-.673,17.502-1.346,26.926-1.346h20.868l7.405.673c19.521,1.346,38.37,4.039,57.218,8.751,37.697,8.078,74.72,22.214,109.051,41.062,68.662,38.37,127.226,97.607,162.903,168.961,18.175,35.677,30.965,74.047,37.023,113.763,1.346,10.097,2.693,20.195,3.366,30.292l.673,7.405.673,7.405v28.945c0,4.712-.673,12.79-.673,17.502-.673,10.77-2.019,22.214-3.366,32.984s-3.366,21.541-5.385,32.311-4.712,21.541-7.405,31.638c-5.385,20.868-12.117,41.735-20.195,62.603-16.156,40.389-37.697,79.432-63.276,115.109-51.833,71.354-122.514,129.245-203.292,166.269-40.389,18.175-82.798,31.638-126.553,38.37-21.541,4.039-43.755,6.058-65.969,6.732h-33.658c-12.117,0-23.56-.673-35.677-2.019-47.121-3.366-93.568-12.117-139.342-24.907-45.101-12.79-88.856-30.965-130.591-52.506-82.798-44.428-157.517-105.012-215.409-178.385-28.946-36.35-54.525-76.066-75.393-117.128s-37.696-84.817-49.813-128.572c-12.117-44.428-19.521-89.529-22.887-135.304l-.673-8.751v-59.91c.673-22.214,2.693-45.774,5.385-68.661s6.732-46.447,11.444-69.335,10.097-45.774,16.829-68.661c12.79-45.101,28.946-88.856,47.794-129.918,38.37-82.124,88.183-155.498,148.093-214.062,14.809-14.809,30.292-28.272,46.447-41.735,16.156-12.79,32.984-24.907,50.486-36.35,16.829-11.444,35.004-21.541,53.179-30.965,8.751-4.712,18.175-9.424,27.599-13.463l14.136-6.058,14.136-6.058c18.848-8.078,38.37-14.809,58.564-20.868,4.712-1.346,10.097-2.693,14.809-4.712,4.712-1.346,10.097-2.693,14.809-4.039,10.097-2.693,20.195-5.385,30.292-7.405,4.712-1.346,10.097-2.019,15.483-3.366s10.097-2.019,15.483-3.366c5.385-.673,10.097-2.019,15.483-2.693l7.405-1.346,8.078-1.346c5.385-.673,10.097-1.346,15.483-2.019,6.058-.673,11.444-1.346,17.502-2.019,4.712-.673,12.79-1.346,17.502-2.019,3.366-.673,7.405-.673,10.77-1.346l7.405-.673,3.366-.673h4.039c6.058-.673,11.444-.673,17.502-1.346l8.751-.673h6.732c4.712,0,10.097-.673,14.809-.673,19.521-.673,39.716-.673,59.237,0,39.043,1.346,77.412,6.058,114.436,12.79,74.72,14.136,144.728,37.696,208.677,69.335,63.949,30.965,120.494,69.335,170.307,111.07,3.366,2.693,6.058,5.385,9.424,8.078,2.693,2.693,6.058,5.385,8.751,8.078,6.058,5.385,11.444,10.77,17.502,16.156s11.444,10.77,16.829,16.156,10.77,10.77,16.156,16.829c20.868,22.214,40.389,44.428,57.891,67.315,35.004,45.101,63.276,90.876,85.49,133.957l4.039,8.078,4.039,8.078c2.693,5.385,5.385,10.77,7.405,16.156,2.693,5.385,4.712,10.097,7.405,15.483,2.019,5.385,4.712,10.097,6.732,15.483,8.078,20.195,16.156,39.716,22.214,57.891,10.097,29.619,17.502,55.872,23.56,78.759,2.019,9.424,10.77,15.483,20.195,14.136,10.097-.673,17.502-8.751,17.502-18.848.673-24.234,0-53.179-3.366-86.163h0Z" fill="url(#b)"/></svg>