<?xml version="1.0" encoding="utf-8"?>
<!-- Generator: Adobe Illustrator 25.4.1, SVG Export Plug-In . SVG Version: 6.00 Build 0)  -->
<svg version="1.1" id="Calque_1" xmlns="http://www.w3.org/2000/svg" xmlns:xlink="http://www.w3.org/1999/xlink" x="0px" y="0px"
	 viewBox="0 0 209.9 209.9" style="enable-background:new 0 0 209.9 209.9;" xml:space="preserve">
<style type="text/css">
	.st0{fill:#FF491F;}
	.st1{fill:#FF7B39;}
	.st2{fill:#FFFFFF;}
</style>
<g id="Calque_2_1_">
	<g id="Calque_6">
		<path class="st0" d="M13.8,18.2l13,158c0.5,6.1,4.7,11.3,10.6,13l57.4,17.2c6.7,2,13.8,2,20.5,0l57.3-17.2c5.9-1.8,10.1-7,10.6-13
			l12.9-158c0.7-8.2-5.4-15.4-13.6-16.1c-0.4,0-0.8-0.1-1.3-0.1H28.6c-8.2,0.1-14.9,6.8-14.9,15C13.7,17.4,13.7,17.8,13.8,18.2z"/>
		<path class="st1" d="M179.2,24.4L166.1,165c-0.3,3.3-2.6,6.3-5.9,7.3l-48.4,14.5c-4.4,1.4-9.1-1.2-10.4-5.6
			c-0.2-0.8-0.4-1.6-0.4-2.5V23.6c0-4.6,3.7-8.3,8.3-8.3h61.6c4.6,0,8.3,3.7,8.3,8.3C179.2,23.9,179.2,24.1,179.2,24.4z"/>
		<path class="st2" d="M152.6,61.2H70L71.6,85h77.9c3.3,0,6.1,2.7,6.1,6.1c0,0.2,0,0.4,0,0.5l-1.4,16.2l-1.9,21.5l-1.8,21.4
			c-0.2,2.5-1.9,4.5-4.2,5.3l-20.9,6.8l-22,7.2c-1.2,0.4-2.5,0.4-3.7,0l-23-7.3L56,156c-2.4-0.8-4-2.8-4.2-5.3l-1.9-21.4l-0.3-3.8
			c-0.3-3.3,2.2-6.3,5.6-6.6c0.2,0,0.3,0,0.5,0h12.5c3.2,0,5.9,2.5,6.1,5.7l0.9,12.6l26.6,8.3l25.5-8.2l2-29.6H53.8
			c-3.1,0-5.8-2.5-6.1-5.6L46.3,85l-2-23.7l-1.5-17.2c-0.3-3.3,2.3-6.3,5.6-6.6c0.2,0,0.3,0,0.5,0h104.7c3.3,0,6.1,2.7,6.1,6.1
			c0,0.2,0,0.4,0,0.5l-1,11.6C158.3,58.9,155.7,61.2,152.6,61.2z"/>
	</g>
</g>
</svg>
