<?xml version="1.0" encoding="utf-8"?>
<!-- Generator: Adobe Illustrator 25.4.1, SVG Export Plug-In . SVG Version: 6.00 Build 0)  -->
<svg version="1.1" id="Calque_1" xmlns="http://www.w3.org/2000/svg" xmlns:xlink="http://www.w3.org/1999/xlink" x="0px" y="0px"
	 viewBox="0 0 240 240" style="enable-background:new 0 0 240 240;" xml:space="preserve">
<style type="text/css">
	.st0{fill:#330000;}
	.st1{fill:#FF9A00;}
</style>
<g id="vlpa">
	<g id="vlpb">
		<g id="vlpc">
			<g id="vlpd">
				<path class="st0" d="M45.1,6.9h149.8C217.6,6.9,236,25.3,236,48v144c0,22.7-18.4,41.1-41.1,41.1H45.1C22.4,233.1,4,214.7,4,192
					V48C4,25.3,22.4,6.9,45.1,6.9z"/>
			</g>
		</g>
	</g>
	<g id="vlpe">
		<g id="vlpf">
			<path class="st1" d="M116.1,142.2h-36l-7.3,22.7c-0.2,0.9-1,1.4-1.8,1.4H52.8c-1.1,0-1.4-0.6-1.1-1.7L82.9,75c0.3-1,0.6-2,1-3.2
				c0.4-2,0.6-4.2,0.6-6.3c-0.1-0.5,0.3-1,0.8-1.1h0.3h24.7c0.8,0,1.2,0.3,1.3,0.8l35.3,99.6c0.3,1.1,0,1.5-1,1.5h-20.2
				c-0.7,0.1-1.4-0.4-1.5-1.1L116.1,142.2L116.1,142.2z M85.8,122.6h24.6c-0.6-2-1.4-4.4-2.2-7c-0.9-2.6-1.7-5.4-2.6-8.3
				c-1-3-1.8-5.9-2.8-8.9s-1.8-5.8-2.6-8.6c-0.8-2.7-1.5-5.2-2.1-7.5h-0.2c-0.9,4.2-1.9,8.3-3.3,12.5c-1.4,4.6-2.9,9.5-4.4,14.3
				C88.7,114,87.2,118.6,85.8,122.6z"/>
			<path class="st1" d="M168.3,81.3c-3.2,0.1-6.3-1.2-8.6-3.4c-2.2-2.4-3.4-5.6-3.3-8.9c-0.1-3.3,1.2-6.4,3.5-8.6s5.4-3.4,8.6-3.4
				c3.8,0,6.7,1.2,8.8,3.4c2.1,2.3,3.3,5.4,3.2,8.6c0.1,3.3-1.1,6.5-3.4,8.9C174.9,80.3,171.6,81.5,168.3,81.3L168.3,81.3z
				 M157.5,165.2V90.8c0-1,0.4-1.4,1.3-1.4h19.1c0.9,0,1.3,0.5,1.3,1.4v74.4c0,1.1-0.4,1.5-1.3,1.5H159
				C158,166.8,157.5,166.2,157.5,165.2z"/>
		</g>
	</g>
</g>
</svg>
