<?xml version="1.0" encoding="utf-8"?>
<!-- Generator: Adobe Illustrator 25.4.1, SVG Export Plug-In . SVG Version: 6.00 Build 0)  -->
<svg version="1.1" id="Calque_1" xmlns="http://www.w3.org/2000/svg" xmlns:xlink="http://www.w3.org/1999/xlink" x="0px" y="0px"
	 viewBox="0 0 630 630" style="enable-background:new 0 0 630 630;" xml:space="preserve">
<style type="text/css">
	.st0{fill:#F7DF1E;}
</style>
<path class="st0" d="M68.7,9h492.5c33,0,59.7,26.7,59.7,59.7v492.5c0,33-26.7,59.7-59.7,59.7H68.7C35.7,621,9,594.3,9,561.3V68.7
	C9,35.7,35.7,9,68.7,9z"/>
<path d="M420.1,487.1c12.3,20.1,28.4,35,56.7,35c23.8,0,39.1-11.9,39.1-28.4c0-19.7-15.6-26.7-41.9-38.2l-14.4-6.2
	c-41.5-17.7-69.1-39.8-69.1-86.7c0-43.1,32.8-76,84.2-76c36.5,0,62.9,12.7,81.8,46l-44.8,28.8c-9.8-17.7-20.5-24.7-37-24.7
	c-16.8,0-27.5,10.7-27.5,24.7c0,17.3,10.7,24.3,35.4,35l14.4,6.1c48.9,21,76.5,42.4,76.5,90.3c0,51.8-40.7,80.1-95.3,80.1
	c-53.4,0-87.9-25.5-104.8-58.8L420.1,487.1z M217,492.1c9,16,17.3,29.6,37,29.6c18.9,0,30.8-7.4,30.8-36.1V290h57.5v196.3
	c0,59.5-34.9,86.7-85.9,86.7c-46,0-72.8-23.8-86.3-52.6L217,492.1z"/>
</svg>
