<?xml version="1.0" encoding="UTF-8"?><svg id="a" xmlns="http://www.w3.org/2000/svg" viewBox="0 0 320.258 320.258"><g id="b"><g id="c"><path id="d" d="M271.366,154.38c0,62.837-49.802,113.777-111.236,113.777s-111.235-50.94-111.235-113.777,49.802-113.78,111.235-113.78,111.236,50.941,111.236,113.78" fill="#d33833" fill-rule="evenodd"/><path id="e" d="M53.428,182.559s-8.053-118.651,101.277-122.042l-7.627-12.713-59.325,19.917-16.951,19.492-14.831,28.392-8.476,33.053,2.543,22.035" fill="#ef3d3a"/><path id="f" d="M83.944,76.763c-19.516,19.969-31.594,47.54-31.594,78.042h0c0,30.495,12.077,58.07,31.594,78.035h0c19.526,19.965,46.435,32.285,76.185,32.285h0c29.75,0,56.662-12.32,76.186-32.285h0c19.515-19.965,31.595-47.54,31.595-78.035h0c0-30.502-12.08-58.073-31.595-78.042h0c-19.524-19.961-46.436-32.281-76.186-32.284h0c-29.75.003-56.659,12.322-76.185,32.284h0ZM79.003,237.67c-20.741-21.212-33.564-50.528-33.564-82.865h0c0-32.342,12.823-61.655,33.564-82.869h0c20.737-21.217,49.442-34.369,81.125-34.365h0c31.684-.004,60.392,13.147,81.125,34.365h0c20.743,21.214,33.568,50.529,33.565,82.869h0c.003,32.337-12.822,61.653-33.565,82.865h0c-20.733,21.216-49.441,34.366-81.125,34.366h0c-31.684,0-60.389-13.15-81.125-34.366h0" fill="#231f20"/><path id="g" d="M206.955,155.011l-16.951,2.543-22.883,2.543-14.832.423-14.407-.423-11.018-3.39-9.747-10.593-7.628-21.612-1.695-4.662-10.17-3.389-5.933-9.747-4.237-13.984,4.662-12.289,11.017-3.814,8.899,4.238,4.238,9.322,5.085-.848,1.694-2.118-1.694-9.747-.425-12.289,2.543-16.95-.099-9.682,7.727-12.353,13.56-9.747,23.731-10.17,26.272,3.814,22.883,16.526,10.595,16.95,6.78,12.289,1.695,30.51-5.085,26.273-9.322,23.306-8.899,12.289" fill="#f0d6b7" fill-rule="evenodd"/><path id="h" d="M192.546,228.32l-60.598,2.543v10.17l5.085,35.595-2.543,2.967-42.375-14.409-2.967-5.085-4.237-47.884-9.745-28.816-2.119-6.78,33.9-23.306,10.595-4.238,9.322,11.441,8.051,7.204,9.323,2.966,4.237,1.271,5.085,22.035,3.814,4.661,9.747-3.39-6.781,13.137,36.867,17.373-4.66,2.543" fill="#335061" fill-rule="evenodd"/><path id="i" d="M92.116,80.429l11.017-3.814,8.899,4.238,4.238,9.322,5.085-.848,1.271-5.085-2.543-9.746,2.543-23.307-2.119-12.713,7.628-8.899,16.526-13.136-4.661-6.356-23.306,11.441-9.747,7.628-5.509,11.865-8.475,11.441-2.543,13.561,1.696,14.407" fill="#6d6b6d" fill-rule="evenodd"/><path id="j" d="M109.489,40.597s6.356-15.679,31.782-23.306c25.425-7.628,1.271-5.51,1.271-5.51l-27.543,10.595-10.595,10.593-4.66,8.476,9.746-.848" fill="#dcd9d8" fill-rule="evenodd"/><path id="k" d="M96.776,77.464s-8.899-29.664,25.002-33.901l-1.271-5.085-23.306,5.51-6.781,22.035,1.696,14.407,4.66-2.966" fill="#dcd9d8" fill-rule="evenodd"/><path id="l" d="M110.337,116.873l5.548-5.376s2.504.291,2.927,3.257c.423,2.967,1.694,29.664,19.916,44.072,1.662,1.314-13.559-2.12-13.559-2.12l-13.561-21.187" fill="#f7e4cd" fill-rule="evenodd"/><path id="m" d="M188.311,108.822s.988-12.845,4.447-11.857c3.459.988,3.459,4.447,3.459,4.447,0,0-8.401,5.435-7.906,7.41" fill="#f7e4cd" fill-rule="evenodd"/><path id="n" d="M223.48,61.785s-6.984,1.475-7.628,7.628c-.643,6.154,7.628,1.271,8.899.848" fill="#f7e4cd"/><path id="o" d="M172.206,62.21s-9.323,1.271-9.323,7.203,10.595,5.51,13.561,2.967" fill="#f7e4cd"/><path id="p" d="M114.574,89.753s-16.103-9.747-17.798-.423c-1.695,9.322-5.51,16.103,2.543,25.849l-5.509-1.695-5.085-13.136-1.694-12.713,9.746-10.171,11.018.848,6.356,5.085.424,6.356" fill="#f7e4cd" fill-rule="evenodd"/><path id="q" d="M122.202,63.056s7.204-37.29,43.648-44.494c30.003-5.93,45.765,1.271,51.698,8.051,0,0-26.697-31.78-52.122-22.035-25.425,9.747-44.07,27.545-43.647,38.985.722,19.486.424,19.494.424,19.494" fill="#f7e4cd" fill-rule="evenodd"/><path id="r" d="M220.514,30.85s-12.288-.423-12.713,10.595c0,0-.001,1.695.847,3.389,0,0,9.748-11.018,15.68-5.085" fill="#f7e4cd" fill-rule="evenodd"/><path id="s" d="M166.704,45.982s-2.116-16.912-16.534-7.08c-9.322,6.356-8.474,15.255-6.78,16.95,1.695,1.696,1.234,5.109,2.524,2.766,1.29-2.343.865-9.971,5.527-12.088,4.661-2.119,12.303-4.486,15.263-.548" fill="#f7e4cd" fill-rule="evenodd"/><path id="t" d="M126.863,160.519l-39.832,17.798s16.526,65.683,8.051,86.023l-5.933-2.118-.424-25.002-11.016-47.46-4.662-13.137,41.527-27.967,12.289,11.863" fill="#49728b" fill-rule="evenodd"/><path id="u" d="M130.959,196.849l5.651,6.895v25.425h-6.781s-.847-17.798-.847-19.917.847-9.747.847-9.747" fill="#49728b" fill-rule="evenodd"/><path id="v" d="M131.101,232.983l-19.069.847,5.51,3.814,13.559,2.119" fill="#49728b" fill-rule="evenodd"/><path id="w" d="M196.36,228.744l15.679-.424,3.814,38.986-16.103,2.118-3.389-40.681" fill="#335061" fill-rule="evenodd"/><path id="x" d="M200.597,228.744l23.731-1.271s9.746-24.578,9.746-25.849,8.476-35.595,8.476-35.595l-19.069-19.916-3.814-3.39-10.17,10.17v39.409l-8.899,36.442" fill="#335061" fill-rule="evenodd"/><path id="y" d="M211.191,225.778l-14.831,2.966,2.118,11.866c5.508,2.543,14.832-4.238,14.832-4.238" fill="#49728b" fill-rule="evenodd"/><path id="z" d="M211.615,151.622l29.662,22.035.848-10.17-22.459-20.764-8.051,8.899" fill="#49728b" fill-rule="evenodd"/><path id="aa" d="M145.807,312.228l-8.773-35.601-4.363-26.268-.722-19.498,39.708-2.114,24.704-.004-2.246,44.498,3.814,34.324-.423,6.356-32.205,2.543-19.493-4.237" fill="#fff" fill-rule="evenodd"/><path id="ab" d="M190.851,228.321s-2.118,44.071,4.238,75.428c0,0-12.713,8.052-31.359,10.17l35.596-1.271,4.237-2.543-5.085-69.495-1.271-14.833" fill="#dcd9d8" fill-rule="evenodd"/><path id="ac" d="M216.575,263.92l16.526-4.661,31.357-1.695,4.662-14.407-8.476-25.002-9.746-1.271-13.561,4.237-13.01,6.352-6.907-1.267-5.383,2.115" fill="#fff" fill-rule="evenodd"/><path id="ad" d="M216.276,255.441s11.017-5.084,12.713-4.66l-4.66-23.307,5.508-2.118s3.814,22.035,3.814,24.577c0,0,23.729,1.271,25.849,1.271,0,0,5.085-9.747,3.814-19.917l4.662,13.56.423,7.628-6.78,10.17-7.628,1.695-12.713-.424-4.237-5.508-14.832,2.118-4.662,1.696" fill="#dcd9d8" fill-rule="evenodd"/><path id="ae" d="M199.624,225.359l-9.322-23.731-9.747-13.984s2.118-5.933,5.085-5.933h9.747l9.322,3.39-.847,15.679-4.238,24.579" fill="#fff"/><path id="af" d="M201.445,217.303s-11.866-22.882-11.866-26.272c0,0,2.118-5.085,5.085-3.814s9.323,4.66,9.323,4.66v-8.051l-14.409-2.967-9.746,1.271,16.526,38.986,3.389.425" fill="#dcd9d8" fill-rule="evenodd"/><path id="ag" d="M149.621,161.372l-11.739-1.276-11.018-3.39v3.814l5.384,5.937,16.95,7.628" fill="#fff"/><path id="ah" d="M130.679,162.642s13.137,5.51,17.375,4.238l.422,5.08-11.863-2.537-7.205-5.085,1.271-1.696" fill="#dcd9d8" fill-rule="evenodd"/><path id="ai" d="M216.529,183.154c-7.19-.211-13.686-1.065-19.374-2.67.386-2.332-.337-4.62.244-6.299,1.585-1.142,4.242-1.124,6.639-1.392-2.072-1.018-4.983-1.421-7.375-.833-.056-1.618-.782-2.621-1.222-3.888,4.043-1.443,13.586-10.902,18.955-7.77,2.558,1.49,3.645,10,3.843,14.138.165,3.432-.311,6.895-1.71,8.713" fill="#d33833" fill-rule="evenodd"/><path id="aj" d="M216.529,183.154c-7.19-.211-13.686-1.065-19.374-2.67.386-2.332-.337-4.62.244-6.299,1.585-1.142,4.242-1.124,6.639-1.392-2.072-1.018-4.983-1.421-7.375-.833-.056-1.618-.782-2.621-1.222-3.888,4.043-1.443,13.586-10.902,18.955-7.77,2.558,1.49,3.645,10,3.843,14.138.165,3.432-.311,6.895-1.71,8.713Z" fill="none" stroke="#d33833" stroke-miterlimit="5" stroke-width="2.5"/><path id="ak" d="M182.145,171.4c-.019.544-.042,1.092-.064,1.641-2.245,1.475-5.869,1.457-8.333,2.696,3.632.159,6.491,1.034,8.965,2.267-.055,1.37-.107,2.74-.16,4.11-4.115,2.817-7.874,7.012-12.719,9.654-2.291,1.249-10.331,4.464-12.768,3.896-1.379-.32-1.503-2.031-2.054-3.644-1.174-3.454-3.878-8.952-4.114-14.152-.3-6.567-.963-17.574,6.114-16.221,5.71,1.089,12.351,3.72,16.771,6.135,2.701,1.477,4.264,3.303,8.362,3.618" fill="#d33833" fill-rule="evenodd"/><path id="al" d="M182.145,171.4c-.019.544-.042,1.092-.064,1.641-2.245,1.475-5.869,1.457-8.333,2.696,3.632.159,6.491,1.034,8.965,2.267-.055,1.37-.107,2.74-.16,4.11-4.115,2.817-7.874,7.012-12.719,9.654-2.291,1.249-10.331,4.464-12.768,3.896-1.379-.32-1.503-2.031-2.054-3.644-1.174-3.454-3.878-8.952-4.114-14.152-.3-6.567-.963-17.574,6.114-16.221,5.71,1.089,12.351,3.72,16.771,6.135,2.701,1.477,4.264,3.303,8.362,3.618Z" fill="none" stroke="#d33833" stroke-miterlimit="5" stroke-width="2.5"/><path id="am" d="M186.232,179.236c-.628-3.577-1.354-4.598-1.073-7.719,9.541-6.361,11.332,10.927,1.073,7.719" fill="#d33833" fill-rule="evenodd"/><path id="an" d="M186.232,179.236c-.628-3.577-1.354-4.598-1.073-7.719,9.541-6.361,11.332,10.927,1.073,7.719Z" fill="none" stroke="#d33833" stroke-miterlimit="5" stroke-width="2.5"/><path id="ao" d="M200.047,182.136s-2.967-4.238-.848-5.51,4.238.001,5.51-2.118,0-3.39.423-5.933,2.544-2.967,4.662-3.39,8.052-1.271,8.899.848l-2.543-7.628-5.085-1.695-16.103,9.322-.848,4.662v9.322" fill="#ef3d3a" fill-rule="evenodd"/><path id="ap" d="M155.553,196.12c-.509-6.613-1.048-13.217-1.647-19.824-.897-9.865,2.37-8.144,10.921-8.144,1.306,0,8.042,1.557,8.524,2.543,2.311,4.72-3.865,3.671,2.662,7.231,5.51,3.004,15.242-1.824,13.017-8.502-1.246-1.485-6.491-.463-8.371-1.438-3.31-1.716-6.621-3.432-9.932-5.149-4.212-2.185-13.947-5.371-18.437-2.318-11.378,7.738.718,27.073,4.777,35.145" fill="#ef3d3a" fill-rule="evenodd"/><path id="aq" d="M166.704,45.982c-11.55-2.69-17.289,4.833-20.79,12.636-3.126-.758-1.882-5.009-1.093-7.175,2.067-5.685,10.399-13.253,17.206-12.227,2.929.441,6.894,3.12,4.676,6.766" fill="#231f20" fill-rule="evenodd"/><path id="ar" d="M222.978,59.134c.182.008.366.014.548.022,2.61,5.422,4.869,11.166,8.162,15.952-2.206,5.137-16.702,9.683-16.478.459,3.135-1.37,8.547-.28,11.326-2.03-1.607-4.41-3.926-8.164-3.557-14.402" fill="#231f20" fill-rule="evenodd"/><path id="as" d="M172.617,59.276c2.476,4.54,3.282,9.309,6.803,12.741,1.585,1.545,4.668,3.427,3.14,7.723-.357,1.013-2.967,3.272-4.474,3.716-5.503,1.625-18.327.336-13.984-6.525,4.551.212,10.669,2.956,14.071-.348-2.612-4.176-7.27-12.438-5.555-17.306" fill="#231f20" fill-rule="evenodd"/><path id="at" d="M220.912,105.415c-8.286,5.323-17.526,11.111-31.103,9.768-2.901-2.522-4.007-8.135-1.189-11.842,1.467,2.522.545,7.161,4.634,7.859,7.704,1.318,16.67-4.713,22.212-6.82,3.436-5.793-.296-7.924-3.392-11.652-6.337-7.639-14.838-17.107-14.529-28.544,2.562-1.857,2.783,2.835,3.15,3.689,3.309,7.745,11.637,17.649,17.715,24.277,1.492,1.632,3.95,3.199,4.223,4.278.788,3.139-2.051,6.899-1.721,8.987" fill="#231f20" fill-rule="evenodd"/><path id="au" d="M111.674,99.811c-2.597-1.482-3.215-8.012-6.265-8.197-4.358-.264-3.563,8.47-3.546,13.578-2.999-2.723-3.527-11.107-1.323-15.413-2.511-1.233-3.633,1.36-5.026,2.274,1.79-13.005,19.024-6.032,16.159,7.757" fill="#231f20" fill-rule="evenodd"/><path id="av" d="M226.188,110.831c-3.857,7.342-9.313,15.427-20.631,15.662-.23-2.371-.407-5.979.013-7.406,8.652-.831,13.994-5.235,20.619-8.256" fill="#231f20" fill-rule="evenodd"/><path id="aw" d="M171.964,115.59c7.219,3.796,20.486,4.204,30.297,3.917.526,2.15.514,4.805.534,7.427-12.612.629-27.524-2.492-30.831-11.344" fill="#231f20" fill-rule="evenodd"/><path id="ax" d="M170.592,122.669c4.992,12.533,22.149,11.091,36.617,10.745-.637,1.627-2.017,3.549-3.734,4.245-4.636,1.887-17.424,3.318-23.86-.1-4.082-2.17-6.705-7.073-8.941-9.948-1.08-1.388-6.458-4.934-.082-4.941" fill="#231f20" fill-rule="evenodd"/><path id="ay" d="M220.31,191.804c-5.858,10.033-11.463,20.338-18.413,29.188,2.914-8.567,4.161-22.906,4.601-33.838,6.096-2.853,11.316.642,13.812,4.65" fill="#81b0c4" fill-rule="evenodd"/><path id="az" d="M251.832,227.864c-6.558,1.313-11.167,7.687-17.565,7.278,3.516-4.957,9.678-7.047,17.565-7.278" fill="#231f20" fill-rule="evenodd"/><path id="ba" d="M254.725,238.128c-5.346.565-11.624,1.43-17.046.984,2.567-3.921,12.456-2.568,17.046-.984" fill="#231f20" fill-rule="evenodd"/><path id="bb" d="M256.578,246.977c-6.008.13-13.475.01-19.186-.469,3.378-3.628,15.29-1.346,19.186.469" fill="#231f20" fill-rule="evenodd"/><path id="bc" d="M209.005,271.193c.862,7.545,3.853,15.19,3.478,23.453-3.322,1.12-5.23,2.1-9.681,2.094-.314-7.023-1.253-17.758-.973-24.453,2.189.145,5.417-1.564,7.175-1.095" fill="#dcd9d8" fill-rule="evenodd"/><path id="bd" d="M199.32,159.993c-3.017,1.969-5.586,4.428-8.483,6.531-6.425.318-9.931-.445-14.651-4.134.078-.296.552-.164.57-.528,6.878,3.065,15.62-1.248,22.565-1.869" fill="#f0d6b7" fill-rule="evenodd"/><path id="be" d="M163.215,206.875c1.89-8.188,9.294-12.429,16.017-16.938,6.94,8.808,11.16,20.134,15.808,31.065-10.981-3.31-22.201-8.681-31.826-14.126" fill="#81b0c4" fill-rule="evenodd"/><path id="bf" d="M201.83,272.288c-.281,6.694.659,17.43.973,24.453,4.451.006,6.359-.974,9.681-2.094.375-8.263-2.616-15.908-3.478-23.453-1.758-.469-4.986,1.239-7.175,1.095ZM132.528,234.215c2.935,26.98,7.186,49.66,14.982,73.552,17.304,5.254,38.163,5.712,53.458.971-2.808-13.484-1.581-29.901-3.223-44.291-1.237-10.816-.606-21.698-2.302-32.733-18.533-3.855-44.728-.901-62.915,2.501ZM199.826,231.883c-.156,11.587.519,23.017,1.403,34.619,4.449-.668,7.469-1.114,11.603-2.02-1.342-11.169-1.177-23.737-3.912-33.618-3.16.03-5.943-.037-9.095,1.019ZM222.397,230.016c-2.112-.484-4.57-.019-6.588.02.948,9.446,3.249,19.869,4.059,29.784,3.174.099,4.87-1.398,7.481-1.902.14-8.703-.76-20.694-4.953-27.902h0ZM256.574,261.242c6.617-1.607,10.778-9.711,8.927-18.034-1.242-5.594-3.454-16.126-5.821-19.705-1.749-2.647-6.492-6.112-10.279-3.687-6.161,3.945-17.013,5.09-21.506,9.865,2.253,7.5,2.952,17.803,3.881,27.306,7.696.48,17.166-2.118,23.567.639-4.469,1.447-10.267,1.459-14.128,3.568,3.155,1.524,10.543,1.216,15.359.047h0ZM195.041,221.001c-4.648-10.93-8.868-22.257-15.808-31.065-6.724,4.509-14.128,8.75-16.017,16.938,9.624,5.445,20.844,10.816,31.826,14.126ZM206.497,187.154c-.44,10.931-1.687,25.27-4.601,33.838,6.95-8.85,12.555-19.154,18.413-29.188-2.497-4.008-7.717-7.503-13.812-4.65ZM193.51,182.539c-2.633-.283-4.868,3.027-8.291,1.595-.784.867-1.498,1.806-2.297,2.653,7.561,9.113,10.998,22.041,16.838,32.75,3.134-10.287,2.773-21.557,3.463-32.784-4.306.273-6.694-3.894-9.712-4.214ZM185.159,171.517c-.281,3.121.445,4.142,1.073,7.719,10.259,3.207,8.468-14.081-1.073-7.719ZM173.782,167.782c-4.421-2.415-11.061-5.046-16.771-6.135-7.077-1.354-6.414,9.654-6.114,16.221.236,5.199,2.94,10.698,4.114,14.152.551,1.613.675,3.324,2.054,3.644,2.437.568,10.477-2.647,12.768-3.896,4.845-2.642,8.604-6.837,12.719-9.654.053-1.37.106-2.74.16-4.11-2.474-1.233-5.333-2.108-8.965-2.267,2.464-1.239,6.088-1.222,8.333-2.696.022-.549.044-1.097.064-1.641-4.099-.315-5.661-2.141-8.362-3.618ZM131.559,160.113c-3.669,3.725,10.29,8.802,14.735,9.076-.025-2.357,1.343-4.579,1.068-6.27-5.279-.927-12.216-.315-15.802-2.806ZM176.755,161.862c-.018.364-.492.231-.57.528,4.72,3.689,8.226,4.452,14.651,4.134,2.897-2.103,5.466-4.561,8.483-6.531-6.945.62-15.687,4.934-22.565,1.869ZM218.239,174.441c-.198-4.138-1.285-12.648-3.843-14.138-5.369-3.134-14.912,6.327-18.955,7.77.44,1.266,1.166,2.269,1.222,3.888,2.391-.589,5.302-.186,7.375.833-2.396.268-5.053.25-6.639,1.392-.581,1.679.142,3.968-.244,6.299,5.688,1.604,12.184,2.459,19.374,2.67,1.398-1.818,1.875-5.281,1.71-8.713ZM125.383,163.715c-1.152-.821-8.946-10.962-10.014-10.541-14.103,5.562-27.29,15.179-39.074,24.275,11.235,24.108,15.771,53.645,16.572,82.113,12.871,6.02,24.175,14.698,41.64,15.604-2.021-14.299-3.866-27.057-5.013-40.519-4.388-1.85-10.684.084-14.791-.574-.035-4.949,6.272-2.167,6.797-5.495.396-2.517-3.47-2.708-2.211-6.672,3.21,1.167,4.896,3.745,8.32,4.713,3.129-6.845-.044-18.955.407-24.676.085-1.074.536-5.951,2.942-5.095,2.129.757-.122,12.969.112,18.384.213,4.988-.602,9.815,1.418,12.947,16.877-2.297,34.026-3.782,52.286-4.283-4.017-1.724-8.79-3.355-14.022-6.304-2.836-1.599-11.778-4.926-12.596-7.62-1.306-4.293,3.426-6.58,4.236-10.26-8.519,4.646-10.181-4.453-12.196-10.9-1.826-5.839-2.865-10.201-3.313-13.568-7.339-3.499-15.185-7.042-21.501-11.528h0ZM210.785,154.401c11.75-5.698,13.868,21.295,9.262,29.99.712,2.593,3.16,3.586,4.16,5.918-6.557,11.746-13.84,22.711-20.531,34.319,4.977-3.098,12.086-.554,17.943-2.873,2.141-.847,3.69-5.748,5.311-9.668,4.458-10.786,9.139-24.385,11.221-34.679.47-2.345,1.752-7.456,1.464-9.543-.512-3.738-5.583-6.509-8.163-8.82-4.752-4.269-7.745-8.026-12.701-12.017-2.01,2.967-6.323,4.96-7.967,7.373h0ZM98.51,50.197c-5.599,6.161-4.427,17.704-3.749,25.916,10.12-6.367,23.553.503,23.427,11.332,4.832-.128,1.805-6.035.931-9.84-2.856-12.428,4.812-25.93.348-37.295-8.668.657-15.789,4.198-20.956,9.887h0ZM138.572,14.442c-12.675,3.593-28.92,12.803-34.129,24.19,4.033-.586,6.833-2.62,10.812-2.872,1.504-.098,3.474.631,5.202.201,3.444-.854,6.35-8.576,8.948-11.449,2.533-2.806,5.577-4.004,7.66-6.562,1.338-.646,3.317-.601,3.393-2.611-.58-.62-1.191-1.093-1.886-.896ZM204.555,17.821c-13.156-7.423-35.425-13.006-49.42-6.03-11.292,5.63-26.557,14.946-31.761,26.751,4.862,11.392-1.44,21.83-1.842,33.396-.214,6.154,2.898,11.527,3.136,18.226-1.664,2.745-6.746,3.083-10.265,2.895-1.184-5.927-3.258-12.588-9.361-13.257-8.636-.945-14.95,6.203-15.342,13.671-.464,8.783,6.746,23.34,16.966,22.33,3.948-.39,4.918-4.348,9.219-4.307,2.331,4.652-3.596,6.112-4.206,9.439-.159.859.492,4.218.87,5.793,1.856,7.67,5.994,17.596,10.067,23.435,5.169,7.406,15.326,8.523,26.252,9.248,1.952-4.204,9.141-3.858,13.825-2.759-5.614-2.223-10.833-7.614-15.158-12.385-4.968-5.474-10.001-11.346-10.255-18.501,9.389,13.025,17.146,24.401,34.218,30.13,12.918,4.332,28.006-1.986,37.932-8.956,4.119-2.897,6.578-7.494,9.505-11.702,10.955-15.757,16.066-38.249,14.942-60.048-.463-8.99-.442-17.95-3.459-23.999-3.153-6.325-13.816-11.983-20.058-6.262-1.157-6.15,5.191-9.954,12.647-7.741-5.316-6.861-10.896-15.105-18.452-19.369h0ZM229.066,220.673c10.281-5.111,29.49-13.757,35.935.019,2.379,5.078,5.169,13.661,6.401,18.903,1.74,7.395-1.887,22.937-9.487,25.419-6.714,2.191-14.547,2.058-22.634.434-.952-.792-2.012-2.173-2.754-3.612-5.774-.224-11.181.31-15.742,2.684.432,4.27-2.456,4.956-5.164,5.835-2.007,7.959,4.016,18.353,2.574,25.611-1.028,5.17-7.39,5.97-12.066,6.937-.153,2.873.205,5.272.524,7.703-1.069,3.939-5.864,6.182-10.408,6.731-14.949,1.798-37.646,2.605-52.025-2.565-4.012-9.842-7.173-21.812-10.515-33.05-14.024,1.498-25.366-6.051-36.058-10.996-3.702-1.716-8.823-2.662-10.206-5.608-1.341-2.853-.792-8.321-1.125-13.486-.847-13.192-1.572-25.916-5.055-39.423-1.564-6.061-4.291-11.41-6.192-17.25-1.758-5.413-4.829-12.102-5.63-17.5-1.188-8,6.345-8.445,11.162-11.912,7.446-5.361,13.291-8.326,21.356-13.164,2.389-1.433,9.592-5.06,10.411-6.73,1.629-3.312-2.796-7.981-3.979-10.577-1.871-4.105-2.847-7.592-3.115-11.642-6.765-1.069-11.893-5.095-14.991-9.635-5.124-7.513-8.678-21.413-4.244-31.986.348-.833,2.082-2.47,2.337-3.749.505-2.518-.95-5.867-1.04-8.545-.466-13.742,2.325-25.583,11.577-29.727,3.756-14.962,17.198-19.936,29.862-27.372,4.734-2.779,9.953-4.555,15.342-6.538C163.45-1.237,193.113.103,209.159,12.239c6.804,5.146,17.68,16.012,21.57,23.878,10.274,20.769,9.545,55.478,2.358,80.742-.966,3.392-2.367,8.378-4.324,12.452-1.364,2.845-5.604,8.538-5.089,11.05.53,2.597,9.667,9.535,11.626,11.424,3.528,3.403,10.23,7.92,10.773,12.214.584,4.57-2.014,10.822-3.329,15.232-4.399,14.717-8.69,28.321-13.678,41.442" fill="#231f20" fill-rule="evenodd"/><path id="bg" d="M160.477,118.796c.558-.742,3.624-1.87,7.915.196,0,0-5.085.848-4.662,9.326l-2.119-.425s-2.19-7.687-1.134-9.097" fill="#f7e4cd" fill-rule="evenodd"/><path id="bh" d="M197.631,191.667c0,1.287-1.044,2.33-2.332,2.33s-2.33-1.043-2.33-2.33,1.044-2.332,2.33-2.332,2.332,1.045,2.332,2.332" fill="#1d1919" fill-rule="evenodd"/><path id="bi" d="M199.962,202.472c0,1.287-1.044,2.33-2.332,2.33s-2.33-1.043-2.33-2.33,1.044-2.332,2.33-2.332,2.332,1.045,2.332,2.332" fill="#1d1919" fill-rule="evenodd"/></g></g></svg>