<?xml version="1.0" encoding="utf-8"?>
<!-- Generator: Adobe Illustrator 25.4.1, SVG Export Plug-In . SVG Version: 6.00 Build 0)  -->
<svg version="1.1" id="Calque_1" xmlns="http://www.w3.org/2000/svg" xmlns:xlink="http://www.w3.org/1999/xlink" x="0px" y="0px"
	 viewBox="0 0 2500 2500" style="enable-background:new 0 0 2500 2500;" xml:space="preserve">
<style type="text/css">
	.st0{fill:#1266A9;}
</style>
<g>
	<path class="st0" d="M191.2,1627.9c2.4,5.3,5,10.3,7.9,15.2c1.3,2.9,3.2,5.9,4.8,8.5c2.7,5.3,5.5,10.5,8.3,15.6l16.1,27.1
		c3,5,5.9,10,9.2,14.9c5.6,9.7,12.3,19.1,18.2,28.8c2.7,4,5.1,8,8.1,12c11.3,17.6,21.6,32.1,32.6,46.3c7.8,10.6,15.6,21,24,31.3
		c2.8,3.9,5.9,7.8,8.7,11.7l22.7,27.5c2.8,3.2,5.5,6.9,8.5,10.2c10.1,12.1,20.7,23.8,31.4,35.7c0,0.2,0.3,0.4,0.5,0.7
		c13.2,16.6,27.5,31.4,43.1,44.6l0.4,0.4c8.2,8.4,16.4,16.7,25.2,25l10.4,10c11.4,10.7,22.8,21.3,34.8,31.5c0.2,0,0.3,0.2,0.5,0.3
		l5.9,5.1c10.5,9.1,21.1,18.2,31.8,26.6l12.8,10.8c8.7,7,17.8,13.6,26.7,20.4l14,10.7c9.6,7.2,19.7,14.2,29.5,21.2
		c3.6,2.6,7.2,5.1,10.9,7.5l3,2.4l28.9,18.9l12.3,8.2c15.1,9.7,30.1,18.7,45.1,27.7c4.3,2.2,8.6,4.5,12.6,7
		c11.1,6.4,22.6,12.8,33.8,18.7c6.2,3.5,12.5,6.5,18.9,9.7c7.7,4.3,15.7,8.5,23.9,12.8c2.3,0.7,4.1,1.4,6,2.5l0.4-0.4
		c3.4,1.5,6.6,3.2,9.9,4.8c12.3,6.2,25.2,12,38.5,17.8c2.5,1,5.1,2.1,7.8,3.5c14.8,6.5,29.6,12.6,44.9,18.6c3.5,1,7.2,2.8,10.8,4.1
		c13.9,5.2,28.1,10.6,42.3,15.6l5.1,1.8c15.7,5.3,31.2,10.5,47.2,15.3c3.7,1,7.5,2.4,11.4,3.4c16.3,4.9,32.1,10.8,48.7,13.9
		c817,148.2,1185.2-311.7,1309.7-526.7c9-15.5-11.4-31.2-24.1-18.6c-265.5,262.5-678.5,326.8-1071.6,237.9c-16-3.7-32-8.8-48.3-13.6
		c-22.9-6.5-45.6-13.6-68.1-21.5l9.8,3l-6.4-2.5c-14-4.7-27.4-10-41.1-15.2c-3.3-1.4-6.7-2.7-10.2-3.9l-1.1-0.3
		c-15.1-6.1-29.8-12.2-44.4-18.7c-3.2-1-5.9-2.5-9-3.7c-17.3-7.5-34.4-15.4-51.3-23.6l14.2,6.3c-3.7-1.6-7.3-3.4-10.9-5.3
		c-9.7-4.5-19.3-9.7-28.8-14.5c-7.2-3.4-14.3-7-21.3-10.9l2.1,1c-11.6-6.2-23.2-12.8-34.9-19.1c-3.5-2.5-7.5-4.5-11.5-6.8
		c-17.4-10.1-34.6-20.6-51.6-31.4l6.5,3.9c-4.3-2.7-8.6-5.5-12.7-8.5l0.6,0.4c-11-6.8-21.9-13.9-32.5-21.4
		c-3.5-2.3-6.7-4.7-10.3-7.2c-11.1-7.6-22-15.4-32.7-23.4l2.5,1.7c-4.3-3.5-8.9-6.8-13.6-10.2c-9-7.1-18.2-13.9-27.2-21.3l-12.1-9.7
		c-12.9-10.3-25.6-20.9-38-31.7l-0.1-0.1l-35.6-32.4l-10.3-9.7c-8.4-8.5-17-16.6-25.7-25.1l-10-10.3c-10.6-10.5-21-21.3-31.1-32.4
		l-0.6-0.7l-1.7-1.4c-10.9-11.9-21.6-24-32.1-36.3c-2.8-3.2-5.3-6.6-8.2-10l-23.3-28.2c-10.5-13.2-20.8-26.6-30.8-40.2l-4.1-5.8
		c-217-294.8-308.8-690.8-182.7-1036.9c6-16.4-15.6-28.4-26.5-14.8l-95.3,120.6c-218.2,312.1-191.2,718-24.3,1049.4
		C182.9,1612.6,187.1,1620.2,191.2,1627.9L191.2,1627.9z"/>
	<path d="M926.2,1178.3l-1.1-1.6l-0.9-1.2L926.2,1178.3z"/>
	<path class="st0" d="M1041,1313.1l9.2,9.2c11.7,11.3,23.7,22.3,35.9,33.3l1.5,1.3c12.3,10.9,26.2,22.3,40.5,33.4l2.2,1.6
		c3.5,2.4,6.5,5.1,9.9,7.5c14.4,11.1,28.9,21.7,44,32.2l1.5,0.9c6.4,4.6,13.1,8.8,20.3,13.4c2.9,1.8,6.2,4.3,9.2,6.2
		c10.9,7,21.6,13.5,32.6,20.1c1.7,0.7,3.3,1.6,4.9,2.4c9.2,5.6,19.3,11.1,29,16c3.4,2.1,6.7,3.6,10.2,5.5c6.9,3.4,13.7,7,20.2,10.5
		l3.3,1.4c13.9,6.8,28,13.1,41.9,19.4c3.5,1.3,6.5,2.5,9.4,3.9c11.4,4.9,23,9.7,34.4,14c5.1,1.7,10,3.8,14.8,5.3
		c10.5,3.9,21.5,7.5,31.8,11.1l14.4,4.6c15,4.6,30.2,10.7,46.1,13.1c601.8,99.1,861.9-215.5,956.8-386.8
		c8.7-15.7-11.8-30.9-24.4-18.2c-181.4,183.8-471.2,262.6-777.6,183.4c-17.5-4.4-34.8-9.4-52-14.9l5.9,1.6c-4.9-1.3-9.2-2.9-14-4.3
		c-10.7-3.7-21.7-7.3-32-11.1l-14.8-5.5c-11.5-4.6-23.2-8.9-34.4-13.9c-3.5-1.5-6.7-2.6-9.3-4.1c-14.4-6.5-28.9-12.8-42.9-19.6
		l-21.2-11l-12.2-6.2c-9.4-4.9-18.2-10.1-27.2-15.3c-2.3-1.1-4.5-2.3-6.7-3.7l0.3,0.1c-10.9-6.8-22.2-13.4-32.7-20.2
		c-3.5-2-6.7-4.3-10-6.4l-21.4-13.9c-14.8-10.3-29.3-21.3-44-31.9c-3.3-3-6.5-5.4-9.7-8.1c-153.9-120.5-275.3-285.1-333-471.5
		c-45.6-145.4-49.4-304.1-4.2-448.8c5.2-16.7-17-27.8-27.1-13.5l-40.1,56.4c-158.3,226-149.3,528.2-26.1,767.3
		c22.5,44.2,45.3,81.4,70.5,117c23.4,33.5,49.3,72.7,80.5,99.6C1016.7,1288.8,1028.6,1300.8,1041,1313.1L1041,1313.1z"/>
	<path d="M297,1797l-0.4-0.6l-0.7-0.9L297,1797z M724,1720.6l1,0.7l0.2,0.3L724,1720.6z"/>
	<path class="st0" d="M1450.3,95.8c-93.4,136.3-102.3,305.5-38,455.8c68.3,159.6,207.9,284.9,370.5,344.2c6.7,2.6,13.1,4.7,20,7.2
		l9,2.8c9.4,3,19,6.5,28.8,8.6c302.8,58.1,457-66.1,535.4-167.7c10.7-13.9-6.7-32-21-21.9c-108.9,77-247.6,90.8-417.1,49.8
		c-19.2-4.7-38-10.5-56.5-17.5l3.4,1.1c-23-7.9-45.5-17.2-67.4-27.7l3.9,1.7c-42.1-20.5-78.3-42.7-111.8-68.2
		c-167.2-126.4-280.2-349.8-232-555.7C1481.4,92,1460.1,82.2,1450.3,95.8L1450.3,95.8z"/>
</g>
</svg>
