<?xml version="1.0" encoding="UTF-8"?><svg id="a" xmlns="http://www.w3.org/2000/svg" viewBox="0 0 257.548 257.548"><path d="M173.135,142.232c-9.727,0-18.448,4.309-24.419,11.094l-15.302-10.833c1.624-4.472,2.557-9.275,2.557-14.301,0-4.939-.9-9.661-2.471-14.067l15.268-10.718c5.971,6.751,14.669,11.037,24.368,11.037,17.954,0,32.562-14.606,32.562-32.563s-14.609-32.563-32.562-32.563-32.562,14.606-32.562,32.563c0,3.214.486,6.313,1.357,9.248l-15.278,10.724c-6.382-7.918-15.572-13.446-26.041-15.133v-18.413c14.75-3.098,25.864-16.203,25.864-31.862,0-17.956-14.609-32.562-32.563-32.562s-32.563,14.606-32.563,32.563c0,15.45,10.826,28.393,25.281,31.712v18.653c-19.727,3.463-34.778,20.679-34.778,41.384s15.2,38.085,35.069,41.43v19.696c-14.603,3.21-25.572,16.233-25.572,31.787,0,17.956,14.609,32.562,32.563,32.562s32.563-14.606,32.563-32.562c0-15.555-10.969-28.578-25.572-31.787v-19.697c10.057-1.694,19.156-6.986,25.601-14.889l15.404,10.903c-.855,2.909-1.334,5.977-1.334,9.159,0,17.956,14.609,32.562,32.563,32.562s32.562-14.606,32.562-32.562-14.609-32.562-32.563-32.562ZM173.135,66.093c8.706,0,15.787,7.084,15.787,15.788s-7.081,15.787-15.787,15.787-15.787-7.084-15.787-15.787,7.081-15.788,15.787-15.788ZM78.123,36.443c0-8.704,7.082-15.787,15.788-15.787s15.787,7.084,15.787,15.787-7.081,15.787-15.787,15.787-15.788-7.084-15.788-15.787ZM109.698,221.105c0,8.704-7.081,15.787-15.787,15.787s-15.788-7.084-15.788-15.787,7.082-15.787,15.788-15.787,15.787,7.084,15.787,15.787ZM93.909,150.21c-12.142,0-22.02-9.876-22.02-22.018s9.878-22.02,22.02-22.02,22.02,9.878,22.02,22.02-9.878,22.018-22.02,22.018ZM173.135,190.582c-8.706,0-15.787-7.084-15.787-15.788s7.081-15.787,15.787-15.787,15.787,7.084,15.787,15.787-7.081,15.788-15.787,15.788Z" fill="#231f20"/></svg>