<?xml version="1.0" encoding="UTF-8"?><svg id="a" xmlns="http://www.w3.org/2000/svg" viewBox="0 0 722.846 722.846"><g id="b"><g id="c"><path id="d" d="M358.986,20.5c-6.213.313-12.301,1.854-17.906,4.531l-244.344,116.75c-12.811,6.118-22.116,17.689-25.281,31.438L11.174,435.469c-2.812,12.207-.524,25.024,6.344,35.531.824,1.271,1.711,2.502,2.656,3.688l169.125,210.281c8.868,11.022,22.313,17.44,36.531,17.438l271.219-.062c14.212.01,27.657-6.396,36.531-17.406l169.062-210.312c8.873-11.028,12.197-25.464,9.031-39.219l-60.375-262.25c-3.165-13.748-12.47-25.319-25.281-31.438L381.643,25.031c-7.05-3.368-14.841-4.926-22.656-4.531Z" fill="#326ce5"/><path id="e" d="M361.408,109.747c-8.077,0-14.626,7.276-14.625,16.25,0,.138.028.269.031.406-.012,1.219-.071,2.688-.031,3.75.193,5.176,1.321,9.137,2,13.906,1.23,10.207,2.261,18.667,1.625,26.531-.619,2.965-2.803,5.677-4.75,7.562l-.344,6.188c-8.777.727-17.612,2.059-26.438,4.062-37.975,8.622-70.67,28.183-95.562,54.594-1.615-1.102-4.441-3.129-5.281-3.75-2.611.353-5.25,1.158-8.688-.844-6.545-4.406-12.506-10.487-19.719-17.812-3.305-3.504-5.698-6.841-9.625-10.219-.892-.767-2.253-1.805-3.25-2.594-3.07-2.448-6.691-3.724-10.188-3.844-4.496-.154-8.824,1.604-11.656,5.156-5.035,6.315-3.423,15.968,3.594,21.562.071.057.147.101.219.156.964.782,2.145,1.783,3.031,2.438,4.167,3.077,7.973,4.651,12.125,7.094,8.747,5.402,15.998,9.881,21.75,15.281,2.246,2.394,2.639,6.613,2.938,8.438l4.688,4.188c-25.093,37.764-36.707,84.409-29.844,131.938l-6.125,1.781c-1.614,2.085-3.895,5.365-6.281,6.344-7.525,2.37-15.994,3.241-26.219,4.312-4.8.399-8.942.161-14.031,1.125-1.12.212-2.681.619-3.906.906-.043.009-.082.022-.125.031-.067.016-.155.048-.219.062-8.62,2.083-14.158,10.006-12.375,17.812,1.783,7.808,10.203,12.557,18.875,10.688.063-.014.154-.017.219-.031.098-.022.184-.07.281-.094,1.209-.265,2.724-.561,3.781-.844,5.003-1.34,8.627-3.308,13.125-5.031,9.677-3.471,17.692-6.37,25.5-7.5,3.261-.255,6.697,2.012,8.406,2.969l6.375-1.094c14.67,45.483,45.414,82.245,84.344,105.312l-2.656,6.375c.957,2.475,2.013,5.825,1.3,8.269-2.839,7.361-7.701,15.131-13.238,23.793-2.681,4.002-5.425,7.108-7.844,11.688-.579,1.096-1.316,2.779-1.875,3.938-3.759,8.042-1.002,17.305,6.219,20.781,7.266,3.498,16.284-.191,20.188-8.25.006-.011.026-.02.031-.031.004-.009-.004-.023,0-.031.556-1.143,1.344-2.644,1.812-3.719,2.072-4.747,2.762-8.815,4.219-13.406,3.87-9.72,5.996-19.919,11.323-26.274,1.459-1.74,3.837-2.409,6.302-3.07l3.312-6c33.938,13.027,71.927,16.522,109.875,7.906,8.657-1.966,17.014-4.509,25.094-7.562.931,1.651,2.661,4.826,3.125,5.625,2.506.815,5.24,1.236,7.469,4.531,3.985,6.809,6.711,14.864,10.031,24.594,1.457,4.591,2.178,8.659,4.25,13.406.472,1.082,1.256,2.605,1.812,3.75,3.895,8.085,12.942,11.787,20.219,8.281,7.22-3.478,9.98-12.74,6.219-20.781-.559-1.158-1.327-2.842-1.906-3.938-2.419-4.58-5.163-7.654-7.844-11.656-5.537-8.662-10.13-15.858-12.969-23.219-1.187-3.797.2-6.158,1.125-8.625-.554-.635-1.739-4.22-2.438-5.906,40.457-23.888,70.299-62.021,84.312-106.062,1.892.297,5.182.879,6.25,1.094,2.2-1.451,4.222-3.344,8.188-3.031,7.808,1.129,15.823,4.03,25.5,7.5,4.498,1.723,8.122,3.723,13.125,5.062,1.057.283,2.572.547,3.781.812.097.024.183.071.281.094.065.015.156.017.219.031,8.672,1.867,17.094-2.879,18.875-10.688,1.781-7.807-3.754-15.732-12.375-17.812-1.254-.285-3.032-.769-4.25-1-5.089-.964-9.231-.726-14.031-1.125-10.225-1.071-18.693-1.943-26.219-4.312-3.068-1.19-5.251-4.841-6.313-6.344l-5.906-1.719c3.062-22.154,2.237-45.211-3.062-68.281-5.348-23.285-14.8-44.581-27.406-63.344,1.515-1.377,4.376-3.911,5.188-4.656.237-2.624.033-5.376,2.75-8.281,5.751-5.401,13.003-9.879,21.75-15.281,4.152-2.443,7.99-4.017,12.156-7.094.942-.696,2.229-1.798,3.219-2.594,7.015-5.596,8.631-15.248,3.594-21.562s-14.797-6.909-21.812-1.312c-.999.791-2.354,1.823-3.25,2.594-3.927,3.378-6.351,6.714-9.656,10.219-7.212,7.326-13.174,13.438-19.719,17.844-2.836,1.651-6.99,1.08-8.875.969l-5.562,3.969c-31.719-33.261-74.905-54.525-121.406-58.656-.13-1.949-.3-5.471-.344-6.531-1.904-1.822-4.203-3.377-4.781-7.312-.636-7.864.426-16.325,1.656-26.531.679-4.769,1.807-8.73,2-13.906.044-1.177-.026-2.884-.031-4.156,0-8.974-6.548-16.251-14.625-16.25h0ZM343.095,223.184l-4.344,76.719-.312.156c-.291,6.863-5.94,12.344-12.875,12.344-2.841,0-5.463-.912-7.594-2.469l-.125.062-62.906-44.594c19.334-19.011,44.063-33.06,72.562-39.531,5.206-1.182,10.41-2.059,15.594-2.688ZM379.751,223.184c33.273,4.092,64.045,19.159,87.625,42.25l-62.5,44.312-.219-.094c-5.547,4.052-13.363,3.046-17.688-2.375-1.771-2.221-2.701-4.832-2.812-7.469l-.062-.031-4.344-76.594ZM232.126,294.059l57.438,51.375-.062.312c5.184,4.507,5.949,12.328,1.625,17.75-1.771,2.221-4.142,3.711-6.688,4.406l-.062.25-73.625,21.25c-3.747-34.265,4.329-67.574,21.375-95.344ZM490.283,294.091c8.534,13.833,14.997,29.282,18.844,46.031,3.801,16.548,4.755,33.067,3.188,49.031l-74-21.312-.062-.312c-6.626-1.811-10.699-8.552-9.156-15.312.632-2.77,2.102-5.113,4.094-6.844l-.031-.156,57.125-51.125h0ZM349.626,349.403h23.531l14.625,18.281-5.25,22.812-21.125,10.156-21.188-10.188-5.25-22.812,14.656-18.25ZM425.064,411.966c1-.05,1.996.04,2.969.219l.125-.156,76.156,12.875c-11.146,31.313-32.473,58.44-60.969,76.594l-29.562-71.406.094-.125c-2.716-6.31.002-13.71,6.25-16.719,1.6-.77,3.271-1.197,4.938-1.281h0ZM297.158,412.278c5.812.081,11.025,4.115,12.375,10.031.632,2.77.324,5.514-.719,7.938l.219.281-29.25,70.688c-27.347-17.549-49.129-43.824-60.781-76.062l75.5-12.812.125.156c.845-.155,1.701-.23,2.531-.219h0ZM360.939,443.247c2.024-.074,4.079.341,6.031,1.281,2.56,1.233,4.537,3.173,5.781,5.5h.281l37.219,67.25c-4.83,1.619-9.796,3.003-14.875,4.156-28.465,6.463-56.839,4.505-82.531-4.25l37.125-67.125h.062c2.228-4.164,6.452-6.649,10.906-6.812Z" fill="#fff" stroke="#fff" stroke-width=".25"/></g></g></svg>