<?xml version="1.0" encoding="utf-8"?>
<!-- Generator: Adobe Illustrator 25.4.1, SVG Export Plug-In . SVG Version: 6.00 Build 0)  -->
<svg version="1.1" id="Calque_1" xmlns="http://www.w3.org/2000/svg" xmlns:xlink="http://www.w3.org/1999/xlink" x="0px" y="0px"
	 viewBox="0 0 252.9 252.9" style="enable-background:new 0 0 252.9 252.9;" xml:space="preserve">
<style type="text/css">
	.st0{clip-path:url(#SVGID_00000120556199332431603790000015305700900964528316_);}
	.st1{fill:url(#SVGID_00000101087877654525248190000013142748858042110907_);}
	.st2{clip-path:url(#SVGID_00000124127744681296161730000012642527515517715623_);}
	.st3{fill:url(#SVGID_00000175311148539779606780000006750453492167589817_);}
	.st4{clip-path:url(#SVGID_00000037667005047295481950000011868802983164653227_);}
	.st5{fill:url(#SVGID_00000162351828368879502470000004591313537250644142_);}
</style>
<g id="Calque_1-2">
	<g>
		<g>
			<defs>
				<path id="SVGID_1_" d="M120.7,5.9L25,61.1c-3.6,2-5.8,5.9-5.8,10v110.5c0,4.2,2.1,8,5.8,10.1l95.6,55.2c3.6,2,8,2,11.6,0
					l95.6-55.2c3.6-2,5.8-5.9,5.8-10.1V71.2c0-4.1-2.2-7.9-5.8-10L132.3,6C128.7,3.8,124.3,3.8,120.7,5.9"/>
			</defs>
			<clipPath id="SVGID_00000085935297666782051190000000423039911202486667_">
				<use xlink:href="#SVGID_1_"  style="overflow:visible;"/>
			</clipPath>
			<g style="clip-path:url(#SVGID_00000085935297666782051190000000423039911202486667_);">
				
					<linearGradient id="SVGID_00000121994191704858992580000003144642899616212655_" gradientUnits="userSpaceOnUse" x1="-1049.451" y1="102.3357" x2="-1046.7432" y2="102.3357" gradientTransform="matrix(-50.75 103.54 103.54 50.75 -63660.3906 103453.4375)">
					<stop  offset="0.3" style="stop-color:#3E863D"/>
					<stop  offset="0.5" style="stop-color:#55934F"/>
					<stop  offset="0.8" style="stop-color:#5AAD45"/>
				</linearGradient>
				<path style="fill:url(#SVGID_00000121994191704858992580000003144642899616212655_);" d="M330.5,51.8L60.8-80.4L-77.4,201.6
					l269.5,132.1L330.5,51.8z"/>
			</g>
		</g>
	</g>
	<g>
		<g>
			<defs>
				<path id="SVGID_00000012438932114078120800000015151332743433182873_" d="M21.7,188.7c0.9,1.2,2,2.2,3.4,3l82.1,47.4l13.7,7.9
					c2.7,1.6,6,2,8.9,1.1L230.6,63.3c-0.8-0.9-1.7-1.6-2.7-2.1l-62.7-36.2l-33.1-19c-1-0.5-2-1-3-1.2L21.7,188.7z"/>
			</defs>
			<clipPath id="SVGID_00000167373405289625272520000013302315828343269549_">
				<use xlink:href="#SVGID_00000012438932114078120800000015151332743433182873_"  style="overflow:visible;"/>
			</clipPath>
			<g style="clip-path:url(#SVGID_00000167373405289625272520000013302315828343269549_);">
				
					<linearGradient id="SVGID_00000002366354394467014060000001167164355928709255_" gradientUnits="userSpaceOnUse" x1="-1060.244" y1="78.5295" x2="-1058.4727" y2="78.5295" gradientTransform="matrix(142.41 -105.22 -105.22 -142.41 159252.5469 -100155.9062)">
					<stop  offset="0.57" style="stop-color:#3E863D"/>
					<stop  offset="0.72" style="stop-color:#619857"/>
					<stop  offset="1" style="stop-color:#76AC64"/>
				</linearGradient>
				<path style="fill:url(#SVGID_00000002366354394467014060000001167164355928709255_);" d="M-94.8,90.8L95.5,348.3l251.8-185.9
					L156.8-95.2L-94.8,90.8z"/>
			</g>
		</g>
	</g>
	<g>
		<g>
			<defs>
				<path id="SVGID_00000002349075225185143800000009944125568802299017_" d="M125.3,4.3c-1.7,0.2-3.2,0.7-4.6,1.5L25.4,60.9
					l102.9,187.4c1.5-0.2,2.8-0.7,4.1-1.4l95.6-55.1c2.9-1.7,5-4.6,5.6-7.9L128.7,4.6c-0.8-0.2-1.6-0.3-2.3-0.3
					C126,4.3,125.7,4.3,125.3,4.3"/>
			</defs>
			<clipPath id="SVGID_00000093151581161547611490000012371413482169771690_">
				<use xlink:href="#SVGID_00000002349075225185143800000009944125568802299017_"  style="overflow:visible;"/>
			</clipPath>
			<g style="clip-path:url(#SVGID_00000093151581161547611490000012371413482169771690_);">
				
					<linearGradient id="SVGID_00000085941168536578145410000000037195192826498688_" gradientUnits="userSpaceOnUse" x1="-1051.3241" y1="76.3311" x2="-1049.723" y2="76.3311" gradientTransform="matrix(129.89 0 0 -129.89 136581.5625 10040.958)">
					<stop  offset="0.16" style="stop-color:#6BBF47"/>
					<stop  offset="0.38" style="stop-color:#79B461"/>
					<stop  offset="0.47" style="stop-color:#75AC64"/>
					<stop  offset="0.7" style="stop-color:#659E5A"/>
					<stop  offset="0.9" style="stop-color:#3E863D"/>
				</linearGradient>
				<path style="fill:url(#SVGID_00000085941168536578145410000000037195192826498688_);" d="M25.3,4.3v244h208.3V4.3H25.3z"/>
			</g>
		</g>
	</g>
</g>
</svg>
