<?xml version="1.0" encoding="utf-8"?>
<!-- Generator: Adobe Illustrator 25.4.1, SVG Export Plug-In . SVG Version: 6.00 Build 0)  -->
<svg version="1.1" id="Layer_1" xmlns="http://www.w3.org/2000/svg" xmlns:xlink="http://www.w3.org/1999/xlink" x="0px" y="0px"
	 viewBox="0 0 165.5 165.5" style="enable-background:new 0 0 165.5 165.5;" xml:space="preserve">
<style type="text/css">
	.st0{fill:none;}
	.st1{fill:url(#SVGID_1_);}
	.st2{fill:url(#SVGID_00000145029445366590003120000013919051648003991975_);}
	.st3{fill:url(#SVGID_00000062875817827291477430000015815423399548879802_);}
	.st4{fill:url(#SVGID_00000011010593514348205120000002482694953741855908_);}
</style>
<g>
	<path class="st0" d="M82.9,97.3L82.9,97.3C82.9,97.1,82.9,97.1,82.9,97.3z"/>
	
		<linearGradient id="SVGID_1_" gradientUnits="userSpaceOnUse" x1="-696.2482" y1="951.0036" x2="-696.2482" y2="995.2535" gradientTransform="matrix(1 0 0 1 758 -852.6286)">
		<stop  offset="0" style="stop-color:#F29100"/>
		<stop  offset="1" style="stop-color:#EC670F"/>
	</linearGradient>
	<path class="st1" d="M82.2,132.7c-0.5-1-1.9-3.4-2.5-4.2c-1.5-1.8-1.9-1.9-2.2-4.1c-0.8-3.8-2.7-10.7-5.2-15.5
		c-1.3-2.4-3.2-4.5-5.1-6.3c-1.7-1.6-5.3-4.2-6-4.1c-6,1.2-7.8,7-10.6,11.7c-1.6,2.5-3.2,4.8-4.4,7.5c-1.2,2.5-1.1,5.3-2.9,7.4
		c-2,2.2-3.3,4.6-4.3,7.4c-0.2,0.6-0.7,6.3-1.3,7.6l8.9-0.6c8.3,0.6,5.9,3.7,18.9,3l20.4-0.6c-0.6-1.9-1.5-4-1.9-4.8
		C83.4,136,82.7,133.6,82.2,132.7z"/>
	
		<linearGradient id="SVGID_00000120560057284975318830000000415039068150286498_" gradientUnits="userSpaceOnUse" x1="-667.1893" y1="994.3748" x2="-667.1893" y2="994.3748" gradientTransform="matrix(1 0 0 1 758 -852.6286)">
		<stop  offset="0" style="stop-color:#F29100"/>
		<stop  offset="1" style="stop-color:#EC670F"/>
	</linearGradient>
	<path style="fill:url(#SVGID_00000120560057284975318830000000415039068150286498_);" d="M90.8,141.7"/>
	
		<linearGradient id="SVGID_00000008126536943625220390000014392958050491713155_" gradientUnits="userSpaceOnUse" x1="-675.15" y1="854.306" x2="-675.15" y2="995.2021" gradientTransform="matrix(1 0 0 1 758 -852.6286)">
		<stop  offset="0" style="stop-color:#F29100"/>
		<stop  offset="1" style="stop-color:#EC670F"/>
	</linearGradient>
	<path style="fill:url(#SVGID_00000008126536943625220390000014392958050491713155_);" d="M108.1,90.4c-1.6,1.2-4.6,3.8-11.3,4.9
		c-3,0.5-5.8,0.5-8.9,0.4c-1.5-0.1-2.9-0.2-4.4-0.2c-0.9,0-3.9-0.1-3.7,0.2l-0.3,0.8c0.1,0.3,0.2,1,0.2,1.1c0.1,0.7,0.2,1.2,0.2,1.9
		c0,1.3-0.1,2.5,0,3.9c0.1,2.6,1.1,5.1,1.3,7.7c0.1,2.9,1.6,6.2,3,8.6c0.6,0.9,1.4,1.1,1.8,2.1c0.4,1.3,0,2.7,0.2,4.1
		c0.8,5.4,2.3,11,4.8,15.9c0,0,0,0.1,0.1,0.1c3-0.5,6-1.6,9.9-2.1c7.1-1.1,17.1-0.5,23.4-1.1c16.1-1.6,24.9,6.6,39.5,3.3V22.1
		c0-11.2-9.1-20.4-20.4-20.4h-121C11,1.7,1.9,10.9,1.9,22.1v44.4c2.9-1.1,7.1-7.2,8.4-8.8c2.3-2.6,2.7-6,3.9-8.1
		c2.6-4.8,3-8.1,9-8.1c2.7,0,3.9,0.7,5.8,3.1c1.3,1.8,3.5,5,4.6,7.1c1.2,2.4,3.2,5.9,4.1,6.5c0.7,0.5,1.3,0.9,1.9,1.1
		c1,0.4,1.8-0.3,2.4-0.8c0.8-0.7,1.2-2,2-3.7c1.1-2.5,2.2-5.7,2.9-6.7c1.2-1.9,1.6-4,2.8-5.1c1.9-1.6,4.3-1.7,5-1.9
		c3.7-0.8,5.5,1.9,7.3,3.4c1.2,1.1,2.8,3.2,4,6.2c0.9,2.2,2.1,4.4,2.5,5.7c0.5,1.3,1.7,3.3,2.3,5.8c0.6,2.2,2.3,3.9,2.9,5
		c0,0,1,2.7,6.9,5.3c1.3,0.6,3.9,1.5,5.5,2c2.5,1,5.1,0.8,8.3,0.4c2.2,0,3.5-3.3,4.5-6c0.6-1.6,1.2-6.1,1.6-7.3
		c0.4-1.3-0.5-2.1,0.3-3.2c0.9-1.3,1.5-1.4,2-2.9c1.1-3.5,7.5-3.7,11.1-3.7c3,0,2.6,2.9,7.7,2c2.9-0.6,5.8,0.4,8.9,1.2
		c2.6,0.7,5.1,1.5,6.5,3.2c1,1.1,3.3,6.7,0.9,6.9c0.2,0.3,0.4,0.8,0.9,1.1c-0.6,2.1-2.8,0.6-4.2,0.3c-1.8-0.4-3,0.1-4.7,0.8
		c-2.9,1.3-7.2,1.2-9.8,3.3c-2.1,1.8-2.1,5.9-3.1,8.1C117.1,78.7,114.3,86,108.1,90.4z"/>
	
		<linearGradient id="SVGID_00000026152867657116152060000012604491019094060434_" gradientUnits="userSpaceOnUse" x1="-733.7073" y1="944.3455" x2="-733.7073" y2="994.2914" gradientTransform="matrix(1 0 0 1 758 -852.6286)">
		<stop  offset="0" style="stop-color:#F29100"/>
		<stop  offset="1" style="stop-color:#EC670F"/>
	</linearGradient>
	<path style="fill:url(#SVGID_00000026152867657116152060000012604491019094060434_);" d="M40.3,100.6c-1.4-0.1-2.7-0.3-4-0.6
		c-2.5-0.5-5.3-1-7.8-1.6c-1.5-0.4-6.5-2.1-7.6-2.6c-2.5-1.2-4.3-4.4-6.3-4.1c-1.3,0.2-2.5,0.7-3.3,2c-0.7,1.1-0.9,2.8-1.4,4.1
		c-0.5,1.4-1.5,2.7-2.2,4.1c-1.5,2.4-4.1,4.7-5.2,7.1c-0.2,0.5-0.4,1.1-0.6,1.7v9.2v15.9v2.3c1.3,0.2,2.7,0.5,4.2,0.9
		c11.3,3,14.2,3.3,25.3,2.1l1.1-0.1c0.9-1.8,1.5-7.8,2.1-9.7c0.4-1.5,1-2.5,1.3-4c0.2-1.4,0-2.7-0.1-4c-0.3-3.1,2.3-4.3,3.5-7
		c1.2-2.4,1.8-5.3,2.7-7.8c0.9-2.4,2.2-5.9,4.7-7C46.3,100.9,41.6,100.7,40.3,100.6z"/>
</g>
</svg>
