<?xml version="1.0" encoding="utf-8"?>
<!-- Generator: Adobe Illustrator 25.4.1, SVG Export Plug-In . SVG Version: 6.00 Build 0)  -->
<svg version="1.1"
	 id="vlpa" xmlns:cc="http://creativecommons.org/ns#" xmlns:dc="http://purl.org/dc/elements/1.1/" xmlns:rdf="http://www.w3.org/1999/02/22-rdf-syntax-ns#"
	 xmlns="http://www.w3.org/2000/svg" xmlns:xlink="http://www.w3.org/1999/xlink" x="0px" y="0px" viewBox="0 0 440.8 440.8"
	 style="enable-background:new 0 0 440.8 440.8;" xml:space="preserve">
<style type="text/css">
	.st0{fill:#ABD038;}
	.st1{fill:#EE332D;}
	.st2{fill:#F2BA1A;}
	.st3{fill:#3DAE2B;}
	.st4{fill:#010101;}
</style>
<g>
	<desc>A heterogenous computing API from Khronos Group</desc>
	<g>
		<path class="st0" d="M175.4,119.7c9.2-14.3,20-31.3,23.5-36.8c-40.2,3-77.3,13.5-108.8,29.4c4.8,9.1,11.1,20.4,16,29.2
			c16.7-6.2,34.8-10.5,53.9-12.3C166.3,128.5,171.9,125.1,175.4,119.7L175.4,119.7z"/>
		<path class="st1" d="M322.1,177.7c8.7,4.2,17.2,5.4,29.1,5.4c21.8,0,62.8,0.1,85.4,0.1c-19.9-33-54-60.5-96.6-78.5
			c-15.2,10.1-58.5,39.2-65.5,43.8C301.9,161.9,313.5,173.6,322.1,177.7z"/>
		<path class="st2" d="M207.2,82.4c-1.2,3.5-11.9,35.6-15.3,46c17.2,0.8,33.8,3.4,49.4,7.7c9.2,2.6,19.2,1.6,27.7-2.8l62.6-31.9
			C299.3,89,262.4,81.9,223.3,81.9C217.9,81.9,212.5,82.1,207.2,82.4L207.2,82.4z"/>
		<path class="st3" d="M4.2,191.8l20.3,0.1c5.5,0,10.7-2.3,14.4-6.3c11-12,24.5-22.6,40.1-31.3c5.5-3.1,8.6-9.3,7.6-15.5
			c-1.5-9.8-3.1-19.9-3.6-22.6C47.6,135.3,20,161.4,4.2,191.8L4.2,191.8z"/>
	</g>
	<g>
		<g transform="translate(-56.3,-38.2)">
			<polygon class="st4" points="454.9,246.7 450.1,246.7 450.1,243.2 463.6,243.2 463.6,246.7 459,246.7 459,258.9 454.9,258.9 			
				"/>
			<polyline class="st4" points="483.2,243.2 483.2,258.9 478.8,258.9 478.8,247 478.8,247 475.6,258.9 472.5,258.9 469.3,247 
				469.3,247 469.3,258.9 465.4,258.9 465.4,243.2 465.4,243.2 471.6,243.2 474.4,253.6 474.4,253.6 476.9,243.2 			"/>
		</g>
		<path class="st4" d="M103.4,221.6c-4.9-5.8-11-10.4-18.2-13.7c-7.1-3.4-15.2-5.1-24.2-5.1s-17,1.7-24.2,5.1
			c-7.1,3.4-13.2,8-18.2,13.7c-4.9,5.8-8.7,12.5-11.4,20.2c-2.6,7.7-4,15.8-4,24.4c0,8.7,1.3,16.9,4,24.6
			c2.6,7.7,6.4,14.4,11.4,20.2s11,10.3,18.2,13.6c7.1,3.3,15.2,5,24.2,5s17-1.7,24.2-5c7.1-3.3,13.2-7.9,18.2-13.6
			c4.9-5.8,8.7-12.5,11.4-20.2c2.6-7.7,4-15.9,4-24.6c0-8.6-1.3-16.7-4-24.4C112.1,234.1,108.3,227.4,103.4,221.6z M95.5,283.2
			c-1.4,5.5-3.6,10.5-6.5,14.8s-6.7,7.9-11.4,10.4c-4.7,2.6-10.2,3.9-16.6,3.9c-6.4,0-11.9-1.3-16.6-3.9c-4.7-2.6-8.5-6.1-11.4-10.4
			c-2.9-4.3-5.1-9.3-6.5-14.8c-1.4-5.5-2.1-11.2-2.1-17c0-5.8,0.7-11.4,2.1-17s3.6-10.5,6.5-14.8c2.9-4.3,6.7-7.8,11.4-10.4
			c4.7-2.6,10.2-3.9,16.6-3.9c6.4,0,11.9,1.3,16.6,3.9c4.7,2.6,8.5,6.1,11.4,10.4c2.9,4.3,5.1,9.3,6.5,14.8c1.4,5.5,2.1,11.2,2.1,17
			C97.6,272,96.9,277.6,95.5,283.2z"/>
		<path class="st4" d="M208.1,250.3c-3.4-4.2-7.6-7.5-12.7-10c-5.1-2.5-11.1-3.6-18-3.6c-5.6,0-10.9,1.1-15.7,3.3
			c-4.9,2.2-8.6,5.8-11.3,10.9h-0.3V239h-18.2v120.1h19.2v-43.8h0.3c1.4,2.4,3.3,4.5,5.5,6.2c2.2,1.8,4.6,3.2,7.2,4.3
			c2.6,1.1,5.3,1.9,8.1,2.5s5.6,0.8,8.4,0.8c6.4,0,12-1.3,16.7-3.8c4.7-2.5,8.6-5.9,11.7-10.2c3.1-4.2,5.4-9.1,6.9-14.7
			s2.2-11.3,2.2-17.2c0-6.5-0.9-12.5-2.6-18.2C214,259.5,211.5,254.5,208.1,250.3L208.1,250.3z M197.7,294.2c-0.9,3.6-2.2,7-4.2,9.9
			c-2,2.9-4.5,5.2-7.5,7c-3.1,1.8-6.7,2.7-11.1,2.7c-3.9,0-7.4-0.8-10.4-2.4c-3-1.6-5.6-3.7-7.7-6.5c-2.1-2.7-3.7-6-4.8-9.7
			s-1.6-7.9-1.6-12.3c0-9.4,2.1-16.9,6.2-22.6c4.1-5.7,10.2-8.5,18.3-8.5c3.9,0,7.4,0.9,10.5,2.6c3.1,1.8,5.6,4.1,7.6,7
			c2.1,2.9,3.6,6.2,4.6,9.9c1,3.7,1.5,7.6,1.5,11.5C199,286.8,198.6,290.6,197.7,294.2L197.7,294.2z"/>
		<path class="st4" d="M312.5,279.3c-0.9,7.5-3.6,13.8-7.9,18.5c-4.2,4.6-10.1,7-17.6,7c-5.6,0-10.4-1.1-14.2-3.3
			c-3.9-2.1-7.1-5-9.5-8.6s-4.2-7.7-5.4-12.3c-1.1-4.6-1.7-9.4-1.7-14.2c0-5.1,0.6-10.1,1.7-14.8c1.1-4.7,2.9-8.9,5.4-12.6
			c2.4-3.6,5.6-6.5,9.5-8.7c3.9-2.1,8.7-3.3,14.2-3.3c3,0,6,0.5,8.7,1.5c2.7,1,5.3,2.4,7.5,4.2c2.2,1.8,4.1,3.9,5.5,6.2
			c1.4,2.3,2.4,4.9,2.8,7.7l0.2,1.2h28l-0.2-1.6c-0.8-7-2.7-13.4-5.8-18.9c-3.1-5.5-7-10.1-11.7-13.8c-4.7-3.7-10-6.5-16-8.5
			c-5.9-1.9-12.3-2.9-18.9-2.9c-9.3,0-17.8,1.6-25.1,5c-7.3,3.3-13.6,7.9-18.7,13.7c-5.1,5.8-9,12.6-11.7,20.4
			c-2.7,7.8-4.1,16.2-4.1,25.1c0,8.7,1.4,17,4.1,24.6c2.7,7.7,6.6,14.5,11.7,20.1c5.1,5.7,11.4,10.2,18.7,13.5
			c7.3,3.3,15.8,5,25.1,5c7.4,0,14.4-1.2,20.5-3.5c6.2-2.3,11.7-5.7,16.3-10.1c4.6-4.3,8.4-9.6,11.2-15.8c2.8-6.1,4.6-13.1,5.2-20.6
			l0.1-1.5h-27.9L312.5,279.3z"/>
		<polygon class="st4" points="351,205 351,326.7 437.5,326.7 437.5,302 379.8,302 379.8,205 		"/>
	</g>
</g>
</svg>
