<?xml version="1.0" encoding="utf-8"?>
<!-- Generator: Adobe Illustrator 25.4.1, SVG Export Plug-In . SVG Version: 6.00 Build 0)  -->
<svg version="1.1" id="Layer_1" xmlns="http://www.w3.org/2000/svg" xmlns:xlink="http://www.w3.org/1999/xlink" x="0px" y="0px"
	 viewBox="0 0 240 240" style="enable-background:new 0 0 240 240;" xml:space="preserve">
<style type="text/css">
	.st0{fill:#001E36;}
	.st1{fill:#31A8FF;}
</style>
<g id="Layer_2_1_">
	<g id="Surfaces">
		<g id="Photo_Surface">
			<g id="Outline_no_shadow">
				<path class="st0" d="M45.1,6.9h149.8C217.6,6.9,236,25.3,236,48v144c0,22.7-18.4,41.1-41.1,41.1H45.1C22.4,233.1,4,214.7,4,192
					V48C4,25.3,22.4,6.9,45.1,6.9z"/>
			</g>
		</g>
	</g>
	<g id="Outlined_Mnemonics_Logos">
		<g id="Ps">
			<path class="st1" d="M56.2,165.5V66.1c0-0.7,0.3-1.1,1-1.1c1.6,0,3.2,0,5.4-0.1c2.3-0.1,4.7-0.1,7.3-0.2c2.6-0.1,5.4-0.1,8.4-0.2
				s5.9-0.1,8.8-0.1c7.9,0,14.5,1,19.9,3c4.8,1.6,9.3,4.3,13,7.9c3.1,3.1,5.5,6.9,7.1,11c1.4,4.1,2.2,8.2,2.2,12.6
				c0,8.3-1.9,15.2-5.8,20.6c-3.9,5.4-9.3,9.5-15.6,11.8c-6.6,2.4-13.8,3.3-21.8,3.3c-2.3,0-3.9,0-4.8-0.1c-1-0.1-2.3-0.1-4.2-0.1
				v31c0.1,0.7-0.4,1.3-1.1,1.4c-0.1,0-0.2,0-0.4,0H57.4C56.6,166.8,56.2,166.4,56.2,165.5z M77.3,83.7v32.5
				c1.4,0.1,2.6,0.2,3.8,0.2h5.1c3.8,0,7.5-0.6,11.1-1.7c3.1-0.9,5.8-2.7,7.9-5.1c2-2.4,3-5.7,3-10c0.1-3-0.7-6-2.2-8.6
				c-1.6-2.5-4-4.4-6.8-5.5c-3.6-1.5-7.4-2-11.4-1.9c-2.5,0-4.7,0-6.6,0.1C79.3,83.5,77.9,83.6,77.3,83.7L77.3,83.7z"/>
			<path class="st1" d="M189.6,110.2c-2.9-1.5-6-2.6-9.3-3.3c-3.6-0.8-7.2-1.3-10.8-1.3c-1.9-0.1-4,0.2-5.8,0.7
				c-1.3,0.3-2.3,1-3,1.9c-0.5,0.8-0.8,1.7-0.8,2.6c0,0.9,0.4,1.7,1,2.5c0.9,1.1,2,1.9,3.3,2.6c2.2,1.2,4.5,2.2,6.9,3.2
				c5.2,1.7,10.2,4.2,14.9,7.1c3.2,2,5.8,4.7,7.6,8c1.5,3.1,2.3,6.5,2.2,10c0.1,4.5-1.3,9.1-3.8,12.9c-2.7,3.9-6.5,6.9-10.8,8.6
				c-4.7,2-10.5,3.1-17.5,3.1c-4.4,0-8.8-0.4-13.1-1.3c-3.4-0.6-6.8-1.6-9.9-3.1c-0.7-0.4-1.2-1.1-1.1-1.8v-16.8
				c0-0.3,0.1-0.7,0.4-0.9c0.3-0.2,0.6-0.1,0.9,0.1c3.8,2.2,7.7,3.8,12,4.7c3.7,1,7.5,1.5,11.4,1.5c3.7,0,6.3-0.5,8-1.4
				c1.5-0.7,2.6-2.3,2.6-4.1c0-1.4-0.8-2.6-2.3-3.9s-4.7-2.7-9.5-4.5c-4.9-1.7-9.5-4.1-13.7-7c-3-2.1-5.5-4.9-7.3-8.2
				c-1.5-3.1-2.3-6.5-2.2-9.9c0-4.2,1.2-8.1,3.3-11.7c2.4-3.9,6-7,10.1-8.9c4.5-2.3,10.2-3.4,17.1-3.4c4,0,8,0.3,12,0.9
				c2.9,0.4,5.7,1.2,8.3,2.2c0.4,0.1,0.8,0.5,1,0.9c0.1,0.4,0.2,0.8,0.2,1.2v15.8c0,0.4-0.2,0.8-0.5,1
				C190.5,110.4,190,110.4,189.6,110.2z"/>
		</g>
	</g>
</g>
</svg>
