<?xml version="1.0" encoding="UTF-8"?><svg id="a" xmlns="http://www.w3.org/2000/svg" viewBox="0 0 452.802 452.802"><g id="b"><path d="M267.264,449.071c-16.212,0-26.799-6.299-33.239-12.377-9.677-9.134-13.482-20.793-15.756-27.76-.356-1.093-.693-2.124-.944-2.802-4.56-12.306-6.099-29.895-7.006-52.517-.134-3.346-.234-6.922-.336-10.571-.062-2.249-.135-4.854-.229-7.58-15.33,6.721-33.297,7.921-52.48,3.125-8.579-2.146-17.474-6.482-23.007-13.138-15.278,12.701-29.797,10.834-37.794,8.168-14.277-4.763-26.994-18.025-38.879-40.546-8.381-15.882-16.483-36.556-24.081-61.448-13.22-43.311-21.617-88.979-22.367-103.988-2.365-47.274,10.421-81.123,38.001-100.605,22.776-16.089,53.914-21.032,92.55-14.689,16.427,2.697,30.65,6.922,39.515,9.917,16.009-9.5,34.75-14.116,55.948-13.784,11.313.183,22.095,1.171,32.122,2.94,10.768-3.339,31.421-7.991,54.927-7.694,44.083.526,80.622,17.719,105.666,49.719,17.144,21.905,10.771,65.107,2.407,97.492-9.372,36.286-25.652,74.834-45.672,108.637,5.304-.15,12.572-.919,22.368-2.94,24.435-5.044,31.216,9.325,32.71,13.851,7.574,22.93-24.594,39.911-34.634,44.57-12.703,5.901-33.391,9.489-50.308,8.718l-.783-.053-3.04-.267c-.091.771-.181,1.546-.269,2.303-.131,1.122-.268,2.299-.414,3.531-1.135,43.594-7.407,71.26-20.308,89.629-13.646,19.43-32.511,24.854-49.121,28.413-5.679,1.217-10.85,1.746-15.548,1.746Z"/><path d="M412.761,274.94c-50.302,10.376-53.76-6.655-53.76-6.655,53.111-78.808,75.313-178.843,56.153-203.326C362.884-1.826,272.402,29.759,270.892,30.579l-.486.087c-9.938-2.063-21.06-3.292-33.56-3.496-22.761-.373-40.026,5.967-53.127,15.902,0,0-161.411-66.495-153.904,83.63,1.597,31.938,45.776,241.657,98.471,178.312,19.26-23.163,37.869-42.748,37.869-42.748,9.243,6.14,20.308,9.272,31.908,8.147l.901-.765c-.28,2.876-.152,5.689.361,9.019-13.575,15.167-9.586,17.83-36.723,23.416-27.459,5.659-11.328,15.734-.796,18.367,12.768,3.193,42.307,7.716,62.266-20.224l-.796,3.188c5.319,4.26,9.054,27.711,8.428,48.969-.626,21.259-1.044,35.854,3.147,47.254,4.191,11.4,8.368,37.05,44.042,29.406,29.809-6.388,45.256-22.942,47.405-50.555,1.525-19.631,4.976-16.729,5.194-34.28l2.768-8.309c3.192-26.611.507-35.196,18.872-31.203l4.463.392c13.517.615,31.208-2.174,41.591-7,22.358-10.376,35.618-27.7,13.573-23.148h.002Z" fill="#336791"/><path d="M429.496,273.76c-1.91-5.8-8.09-7.67-18.34-5.55-30.42,6.28-41.34,1.95-44.93-.69,23.67-36.06,43.13-79.66,53.63-120.33,5.05-19.56,15.15-67.15-.15-86.7-22.67-28.96-55.93-44.5-96.21-44.93-27.63-.29-51.02,6.77-55.6,8.76-9.55-2.38-19.97-3.82-31.3-4.01-20.79-.33-38.77,4.62-53.64,14.77-15.11-5.66-84.19-28.9-126.94,1.39-23.89,16.93-34.92,47.18-32.78,89.92.72,14.38,8.91,58.61,21.84,100.97,17.02,55.76,35.52,87.32,54.98,93.81,2.28.76,4.91,1.29,7.8,1.29,7.11,0,15.81-3.2,24.87-14.08,15.03-18.08,29.07-33.25,34.26-38.77,7.65,4.11,16.06,6.39,24.66,6.62.02.22.03.45.06.67-1.73,2.05-3.14,3.84-4.34,5.37-5.96,7.56-7.2,9.14-26.38,13.09-5.45,1.12-19.94,4.11-20.15,14.26-.23,11.1,17.12,15.76,19.1,16.25,6.89,1.73,13.53,2.58,19.86,2.58,15.39,0,28.95-5.04,39.78-14.84-.34,39.55,1.31,78.52,6.06,90.39,3.89,9.72,13.39,33.49,43.41,33.48,4.4,0,9.25-.51,14.59-1.65,31.32-6.72,44.93-20.56,50.19-51.09,2.81-16.31,7.65-55.28,9.92-76.17,4.79,1.51,10.98,2.19,17.65,2.19,13.92,0,29.99-2.96,40.06-7.64,11.32-5.25,31.75-18.15,28.04-29.36ZM325.056,28.05c36.08.8,64.63,14.3,84.84,40.12,15.49,19.81-1.57,109.95-50.98,187.7-.49-.62-.99-1.25-1.5-1.89-.2-.25-.4-.51-.62-.77,12.77-21.09,10.26-41.96,8.04-60.46-.91-7.59-1.77-14.76-1.55-21.49.22-7.14,1.17-13.27,2.08-19.19,1.13-7.31,2.29-14.85,1.96-23.77.23-.92.32-2.02.2-3.31-.81-8.54-10.55-34.07-30.41-57.19-10.86-12.64-26.69-26.79-48.31-36.33,9.3-1.93,22.02-3.73,36.25-3.42ZM352.466,194.24c1.87,15.59,3.8,31.65-3.65,47.49-1.16-2.05-2.28-4.3-3.3-6.78-.93-2.24-2.93-5.85-5.72-10.84-10.82-19.4-36.17-64.86-23.19-83.41,6.67-9.53,23.58-9.95,38.3-8.13-.1,6.17-.96,11.76-1.86,17.61-.97,6.28-1.97,12.78-2.22,20.67-.25,7.68.71,15.67,1.64,23.39ZM123.136,300.41c-9.98,11.99-16.87,9.69-19.13,8.94-14.77-4.93-31.9-36.14-47.01-85.63-13.07-42.82-20.71-85.88-21.31-97.96-1.91-38.18,7.34-64.8,27.51-79.1,32.81-23.27,86.75-9.36,108.45-2.29-.31.3-.62.61-.93.92-35.77,36.13-34.73,97.98-34.65,101.14v.05c0,1.44.12,3.46.28,6.2.62,10.33,1.76,29.55-1.29,51.31-2.83,20.22,3.41,40.02,17.1,54.31,1.42,1.48,2.89,2.87,4.42,4.18-6.1,6.54-19.35,20.98-33.44,37.93ZM161.156,249.67c-11.03-11.51-16.05-27.53-13.75-43.95,3.21-23,2.03-43.02,1.39-53.77-.09-1.51-.17-2.83-.22-3.87,5.2-4.61,29.29-17.51,46.47-13.58,7.83,1.8,12.61,7.13,14.6,16.32,10.27,47.53,1.36,67.34-5.81,83.26-1.48,3.28-2.87,6.38-4.06,9.59l-.93,2.48c-2.33,6.27-4.51,12.1-5.86,17.63-11.73-.04-23.15-5.05-31.83-14.11ZM218.646,295.97c-15.89,22.26-39.05,21.97-55.68,17.81-3.43-.86-6.51-2.34-8.32-3.58,1.51-.71,4.2-1.67,8.86-2.63,22.56-4.65,26.04-7.93,33.65-17.59,1.74-2.21,3.72-4.72,6.46-7.78,4.08-4.57,5.95-3.79,9.33-2.39,2.74,1.13,5.41,4.57,6.49,8.35.51,1.79,1.09,5.18-.79,7.81ZM332.446,296.34c-.95,11.94-7.55,66.86-10.91,86.28-4.43,25.73-13.9,35.31-40.52,41.02-27.59,5.91-37.36-8.17-43.8-24.26-4.16-10.4-6.2-57.26-4.75-109.01.02-.69-.08-1.36-.27-1.98,0-.01-.01-.02-.01-.02-.16-1.2-.41-2.42-.76-3.64-2.16-7.53-7.41-13.83-13.71-16.44-2.5-1.03-7.09-2.94-12.61-1.53,1.17-4.85,3.21-10.33,5.42-16.26l.93-2.49c1.05-2.81,2.36-5.73,3.75-8.81,7.5-16.66,17.76-39.48,6.62-91.02-4.18-19.3-18.12-28.73-39.25-26.54-12.67,1.31-24.26,6.42-30.04,9.35-1.24.63-2.38,1.24-3.44,1.82,1.61-19.45,7.71-55.8,30.51-78.79,14.36-14.48,33.48-21.63,56.78-21.25,45.9.76,75.34,24.32,91.95,43.95,14.32,16.91,22.07,33.95,25.17,43.14-23.27-2.36-39.09,2.23-47.11,13.7-17.45,24.94,9.54,73.36,22.52,96.63,2.38,4.26,4.43,7.95,5.08,9.51,4.22,10.24,9.69,17.08,13.69,22.07,1.22,1.53,2.41,3.01,3.31,4.31-7.06,2.03-19.74,6.72-18.55,30.26ZM396.206,291.82c-7.2,3.34-19.26,5.85-30.71,6.39-12.66.59-19.09-1.42-20.61-2.65-.71-14.62,4.73-16.15,10.49-17.77.91-.25,1.79-.5,2.64-.8.53.43,1.11.86,1.74,1.28,10.17,6.71,28.31,7.44,53.92,2.15.09-.02.19-.04.28-.06-3.46,3.23-9.37,7.57-17.75,11.46Z" fill="#fff"/><path d="M203.916,148.34c-.44,3.16-5.43,7.43-10.92,7.43-.47,0-.95-.03-1.42-.1-3.3-.45-6.62-2.53-8.9-5.54-.8-1.07-2.11-3.14-1.85-5,.1-.71.46-1.74,1.63-2.62,2.07-1.57,6.18-2.16,10.71-1.52,5.56.77,11.3,3.4,10.75,7.35Z" fill="#fff"/><path d="M343.356,141.45c0,1.38-1.02,3.34-2.71,5.11-1.2,1.27-3.73,3.45-7.17,3.93-.45.06-.89.09-1.32.09-5.16,0-9.52-4.12-9.86-6.53-.42-3.11,4.64-5.47,9.87-6.19,5.22-.73,10.74.15,11.17,3.25.01.11.02.22.02.34Z" fill="#fff"/></g></svg>