<?xml version="1.0" encoding="UTF-8"?><svg id="a" xmlns="http://www.w3.org/2000/svg" viewBox="0 0 117.527 117.524"><path d="M58.764,2.097C27.469,2.097,2.097,27.466,2.097,58.762s25.372,56.666,56.667,56.666,56.666-25.371,56.666-56.666S90.058,2.097,58.764,2.097ZM58.764,108.152c-8.904,0-16.123-5.948-16.123-13.283h32.246c0,7.334-7.219,13.283-16.123,13.283ZM85.394,90.47h-53.263v-9.658h53.264v9.658h-.001ZM85.203,75.841h-52.92c-.176-.203-.356-.403-.526-.609-5.452-6.62-6.736-10.076-7.983-13.598-.021-.116,6.611,1.355,11.314,2.413,0,0,2.42.56,5.958,1.205-3.397-3.982-5.414-9.044-5.414-14.218,0-11.359,8.712-21.285,5.569-29.308,3.059.249,6.331,6.456,6.552,16.161,3.252-4.494,4.613-12.701,4.613-17.733,0-5.21,3.433-11.262,6.867-11.469-3.061,5.045.793,9.37,4.219,20.099,1.285,4.03,1.121,10.812,2.113,15.113.329-8.933,1.865-21.967,7.532-26.467-2.5,5.667.37,12.758,2.333,16.167,3.167,5.5,5.087,9.667,5.087,17.548,0,5.284-1.951,10.259-5.242,14.148,3.742-.702,6.326-1.335,6.326-1.335l12.152-2.371s-1.765,7.261-8.55,14.254Z" fill="#e6522c"/></svg>