<?xml version="1.0" encoding="utf-8"?>
<!-- Generator: Adobe Illustrator 26.5.0, SVG Export Plug-In . SVG Version: 6.00 Build 0)  -->
<svg version="1.1" id="Calque_1" xmlns="http://www.w3.org/2000/svg" xmlns:xlink="http://www.w3.org/1999/xlink" x="0px" y="0px"
	 viewBox="0 0 200 200" style="enable-background:new 0 0 200 200;" xml:space="preserve">
<style type="text/css">
	.st0{fill:#EE4C2C;}
</style>
<g id="group">
	<path id="Path" class="st0" d="M155.8,60.1l-14.2,14.2c23.3,23.3,23.3,60.9,0,83.7c-23.3,23.3-60.9,23.3-83.7,0
		c-23.3-23.3-23.3-60.9,0-83.7l36.9-36.9l5.2-5.2V4.4L44.2,60.1c-31.1,31.1-31.1,81.1,0,112.2s81.1,31.1,111.6,0
		C186.9,141,186.9,91.2,155.8,60.1z"/>
	<path id="Path-1" class="st0" d="M138.3,46.3c0,5.7-4.6,10.4-10.4,10.4c-5.7,0-10.4-4.6-10.4-10.4s4.6-10.4,10.4-10.4
		C133.7,35.9,138.3,40.5,138.3,46.3z"/>
</g>
</svg>
