<?xml version="1.0" encoding="UTF-8"?><svg id="a" xmlns="http://www.w3.org/2000/svg" viewBox="0 0 2578.581 2578.581"><path d="M2372.685,1038.442h-784.963c-39.399-.015-71.336-31.948-71.356-71.347V149.014c0-60.581-49.124-109.723-109.677-109.723h-280.212c-60.59,0-109.686,49.142-109.686,109.723v813.127c0,42.186-34.105,76.476-76.292,76.66l-257.242,1.227c-42.546.231-77.113-34.29-77.03-76.799l1.596-814.031c.138-60.673-49.004-109.908-109.677-109.908H218.165c-60.6,0-109.686,49.142-109.686,109.723v2290.738c0,53.819,43.598,97.417,97.371,97.417h2166.836c53.819,0,97.417-43.598,97.417-97.417v-1303.893c0-53.819-43.598-97.417-97.417-97.417ZM2004.585,1898.525c0,70.526-57.177,127.712-127.703,127.712h-221.448c-70.535,0-127.712-57.186-127.712-127.712v-221.448c0-70.535,57.177-127.712,127.712-127.712h221.448c70.526,0,127.703,57.177,127.703,127.712v221.448h0Z" fill="#f60"/></svg>