<?xml version="1.0" encoding="utf-8"?>
<!-- Generator: Adobe Illustrator 26.5.0, SVG Export Plug-In . SVG Version: 6.00 Build 0)  -->
<svg version="1.1" id="Calque_1" xmlns="http://www.w3.org/2000/svg" xmlns:xlink="http://www.w3.org/1999/xlink" x="0px" y="0px"
	 viewBox="0 0 500 500" style="enable-background:new 0 0 500 500;" xml:space="preserve">
<style type="text/css">
	.st0{fill-rule:evenodd;clip-rule:evenodd;fill:#CC0000;}
</style>
<g transform="translate(8 8)">
	<path class="st0" d="M16.3,389.6h167.5c0,0-32-146.1,74-205.3c23.1-11.2,96.7-53.2,217.2,35.8c3.8-3.2,7.4-5.7,7.4-5.7
		s-110.3-110.1-233.1-97.8c-61.7,5.5-137.6,61.7-182.2,135.9S16.3,389.6,16.3,389.6z"/>
	<path class="st0" d="M16.3,389.6h167.5c0,0-32-146.1,74-205.3c23.1-11.2,96.7-53.2,217.2,35.8c3.8-3.2,7.4-5.7,7.4-5.7
		s-110.3-110.1-233.1-97.8c-61.7,5.5-137.6,61.7-182.2,135.9S16.3,389.6,16.3,389.6z"/>
	<path class="st0" d="M16.3,389.6h167.5c0,0-32-146.1,74-205.3c23.1-11.2,96.7-53.2,217.2,35.8c3.8-3.2,7.4-5.7,7.4-5.7
		s-110.3-110.1-233.1-97.8c-61.9,5.5-137.9,61.7-182.4,135.9S16.3,389.6,16.3,389.6z M365.4,128.5l0.8-14.2
		c-1.9-1.1-7.2-3.6-20.6-7.4l-0.8,14C351.9,123.2,358.6,125.8,365.4,128.5z"/>
	<path class="st0" d="M345.3,173.5l-0.8,13.4c7,0.2,14,1.1,21,2.5l0.8-13.1C359.1,174.8,352.1,173.9,345.3,173.5z M266.8,107.3h2.1
		l-4.2-12.9c-6.6,0-13.4,0.4-20.4,1.3l4,12.5C254.5,107.5,260.7,107.3,266.8,107.3z M277,185.4l4.9,14.6c6.2-3,12.3-5.5,18.5-7.4
		l-4.7-14C288.4,180.7,282.3,183,277,185.4z M180.7,129.6l-9.5-14.6c-5.3,2.8-10.8,5.7-16.5,9.1l9.8,14.8
		C169.9,135.5,175.2,132.4,180.7,129.6z M224.2,225l10.2,15.3c3.6-5.3,7.8-10.2,12.5-15.1l-9.5-14.4
		C232.5,215.3,228,220.2,224.2,225z M193.4,293.3l17.2,13.6c0.8-8.3,2.3-16.5,4.5-24.8L199.8,270C197,277.8,195.1,285.7,193.4,293.3
		z M100.5,192.6l-15.1-13.1c-5.5,5.3-10.8,10.6-15.7,15.9l16.3,14C90.6,203.6,95.5,197.9,100.5,192.6z M36.5,287.4l-24.4-8.9
		c-4,9.1-8.5,19.7-10.6,25.4l24.4,8.9C28.6,305.6,33.1,295.2,36.5,287.4z M190.3,347.2c0.4,11.2,1.5,20.4,2.5,26.7l25.4,9.1
		c-1.9-8.3-3.8-17.6-5.1-27.6L190.3,347.2z"/>
</g>
</svg>
