<?xml version="1.0" encoding="UTF-8"?><svg id="a" xmlns="http://www.w3.org/2000/svg" viewBox="0 0 174.328 174.328"><path d="M165.554,126.69c-9.078,4.732-56.106,24.068-66.118,29.287-10.012,5.221-15.574,5.17-23.483,1.389s-57.955-23.996-66.97-28.305c-4.506-2.154-6.875-3.971-6.875-5.688v-17.195s65.153-14.184,75.672-17.957c10.518-3.774,14.167-3.91,23.118-.631,8.952,3.279,62.474,12.936,71.321,16.176,0,0-.004,15.357-.004,16.951.001,1.7-2.04,3.565-6.661,5.973h0Z" fill="#a41e11"/><path d="M165.554,109.49c-9.078,4.73-56.106,24.068-66.118,29.287-10.012,5.221-15.574,5.17-23.483,1.389-7.91-3.779-57.955-23.998-66.97-28.305-9.015-4.309-9.204-7.275-.348-10.742,8.855-3.469,58.626-22.996,69.146-26.77,10.518-3.772,14.167-3.91,23.118-.63,8.952,3.279,55.699,21.886,64.545,25.126,8.848,3.243,9.188,5.913.11,10.645h0Z" fill="#d82c20"/><path d="M165.554,98.649c-9.078,4.732-56.106,24.068-66.118,29.289-10.012,5.219-15.574,5.168-23.483,1.387-7.91-3.779-57.955-23.996-66.97-28.305-4.506-2.154-6.875-3.969-6.875-5.686v-17.197s65.153-14.183,75.672-17.957c10.518-3.773,14.167-3.91,23.118-.631,8.952,3.279,62.474,12.934,71.321,16.175,0,0-.004,15.357-.004,16.953.001,1.699-2.04,3.564-6.661,5.972Z" fill="#a41e11"/><path d="M165.554,81.449c-9.078,4.732-56.106,24.068-66.118,29.289-10.012,5.219-15.574,5.168-23.483,1.387-7.91-3.779-57.955-23.997-66.97-28.305s-9.204-7.274-.348-10.743c8.855-3.467,58.626-22.995,69.146-26.768,10.518-3.773,14.167-3.91,23.118-.631,8.952,3.279,55.699,21.885,64.545,25.126,8.848,3.242,9.188,5.913.11,10.645h0Z" fill="#d82c20"/><path d="M165.554,69.569c-9.078,4.732-56.106,24.069-66.118,29.29-10.012,5.219-15.574,5.168-23.483,1.387-7.91-3.779-57.955-23.997-66.97-28.305-4.506-2.154-6.875-3.97-6.875-5.686v-17.197s65.153-14.183,75.672-17.956c10.518-3.774,14.167-3.91,23.118-.631,8.952,3.279,62.474,12.934,71.321,16.175,0,0-.004,15.357-.004,16.952.001,1.698-2.04,3.563-6.661,5.971h0Z" fill="#a41e11"/><path d="M165.554,52.369c-9.078,4.732-56.106,24.069-66.118,29.289-10.012,5.219-15.574,5.168-23.483,1.388S17.997,59.049,8.982,54.741s-9.204-7.275-.348-10.743c8.855-3.468,58.626-22.994,69.146-26.768,10.518-3.774,14.167-3.91,23.118-.63,8.952,3.279,55.699,21.885,64.545,25.126,8.848,3.24,9.188,5.912.11,10.643h0Z" fill="#d82c20"/><polygon points="109.454 35.809 94.714 37.339 91.414 45.279 86.084 36.419 69.064 34.889 81.764 30.309 77.954 23.279 89.844 27.929 101.054 24.259 98.024 31.529 109.454 35.809" fill="#fff"/><polygon points="90.534 74.329 63.024 62.919 102.444 56.869 90.534 74.329" fill="#fff"/><ellipse cx="52.394" cy="48.389" rx="21.069" ry="8.167" fill="#fff"/><polygon points="126.874 37.979 150.204 47.199 126.894 56.409 126.874 37.979" fill="#7a0c00"/><polygon points="101.064 48.189 126.874 37.979 126.894 56.409 124.364 57.399 101.064 48.189" fill="#ad2115"/></svg>