<?xml version="1.0" encoding="utf-8"?>
<!-- Generator: Adobe Illustrator 25.4.1, SVG Export Plug-In . SVG Version: 6.00 Build 0)  -->
<svg version="1.1" id="Calque_1" xmlns="http://www.w3.org/2000/svg" xmlns:xlink="http://www.w3.org/1999/xlink" x="0px" y="0px"
	 viewBox="0 0 217.8 217.8" style="enable-background:new 0 0 217.8 217.8;" xml:space="preserve">
<style type="text/css">
	.st0{fill:#97D944;}
	.st1{fill:#80BD32;}
	.st2{fill:#FFFFFF;}
</style>
<g id="Calque_2_00000074399608802327931600000006993315767839678100_">
	<g id="Calque_6">
		<path class="st0" d="M86.2,12.3L17.5,62.2C4,72.1-1.7,89.5,3.5,105.4l26.2,80.7c5.2,15.9,20,26.7,36.7,26.7h84.9
			c16.7,0,31.6-10.8,36.7-26.7l26.2-80.7c5.2-15.9-0.5-33.3-14-43.2l-68.7-49.9C118,2.5,99.7,2.5,86.2,12.3z"/>
		<path class="st1" d="M203.8,137.7L188,186.1c-5.1,15.9-19.9,26.7-36.6,26.7H66.4c-16.7,0-31.5-10.8-36.7-26.7L3.5,105.4
			c-1.5-4.5-2.1-9.2-1.8-13.9c25.6,13.8,63.1,26.9,105.9,35.9C143.3,134.9,176.8,138.2,203.8,137.7z"/>
		<path class="st2" d="M198.7,102.8L173.8,179c-3.5,10.8-13.5,18.1-24.8,18H68.8c-11.3,0-21.3-7.3-24.8-18l-24.8-76.3
			c-3.5-10.8,0.3-22.6,9.5-29.2l37-26.9c2.1-1.6,5.1-1.1,6.7,1c0.4,0.5,0.6,1,0.8,1.6l4.9,18.3c0.8,2.9-0.3,6.1-2.8,7.9L47.3,95.8
			l23.5,72.4h76.1l23.5-72.4l-27.9-20.3c-2.5-1.8-3.6-4.9-2.8-7.9l4.9-18.3c0.7-2.6,3.3-4.1,5.9-3.4c0.6,0.2,1.1,0.4,1.6,0.7
			l37,26.9C198.3,80.2,202.2,92,198.7,102.8z"/>
		<path class="st2" d="M129.2,30.1c1.7,1.2,2.5,3.4,2,5.5l-6.9,26.7l-3.5,13.3l-6.8,26c-0.7,2.5-2.9,4.3-5.5,4.3l0,0
			c-2.6,0-4.9-1.8-5.5-4.3l-6.6-26l-3.3-13l-6.8-26.8c-0.5-2,0.3-4.2,2-5.4l5.3-3.8c9.1-6.7,21.6-6.7,30.7,0L129.2,30.1z"/>
	</g>
</g>
</svg>
