<?xml version="1.0" encoding="UTF-8"?><svg id="a" xmlns="http://www.w3.org/2000/svg" viewBox="0 0 84.387 84.387"><path d="M82.559,49.013c-1.1-.54-1.47-1.13-4.74-7.72-1.96-3.92-4.66-9.56-6.01-12.53-1.35-2.97-2.47-5.41-2.48-5.44-.01-.02-.68.03-1.49.13-1.4.16-1.48.22-1.85,1.46-.49,1.62-5.59,12.46-8.83,18.77-.68,1.34-1.2,2.32-1.62,3.05,1.34-.03,2.31-.15,3.05-.47.26-.76.66-1.73,1.22-2.96l1.06-2.33h11.09l1.47,3.45c.8,1.89,1.46,3.66,1.46,3.93,0,.28-.48.66-1.12.86-.68.23-1.11.58-1.11.9,0,.49.56.54,5.55.54,4.96,0,5.54-.05,5.54-.52,0-.3-.52-.8-1.19-1.12ZM61.859,39.133c0-.67,4.29-9.51,4.61-9.51.39.1,4.57,9.21,4.38,9.55-.2.33-8.99.29-8.99-.04Z" fill="#ca2727"/><path d="M47.2,60.857c-1.317-.483-4.862-1.947-7.896-3.263-8.191-3.572-9.346-3.639-11.79-.671-.564.685-1.181,1.114-1.356.94-.524-.524,1.034-3.035,2.914-4.686,1.53-1.343,2.04-1.531,3.733-1.343,1.074.12,4.646,1.37,7.935,2.766,7.426,3.155,9.601,3.827,12.435,3.827,3.45,0,5.223-2.417,4.135-5.626-.268-.806-.188-1.075.35-1.075,1.006,0,1.517,3.76.792,5.922-.31.926-1.209,2.242-2.001,2.9-1.182.994-1.934,1.209-4.15,1.195-1.49-.013-3.786-.402-5.102-.886h0Z" fill="#333"/><path d="M64.169,43.323c-.18.63-.46,2.55-.63,4.29l-.32,3.16h-11.04c-6.07,0-11.04-.19-11.04-.42,0-.22.85-.63,1.89-.88l1.9-.47.29-4.96c.46-.73.88-1.51,1.26-2.32,3.32-7.09,1.89-13.94-3.65-17.56,1.16-.11,2.89-.17,5.13-.17,6.46,0,8.51.47,5.44,1.25-2.65.66-2.66.7-2.66,11.47,0,5.98.22,10.47.52,11.05.43.81,1.08.98,3.55.98,5.1,0,6.86-1.21,8.24-5.68.42-1.34,1.49-1.1,1.12.26Z" fill="#333"/><path d="M41.489,25.673c-2.08-1.27-2.76-1.45-5.97-1.45-4.15,0-7.3,1.25-10.98,4.41-1.28,3.21-1.4,3.33-1.7,3.62-.37.38-.91.6-1.44.6.36.23.73.48,1.12.75.58.4,1.09.82,1.54,1.28-.19-2.79,1.18-5.16,4.11-6.41,5.29-2.26,12.5,1.38,13.31,6.71.64,4.32-.93,9.53-3.21,10.66-3.33,1.64-6.54.62-10.27-3.29-.63-.65-1.18-1.31-1.65-1.97-.07,1.93-.88,3.96-2.38,5.94,1.22,1.18,2.63,2.17,4.09,2.85,5.79,2.69,13.14-1.06,16.61-8.5,2.97-6.33,1.75-12.15-3.18-15.2Z" fill="#333"/><path d="M21.389,35.253c-3.46-2.39-3.97-2.31-8.42,1.27l-3.96,3.21-1.45-1.76c-4.12-4.99-2.1-10.7,3.75-10.55,2.51.06,5.74,1.07,8.32,2.59.91.54,1.72.91,1.8.83.19-.19,3.16-7.68,3.16-7.97,0-.13-.34-.23-.74-.23-.41,0-.74.29-.74.63s-.34,1.1-.74,1.68l-.74,1.06-2.55-1.2c-3.38-1.58-6.08-1.54-9.48.12C4.659,27.353.629,31.853.639,34.953c.02,1.33,1.98,5.45,3.5,7.33l1.07,1.33-1.33,2.45-1.33,2.44,2.59.73c1.43.39,3.14.82,3.82.92,5.88.98,9.3-.07,12.63-3.87,3.76-4.27,3.69-8.35-.2-11.03ZM18.919,46.063c-1.59,1.23-3.87,1.27-7.51.09-5.5-1.76-5.48-1.61-.87-5.45,4.63-3.87,5.45-3.99,8.08-1.2,2.1,2.23,2.23,5.04.3,6.56Z" fill="#333"/></svg>