<?xml version="1.0" encoding="utf-8"?>
<!-- Generator: Adobe Illustrator 26.5.0, SVG Export Plug-In . SVG Version: 6.00 Build 0)  -->
<svg version="1.1" id="Calque_1" xmlns="http://www.w3.org/2000/svg" xmlns:xlink="http://www.w3.org/1999/xlink" x="0px" y="0px"
	 viewBox="0 0 1000 1000" style="enable-background:new 0 0 1000 1000;" xml:space="preserve">
<style type="text/css">
	.st0{fill:#38BDF8;}
</style>
<g>
	<path class="st0" d="M489.3,201C326.1,206.2,269.7,315.1,253,384.9c-0.8,3.3,3.4,5.3,5.5,2.6c21.3-27.4,66.2-68.1,128.2-68.1
		c84.1,0,148.2,93.9,187.2,123.2c47.5,35.6,142.9,82.6,268.1,44.5c91.3-27.8,137.8-118.7,152.9-172.5c0.9-3.2-3.3-5.4-5.4-2.8
		c-48.2,58.7-118.1,91-203.4,47.3C723.8,326.9,677.1,195.1,489.3,201z"/>
	<path class="st0" d="M241.3,499C78.1,504.2,21.7,613.1,5,682.8c-0.8,3.3,3.4,5.3,5.5,2.6c21.3-27.4,66.2-68.1,128.2-68.1
		c84.1,0,148.2,93.9,187.2,123.2c47.5,35.6,142.9,82.6,268.1,44.5c91.3-27.8,137.8-118.7,152.9-172.5c0.9-3.2-3.3-5.4-5.4-2.8
		c-48.2,58.7-118.1,91-203.4,47.3C475.7,624.9,429.1,493,241.3,499z"/>
</g>
</svg>
