<?xml version="1.0" encoding="utf-8"?>
<!-- Generator: Adobe Illustrator 25.4.1, SVG Export Plug-In . SVG Version: 6.00 Build 0)  -->
<svg version="1.1" id="Calque_1" xmlns="http://www.w3.org/2000/svg" xmlns:xlink="http://www.w3.org/1999/xlink" x="0px" y="0px"
	 viewBox="0 0 568.3 568.3" style="enable-background:new 0 0 568.3 568.3;" xml:space="preserve">
<style type="text/css">
	.st0{fill:url(#SVGID_1_);}
</style>
<g id="Calque_2_00000172440713092117993110000005346704340647667369_">
	<g id="Calque_9">
		
			<linearGradient id="SVGID_1_" gradientUnits="userSpaceOnUse" x1="132.4849" y1="463.3517" x2="468.5904" y2="95.8822" gradientTransform="matrix(1 0 0 -1 0 569.64)">
			<stop  offset="0" style="stop-color:#5231FE"/>
			<stop  offset="4.000000e-02" style="stop-color:#5139FE"/>
			<stop  offset="0.51" style="stop-color:#4A8CFF"/>
			<stop  offset="0.84" style="stop-color:#46C1FF"/>
			<stop  offset="1" style="stop-color:#44D5FF"/>
		</linearGradient>
		<path class="st0" d="M518.8,274.6l-19.6,5.6c0.2,1.7,0.3,3.4,0.3,5.2c0,7-1.9,14-5.4,20l23.3,18.7c8.7-5.6,20.2-3.1,25.8,5.6
			c5.6,8.7,3.1,20.2-5.6,25.8c-7.2,4.7-16.7,3.8-22.9-2.1l0,0L489.2,367c6.6,19.3-3.6,40.2-22.8,46.9c-12.7,4.4-26.8,1.5-36.8-7.5
			L417,416.6c9,16,4.9,36.2-9.7,47.4l4.2,7.9c10.6-2,20.7,5,22.7,15.6c0.2,1.2,0.3,2.3,0.3,3.5c0,10.7-8.7,19.4-19.4,19.4
			c-10.7,0-19.4-8.7-19.4-19.4c0-5,2-9.9,5.5-13.5l-4.2-7.9c-19.3,6.6-40.2-3.6-46.9-22.9c-6.6-19.3,3.6-40.2,22.9-46.9
			c12.7-4.4,26.8-1.5,36.7,7.5l12.7-10.1c-10-17.7-3.7-40.2,14-50.2c16-9,36.2-4.9,47.3,9.7l25.3-13.6c-0.2-1.1-0.3-2.1-0.3-3.2
			c0-2.2,0.4-4.4,1.2-6.5l-23.3-18.7c-16.1,14.9-41.3,13.9-56.2-2.3c-0.2-0.2-0.3-0.4-0.5-0.6L411,324.1
			c9.9,21.2,0.8,46.4-20.4,56.4c-15.2,7.1-33.1,4.6-45.8-6.4l-16.4,14.2c7.8,14,2.9,31.7-11.1,39.5s-31.7,2.9-39.5-11.1
			c-2.4-4.3-3.7-9.2-3.7-14.2c0-0.3,0-0.5,0-0.8l-41.4-9.8c-5.1,7.5-15.3,9.4-22.7,4.3c-7.5-5.1-9.4-15.3-4.3-22.7
			c3.1-4.5,8.1-7.1,13.5-7.1c2,0,4.1,0.4,6,1.1l30.6-33.4c-4.8-6-7.5-13.4-7.9-21.1l-21-2.4c-6.5,28.2-34.6,45.8-62.9,39.3
			c-22.1-5.1-38.4-23.8-40.5-46.5l-27.5-0.6c-1.5,9.6-5.9,18.4-12.8,25.3l15.2,19.5c14.3-7,31.5-1.1,38.5,13.2
			c1.9,3.9,2.9,8.3,2.9,12.7c0,0.7,0,1.3-0.1,2l13.5,3.8c6.1-9.6,18.8-12.4,28.3-6.3c9.6,6.1,12.4,18.8,6.3,28.3
			c-6.1,9.6-18.8,12.4-28.3,6.3c-5.8-3.7-9.4-10.1-9.5-17l-13.5-3.8c-7.4,14.1-24.8,19.6-38.9,12.2c-14.1-7.4-19.6-24.8-12.2-38.9
			c1-1.9,2.2-3.7,3.6-5.4l-15.1-19.5c-21.8,12.9-49.9,5.6-62.8-16.2s-5.6-49.9,16.2-62.8c16.6-9.8,37.6-8.1,52.5,4.1l16.1-15
			c-1.4-2.8-2.1-5.9-2.1-9c0-1.2,0.1-2.4,0.3-3.6l-15-7.6c-9.2,10.9-25.5,12.3-36.4,3.1s-12.3-25.5-3.1-36.4s25.5-12.3,36.4-3.1
			c7.5,6.3,10.8,16.4,8.4,25.9l15,7.6c7.8-8.2,20.7-8.5,28.9-0.7c8.2,7.8,8.5,20.7,0.7,28.9c-6.5,6.8-16.9,8.3-25,3.6l-16,15
			c4.7,6.5,7.5,14,8.4,21.9l27.4,0.6c3.1-22.3,20-40.1,42.1-44.4l-2-26.1c-16.2-1.9-27.7-16.6-25.8-32.7c1.8-14.9,14.4-26,29.3-26
			l4.9-24.6c-4-1.7-7.6-4.2-10.6-7.4l-39.7,24.5c4.6,13.6-2.8,28.4-16.4,32.9c-13.6,4.6-28.4-2.8-32.9-16.4
			c-4.6-13.6,2.8-28.4,16.4-32.9c9.4-3.2,19.8-0.7,26.7,6.3l39.7-24.5c-5.8-15.7,2.1-33.1,17.8-39c15.7-5.8,33.1,2.1,39,17.8
			c5.8,15.7-2.1,33.1-17.8,39c-3.4,1.3-7,1.9-10.6,1.9H184l-4.9,24.6c15,6.3,22.1,23.6,15.8,38.6c-3.5,8.3-10.5,14.5-19.1,16.9
			l2,26.1c10.9,0.4,21.3,4.1,30,10.7l27.7-28.9c-21.2-24.8-18.2-62.1,6.6-83.3c19.1-16.3,46.5-18.7,68.2-6l17-23.3
			c-5.6-5.8-9-13.4-9.5-21.5l-55.7-6c-4.4,10.8-16.8,15.9-27.6,11.5c-10.8-4.4-15.9-16.8-11.5-27.6c4.4-10.8,16.8-15.9,27.6-11.5
			c6.7,2.8,11.5,8.7,12.8,15.8l55.7,6c5.2-18.1,24.1-28.5,42.2-23.3s28.5,24.1,23.3,42.2s-24.1,28.5-42.2,23.3
			c-1.9-0.6-3.8-1.3-5.5-2.1l-17,23.3c20.7,18.5,25.7,49,12,73.2l21.6,15.3c7.5-7,18-9.7,27.9-7l9.6-19.3
			c-24.7-16.1-31.7-49.1-15.7-73.8c16.1-24.7,49.1-31.7,73.8-15.7c21,13.6,29.7,39.9,20.9,63.4l19.5,9.8c9-10.6,25-12,35.6-2.9
			c10.6,9,12,25,2.9,35.6c-9,10.6-25,12-35.6,2.9c-7.2-6.1-10.4-15.8-8.2-25.1l-19.5-9.8c-13.6,20.9-39.9,29.5-63.2,20.9l-9.7,19.3
			c12.8,10.1,15,28.6,5,41.4c-10.1,12.8-28.6,15-41.4,5c-10.6-8.3-14.2-22.7-8.8-35l-21.6-15.3c-20.6,23.7-56.3,27.1-81,7.7
			l-27.7,28.9c7.8,9.4,12.1,21.3,12.1,33.5v0.1l21,2.4c5.5-19.6,25.9-31,45.5-25.5c19.6,5.5,31,25.9,25.5,45.5
			c-5.5,19.6-25.9,31-45.5,25.5c-3.6-1-7.1-2.6-10.3-4.7L234,375.5c0.8,1.6,1.3,3.3,1.5,5l41.4,9.8l0,0c6.8-14.5,24-20.8,38.5-14
			c1.9,0.9,3.6,1.9,5.3,3.2l16.4-14.2c-12.8-19.6-7.3-45.9,12.3-58.6c17.7-11.6,41.3-8.3,55.1,7.7l18.9-12.3
			c-9.2-19.9-0.6-43.6,19.3-52.8c19.9-9.2,43.6-0.6,52.8,19.3c0.1,0.2,0.1,0.3,0.2,0.5l19.6-5.6c0-0.2,0-0.5,0-0.7
			c-0.1-13.2,10.6-24,23.8-24c13.2-0.1,24,10.6,24,23.8s-10.6,24-23.8,24C531,286.4,523.1,281.9,518.8,274.6z"/>
	</g>
</g>
</svg>
