<?xml version="1.0" encoding="utf-8"?>
<!-- Generator: Adobe Illustrator 25.4.1, SVG Export Plug-In . SVG Version: 6.00 Build 0)  -->
<svg version="1.1" id="Calque_1" xmlns="http://www.w3.org/2000/svg" xmlns:xlink="http://www.w3.org/1999/xlink" x="0px" y="0px"
	 viewBox="0 0 327 327" style="enable-background:new 0 0 327 327;" xml:space="preserve">
<style type="text/css">
	.st0{fill:none;stroke:#000000;stroke-width:15;stroke-linecap:round;stroke-linejoin:round;}
</style>
<g id="Calque_2_00000153706417172748477020000007714311294008540349_">
	<g id="Calque_6">
		<polygon class="st0" points="14.8,13.3 33.4,88.4 89.2,34.7 		"/>
		<polygon class="st0" points="89.2,34.7 107.7,109.9 163.5,56.2 		"/>
		<polygon class="st0" points="33.4,88.4 52,163.5 107.7,109.9 		"/>
		<polygon class="st0" points="163.5,56.2 182.1,131.3 237.8,77.7 		"/>
		<polygon class="st0" points="237.8,77.7 256.4,152.8 312.2,99.2 		"/>
		<polygon class="st0" points="182.1,131.3 200.6,206.5 256.4,152.8 		"/>
		<polygon class="st0" points="52,163.5 70.5,238.6 126.3,185 		"/>
		<polygon class="st0" points="126.3,185 144.9,260.1 200.6,206.5 		"/>
		<polygon class="st0" points="70.5,238.6 89.1,313.7 144.9,260.1 		"/>
		<polygon class="st0" points="107.7,109.9 126.3,185 182.1,131.3 		"/>
	</g>
</g>
</svg>
