<?xml version="1.0" encoding="utf-8"?>
<!-- Generator: Adobe Illustrator 25.4.1, SVG Export Plug-In . SVG Version: 6.00 Build 0)  -->
<svg version="1.1" id="Calque_1" xmlns="http://www.w3.org/2000/svg" xmlns:xlink="http://www.w3.org/1999/xlink" x="0px" y="0px"
	 viewBox="0 0 263 263" style="enable-background:new 0 0 263 263;" xml:space="preserve">
<style type="text/css">
	.st0{fill:#4C4C4C;}
	.st1{fill:#808080;}
</style>
<path id="path6" class="st0" d="M244.7,182.7V63.3L141.4,3.6v45.8l40.5,23.4c1.6,1.1,1.6,3.2,0,3.7l-48,27.7c-1.6,1.1-3.2,0.5-4.3,0
	l-48-27.7c-1.6-0.5-1.6-3.2,0-3.7l40.5-23.4V3.6L18.3,63.3v119.4v-0.5v0.5l39.4-22.9v-46.9c0-1.6,2.1-2.7,3.2-2.1l48,27.7
	c1.6,1.1,2.1,2.1,2.1,3.7v55.4c0,1.6-2.1,2.7-3.2,2.1l-40.5-23.4l-39.4,22.9l103.4,60.2l103.4-59.7l-39.4-22.9l-40.5,23.4
	c-1.6,1.1-3.2,0-3.2-2.1v-55.4c0-1.6,1.1-3.2,2.1-3.7l48-27.7c1.6-1.1,3.2,0,3.2,2.1v46.9L244.7,182.7z"/>
<path id="path8" d="M131.2,259.4l103.4-59.7l-39.4-22.9l-40.5,23.4c-1.6,1.1-3.2,0-3.2-2.1v-55.4c0-1.6,1.1-3.2,2.1-3.7l48-27.7
	c1.6-1.1,3.2,0,3.2,2.1v46.9l39.4,22.9V63.3l-113,65.5V259.4z"/>
<path id="path10" class="st1" d="M141.4,3.6v45.8l40.5,23.4c1.6,1.1,1.6,3.2,0,3.7l-48,27.7c-1.6,1.1-3.2,0.5-4.3,0l-48-27.7
	c-1.6-0.5-1.6-3.2,0-3.7l40.5-23.4V3.6L18.3,63.3l113,65.5l113-65.5L141.4,3.6z"/>
<path id="path12" class="st0" d="M108.3,200.2l-40.5-23.4l-39.4,22.9l103.4,59.7V128.8L18.3,63.3v119.4v-0.5v0.5l39.4-22.9v-46.9
	c0-1.6,2.1-2.7,3.2-2.1l48,27.7c1.6,1.1,2.1,2.1,2.1,3.7v55.4C111.5,199.7,109.9,201.3,108.3,200.2z"/>
</svg>
