<?xml version="1.0" encoding="utf-8"?>
<!-- Generator: Adobe Illustrator 26.5.0, SVG Export Plug-In . SVG Version: 6.00 Build 0)  -->
<svg version="1.1" id="Calque_1" xmlns="http://www.w3.org/2000/svg" xmlns:xlink="http://www.w3.org/1999/xlink" x="0px" y="0px"
	 viewBox="0 0 410 410" style="enable-background:new 0 0 410 410;" xml:space="preserve">
<style type="text/css">
	.st0{fill:url(#SVGID_1_);}
	.st1{fill:url(#SVGID_00000011751566631444701640000005145055210559832228_);}
</style>
<g>
	
		<linearGradient id="SVGID_1_" gradientUnits="userSpaceOnUse" x1="104.8818" y1="451.0464" x2="338.738" y2="133.4509" gradientTransform="matrix(1 0 0 -1 0 412)">
		<stop  offset="0" style="stop-color:#41D1FF"/>
		<stop  offset="1" style="stop-color:#BD34FE"/>
	</linearGradient>
	<path class="st0" d="M403.7,64L215.8,400c-3.9,6.9-13.8,7-17.8,0.1L6.4,64.1C2.1,56.5,8.5,47.4,17,48.9l188.1,33.6
		c1.2,0.2,2.4,0.2,3.6,0L392.9,49C401.4,47.4,407.9,56.5,403.7,64z"/>
	
		<linearGradient id="SVGID_00000082365054611606917090000002953447228290002098_" gradientUnits="userSpaceOnUse" x1="215.1573" y1="402.7904" x2="257.4608" y2="112.5931" gradientTransform="matrix(1 0 0 -1 0 412)">
		<stop  offset="0" style="stop-color:#FFEA83"/>
		<stop  offset="8.333330e-02" style="stop-color:#FFDD35"/>
		<stop  offset="1" style="stop-color:#FFA800"/>
	</linearGradient>
	<path style="fill:url(#SVGID_00000082365054611606917090000002953447228290002098_);" d="M294.7,4.8L155.7,32.1
		c-2.3,0.4-4,2.4-4.1,4.7L143,181.3c-0.2,3.4,2.9,6,6.2,5.3l38.7-8.9c3.6-0.8,6.9,2.4,6.2,6l-11.5,56.3c-0.8,3.8,2.8,7,6.5,5.9
		l23.9-7.3c3.7-1.1,7.3,2.1,6.5,5.9L201.2,333c-1.1,5.5,6.2,8.6,9.3,3.8l2.1-3.2l113.3-226.1c1.9-3.8-1.4-8.1-5.5-7.3l-39.8,7.7
		c-3.7,0.7-6.9-2.8-5.9-6.4l26-90.2C301.7,7.6,298.5,4.1,294.7,4.8z"/>
</g>
</svg>
