<?xml version="1.0" encoding="utf-8"?>
<!-- Generator: Adobe Illustrator 25.4.1, SVG Export Plug-In . SVG Version: 6.00 Build 0)  -->
<svg version="1.1" id="Calque_1" xmlns="http://www.w3.org/2000/svg" xmlns:xlink="http://www.w3.org/1999/xlink" x="0px" y="0px"
	 viewBox="0 0 240 240" style="enable-background:new 0 0 240 240;" xml:space="preserve">
<style type="text/css">
	.st0{fill:#00005B;}
	.st1{fill:#9999FF;}
</style>
<g id="vlpa">
	<g id="vlpb">
		<g id="vlpc">
			<g id="vlpd">
				<path class="st0" d="M45.1,6.9h149.8C217.6,6.9,236,25.3,236,48v144c0,22.7-18.4,41.1-41.1,41.1H45.1C22.4,233.1,4,214.7,4,192
					V48C4,25.3,22.4,6.9,45.1,6.9z"/>
			</g>
		</g>
	</g>
	<g id="vlpe">
		<g id="vlpf">
			<path class="st1" d="M97.2,142.2h-36L53.9,165c-0.2,0.9-1,1.4-1.8,1.4H33.9c-1.1,0-1.4-0.6-1.1-1.7l31.1-89.2c0.3-1,0.6-1.8,1-3
				c0.4-2,0.6-4.2,0.6-6.3c-0.1-0.5,0.3-1,0.8-1.1h0.3h24.7c0.7,0,1.2,0.3,1.3,0.8l35.3,98.6c0.3,1.1,0,1.5-1,1.5h-20.2
				c-0.7,0.1-1.4-0.4-1.5-1.1l-7.9-23.2L97.2,142.2z M66.8,123h24.6c-0.6-2-1.4-4.4-2.2-7c-0.9-2.6-1.7-5.4-2.6-8.3
				c-1-3-1.8-5.9-2.8-8.9c-1-3-1.8-5.8-2.6-8.6c-0.8-2.7-1.4-5.2-2.1-7.5h-0.2c-0.9,4.2-1.9,8.3-3.3,12.5c-1.4,4.6-2.9,9.5-4.4,14.3
				C69.8,114.4,68.3,118.9,66.8,123z"/>
			<path class="st1" d="M184.8,133.5h-30.6c0.4,3,1.4,6,3,8.6c1.7,2.6,4.2,4.6,7.1,5.8c3.9,1.6,8.1,2.5,12.4,2.4
				c3.4-0.1,6.8-0.4,10.1-1.1c3-0.4,5.9-1.2,8.6-2.2c0.5-0.4,0.8-0.2,0.8,0.8v14.8c0,0.4-0.1,0.8-0.2,1.2c-0.2,0.3-0.4,0.5-0.7,0.7
				c-3.1,1.4-6.3,2.3-9.7,2.9c-4.5,0.9-9.1,1.3-13.7,1.2c-7.3,0-13.5-1.2-18.6-3.4c-4.7-2-8.9-5.2-12.2-9.2c-3.1-3.8-5.3-8-6.7-12.7
				c-1.4-4.5-2-9.3-2-14.1c0-5.2,0.8-10.3,2.4-15.4c1.5-4.8,4-9.3,7.2-13.2c3.2-3.9,7.2-7,11.7-9.2c4.5-2.2,10-3,16.1-3
				c5.1-0.1,10.2,0.9,15,3c4,1.7,7.4,4.4,10.2,7.7c2.5,3.3,4.5,7,5.8,11c1.3,3.9,1.8,7.8,1.8,11.8c0,2.3-0.1,4.3-0.2,6.2
				c-0.2,1.8-0.3,3.2-0.4,4.1c-0.1,0.7-0.7,1.3-1.4,1.3c-0.6,0-1.6,0.1-3.2,0.2c-1.5,0.2-3.4,0.3-5.6,0.3
				C189.6,133.9,187.3,133.5,184.8,133.5L184.8,133.5z M154.1,119.4h20.4c2.5,0,4.4,0,5.5-0.1c0.8-0.1,1.5-0.3,2.2-0.8v-1
				c0-1.3-0.2-2.4-0.6-3.6c-1.7-5.4-6.9-9.1-12.6-8.9c-5.3-0.3-10.3,2.5-12.9,7.3C155.1,114.7,154.4,117,154.1,119.4z"/>
		</g>
	</g>
</g>
</svg>
