<?xml version="1.0" encoding="utf-8"?>
<!-- Generator: Adobe Illustrator 25.4.1, SVG Export Plug-In . SVG Version: 6.00 Build 0)  -->
<svg version="1.1" id="Layer_1" xmlns="http://www.w3.org/2000/svg" xmlns:xlink="http://www.w3.org/1999/xlink" x="0px" y="0px"
	 viewBox="0 0 344.4 344.4" style="enable-background:new 0 0 344.4 344.4;" xml:space="preserve">
<style type="text/css">
	.st0{fill:#3949AB;}
	.st1{fill:#283593;}
	.st2{fill:#5C6BC0;}
	.st3{fill:#FFFFFF;}
</style>
<path class="st0" d="M318.3,256.6c2.4-4.1,3.8-8.6,3.8-12.8V100.6c0-4.1-1.5-8.7-3.8-12.8l-90.4,21.8l-64.3,62.6l75.5,59.4
	L318.3,256.6z"/>
<path class="st1" d="M185.2,337.8l124-71.5c3.5-2.1,6.9-5.6,9.2-9.7l-146.2-84.4l-74,28.4l-72.1,56c2.4,4.1,5.6,7.6,9.2,9.7
	l124,71.5C166.3,341.9,178.1,341.9,185.2,337.8z"/>
<path class="st2" d="M318.3,87.8c-2.4-4.1-5.6-7.6-9.2-9.7l-124-71.5c-7.2-4.1-18.8-4.1-26,0L35.2,78.1
	c-7.1,4.1-12.9,14.2-12.9,22.5v143.2c0,4.1,1.5,8.7,3.8,12.8l146.1-84.4L318.3,87.8z"/>
<g>
	<path class="st3" d="M178.2,272.2c-55.1,0-100-44.9-100-100s44.9-100,100-100c24.3,0,47.5,8.9,65.4,24.4
		c12.8,11.1,10.8,31.5-3.9,40l-0.8,0.5c-9,5.2-20.2,3.9-28.2-2.9c-8.9-7.7-20.5-12.1-32.6-12.1c-27.5,0-50,22.4-50,50s22.4,50,50,50
		c12.1,0,23.6-4.4,32.6-12.1c7.9-6.8,19.1-8.1,28.2-2.9l0.8,0.5c14.7,8.5,16.7,28.9,3.9,40C225.7,263.2,202.5,272.2,178.2,272.2z"/>
</g>
</svg>
