<?xml version="1.0" encoding="utf-8"?>
<!-- Generator: Adobe Illustrator 26.5.0, SVG Export Plug-In . SVG Version: 6.00 Build 0)  -->
<svg version="1.1" id="Layer_1" xmlns="http://www.w3.org/2000/svg" xmlns:xlink="http://www.w3.org/1999/xlink" x="0px" y="0px"
	 viewBox="0 0 2500 2500" style="enable-background:new 0 0 2500 2500;" xml:space="preserve">
<style type="text/css">
	.st0{fill:#0ACF83;}
	.st1{fill:#A259FF;}
	.st2{fill:#F24E1E;}
	.st3{fill:#FF7262;}
	.st4{fill:#1ABCFE;}
</style>
<path id="path0_fill" class="st0" d="M839.8,2480.5c226.4,0,410.2-183.7,410.2-410.2v-410.2l-203-30.1l-207.2,30.1
	c-226.4,0-410.2,183.7-410.2,410.2S613.4,2480.5,839.8,2480.5z"/>
<path id="path1_fill" class="st1" d="M429.7,1250c0-226.4,183.7-410.2,410.2-410.2L1060,817l190,22.8v820.3H839.8
	C613.4,1660.2,429.7,1476.4,429.7,1250z"/>
<path id="path1_fill_1_" class="st2" d="M429.7,429.7c0-226.4,183.7-410.2,410.2-410.2H1250l91,457.5l-91,362.8H839.8
	C613.4,839.8,429.7,656.1,429.7,429.7z"/>
<path id="path2_fill" class="st3" d="M1250,19.5h410.2c226.4,0,410.2,183.7,410.2,410.2s-183.7,410.2-410.2,410.2H1250V19.5z"/>
<path id="path3_fill" class="st4" d="M2070.3,1250c0,226.4-183.7,410.2-410.2,410.2S1250,1476.4,1250,1250s183.7-410.2,410.2-410.2
	S2070.3,1023.6,2070.3,1250z"/>
</svg>
