<?xml version="1.0" encoding="utf-8"?>
<!-- Generator: Adobe Illustrator 25.4.1, SVG Export Plug-In . SVG Version: 6.00 Build 0)  -->
<svg version="1.1" id="Calque_1" xmlns="http://www.w3.org/2000/svg" xmlns:xlink="http://www.w3.org/1999/xlink" x="0px" y="0px"
	 viewBox="0 0 292 292" style="enable-background:new 0 0 292 292;" xml:space="preserve">
<style type="text/css">
	.st0{fill:#FF8000;}
</style>
<g id="Calque_2_00000067210744976047419020000011761559042729105546_">
	<g id="Calque_6">
		<path class="st0" d="M185.7,223.2c41.9,0,78.9-13,101.3-32.8c-23.9,34.4-74.8,58.2-133.7,58.2C71.4,248.6,5,202.7,5,146
			S71.4,43.4,153.3,43.4c58.9,0,109.8,23.8,133.7,58.2c-22.4-19.8-59.4-32.8-101.3-32.8c-68.4,0-123.9,34.6-123.9,77.2
			S117.3,223.2,185.7,223.2z"/>
		<path class="st0" d="M111.3,130.9v30.1c0,9.2,7.4,16.6,16.6,16.6h18.6v7.5c0,4.1-3.3,7.5-7.5,7.5c0,0,0,0,0,0h-25.1l3.9,11.7h23.9
			c9.2,0,16.6-7.4,16.6-16.6l0,0v-73.4h-30.3C118.7,114.3,111.3,121.8,111.3,130.9C111.3,130.9,111.3,130.9,111.3,130.9z
			 M146.5,165.9h-15.9c-4.1,0-7.5-3.4-7.5-7.5c0,0,0,0,0,0v-24.9c0-4.1,3.4-7.5,7.5-7.5l0,0h15.9L146.5,165.9z"/>
		<path class="st0" d="M195.8,166.4l-2.9,11.7h-3.7c-9.6,0-17.3-7.8-17.3-17.3l0,0v-101h11.7v100.5c0,3.4,2.7,6.1,6.1,6.1H195.8z"/>
		<path class="st0" d="M283.5,131.2v47h-11.7V132c0-3.3-2.7-6-6-6l0,0h-11.7c-3.3,0-6,2.7-6,6c0,0,0,0,0,0v46.1h-11.8V132
			c0-3.3-2.7-6-6-6l0,0h-11.7c-3.3,0-6,2.7-6,6c0,0,0,0,0,0v46.1H201v-47c0-9.3,7.5-16.8,16.8-16.8h13.5c4,0,7.9,1.4,11,4.1
			c3.1-2.6,6.9-4.1,11-4.1h13.5C276,114.4,283.5,121.9,283.5,131.2z"/>
	</g>
</g>
</svg>
