<?xml version="1.0" encoding="utf-8"?>
<!-- Generator: Adobe Illustrator 25.4.1, SVG Export Plug-In . SVG Version: 6.00 Build 0)  -->
<svg version="1.1" id="Calque_1" xmlns="http://www.w3.org/2000/svg" xmlns:xlink="http://www.w3.org/1999/xlink" x="0px" y="0px"
	 viewBox="0 0 395.6 395.6" style="enable-background:new 0 0 395.6 395.6;" xml:space="preserve">
<style type="text/css">
	.st0{fill:#3F75EF;}
	.st1{fill:#FFFFFF;}
</style>
<path class="st0" d="M310.1,391.1H85.5c-44.7,0-81-36.3-81-81V85.5c0-44.7,36.3-81,81-81h224.6c44.7,0,81,36.3,81,81v224.6
	C391.1,354.8,354.8,391.1,310.1,391.1z"/>
<g>
	<path class="st1" d="M132.7,56.1v125.4h-26.5V56.1H132.7z"/>
	<path class="st1" d="M154.1,181.4v-94h24.8V104h1.1c2-5.5,5.2-9.9,9.9-13.1c4.6-3.1,10.1-4.8,16.4-4.8c6.4,0,11.9,1.6,16.5,4.8
		c4.6,3.2,7.6,7.6,9,13h0.9c1.9-5.4,5.4-9.7,10.5-13c5.1-3.2,11-4.9,18-4.9c8.8,0,15.9,2.8,21.4,8.4c5.5,5.6,8.2,13.5,8.2,23.7v63.2
		h-26.1v-58.1c0-5.2-1.3-9.1-4.2-11.7c-2.8-2.6-6.2-3.9-10.4-3.9c-4.8,0-8.4,1.6-11.1,4.6c-2.7,3-3.9,7-3.9,11.8v57.4h-25.3v-58.6
		c0-4.6-1.3-8.3-3.9-11s-6.1-4.2-10.4-4.2c-4.4,0-8,1.6-10.9,4.8c-2.9,3.1-4.4,7.4-4.4,12.6v56.5h-26.2V181.4z"/>
	<path class="st1" d="M149.5,243c-1.7-5.9-4.8-10.5-9.2-13.8c-4.5-3.3-10.2-5-17-5c-9.5,0-17.3,3.5-23.3,10.6
		c-5.9,7.1-8.9,17.1-8.9,30.2c0,13.1,2.9,23.3,8.7,30.4c5.8,7.2,13.7,10.7,23.7,10.7c8.8,0,15.8-2.3,20.8-6.9
		c5.1-4.6,7.7-10.8,7.8-18.5h-27v-19.9h52.5v15.8c0,11-2.3,20.4-7,28.3c-4.7,7.9-11,14-19.2,18.3c-8.1,4.3-17.5,6.3-28,6.3
		c-11.7,0-22.1-2.6-30.9-7.8c-8.9-5.2-15.8-12.7-20.8-22.2c-5-9.7-7.5-21.1-7.5-34.3c0-13.6,2.6-25.1,7.8-34.8
		c5.2-9.7,12.2-17,21.1-22.1c8.8-5.1,18.8-7.7,29.8-7.7c9.4,0,18.1,1.8,25.7,5.4c7.7,3.6,13.9,8.5,18.9,14.9
		c4.9,6.3,7.9,13.7,9,21.9L149.5,243L149.5,243z"/>
	<path class="st1" d="M257.3,287.8v-54h26.1v94h-25v-17.1h-0.9c-2.1,5.5-5.6,10-10.6,13.3c-4.9,3.3-10.9,5-18,5
		c-9.4,0-17.1-3.1-22.9-9.4s-8.8-14.9-8.8-25.9v-59.9h26.1V289c0,5.5,1.6,10,4.5,13.2s6.9,4.9,11.8,4.9c4.7,0,8.8-1.7,12.6-4.9
		C255.6,298.9,257.3,294.1,257.3,287.8z"/>
	<path class="st1" d="M317.3,221.7c-3.8,0-7.2-1.2-10-3.8c-2.8-2.6-4.2-5.7-4.2-9.3s1.3-6.7,4.2-9.3c2.8-2.6,6.1-3.8,10-3.8
		c3.8,0,7.2,1.2,10,3.8c2.8,2.6,4.2,5.7,4.2,9.3s-1.3,6.7-4.2,9.3C324.5,220.4,321.2,221.7,317.3,221.7z M304.2,327.9v-94h26.1v94
		H304.2z"/>
</g>
</svg>
