<?xml version="1.0" encoding="utf-8"?>
<!-- Generator: Adobe Illustrator 25.4.1, SVG Export Plug-In . SVG Version: 6.00 Build 0)  -->
<svg version="1.1" id="Calque_1" xmlns="http://www.w3.org/2000/svg" xmlns:xlink="http://www.w3.org/1999/xlink" x="0px" y="0px"
	 viewBox="0 0 170.6 170.6" style="enable-background:new 0 0 170.6 170.6;" xml:space="preserve">
<style type="text/css">
	.st0{fill:#DB380E;}
	.st1{fill:#73A1FB;}
</style>
<g>
	<path class="st0" d="M84.5,32.9C76.8,38.3,68,44.5,63.4,54.7C55.2,72.3,80,91.7,81,92.5c0.2,0.2,0.5,0.3,0.8,0.3
		c0.8,0,1.4-0.6,1.4-1.3c0-0.2,0-0.4-0.1-0.6c-0.1-0.2-9-17.4-8.6-29.8c0.1-4.3,6.1-9.2,12.5-14.4c5.8-4.7,12.5-10.1,16.3-16.4
		c8.5-13.8-0.9-27.4-1-27.6C102,2,101.2,1.7,100.5,2c-0.6,0.3-0.9,1-0.7,1.7c1,6.3-0.2,12.8-3.3,18.3C94.5,25.9,89.8,29.1,84.5,32.9
		z"/>
	<path class="st0" d="M116.9,39c0.6-0.5,0.7-1.3,0.2-1.9c-0.3-0.5-0.9-0.6-1.5-0.5c-1.3,0.5-32,12.3-32,26.6
		c0,9.9,4.2,15.1,7.3,18.9c1.1,1.1,1.9,2.5,2.6,3.9c1,3.2-1.3,8.9-2.3,10.8c-0.3,0.6-0.1,1.2,0.3,1.6c0.3,0.2,0.6,0.3,0.9,0.3
		c0.3,0,0.5-0.1,0.8-0.2c0.4-0.3,12.9-9.1,10.6-19.7c-0.8-3.5-2.4-6.7-4.5-9.5c-2.7-4-4.6-6.9-1.7-12.3
		C101.1,50.9,116.7,39.1,116.9,39z"/>
	<path class="st1" d="M36.9,99.1c-0.5,1.5-0.3,3.2,0.7,4.5c3.3,4.6,15.1,7.1,33.2,7.1l0,0c2.5,0,5,0,7.7-0.1
		c28.9-1,39.7-10.1,40.1-10.4c0.5-0.4,0.6-1.1,0.3-1.7c-0.3-0.6-0.9-0.8-1.6-0.7c-10.2,2.8-29.2,3.7-42.4,3.7
		c-14.8,0-22.3-1.1-24.1-1.9c0.9-1.2,6.8-3.6,14-5c0.7-0.2,1.1-1,0.9-1.7c-0.2-0.5-0.6-0.9-1.2-0.9C60.4,92.1,39.2,92.4,36.9,99.1z"
		/>
	<path class="st1" d="M133.7,89.8c-4.1,0.2-8.2,1.2-11.9,3.1c-0.7,0.4-0.9,1.2-0.5,1.9c0.2,0.4,0.7,0.7,1.2,0.7
		c0.1,0,12.7,0.1,13.9,7.3c1,6.2-11.9,16.3-17,19.6c-0.5,0.4-0.8,1.1-0.5,1.7c0.2,0.5,0.7,0.8,1.2,0.8c0.1,0,0.2,0,0.3,0
		c1.2-0.3,29.4-6.5,26.4-22.9C145,91.9,138.7,89.8,133.7,89.8z"/>
	<path class="st1" d="M114.4,120.4c0.1-0.5-0.1-1.1-0.6-1.4l-6.8-4.7c-0.3-0.2-0.7-0.3-1.1-0.2c-5.7,1.4-11.6,2.4-17.4,3
		c-4.4,0.5-8.8,0.7-13.2,0.7c-10.3,0-17-1.2-18-2.1c-0.1-0.2-0.1-0.4-0.1-0.4c0.4-0.6,1-1,1.7-1.2c0.7-0.3,1-1,0.8-1.7
		c-0.2-0.7-0.9-1.1-1.6-0.9c-6.8,1.6-10.1,3.9-9.9,6.8c0.4,5.1,12.3,7.7,22.2,8.4c1.4,0.1,3,0.1,4.6,0.1l0,0
		c16.6,0,37.9-5.2,38.1-5.3C113.9,121.4,114.3,121,114.4,120.4z"/>
	<path class="st1" d="M63.4,131.4c0.6-0.4,0.8-1.3,0.3-1.9c-0.3-0.4-0.7-0.6-1.1-0.6c-0.9,0-8.9,0.4-9.5,5.5c-0.2,1.5,0.3,3,1.2,4.1
		c2.9,3.4,10.6,5.4,23.7,6.2c1.5,0.1,3.1,0.1,4.7,0.1c16.6,0,27.8-5.2,28.3-5.4c0.7-0.3,1.1-1,0.8-1.7c-0.1-0.3-0.4-0.6-0.7-0.8
		l-8.6-5.2c-0.3-0.2-0.6-0.2-1-0.2c0,0-5.5,1.1-13.7,2.3c-1.9,0.2-3.8,0.3-5.8,0.3c-8.2,0-17.3-1.3-19-2.2
		C63,131.7,63.2,131.5,63.4,131.4z"/>
	<path class="st1" d="M75,160.5c38,0,58.4-6.8,62.4-11c1-1,1.6-2.4,1.4-3.9c-0.3-1.6-1.3-3-2.6-3.8c-0.6-0.4-1.5-0.3-1.9,0.4
		c-0.3,0.5-0.3,1.2,0.1,1.6c0.2,0.3,0.4,0.8-0.3,1.5c-1.6,1.5-17.4,5.9-43.8,7.3c-3.6,0.2-7.4,0.3-11.2,0.3
		c-23.7,0-40.9-3.2-43.2-5.1c0.9-1.2,7-3.3,13.5-4.4c0.7-0.1,1.2-0.8,1.1-1.6c-0.1-0.7-0.8-1.2-1.5-1.1c-0.2,0-0.8,0-1.5,0.1
		c-10.7,0.7-23.1,2.1-23.8,7.6c-0.2,1.7,0.3,3.3,1.5,4.5C27.9,156.1,36.3,160.5,75,160.5L75,160.5z"/>
	<path class="st1" d="M144.9,150.6c-0.5-0.3-1.2-0.1-1.6,0.3c0,0-5.8,6-23,9.5c-6.6,1.3-18.9,2-36.7,2s-34.8-0.6-34.9-0.6
		c-0.7,0-1.3,0.5-1.4,1.2c-0.1,0.7,0.4,1.4,1,1.5c13.9,2.9,28,4.3,42.2,4.2c11.3,0,22.5-0.9,33.6-2.8c19.9-3.5,21.4-13.4,21.4-13.8
		C145.7,151.5,145.4,150.9,144.9,150.6z"/>
</g>
</svg>
