<?xml version="1.0" encoding="utf-8"?>
<!-- Generator: Adobe Illustrator 25.4.1, SVG Export Plug-In . SVG Version: 6.00 Build 0)  -->
<svg version="1.1" id="Layer_1" xmlns="http://www.w3.org/2000/svg" xmlns:xlink="http://www.w3.org/1999/xlink" x="0px" y="0px"
	 viewBox="0 0 1080 1080" style="enable-background:new 0 0 1080 1080;" xml:space="preserve">
<style type="text/css">
	.st0{fill:#D00000;}
	.st1{fill:#FFFFFF;}
</style>
<path class="st0" d="M116.8,1062c-54.4,0-98.8-44.5-98.8-98.8V116.8C18,62.5,62.5,18,116.8,18h846.3c54.4,0,98.8,44.5,98.8,98.8
	v846.3c0,54.6-44.2,98.8-98.8,98.8H116.8z"/>
<path class="st1" d="M303,827.5c0,0.8,0.5,1.9,1,2.4l17.9,17.9c0.6,0.6,1.7,1,2.4,1h61.1c0.8,0,1.9-0.5,2.4-1l17.9-17.9
	c0.6-0.6,1-1.7,1-2.4v-194c0-0.8,0.5-1.9,1-2.4l77.7-74.2c0.6-0.5,1.4-0.5,1.8,0.2l196.3,290.6c0.4,0.7,1.5,1.2,2.2,1.2h86.6
	c0.8,0,1.7-0.6,2.1-1.3l15.7-30.5c0.4-0.7,0.3-1.8-0.2-2.5L560.6,481.9c-0.5-0.6-0.4-1.6,0.2-2.2l211.2-210.2c0.6-0.6,1-1.6,1-2.4
	v-3.9c0-0.8-0.3-2-0.6-2.8l-12.2-28c-0.3-0.7-1.2-1.3-2-1.3h-85.6c-0.8,0-1.9,0.5-2.4,1L407.8,495.4c-0.6,0.6-1,0.4-1-0.4V253.5
	c0-0.8-0.4-1.9-1-2.5l-17.5-18.8c-0.5-0.6-1.6-1-2.4-1h-61.6c-0.8,0-1.9,0.5-2.4,1l-18,19.4c-0.5,0.6-1,1.7-1,2.5L303,827.5
	L303,827.5z"/>
</svg>
