<?xml version="1.0" encoding="utf-8"?>
<!-- Generator: Adobe Illustrator 25.4.1, SVG Export Plug-In . SVG Version: 6.00 Build 0)  -->
<svg version="1.1" id="Calque_1" xmlns="http://www.w3.org/2000/svg" xmlns:xlink="http://www.w3.org/1999/xlink" x="0px" y="0px"
	 viewBox="0 0 302.9 302.9" style="enable-background:new 0 0 302.9 302.9;" xml:space="preserve">
<style type="text/css">
	.st0{fill:#3AA2D6;}
</style>
<g id="Calque_2_00000109015740541564909470000013463446422210614948_">
	<g id="Calque_6">
		<path id="path14" class="st0" d="M167,158.7c-0.5-2.3-1.4-4.5-2.7-6.5c-1.2-1.9-2.8-3.4-4.6-4.5c-2-1.2-4.3-1.7-6.6-1.7
			c-2.4-0.1-4.7,0.5-6.8,1.8c-1.8,1.2-3.4,2.8-4.5,4.7c-1.2,2-2.1,4.3-2.5,6.6c-1.1,5-1.1,10.2,0,15.2c0.5,2.3,1.4,4.6,2.6,6.6
			c1.2,1.9,2.8,3.4,4.7,4.6c2.1,1.2,4.5,1.8,6.9,1.7c2.4,0.1,4.7-0.5,6.8-1.8c1.8-1.2,3.3-2.8,4.4-4.7c1.2-2.1,2-4.4,2.4-6.8
			c0.5-2.6,0.7-5.2,0.7-7.8C167.8,163.5,167.5,161.1,167,158.7L167,158.7z M138.8,139.3v7.4h0.2c1.2-2.9,3.3-5.2,6.1-6.6
			c2.9-1.4,6-2.1,9.2-2.1c3.4-0.1,6.7,0.7,9.7,2.3c2.7,1.5,5.1,3.7,6.9,6.3c1.9,2.8,3.3,5.9,4.1,9.1c0.9,3.6,1.4,7.3,1.4,10.9
			c0,3.7-0.4,7.4-1.3,10.9c-0.8,3.2-2.2,6.3-4.1,9c-1.8,2.5-4.1,4.6-6.9,6.1c-3,1.5-6.3,2.3-9.6,2.2c-1.3,0-2.6-0.2-3.9-0.4
			c-1.5-0.3-2.9-0.8-4.3-1.4c-1.5-0.7-2.8-1.5-4-2.6c-1.3-1.1-2.4-2.5-3.2-4.1h-0.2v28h-7.9v-75.2L138.8,139.3z M63,163.8
			c0.9,4,2.5,7.8,4.7,11.3c2.1,3.3,4.8,6,8.2,8.1c3.6,2.1,7.7,3.2,11.9,3c4.2,0.1,8.3-0.9,11.9-3c3.3-2,6.1-4.8,8.2-8.1
			c2.2-3.5,3.7-7.3,4.7-11.3c2-8.4,2-17.1,0-25.5c-0.9-4-2.5-7.8-4.6-11.3c-2.1-3.3-4.8-6.1-8.2-8.1c-3.6-2.1-7.7-3.2-11.9-3.1
			c-4.2-0.1-8.3,0.9-11.9,3.1c-3.3,2-6.1,4.8-8.2,8.1c-2.2,3.5-3.8,7.3-4.7,11.3C61,146.7,61,155.4,63,163.8z M71.5,110.3l0.5-0.3
			c4.9-2.5,10.3-3.8,15.8-3.7c5.5-0.1,10.9,1.2,15.8,3.7c4.5,2.4,8.3,5.8,11.3,9.9c3.1,4.3,5.4,9.2,6.8,14.3c3,11,3,22.6,0,33.6
			c-1.4,5.1-3.7,10-6.8,14.3c-3,4.1-6.8,7.5-11.3,9.9c-4.9,2.5-10.3,3.8-15.7,3.7c-5.5,0.1-10.9-1.1-15.8-3.6
			c-1-0.5-1.9-1.1-2.7-1.6c23.5,24.7,68.8,41.5,120.7,41.5c42.3,0,80.2-9.9,105.4-27.4c-27.7,29.2-77.1,49.8-133.4,49.8
			C75.3,254.2,5,208.2,5,151.4S75.3,48.7,162,48.7c56.6,0,106.1,20.7,133.7,50.1c-25.3-17.6-63.3-27.7-105.8-27.7
			C139.6,71.1,95.5,86.8,71.5,110.3"/>
		<polygon class="st0" points="273.8,114.3 273.8,174.1 297.9,174.1 297.9,187.8 257.3,187.8 257.3,114.3 		"/>
		<path class="st0" d="M228.9,187.3c-3.4,1.4-7.1,2.2-10.8,2.2c-5.3,0.1-10.6-0.9-15.5-2.9c-4.4-1.8-8.4-4.6-11.6-8.1
			c-3.2-3.5-5.7-7.6-7.3-12.1c-1.8-4.8-2.6-9.9-2.6-15.1c0-5.2,0.8-10.4,2.5-15.3c1.6-4.5,4.1-8.7,7.3-12.3
			c3.2-3.6,7.2-6.4,11.6-8.3c4.9-2,10.3-3.1,15.6-2.9c3.8,0,7.6,0.6,11.2,1.7c3.5,1.1,6.9,2.8,9.8,5c2.9,2.2,5.4,5,7.2,8.2
			c2,3.4,3.2,7.2,3.5,11.1h-15.8c-1-4.1-2.9-7.2-5.7-9.3c-3-2.1-6.6-3.2-10.2-3.1c-3.3-0.1-6.5,0.6-9.5,2.1
			c-2.5,1.4-4.7,3.3-6.3,5.7c-1.7,2.5-2.9,5.2-3.5,8.1c-0.7,3.1-1.1,6.2-1.1,9.4c0,3,0.4,6.1,1.1,9c0.7,2.8,1.9,5.5,3.5,7.9
			c1.6,2.4,3.8,4.3,6.3,5.6c2.9,1.5,6.2,2.2,9.5,2.1c5.5,0,9.7-1.4,12.7-4.1c3-2.7,4.7-6.6,5.2-11.8h-16.6v-12.1h31.6v39.7h-10.5
			l-1.7-8.3C236.1,182.9,232.7,185.6,228.9,187.3z"/>
	</g>
</g>
</svg>
