<?xml version="1.0" encoding="utf-8"?>
<!-- Generator: Adobe Illustrator 25.4.1, SVG Export Plug-In . SVG Version: 6.00 Build 0)  -->
<svg version="1.1" id="Calque_1" xmlns="http://www.w3.org/2000/svg" xmlns:xlink="http://www.w3.org/1999/xlink" x="0px" y="0px"
	 viewBox="0 0 222.1 222.1" style="enable-background:new 0 0 222.1 222.1;" xml:space="preserve">
<style type="text/css">
	.st0{fill:#249CFF;}
	.st1{fill:#FFE91F;}
	.st2{fill:#297BFF;}
	.st3{fill:none;}
	.st4{fill:#EDB414;}
</style>
<g id="Calque_2_00000152943462457372637930000001297886637313426338_">
	<g id="Calque_6">
		<path class="st0" d="M114.4,1.8H97.3C75.7,1.8,58.2,19.4,58.2,41c0,5.2,4.2,9.5,9.5,9.5h39.6c2,0,3.7,1.7,3.7,3.7
			c0,2-1.7,3.7-3.7,3.7H54.4c-29,0-52.5,23.5-52.5,52.5c0,0,0,0,0,0v13.2c0,21.8,17.6,39.4,39.4,39.4c0,0,0,0,0,0
			c5.2,0,9.5-4.2,9.5-9.5l0,0v-18.3c0-15.8,12.8-28.7,28.7-28.7c0,0,0,0,0,0h54.9c15.8,0,28.7-12.8,28.7-28.6c0,0,0,0,0,0V50.4
			C163,23.6,141.3,1.8,114.4,1.8z M80.4,37.2c-5.1,0-9.3-4.2-9.3-9.3s4.2-9.3,9.3-9.3c5.1,0,9.3,4.2,9.3,9.3S85.5,37.2,80.4,37.2
			L80.4,37.2z"/>
		<path class="st1" d="M180.7,59.1c-5.2,0-9.5,4.2-9.5,9.5v18.2c0,15.8-12.8,28.7-28.7,28.7H87.7c-15.8,0-28.7,12.8-28.7,28.6
			c0,0,0,0,0,0v27.4c0,26.9,21.8,48.6,48.6,48.6h0h17c21.6,0,39.2-17.5,39.2-39.2c0,0,0,0,0,0c0-5.2-4.2-9.5-9.5-9.5h-39.5
			c-2,0.1-3.8-1.5-3.9-3.5c-0.1-2,1.5-3.8,3.5-3.9c0.1,0,0.3,0,0.4,0h52.8c29,0,52.5-23.5,52.5-52.5V98.5
			C220.1,76.8,202.5,59.1,180.7,59.1C180.7,59.1,180.7,59.1,180.7,59.1z M141.6,184.9c5.1,0,9.3,4.2,9.3,9.3c0,5.1-4.2,9.3-9.3,9.3
			c-5.1,0-9.3-4.2-9.3-9.3C132.3,189,136.5,184.9,141.6,184.9L141.6,184.9z"/>
		<path class="st2" d="M163,65.6v12.3c0,15.8-12.8,28.7-28.6,28.7c0,0,0,0,0,0H79.5c-15.8,0-28.7,12.8-28.7,28.7c0,0,0,0,0,0v-12.3
			c0-15.8,12.9-28.7,28.7-28.7h54.9C150.2,94.3,163,81.4,163,65.6C163,65.6,163,65.6,163,65.6z"/>
		<path class="st2" d="M50.8,141.2v12.3c0,5.2-4.2,9.5-9.5,9.5l0,0c-21.8,0-39.4-17.6-39.4-39.4c0,0,0,0,0,0v-12.3
			c0,21.8,17.6,39.4,39.4,39.4l0,0C46.6,150.6,50.8,146.4,50.8,141.2L50.8,141.2z"/>
		<path class="st3" d="M114.4,1.8H97.3C75.7,1.8,58.2,19.4,58.2,41c0,5.2,4.2,9.5,9.5,9.5h39.6c2,0,3.7,1.7,3.7,3.7
			c0,2-1.7,3.7-3.7,3.7H54.4c-29,0-52.5,23.5-52.5,52.5c0,0,0,0,0,0v13.2c0,21.8,17.6,39.4,39.4,39.4c0,0,0,0,0,0
			c5.2,0,9.5-4.2,9.5-9.5l0,0v-18.3c0-15.8,12.8-28.7,28.7-28.7c0,0,0,0,0,0h54.9c15.8,0,28.7-12.8,28.7-28.6c0,0,0,0,0,0V50.4
			C163,23.6,141.3,1.8,114.4,1.8z M80.4,37.2c-5.1,0-9.3-4.2-9.3-9.3s4.2-9.3,9.3-9.3c5.1,0,9.3,4.2,9.3,9.3S85.5,37.2,80.4,37.2
			L80.4,37.2z"/>
		<path class="st4" d="M220.1,99.7v12.1c0,29-23.5,52.5-52.5,52.5h-52.8c-2,0-3.6,1.5-3.7,3.5c0.1-8.3,4.4-15.6,15.9-15.6h40.6
			C196.6,152.2,220.1,128.7,220.1,99.7z"/>
		<path class="st4" d="M163.8,181.1c0,21.6-17.5,39.2-39.2,39.2c0,0,0,0,0,0h-17c-26.9,0-48.6-21.7-48.7-48.6c0,0,0,0,0,0v-12.1
			c0,26.9,21.8,48.6,48.6,48.6h17c6.6,0,13.1-1.7,18.9-4.8c2.4-0.5,4.5-1.9,5.9-3.9c1-0.8,2-1.7,3-2.7c5.4-5.3,9-12.1,10.6-19.5
			C163.5,178.4,163.8,179.7,163.8,181.1z"/>
		<path class="st3" d="M180.7,59.1c-5.2,0-9.5,4.2-9.5,9.5v18.2c0,15.8-12.8,28.7-28.7,28.7H87.7c-15.8,0-28.7,12.8-28.7,28.6
			c0,0,0,0,0,0v27.4c0,26.9,21.8,48.6,48.6,48.6h0h17c21.6,0,39.2-17.5,39.2-39.2c0,0,0,0,0,0c0-5.2-4.2-9.5-9.5-9.5h-39.5
			c-2,0.1-3.8-1.5-3.9-3.5c-0.1-2,1.5-3.8,3.5-3.9c0.1,0,0.3,0,0.4,0h52.8c29,0,52.5-23.5,52.5-52.5V98.5
			C220.1,76.8,202.5,59.1,180.7,59.1C180.7,59.1,180.7,59.1,180.7,59.1z M141.6,184.9c5.1,0,9.3,4.2,9.3,9.3c0,5.1-4.2,9.3-9.3,9.3
			c-5.1,0-9.3-4.2-9.3-9.3C132.3,189,136.5,184.9,141.6,184.9L141.6,184.9z"/>
	</g>
</g>
</svg>
