<?xml version="1.0" encoding="utf-8"?>
<!-- Generator: Adobe Illustrator 25.4.1, SVG Export Plug-In . SVG Version: 6.00 Build 0)  -->
<svg version="1.1" id="Calque_1" xmlns="http://www.w3.org/2000/svg" xmlns:xlink="http://www.w3.org/1999/xlink" x="0px" y="0px"
	 viewBox="0 0 477.3 477.3" style="enable-background:new 0 0 477.3 477.3;" xml:space="preserve">
<style type="text/css">
	.st0{fill:#6273E9;}
	.st1{fill:#FFFFFF;}
</style>
<path class="st0" d="M408.3,470.7H69c-34.5,0-62.5-28-62.5-62.5V68.9c0-34.5,28-62.5,62.5-62.5h339.3c34.5,0,62.5,28,62.5,62.5
	v339.3C470.8,442.7,442.8,470.7,408.3,470.7z"/>
<path class="st1" d="M356.5,329.6c-3.5,15.6-10.9,29.9-21.5,41.8c-7.8,8.7-17.1,15.9-27.4,21.4c-13.1,7.2-27.1,11.8-41.8,14.7
	c-12.3,2.4-24.8,3.6-37.4,3.6c-8.6,0.1-17.2-0.3-25.7-1c-14.1-1.3-28.2-3.8-41.9-7.4c-11.9-3.2-23.6-7.1-35-11.8
	c-1.1-0.4-2.1-1-3.1-1.6c-0.3-0.2-0.5-0.6-0.5-1v-87.1c0-0.6,0.5-1.1,1.1-1.1c0.2,0,0.4,0.1,0.6,0.1c11.9,6.1,24.1,11.4,36.7,15.8
	c13.3,4.8,27,8.5,40.9,10.9c10,1.8,20.3,2.5,30.5,2.1c6.3-0.3,12.5-1.2,18.2-3.7c4.8-2.1,8.8-5.3,10.8-10.3c3.3-8.6,2-17.2-5.1-24
	c-4.4-4.2-9.7-7.2-15.2-9.8c-11.2-5.3-23-9.1-34.7-13.4c-8.5-3.1-16.9-6.3-25.2-10c-8.6-3.7-16.8-8.2-24.6-13.4
	c-8.5-5.8-16.2-12.6-22.4-20.9c-7.6-10.2-12.5-22-14.4-34.6c-1.4-9.3-1.6-18.7-0.6-28c1.6-16.6,6.6-32.1,16-46.1
	c6.6-9.7,14.9-18.2,24.5-24.9c12.1-8.5,25.5-14.3,39.7-18.2c8.4-2.2,16.9-3.8,25.5-4.7c12-1.2,24-1.6,36.1-0.9
	c18.9,0.8,37.6,3.8,55.8,8.8c7.6,2.1,15.1,4.6,22.5,7.4c0.4,0.1,0.7,0.3,1.1,0.4c0.7,0.1,1.2,0.8,1.1,1.5c0,0,0,0,0,0.1
	c0,0.4,0,0.8,0,1.1v85.2c0,0.6-0.5,1.1-1.1,1.1c-0.2,0-0.4-0.1-0.5-0.1c-4.9-2.6-9.9-4.9-15-7.1c-5.1-2.1-10.3-4.1-15.5-5.8
	c-13-4.3-26.4-7.3-39.9-9.1c-7.4-1-14.8-1.5-22.3-1.7c-6.4-0.1-12.9,0.4-19,2.6c-3.5,1.1-6.7,3.2-9.2,5.9c-2.3,2.7-3.7,6.2-4,9.7
	c-0.7,6.9,2,12.4,7.2,16.8c5.2,4.4,11,7.1,17.1,9.6c8.5,3.5,17.2,6.3,25.9,9.3c11.5,3.9,23,8,34.1,13.1c12.4,5.8,24,12.6,34,22
	c6.4,6.1,11.9,13.1,16.1,20.9c6.2,11.5,9.4,23.7,10.3,36.7C359.9,306.4,359,318.2,356.5,329.6z"/>
</svg>
