<?xml version="1.0" encoding="utf-8"?>
<!-- Generator: Adobe Illustrator 26.5.0, SVG Export Plug-In . SVG Version: 6.00 Build 0)  -->
<svg version="1.1" id="Layer_1" xmlns="http://www.w3.org/2000/svg" xmlns:xlink="http://www.w3.org/1999/xlink" x="0px" y="0px"
	 viewBox="0 0 118 118" style="enable-background:new 0 0 118 118;" xml:space="preserve">
<style type="text/css">
	.st0{fill:#FF3E00;}
	.st1{fill:#FFFFFF;}
</style>
<path class="st0" d="M101.1,16.3C90.3,0.9,69-3.7,53.6,6.1L26.6,23.4c-7.4,4.6-12.5,12.2-14,20.8c-1.3,7.2-0.2,14.6,3.2,21
	c-2.4,3.5-3.9,7.5-4.6,11.6c-1.6,8.8,0.5,17.8,5.6,25c10.8,15.4,32.1,20,47.4,10.2l27.1-17.2c7.4-4.6,12.5-12.2,14-20.8
	c1.3-7.2,0.2-14.6-3.2-21c2.4-3.5,3.9-7.5,4.6-11.6C108.3,32.5,106.3,23.5,101.1,16.3"/>
<path class="st1" d="M51,103.2c-8.8,2.3-17.9-1.2-23-8.6c-3.1-4.3-4.3-9.7-3.4-15.1c0.2-0.9,0.4-1.7,0.6-2.6l0.5-1.6l1.4,1
	c3.2,2.4,6.8,4.1,10.6,5.3l1,0.3l-0.1,1c-0.1,1.4,0.3,2.9,1.1,4c1.6,2.3,4.3,3.3,7,2.7c0.6-0.2,1.2-0.4,1.7-0.7l27-17.2
	c1.4-0.9,2.3-2.2,2.6-3.7c0.3-1.6-0.1-3.2-1-4.5c-1.6-2.3-4.3-3.2-7-2.6c-0.6,0.2-1.2,0.4-1.7,0.7l-10.3,6.6
	c-1.7,1.1-3.5,1.9-5.5,2.4c-8.8,2.3-17.9-1.2-23-8.6c-3-4.3-4.3-9.7-3.3-15.1c0.9-5.1,4-9.7,8.5-12.5l27.1-17.2
	c1.7-1.1,3.5-1.9,5.5-2.5c8.8-2.3,17.9,1.2,23,8.6c3.1,4.3,4.3,9.7,3.4,15.1c-0.2,0.9-0.4,1.7-0.7,2.6l-0.5,1.6l-1.4-1
	c-3.2-2.4-6.8-4.1-10.6-5.3l-1-0.3l0.1-1c0.1-1.4-0.3-2.9-1.1-4c-1.6-2.3-4.3-3.2-7-2.6c-0.6,0.2-1.2,0.4-1.7,0.7l-27,17.2
	c-1.4,0.9-2.3,2.2-2.6,3.7c-0.3,1.6,0.1,3.2,1,4.5c1.6,2.3,4.3,3.2,7,2.6c0.6-0.2,1.2-0.4,1.7-0.7L60,49.9c1.7-1.1,3.5-1.9,5.5-2.5
	c8.8-2.3,17.9,1.2,23,8.6c3.1,4.3,4.3,9.7,3.4,15.1c-0.9,5.1-4,9.7-8.5,12.5l-27.1,17.2C54.8,101.8,52.9,102.6,51,103.2"/>
</svg>
