<?xml version="1.0" encoding="utf-8"?>
<!-- Generator: Adobe Illustrator 25.4.1, SVG Export Plug-In . SVG Version: 6.00 Build 0)  -->
<svg version="1.1"
	 id="svg8" xmlns:cc="http://creativecommons.org/ns#" xmlns:dc="http://purl.org/dc/elements/1.1/" xmlns:rdf="http://www.w3.org/1999/02/22-rdf-syntax-ns#" xmlns:svg="http://www.w3.org/2000/svg"
	 xmlns="http://www.w3.org/2000/svg" xmlns:xlink="http://www.w3.org/1999/xlink" x="0px" y="0px" viewBox="0 0 122.8 122.8"
	 style="enable-background:new 0 0 122.8 122.8;" xml:space="preserve">
<style type="text/css">
	.st0{fill:#ED8E24;}
	.st1{fill:#E55B2D;}
	.st2{fill:#F8BF3C;}
</style>
<polygon class="st0" points="5,38.2 21.1,66.1 32.4,54.6 37.2,56.8 43.2,84.7 37.2,112.6 47.9,112.6 53.4,121.9 62.3,111.3 
	69.5,112.6 65.3,100.7 69.5,94 85.6,66.1 72.5,64.4 69.5,56.8 63.8,45.9 69.5,38.2 82.9,39.3 101.7,56.8 117.8,28.8 68.1,9.8 "/>
<polygon class="st1" points="69.5,19.5 69.5,38.2 101.7,56.8 101.7,38.2 "/>
<polygon class="st1" points="5,38.2 5,56.8 21.1,66.1 21.1,47.5 "/>
<polygon class="st1" points="53.4,47.5 37.2,56.8 37.2,112.6 53.4,121.9 53.4,84.7 69.5,94 69.5,75.4 53.4,66.1 "/>
<polygon class="st0" points="69.5,19.5 21.1,47.5 21.1,66.1 53.4,47.5 53.4,66.1 69.5,56.8 "/>
<polygon class="st0" points="117.8,28.8 101.7,38.2 101.7,56.8 117.8,47.5 "/>
<polygon class="st0" points="85.6,66.1 69.5,75.4 69.5,94 85.6,84.7 "/>
<polygon class="st0" points="69.5,94 53.4,84.7 53.4,121.9 69.5,112.6 "/>
<polygon class="st2" points="69.5,0.9 5,38.2 21.1,47.5 69.5,19.5 101.7,38.2 117.8,28.8 "/>
<polygon class="st2" points="69.5,56.8 53.4,66.1 69.5,75.4 85.6,66.1 "/>
</svg>
