<?xml version="1.0" encoding="utf-8"?>
<!-- Generator: Adobe Illustrator 25.4.1, SVG Export Plug-In . SVG Version: 6.00 Build 0)  -->
<svg version="1.1"
	 id="Calque_1" xmlns:cc="http://creativecommons.org/ns#" xmlns:dc="http://purl.org/dc/elements/1.1/" xmlns:rdf="http://www.w3.org/1999/02/22-rdf-syntax-ns#"
	 xmlns="http://www.w3.org/2000/svg" xmlns:xlink="http://www.w3.org/1999/xlink" x="0px" y="0px" viewBox="0 0 512 512"
	 style="enable-background:new 0 0 512 512;" xml:space="preserve">
<style type="text/css">
	.st0{fill:#3178C6;}
	.st1{fill-rule:evenodd;clip-rule:evenodd;fill:#FFFFFF;}
</style>
<path class="st0" d="M54,5h404c27.1,0,49,21.9,49,49v404c0,27.1-21.9,49-49,49H54c-27.1,0-49-21.9-49-49V54C5,26.9,26.9,5,54,5z"/>
<path class="st1" d="M315.8,404.1v49c7.9,4.1,17.6,7.2,28.4,9.2s22.6,3,34.3,3s22.6-1.1,33.3-3.3s19.6-6,27.5-10.8
	c7.9-5.2,14.7-11.8,18.6-20.6s7-18.6,7-31.4c0-8.9-1.4-16.7-4-23.5s-6.5-12.7-11.8-17.6c-5-5.2-10.8-9.8-17.6-13.7
	s-14.7-8-23.5-11.8c-6.5-2.6-11.8-5.2-17.6-7.7c-5.1-2.5-9.5-5.1-12.7-7.6c-3.6-2.6-6.4-5.4-8.3-8.2c-2-2.9-2.9-6.2-2.9-9.8
	c0-3.3,0.9-6.4,2.6-9.1s4.2-5,7.4-7s7.1-3.4,11.8-4.5c4.6-1.1,9.7-1.6,15.7-1.6c4.1,0,8.4,0.3,12.7,0.9c4.5,0.6,9.1,1.6,13.7,2.8
	s9.1,2.8,13.7,4.8c4.3,2,8.3,4.2,11.8,6.8v-46.1c-7.5-2.8-15.7-5-24.5-6.4s-18.6-2.1-30.4-2.1s-22.6,1.3-33.3,3.7
	s-19.6,6.4-27.5,11.8c-7.9,5.3-13.7,11.8-18.6,20.6c-4.6,8.2-6.9,17.6-6.9,29.4c0,14.7,4.2,27.5,12.7,37.3
	c8.4,10.8,21.6,18.6,38.2,26.5c6.8,2.7,12.7,5.5,18.6,8.1s10.8,5.4,14.7,8.2c4.2,2.8,7.5,6,9.8,9.3c2.5,3.3,3.7,7.3,3.7,11.8
	c0,3.1-0.8,6.1-2.3,8.8s-3.8,5.1-7,7.1s-7,3.5-11.8,4.7c-4.6,1.1-9.8,1.7-16.7,1.7c-10.8,0-21.6-1.9-31.4-5.6
	c-10.8-3.7-20.6-9.3-29.4-16.7L315.8,404.1z M233.4,283.5h62.8v-40.2H120.7v40.2h62.8v179.4h50V283.5z"/>
</svg>
