<?xml version="1.0" encoding="utf-8"?>
<!-- Generator: Adobe Illustrator 25.4.1, SVG Export Plug-In . SVG Version: 6.00 Build 0)  -->
<svg version="1.1" id="Calque_1" xmlns="http://www.w3.org/2000/svg" xmlns:xlink="http://www.w3.org/1999/xlink" x="0px" y="0px"
	 viewBox="0 0 48 48" style="enable-background:new 0 0 48 48;" xml:space="preserve">
<style type="text/css">
	.st0{fill:#ECEFF1;}
	.st1{fill:#263238;}
	.st2{fill:#212121;}
	.st3{fill:#FFC107;}
	.st4{fill:#455A64;}
	.st5{opacity:0.4;}
	.st6{fill:none;stroke:#634703;stroke-width:0.35;stroke-linecap:round;stroke-linejoin:round;stroke-miterlimit:10;}
	.st7{fill:#634703;}
</style>
<g>
	<polygon class="st0" points="18.7,14 18.2,17.4 15.6,20.7 12.3,27 11.6,32.3 14,39.9 19.5,42.9 27.9,42.9 35.6,37.1 39.1,28.2 
		31.1,18.7 28.8,13.4 	"/>
	<path class="st1" d="M36.8,21.2c-2.1-3-3.8-4.8-4.7-8.6c-0.8-3.1,0-3.4-0.5-6c-0.4-1.7-1-2.9-1.7-3.8c-0.7-0.9-1.7-1.5-2.2-1.7
		c-1.2-0.5-3.9-1.6-7.3,0.2c-3.5,1.8-3.1,5.7-2.5,13.6c0,0.5-0.1,1.2-0.4,1.7c-0.5,1.2-1.4,2.2-2.2,3.1c-0.9,1.3-1.8,2.6-2.5,4
		c-1.6,3-3,6.9-2.6,8.3c0.6-0.1,8.8,12.2,8.8,12.5c0.5-0.1,2.7-0.1,4.7-0.1c2.7-0.1,4.3-0.3,6.5,0.3c0-0.4-0.1-0.8-0.1-1.2
		c0-0.8,0.1-1.4,0.3-2.3c0.1-0.6,0.3-1.3,0.4-2.1c-1.3,1.2-3.6,2.5-5.8,2.9c-1.9,0.4-5.2-0.3-6.8-2.2c0.3,0,1.1-0.2,1.4-0.6
		c0.4-0.6,0.1-1.3-0.1-1.7c-0.3-0.4-2.2-1.8-3.1-2.6c-0.9-0.8-1.4-1.2-1.9-1.7c0,0-0.8-0.8-1-1c-0.3-0.4-0.9-1.2-0.8-3.1
		c0.1-1.4,0.6-2.6,1.3-3.9c0.3-0.5,0.9-1.6,0.9-1.6s-2.2,5.5-1,7.1c0,0,0.1-1.7,0.6-3.4c0.4-1.2,1-2.9,1.8-3.8
		c0.8-0.9,2.7-4.3,2.9-6.4c0-0.9,0.1-1.8,0.1-2.5c-0.5-0.5,8.6-1.8,9.1-0.4c0.1,0.5,1.9,5.2,3,7.7c0.5,1.2,1.2,2.2,1.6,3.5
		c0.4,1.4,0.6,3.4,0.6,5.3c0,0.4,0,1-0.1,1.7c0.3,0,5.3-5.5-0.6-10c0,0,3.6,1.7,3.8,5.1c0.1,2.7-1,4.9-1.3,5.3
		c0.1,0,2.7,1.2,2.9,1.2c0.5,0,1.6-0.4,1.6-0.4c0.1-0.4,0.5-1.4,0.5-1.8C40.7,28.4,38.9,24.2,36.8,21.2z"/>
	<g>
		<ellipse class="st0" cx="20.3" cy="10" rx="1.7" ry="2.6"/>
		<ellipse class="st0" cx="26.1" cy="9.9" rx="2.2" ry="3"/>
	</g>
	<g>
		<ellipse transform="matrix(0.9921 -0.1254 0.1254 0.9921 -1.1299 2.6326)" class="st2" cx="20.3" cy="10.3" rx="0.9" ry="1.6"/>
		<ellipse class="st2" cx="26" cy="10.4" rx="1.3" ry="1.7"/>
	</g>
	<g>
		<path class="st3" d="M43.3,39c-0.5-0.3-1.4-0.6-2.2-1.8c-0.4-0.6-0.3-2.5-0.9-3.2c-0.4-0.5-0.9-0.3-1-0.3c-1.2,0.3-3.9,2.1-5.7,0
			c-0.3-0.3-0.6-0.6-1.3-0.6c-0.6,0-0.9,0.3-1.2,0.8c-0.3,0.5-0.3,0.9-0.3,2.2c0,1,0,2.2-0.1,3.1c-0.3,2.2-0.6,3.5-0.6,4.8
			c0,1.4,0.4,2.3,0.9,2.7c0.4,0.4,1,0.6,2.5,0.6c1.4,0,2.3-0.5,3.2-1.4c0.6-0.6,1.2-0.9,3-2.2c1.4-0.9,3.6-2.1,4-2.5
			c0.3-0.3,0.6-0.4,0.6-1.2C44.2,39.4,43.7,39.1,43.3,39z"/>
		<path class="st3" d="M17.2,39.4c-1.3-2.1-1.4-2.5-2.3-3.8c-0.8-1.3-2.5-3.8-3.5-3.8c-0.8,0-1.2,0.4-1.7,0.9
			c-0.5,0.5-1,1.7-1.9,2.3c-0.8,0.6-3,0.5-3.5,1.3c-0.5,0.8,0.5,1.9,0.5,3.9c0,0.8-1.4,2.3-0.8,3.4c0.5,0.8,1.2,1,5.6,1.9
			c2.3,0.5,4.5,1.8,6,1.9c1.4,0.1,3.9,0,4-3.5C19.5,42,18.4,41.4,17.2,39.4z"/>
		<path class="st3" d="M19.6,15.9c-0.7-0.6-1.4-1.1-1.4-1.9s0.5-1,1.3-1.7c0.5-0.4,1.6-1.4,3-1.4s3.1,1,3.8,1.2
			c1.1,0.4,2.3,0.5,2.2,1.4c-0.1,1-0.3,1.5-1.6,2.2c-1,0.5-2.6,1.7-3.8,1.7c-0.5,0-1.3,0-1.8-0.1C20.7,17.1,20.3,16.5,19.6,15.9z"/>
	</g>
	<path class="st4" d="M33.8,35.5c0.1,0.6,0.9,0.7,1.4,0.7c2,0,2.6-1.7,2.7-2.2c0,0-0.1-0.6-1.2-0.9c-0.4-0.1-1-0.3-1.3-0.3
		c-1.2-0.1-1.8,0.3-2.2,0.6c0,0,0.4,0.4,0.5,1C33.9,34.8,33.8,35.2,33.8,35.5z"/>
	<g class="st5">
		<path class="st6" d="M18.7,14c0.4,0.4,1.5,1.6,3.2,1.6c2.2,0,5.3-2.1,5.4-2.3"/>
		<ellipse transform="matrix(0.82 -0.5724 0.5724 0.82 -3.0216 14.5248)" class="st7" cx="21.6" cy="12.1" rx="0.4" ry="0.2"/>
		<ellipse transform="matrix(0.5 -0.866 0.866 0.5 1.3826 26.609)" class="st7" cx="23.7" cy="12.1" rx="0.2" ry="0.4"/>
	</g>
</g>
</svg>
