<?xml version="1.0" encoding="utf-8"?>
<!-- Generator: Adobe Illustrator 25.4.1, SVG Export Plug-In . SVG Version: 6.00 Build 0)  -->
<svg version="1.1" id="Calque_1" xmlns="http://www.w3.org/2000/svg" xmlns:xlink="http://www.w3.org/1999/xlink" x="0px" y="0px"
	 viewBox="0 0 256 256" style="enable-background:new 0 0 256 256;" xml:space="preserve">
<style type="text/css">
	.st0{fill:#5865F2;}
	.st1{fill:#FFFFFF;}
</style>
<circle class="st0" cx="128" cy="128" r="123"/>
<path class="st1" d="M186.3,73.5c-10.9-5.1-22.5-8.8-34.7-10.9c-1.5,2.7-3.2,6.3-4.4,9.2c-12.9-1.9-25.7-1.9-38.4,0
	c-1.2-2.9-3-6.5-4.5-9.2c-12.2,2.1-23.8,5.8-34.7,10.9c-21.9,33.1-27.9,65.5-24.9,97.3c14.5,10.9,28.6,17.5,42.5,21.8
	c3.4-4.7,6.5-9.7,9.1-15c-5-1.9-9.8-4.3-14.3-7c1.2-0.9,2.4-1.8,3.5-2.8c27.6,12.9,57.7,12.9,85,0c1.1,1,2.3,1.9,3.5,2.8
	c-4.5,2.7-9.4,5.1-14.4,7c2.6,5.3,5.7,10.3,9.1,15c13.9-4.3,28-10.9,42.5-21.8C214.8,133.9,205.3,101.9,186.3,73.5z M100.1,151.2
	c-8.3,0-15.1-7.7-15.1-17.2s6.7-17.2,15.1-17.2c8.4,0,15.2,7.7,15.1,17.2C115.2,143.5,108.5,151.2,100.1,151.2z M155.9,151.2
	c-8.3,0-15.1-7.7-15.1-17.2s6.7-17.2,15.1-17.2c8.4,0,15.2,7.7,15.1,17.2C171,143.5,164.4,151.2,155.9,151.2z"/>
</svg>
