<?xml version="1.0" encoding="utf-8"?>
<!-- Generator: Adobe Illustrator 25.4.1, SVG Export Plug-In . SVG Version: 6.00 Build 0)  -->
<svg version="1.1" id="Calque_1" xmlns="http://www.w3.org/2000/svg" xmlns:xlink="http://www.w3.org/1999/xlink" x="0px" y="0px"
	 viewBox="0 0 120.8 120.8" style="enable-background:new 0 0 120.8 120.8;" xml:space="preserve">
<style type="text/css">
	.st0{fill-rule:evenodd;clip-rule:evenodd;fill:#9B9FB2;}
	.st1{fill:#9B9FB2;}
</style>
<g id="Calque_2_00000058551580215617948640000013606392887465079986_">
	<g id="Layer_1">
		<path class="st0" d="M60.4,2.8C28.5,2.8,2.6,28.6,2.6,60.5c0,24.9,15.9,46.9,39.5,54.8c2.9,0.6,3.9-1.2,3.9-2.8
			c0-1.3,0-5.9-0.1-10.7C29.9,105.3,26.5,95,26.5,95c-2.7-6.7-6.4-8.4-6.4-8.4c-5.3-3.6,0.4-3.5,0.4-3.5c5.8,0.4,8.9,5.9,8.9,5.9
			c5.2,8.8,13.5,6.3,16.8,4.8c0.5-3.7,2-6.3,3.6-7.7c-12.8-1.3-26.3-6.3-26.3-28.5c-0.1-5.7,2-11.3,5.9-15.5
			c-0.6-1.4-2.6-7.4,0.6-15.3c0,0,4.9-1.5,15.9,5.9c9.5-2.6,19.4-2.6,29,0c10.9-7.5,15.8-5.9,15.8-5.9c3.2,7.9,1.1,13.9,0.6,15.3
			c3.9,4.2,6,9.8,5.9,15.5c0,22.2-13.5,27.1-26.4,28.5c2.1,1.8,3.9,5.4,3.9,10.7c0,7.7-0.1,14-0.1,15.9c0,1.5,1.1,3.3,3.9,2.8
			c30.2-10.1,46.6-42.8,36.4-73C107.2,18.7,85.2,2.8,60.4,2.8z"/>
		<path class="st1" d="M24.5,85.7c-0.1,0.3-0.6,0.4-1,0.2s-0.7-0.6-0.5-0.9c0.2-0.3,0.6-0.4,1-0.2S24.6,85.4,24.5,85.7L24.5,85.7z"
			/>
		<path class="st1" d="M26.8,88.3c-0.3,0.3-0.9,0.1-1.1-0.3c-0.4-0.3-0.5-0.9-0.2-1.1c0.3-0.3,0.8-0.1,1.1,0.3
			C27,87.5,27.1,88.1,26.8,88.3z"/>
		<path class="st1" d="M29.1,91.6c-0.4,0.3-1,0-1.3-0.5s-0.4-1.1,0-1.3s1,0,1.3,0.5S29.5,91.4,29.1,91.6z"/>
		<path class="st1" d="M32.3,94.9c-0.5,0.4-1.1,0.3-1.5-0.3l0,0c-0.5-0.5-0.7-1.1-0.3-1.4c0.4-0.3,1-0.3,1.5,0.2
			C32.6,93.8,32.6,94.5,32.3,94.9L32.3,94.9z"/>
		<path class="st1" d="M36.6,96.7c-0.2,0.5-0.8,0.7-1.4,0.5c-0.7-0.2-1.1-0.8-1-1.1s0.8-0.7,1.4-0.5S36.7,96.2,36.6,96.7z"/>
		<path class="st1" d="M41.3,97.1c0,0.5-0.6,0.9-1.2,0.9s-1.2-0.4-1.2-0.9s0.6-0.9,1.2-0.9S41.3,96.6,41.3,97.1z"/>
		<path class="st1" d="M45.7,96.3c0.1,0.5-0.4,1-1.1,1.1s-1.2-0.2-1.3-0.7s0.4-1,1.1-1.1S45.6,95.8,45.7,96.3z"/>
	</g>
</g>
</svg>
