<?xml version="1.0" encoding="utf-8"?>
<!-- Generator: Adobe Illustrator 25.4.1, SVG Export Plug-In . SVG Version: 6.00 Build 0)  -->
<svg version="1.1" id="Layer_1" xmlns="http://www.w3.org/2000/svg" xmlns:xlink="http://www.w3.org/1999/xlink" x="0px" y="0px"
	 viewBox="0 0 382 382" style="enable-background:new 0 0 382 382;" xml:space="preserve">
<style type="text/css">
	.st0{fill:#FFFFFF;}
	.st1{fill:#0077B7;}
</style>
<rect x="34.2" y="33.2" class="st0" width="318" height="318"/>
<path class="st1" d="M343.3,5H38.7C20.1,5,5,20.1,5,38.7v304.7C5,361.9,20.1,377,38.7,377h304.7c18.6,0,33.7-15.1,33.7-33.7V38.7
	C377,20.1,361.9,5,343.3,5z M120.1,326.2c0,5.5-4.4,9.8-9.8,9.8H68.6c-5.5,0-9.8-4.4-9.8-9.8V151.5c0-5.5,4.4-9.8,9.8-9.8h41.7
	c5.5,0,9.8,4.4,9.8,9.8C120.1,151.5,120.1,326.2,120.1,326.2z M89.4,125.2c-21.9,0-39.6-17.7-39.6-39.6s17.7-39.6,39.6-39.6
	s39.6,17.7,39.6,39.6S111.3,125.2,89.4,125.2z M338,327c0,5-4,9-9,9h-44.7c-5,0-9-4-9-9v-82c0-12.3,3.6-53.6-31.9-53.6
	c-27.6,0-33.2,28.3-34.3,41V327c0,5-4,9-9,9h-43.2c-5,0-9-4-9-9V150.7c0-5,4-9,9-9h43.2c5,0,9,4,9,9V166
	c10.2-15.4,25.4-27.2,57.7-27.2c71.7,0,71.2,66.9,71.2,103.7L338,327L338,327z"/>
</svg>
