<?xml version="1.0" encoding="utf-8"?>
<!-- Generator: Adobe Illustrator 25.4.1, SVG Export Plug-In . SVG Version: 6.00 Build 0)  -->
<svg version="1.1" id="Calque_1" xmlns="http://www.w3.org/2000/svg" xmlns:xlink="http://www.w3.org/1999/xlink" x="0px" y="0px"
	 viewBox="0 0 490.7 490.7" style="enable-background:new 0 0 490.7 490.7;" xml:space="preserve">
<style type="text/css">
	.st0{fill:#FFC107;}
	.st1{fill:#FFA000;}
	.st2{fill:#FFD54F;}
</style>
<g id="Capa_1_1_">
	<path class="st0" d="M485.7,130.4v229.9c0,13.9-5.5,27.1-15.3,37c-9.8,9.8-23.1,15.3-37,15.3H57.2c-13.9,0-27.1-5.5-37-15.3
		c-9.7-9.9-15.2-23.1-15.2-37V130.4c-0.1-11,3.3-21.6,9.8-30.5c9.8-13.7,25.6-21.8,42.4-21.7h376.2c16.8,0,32.4,8,42.2,21.6
		C482.2,108.6,485.7,119.4,485.7,130.4z"/>
</g>
<g id="Calque_2_1_">
	<g id="Capa_1">
		<path class="st1" d="M470.4,397.3c-9.8,9.8-23.1,15.3-37,15.3H57.2c-13.9,0-27.1-5.5-37-15.3l170.6-170.6l28.8,20.9
			c15.3,11.3,36.1,11.3,51.4,0l28.8-20.9L470.4,397.3z"/>
		<path class="st2" d="M475.6,99.7L299.9,226.8l-28.8,20.9c-15.3,11.3-36.1,11.3-51.4,0l-28.8-20.9L14.8,99.9
			c9.8-13.7,25.6-21.8,42.4-21.7h376.2C450.1,78.2,465.8,86.2,475.6,99.7z"/>
		<path class="st0" d="M14.8,99.9l175.9,126.9L20.3,397.3c-9.8-9.9-15.3-23.1-15.3-37V130.4C4.9,119.5,8.3,108.7,14.8,99.9z"/>
		<path class="st0" d="M485.7,130.4v229.9c0,13.9-5.5,27.1-15.3,37L299.9,226.8L475.6,99.7C482.2,108.6,485.7,119.4,485.7,130.4z"/>
	</g>
</g>
</svg>
