<?xml version="1.0" encoding="utf-8"?>
<!-- Generator: Adobe Illustrator 25.4.1, SVG Export Plug-In . SVG Version: 6.00 Build 0)  -->
<svg version="1.1" id="Capa_1" xmlns="http://www.w3.org/2000/svg" xmlns:xlink="http://www.w3.org/1999/xlink" x="0px" y="0px"
	 viewBox="0 0 112.2 112.2" style="enable-background:new 0 0 112.2 112.2;" xml:space="preserve">
<style type="text/css">
	.st0{fill:#28A1EA;}
	.st1{fill:#F1F2F2;}
</style>
<g>
	<circle class="st0" cx="56.1" cy="56.1" r="54.9"/>
	<g>
		<path class="st1" d="M89.8,40.6c-2.3,1.1-4.9,1.8-7.5,2.1C85,41,87,38.5,88,35.4c-2.5,1.5-5.4,2.6-8.3,3.2
			c-2.3-2.5-5.8-4.1-9.6-4.1c-7.2,0-13.1,5.9-13.1,13.1c0,1.1,0.1,2.1,0.3,3c-10.9-0.6-20.6-5.8-27-13.7c-1.2,2-1.8,4.2-1.8,6.6
			c0,4.6,2.3,8.6,5.9,11c-2.2-0.1-4.2-0.7-6-1.7c0,0.1,0,0.1,0,0.2c0,6.4,4.5,11.6,10.6,12.8c-1.1,0.3-2.3,0.5-3.4,0.5
			c-0.9,0-1.7-0.1-2.4-0.2c1.7,5.2,6.6,9,12.2,9.1c-4.5,3.5-10.2,5.6-16.3,5.6c-1.1,0-2.1-0.1-3.1-0.2c5.8,3.7,12.7,5.9,20.2,5.9
			c24.2,0,37.4-20,37.4-37.4c0-0.6,0-1.2,0-1.7C85.8,45.6,88,43.3,89.8,40.6L89.8,40.6z"/>
	</g>
</g>
</svg>
