<svg xmlns="http://www.w3.org/2000/svg" viewBox="0 0 117.77 117.77"><defs><style>.cls-1{fill:#c78ff5;}.cls-2{fill:#b674f2;}.cls-3{fill:#4b1b7a;}.cls-4{fill:#2c0652;}</style></defs><g id="Calque_2" data-name="Calque 2"><g id="Calque_6" data-name="Calque 6"><path class="cls-1" d="M107.42,0H10.35A10.33,10.33,0,0,0,0,10.35v97.07a10.33,10.33,0,0,0,10.35,10.35h97.07c5.73,0,6.46-4.62,6.46-10.35l-.38-97.07C113.5,4.62,113.15,0,107.42,0Z"/><path class="cls-2" d="M117.77,10.35v97.07a10.33,10.33,0,0,1-10.35,10.35H58.88V0h48.54A10.33,10.33,0,0,1,117.77,10.35Z"/><path class="cls-3" d="M107.42,6.9H10.35A3.42,3.42,0,0,0,6.9,10.35v97.07a3.42,3.42,0,0,0,3.45,3.45h97.07a3.42,3.42,0,0,0,3.45-3.45V10.35A3.42,3.42,0,0,0,107.42,6.9Z"/><path class="cls-4" d="M110.87,10.35v97.07a3.42,3.42,0,0,1-3.45,3.45H58.88V6.9h48.54A3.42,3.42,0,0,1,110.87,10.35Z"/><path class="cls-1" d="M65.58,85.24l-6.7-17.87L44.88,30c-1-2.69-5.45-2.69-6.49,0l-20.7,55.2a3.59,3.59,0,0,0,2,4.49,3.59,3.59,0,0,0,4.48-2L33.7,62.34H49.57l9.31,24.84.21.55a3.51,3.51,0,0,0,4.49,2A3.6,3.6,0,0,0,65.58,85.24ZM36.25,55.43l5.38-14.35L47,55.43Z"/><path class="cls-2" d="M86.49,89.94c-9.51,0-17.25-9.29-17.25-20.7S77,48.53,86.49,48.53s17.25,9.29,17.25,20.71a3.45,3.45,0,0,1-3.45,3.45H76.46C77.62,78.63,81.67,83,86.49,83a8.71,8.71,0,0,0,5.92-2.52,3.45,3.45,0,1,1,4.72,5A15.39,15.39,0,0,1,86.49,89.94Zm-10-24.15H96.51c-1.15-6-5.21-10.36-10-10.36S77.62,59.84,76.46,65.79Z"/><path class="cls-2" d="M63.58,89.73a3.51,3.51,0,0,1-4.49-2l-.21-.55V67.37l6.7,17.87A3.6,3.6,0,0,1,63.58,89.73Z"/></g></g></svg>