<svg xmlns="http://www.w3.org/2000/svg" xmlns:xlink="http://www.w3.org/1999/xlink" viewBox="0 0 682.97 607.44"><defs><style>.cls-1{fill:none;}.cls-2{fill:#f3e517;}.cls-2,.cls-4,.cls-5{fill-rule:evenodd;}.cls-3{clip-path:url(#clip-path);}.cls-4{fill:#ff7901;}.cls-5{fill:#ff0101;}.cls-6{clip-path:url(#clip-path-2);}.cls-7{fill:#1f36db;}</style><clipPath id="clip-path"><polygon class="cls-1" points="160.07 464.87 170.74 475.54 186.75 528.9 192.09 464.87 208.09 544.91 208.09 443.53 218.76 470.21 234.77 544.91 234.77 443.53 245.44 454.2 261.45 544.91 277.46 422.19 312.75 560.49 314.81 475.54 325.48 443.53 336.15 576.92 368.16 443.53 378.83 555.58 405.51 438.19 432.19 566.25 437.53 470.21 453.53 438.19 458.87 560.91 485.55 443.53 501.55 496.89 506.89 448.87 522.9 480.88 522.9 379.5 506.89 422.19 501.55 331.48 490.88 400.84 480.21 379.5 474.88 304.8 448.2 406.18 442.86 384.84 426.86 224.77 410.85 363.49 400.18 406.18 378.83 262.12 357.49 384.84 346.82 416.85 341.48 196.46 309.47 443.53 277.46 219.43 261.45 411.51 250.78 390.17 240.11 262.12 234.77 390.17 218.76 427.52 208.09 299.46 197.42 400.84 181.41 374.17 181.41 448.87 160.07 368.83 160.07 464.87"/></clipPath><clipPath id="clip-path-2"><path class="cls-1" d="M341.48,0c-70.76,0-135.3,22.09-182.91,59.19S80,149.37,80,208.43v21.34C32.77,253.72,0,316.54,0,390.17c0,94.25,53.62,170.74,122.72,170.74V208.43c0-44.23,22.89-84.93,62.19-115.56s94.81-50.18,156.57-50.18S458.75,62.25,498.05,92.87s62.2,71.33,62.2,115.56V560.91c69.1,0,122.72-76.49,122.72-170.74,0-73.63-32.77-136.45-80-160.4V208.43c0-59.06-30.92-112.14-78.53-149.24S412.25,0,341.48,0ZM138.73,224.77V560.91c10.67,0,21.34-5.33,26.68-16V235.44C160.07,230.1,149.4,224.77,138.73,224.77Zm405.51,0c-10.67,0-21.34,5.33-26.68,10.67V544.91c5.34,10.67,16,16,26.68,16Z"/></clipPath></defs><g id="Calque_2" data-name="Calque 2"><g id="Calque_6" data-name="Calque 6"><path id="path3178" class="cls-2" d="M326.31,188.75c-12.24,30.64-24,81.34-38.27,23-10.68-41.43-33.51,26-50.1,37.52-33.47,25.44-52,61.3-66.86,99.71-39.37-33.48-24.6,20.25-27,46.52,2.15,39.38-4.27,82.45,3.17,119.55,31.24,27.22,53.84,70.18,100.32,69.63,31.8,11,27.82-37,56.65,2.87,26.53,36.37,42.92,15.1,60.24-2.79,25.31,38.74,33.06-46.35,54.41-8.18,33,12.84,62.58,18.95,68-24.6,6.77-34.4,65.91-35.09,52-76.45-1.93-42.9,3.84-88.87-2.83-129.89-22.4-17.48-39.68-57.84-65.2-61.36-31.57,15.32-19.4-52.23-32.4-72.12-4.25-52.21-15.43-28.6-27.59,7.2-6.73,51.55-35,27-49.45-6.76C348.57,201.81,333.93,144.72,326.31,188.75Z"/><g id="g3305"><g class="cls-3"><g id="g3122"><path id="path3120" class="cls-4" d="M149.4,582.26V192.75H533.57V582.26Z"/><path id="path3118" class="cls-5" d="M154.73,390.17l42.69,26.68,16-48,26.68,32,32-53.35,10.67,64,10.67-42.68,16,32,5.34-32s16,42.68,16,37.35,21.35-80,21.35-80l21.34,69.37,32-64,16,69.36,26.68-48,16,48,26.68-26.68,32,32v42.68l-21.35,16-32-10.67L448.2,443.53l-5.34,53.36-10.67-53.36-21.34,48-32-48-10.67,48-21.34-32L320.14,528.9l-16-80-32,16-21.34-32-10.67,53.35-21.35-26.67-21.34,26.67-10.67-16-32,5.33Z"/></g></g></g><g class="cls-6"><g id="g2792"><path id="path2127" class="cls-7" d="M341.48,0c-70.76,0-135.3,22.09-182.91,59.19S80,149.37,80,208.43v21.34C32.77,253.72,0,316.54,0,390.17c0,94.25,53.62,170.74,122.72,170.74V208.43c0-44.23,22.89-84.93,62.19-115.56s94.81-50.18,156.57-50.18S458.75,62.25,498.05,92.87s62.2,71.33,62.2,115.56V560.91c69.1,0,122.72-76.49,122.72-170.74,0-73.63-32.77-136.45-80-160.4V208.43c0-59.06-30.92-112.14-78.53-149.24S412.25,0,341.48,0ZM138.73,224.77V560.91c10.67,0,21.34-5.33,26.68-16V235.44C160.07,230.1,149.4,224.77,138.73,224.77Zm405.51,0c-10.67,0-21.34,5.33-26.68,10.67V544.91c5.34,10.67,16,16,26.68,16Z"/></g></g></g></g></svg>