<svg xmlns="http://www.w3.org/2000/svg" xmlns:xlink="http://www.w3.org/1999/xlink" viewBox="0 0 855.18 481.04"><defs><style>.cls-1{fill:url(#Dégradé_sans_nom_17);}.cls-2{fill:none;stroke:#fff;stroke-linecap:round;stroke-linejoin:round;stroke-width:23px;}.cls-3{fill:#fff;}.cls-4{fill:url(#Dégradé_sans_nom_12);}</style><linearGradient id="Dégradé_sans_nom_17" x1="93.54" y1="-93.54" x2="761.65" y2="574.58" gradientUnits="userSpaceOnUse"><stop offset="0" stop-color="#e6001a"/><stop offset="1" stop-color="#88000a"/></linearGradient><linearGradient id="Dégradé_sans_nom_12" x1="224.58" y1="374.99" x2="630.6" y2="374.99" gradientUnits="userSpaceOnUse"><stop offset="0" stop-color="#117127"/><stop offset="1" stop-color="#91c20e"/></linearGradient></defs><g id="Calque_2" data-name="Calque 2"><g id="Calque_7" data-name="Calque 7"><rect class="cls-1" width="855.18" height="481.04"/><path class="cls-2" d="M337.35,182.47c-60.62-21.68-107.61,0-103,69.67s86.92,77.52,158.06,19.08c16.66-13.69,54.83-40,71.44-55.19C492.19,190.21,458.9,174,431,174c-45.78,0-65.85,30.91-62.67,75.58,5.54,77.71,71.43,70.74,136.22,37.45"/><path class="cls-2" d="M513.87,182.47C609.09,156.92,628,195.63,619.16,310.21"/><path class="cls-2" d="M610.82,202.51c-58.24,35.7-106.24,55-106.24,84.47,0,37.16,150.19,51.87,106.24-84.47"/><path class="cls-3" d="M243.77,102.13a1.47,1.47,0,0,1,1.47-1.47h4.08a9.23,9.23,0,0,1,4.48,1,7.27,7.27,0,0,1,2.94,2.9,9.45,9.45,0,0,1,0,8.58,7.27,7.27,0,0,1-2.94,2.9,9.35,9.35,0,0,1-4.48,1h-4.08a1.47,1.47,0,0,1-1.47-1.47Zm5.42,12a5.48,5.48,0,0,0,4.06-1.41,6,6,0,0,0,0-7.74,5.48,5.48,0,0,0-4.06-1.41h-2.32v10.56Z"/><path class="cls-3" d="M262.18,100.66h7.49a1.47,1.47,0,0,1,1.47,1.47h0a1.47,1.47,0,0,1-1.47,1.47h-5.86v3.81h5.12a1.47,1.47,0,0,1,1.47,1.47h0a1.47,1.47,0,0,1-1.47,1.47h-5.12v3.81h5.86a1.47,1.47,0,0,1,1.47,1.47h0a1.47,1.47,0,0,1-1.47,1.47h-7.49a1.47,1.47,0,0,1-1.47-1.47v-13.5A1.47,1.47,0,0,1,262.18,100.66Z"/><path class="cls-3" d="M281.17,100.66h.16a1.47,1.47,0,0,1,1.47,1.47v12h5.48a1.47,1.47,0,0,1,1.47,1.47h0a1.47,1.47,0,0,1-1.47,1.47h-7.11a1.47,1.47,0,0,1-1.47-1.47v-13.5A1.47,1.47,0,0,1,281.17,100.66Z"/><path class="cls-3" d="M298.06,100.66h1.36a1.59,1.59,0,0,1,1.49,1l5,13.26a1.59,1.59,0,0,1-1.49,2.15h0a1.61,1.61,0,0,1-1.5-1.06l-1-2.87h-6.29l-1,2.87a1.59,1.59,0,0,1-1.5,1.06h0a1.59,1.59,0,0,1-1.49-2.15l5-13.26A1.58,1.58,0,0,1,298.06,100.66Zm2.83,9.67-1.45-4.14-.59-2h-.19l-.59,2-1.47,4.14Z"/><path class="cls-3" d="M314.3,102.14a1.47,1.47,0,0,1,1.47-1.48h4.52a6,6,0,0,1,2.86.67,4.85,4.85,0,0,1,1.94,1.84,5.31,5.31,0,0,1,.68,2.68,4.39,4.39,0,0,1-1,2.8,5.57,5.57,0,0,1-2.52,1.79l0,.16,2.84,4.2a1.47,1.47,0,0,1-1.22,2.3h0a1.47,1.47,0,0,1-1.21-.64l-3.81-5.54h-1.45v4.7a1.47,1.47,0,0,1-1.47,1.48h-.15a1.47,1.47,0,0,1-1.47-1.48Zm6,5.94a2.39,2.39,0,0,0,1.73-.65,2.18,2.18,0,0,0,.66-1.63,2.22,2.22,0,0,0-2.34-2.27h-2.92v4.55Z"/><path class="cls-3" d="M330.32,100.66h7.48a1.47,1.47,0,0,1,1.47,1.47h0a1.47,1.47,0,0,1-1.47,1.47H332v3.81h5.12a1.47,1.47,0,0,1,1.47,1.47h0a1.47,1.47,0,0,1-1.47,1.47H332v3.81h5.85a1.47,1.47,0,0,1,1.47,1.47h0a1.47,1.47,0,0,1-1.47,1.47h-7.48a1.47,1.47,0,0,1-1.47-1.47v-13.5A1.47,1.47,0,0,1,330.32,100.66Z"/><path class="cls-3" d="M345.43,116.33a8.26,8.26,0,0,1-3.11-3.1,8.87,8.87,0,0,1,0-8.7,8.26,8.26,0,0,1,3.11-3.1,8.55,8.55,0,0,1,4.36-1.14,8,8,0,0,1,4.9,1.55,1.43,1.43,0,0,1,.17,2.18l-.11.11a1.42,1.42,0,0,1-1.83.15,4.89,4.89,0,0,0-3.11-1,5.76,5.76,0,0,0-2.8.7,5.14,5.14,0,0,0-2,2,6.44,6.44,0,0,0,0,5.92,5.14,5.14,0,0,0,2,2,5.76,5.76,0,0,0,2.8.7,5.17,5.17,0,0,0,3.41-1.22,1.45,1.45,0,0,1,1.94,0l.14.13a1.43,1.43,0,0,1-.1,2.15,7.77,7.77,0,0,1-1.73,1.09,8.72,8.72,0,0,1-3.68.77A8.55,8.55,0,0,1,345.43,116.33Z"/><path class="cls-3" d="M360.77,100.66h0a1.54,1.54,0,0,1,1.55,1.55v5h6.91v-5a1.55,1.55,0,0,1,1.55-1.55h0a1.54,1.54,0,0,1,1.55,1.55v13.34a1.55,1.55,0,0,1-1.55,1.55h0a1.56,1.56,0,0,1-1.55-1.55v-5.38h-6.91v5.38a1.55,1.55,0,0,1-1.55,1.55h0a1.56,1.56,0,0,1-1.55-1.55V102.21A1.55,1.55,0,0,1,360.77,100.66Z"/><path class="cls-3" d="M377.57,100.66h7.48a1.47,1.47,0,0,1,1.47,1.47h0a1.47,1.47,0,0,1-1.47,1.47H379.2v3.81h5.12a1.47,1.47,0,0,1,1.47,1.47h0a1.47,1.47,0,0,1-1.47,1.47H379.2v3.81h5.85a1.47,1.47,0,0,1,1.47,1.47h0a1.47,1.47,0,0,1-1.47,1.47h-7.48a1.47,1.47,0,0,1-1.47-1.47v-13.5A1.47,1.47,0,0,1,377.57,100.66Z"/><path class="cls-3" d="M389.71,102.14a1.48,1.48,0,0,1,1.48-1.48h4.51a5.92,5.92,0,0,1,2.86.67,4.78,4.78,0,0,1,1.94,1.84,5.22,5.22,0,0,1,.69,2.68,4.45,4.45,0,0,1-1,2.8,5.68,5.68,0,0,1-2.52,1.79l0,.16,2.85,4.2a1.48,1.48,0,0,1-1.22,2.3h0a1.49,1.49,0,0,1-1.22-.64l-3.8-5.54h-1.45v4.7a1.47,1.47,0,0,1-1.47,1.48h-.15a1.48,1.48,0,0,1-1.48-1.48Zm6,5.94a2.37,2.37,0,0,0,1.72-.65,2.15,2.15,0,0,0,.67-1.63,2.22,2.22,0,0,0-2.34-2.27h-2.92v4.55Z"/><path class="cls-3" d="M407.69,116.33a8.26,8.26,0,0,1-3.11-3.1,8.87,8.87,0,0,1,0-8.7,8.26,8.26,0,0,1,3.11-3.1,8.55,8.55,0,0,1,4.36-1.14,8,8,0,0,1,4.9,1.55,1.42,1.42,0,0,1,.17,2.18l-.11.11a1.42,1.42,0,0,1-1.83.15,4.89,4.89,0,0,0-3.11-1,5.76,5.76,0,0,0-2.8.7,5.05,5.05,0,0,0-2,2,6.37,6.37,0,0,0,0,5.92,5.05,5.05,0,0,0,2,2,5.76,5.76,0,0,0,2.8.7,5.21,5.21,0,0,0,3.42-1.22,1.44,1.44,0,0,1,1.93,0l.14.13a1.43,1.43,0,0,1-.1,2.15,7.77,7.77,0,0,1-1.73,1.09,8.69,8.69,0,0,1-3.68.77A8.55,8.55,0,0,1,407.69,116.33Z"/><path class="cls-3" d="M423,100.66h0a1.54,1.54,0,0,1,1.54,1.55v5h6.92v-5a1.54,1.54,0,0,1,1.54-1.55h0a1.54,1.54,0,0,1,1.55,1.55v13.34A1.55,1.55,0,0,1,433,117.1h0a1.55,1.55,0,0,1-1.54-1.55v-5.38h-6.92v5.38A1.55,1.55,0,0,1,423,117.1h0a1.55,1.55,0,0,1-1.55-1.55V102.21A1.54,1.54,0,0,1,423,100.66Z"/><path class="cls-3" d="M439.83,100.66h7.48a1.47,1.47,0,0,1,1.47,1.47h0a1.47,1.47,0,0,1-1.47,1.47h-5.85v3.81h5.12a1.47,1.47,0,0,1,1.47,1.47h0a1.47,1.47,0,0,1-1.47,1.47h-5.12v3.81h5.85a1.47,1.47,0,0,1,1.47,1.47h0a1.47,1.47,0,0,1-1.47,1.47h-7.48a1.47,1.47,0,0,1-1.47-1.47v-13.5A1.47,1.47,0,0,1,439.83,100.66Z"/><path class="cls-3" d="M463.05,100.66h0a2.57,2.57,0,0,1,2.41,1.67L470.2,115a1.59,1.59,0,0,1-1.49,2.15h0a1.61,1.61,0,0,1-1.5-1.06l-1-2.87h-6.29l-1,2.87a1.59,1.59,0,0,1-1.5,1.06h0a1.59,1.59,0,0,1-1.49-2.15l4.73-12.62A2.56,2.56,0,0,1,463.05,100.66Zm-.73-5.24h0a1.14,1.14,0,0,1,1,.57l1,1.77a1.07,1.07,0,0,1-.93,1.61h0a1.05,1.05,0,0,1-.88-.47l-1.16-1.7A1.14,1.14,0,0,1,462.32,95.42Zm2.88,14.91-1.45-4.14-.6-2H463l-.6,2-1.47,4.14Z"/><path class="cls-3" d="M480.15,100.66h0a1.54,1.54,0,0,1,1.55,1.55v12h5.49a1.47,1.47,0,0,1,1.47,1.47h0a1.47,1.47,0,0,1-1.47,1.47h-7a1.56,1.56,0,0,1-1.55-1.55V102.21A1.55,1.55,0,0,1,480.15,100.66Z"/><path class="cls-3" d="M489.82,106.32a.81.81,0,0,1-.23-1.13l.72-1.11a2,2,0,0,1-.87-.69,1.84,1.84,0,0,1-.34-1.1,2,2,0,0,1,2-2,1.89,1.89,0,0,1,1.4.59,1.92,1.92,0,0,1,.58,1.41,2,2,0,0,1-.14.75,4.28,4.28,0,0,1-.44.77L491,106.1a.82.82,0,0,1-1.13.22Z"/><path class="cls-3" d="M497.6,100.66h0a1.54,1.54,0,0,1,1.55,1.55v13.34a1.55,1.55,0,0,1-1.55,1.55h0a1.56,1.56,0,0,1-1.55-1.55V102.21A1.55,1.55,0,0,1,497.6,100.66Z"/><path class="cls-3" d="M505,100.66h.34a2.06,2.06,0,0,1,1.78,1l6,10h.18l-.18-3.17v-6.32a1.52,1.52,0,0,1,1.53-1.53h0a1.53,1.53,0,0,1,1.53,1.53V115a2.08,2.08,0,0,1-2.08,2.08h0a2.1,2.1,0,0,1-1.79-1L506,105.46h-.19l.19,3.17v6.94a1.53,1.53,0,0,1-1.53,1.53h0a1.53,1.53,0,0,1-1.53-1.53V102.74A2.09,2.09,0,0,1,505,100.66Z"/><path class="cls-3" d="M519.93,102.2a1.54,1.54,0,0,1,1.54-1.54h4a9.23,9.23,0,0,1,4.48,1,7.27,7.27,0,0,1,2.94,2.9,9.45,9.45,0,0,1,0,8.58,7.27,7.27,0,0,1-2.94,2.9,9.35,9.35,0,0,1-4.48,1h-4a1.54,1.54,0,0,1-1.54-1.54Zm5.42,12a5.48,5.48,0,0,0,4.06-1.41,6,6,0,0,0,0-7.74,5.48,5.48,0,0,0-4.06-1.41H523v10.56Z"/><path class="cls-3" d="M539.59,116.64a5.67,5.67,0,0,1-2.23-2.39,8.16,8.16,0,0,1-.79-3.69V102.2a1.54,1.54,0,0,1,1.54-1.54h0a1.54,1.54,0,0,1,1.54,1.54v8.54a4.18,4.18,0,0,0,.86,2.74,3.37,3.37,0,0,0,4.89,0,4.18,4.18,0,0,0,.86-2.74V102.2a1.54,1.54,0,0,1,1.54-1.54h0a1.54,1.54,0,0,1,1.54,1.54v8.36a8,8,0,0,1-.78,3.6,5.83,5.83,0,0,1-2.23,2.43,6.32,6.32,0,0,1-3.37.88A6.66,6.66,0,0,1,539.59,116.64Z"/><path class="cls-3" d="M554,116.25a5.84,5.84,0,0,1-1.64-1.85,1.5,1.5,0,0,1,.73-2.15l.15-.06a1.48,1.48,0,0,1,1.83.66,4.17,4.17,0,0,0,.7.9,2.89,2.89,0,0,0,2.07.78,2.93,2.93,0,0,0,1.76-.52,1.65,1.65,0,0,0,.74-1.43,1.86,1.86,0,0,0-.7-1.51,9.35,9.35,0,0,0-2.49-1.25l-1-.37a6.94,6.94,0,0,1-2.71-1.68,3.9,3.9,0,0,1-1.13-2.86,4.32,4.32,0,0,1,.67-2.34,4.57,4.57,0,0,1,1.88-1.67,6.15,6.15,0,0,1,2.76-.61,5.4,5.4,0,0,1,3.51,1,7.48,7.48,0,0,1,.76.72,1.5,1.5,0,0,1-.54,2.37h0a1.5,1.5,0,0,1-1.72-.44,2.73,2.73,0,0,0-.35-.33,2.44,2.44,0,0,0-1.62-.52,2.79,2.79,0,0,0-1.66.47,1.44,1.44,0,0,0-.66,1.23,1.58,1.58,0,0,0,.62,1.25,6.81,6.81,0,0,0,2.05,1l1,.34a8,8,0,0,1,3.27,1.94,4.91,4.91,0,0,1,.31,5.88,5,5,0,0,1-2.12,1.66,6.78,6.78,0,0,1-2.68.56A6.26,6.26,0,0,1,554,116.25Z"/><path class="cls-3" d="M569.43,103.6H566.3a1.47,1.47,0,0,1-1.47-1.47h0a1.47,1.47,0,0,1,1.47-1.47h9.35a1.47,1.47,0,0,1,1.47,1.47h0a1.47,1.47,0,0,1-1.47,1.47h-3.13v12a1.47,1.47,0,0,1-1.47,1.47h-.16a1.46,1.46,0,0,1-1.46-1.47Z"/><path class="cls-3" d="M579.6,102.14a1.47,1.47,0,0,1,1.47-1.48h4.52a6,6,0,0,1,2.86.67,4.85,4.85,0,0,1,1.94,1.84,5.31,5.31,0,0,1,.68,2.68,4.34,4.34,0,0,1-1,2.8,5.57,5.57,0,0,1-2.52,1.79l0,.16,2.85,4.2a1.48,1.48,0,0,1-1.23,2.3h0a1.47,1.47,0,0,1-1.21-.64l-3.81-5.54h-1.45v4.7a1.47,1.47,0,0,1-1.47,1.48h-.15a1.47,1.47,0,0,1-1.47-1.48Zm6,5.94a2.39,2.39,0,0,0,1.72-.65,2.18,2.18,0,0,0,.66-1.63,2.22,2.22,0,0,0-2.34-2.27h-2.92v4.55Z"/><path class="cls-3" d="M595.7,100.66h0a1.54,1.54,0,0,1,1.55,1.55v13.34a1.55,1.55,0,0,1-1.55,1.55h0a1.55,1.55,0,0,1-1.55-1.55V102.21A1.54,1.54,0,0,1,595.7,100.66Z"/><path class="cls-3" d="M602.46,100.66H610a1.47,1.47,0,0,1,1.47,1.47h0A1.47,1.47,0,0,1,610,103.6h-5.86v3.81h5.12a1.47,1.47,0,0,1,1.47,1.47h0a1.47,1.47,0,0,1-1.47,1.47h-5.12v3.81H610a1.47,1.47,0,0,1,1.47,1.47h0A1.47,1.47,0,0,1,610,117.1h-7.49a1.47,1.47,0,0,1-1.47-1.47v-13.5A1.47,1.47,0,0,1,602.46,100.66Z"/><rect class="cls-4" x="224.58" y="365.19" width="406.02" height="19.6" rx="9.8"/></g></g></svg>