<svg xmlns="http://www.w3.org/2000/svg" viewBox="0 0 232.75 206.59"><defs><style>.cls-1{fill:#2553d6;}.cls-2{fill:#dd2a34;}.cls-3{fill:#2cc65c;}.cls-4{fill:#e7ebf2;}</style></defs><g id="Calque_2" data-name="Calque 2"><g id="Calque_6" data-name="Calque 6"><path class="cls-1" d="M123.86,95.63a2.76,2.76,0,0,1-1.1,2.49L67.61,138.89l-9.18,6.79-54,39.95A2.76,2.76,0,0,1,0,183,20.4,20.4,0,0,1,2.54,176L98.62,9.61A20,20,0,0,1,111.1.09a2.74,2.74,0,0,1,3.39,2.4Z"/><path class="cls-2" d="M227.4,196.2,142,165.57a2.75,2.75,0,0,1-1.81-2.31L134,101.61l-1.1-11L124.41,6.19a2.77,2.77,0,0,1,4.48-2.43,20.5,20.5,0,0,1,5,5.85l32.48,56.25,4.77,8.27L230,176a20.13,20.13,0,0,1,.84,18.73A2.77,2.77,0,0,1,227.4,196.2Z"/><path class="cls-3" d="M213.31,201.24a2.76,2.76,0,0,1-.86,5.35H20.19a20.14,20.14,0,0,1-14.66-6.2,2.75,2.75,0,0,1,.39-4.08L68,150.41a2.78,2.78,0,0,1,2.57-.38l61,21.87,9.9,3.55Z"/><path class="cls-4" d="M126.36,160,83.21,144.49a2.76,2.76,0,0,1-.71-4.81l38.72-28.62A2.75,2.75,0,0,1,125.6,113L130,157.1A2.75,2.75,0,0,1,126.36,160Z"/></g></g></svg>