<?xml version="1.0" encoding="utf-8"?>
<!-- Generator: Adobe Illustrator 24.1.2, SVG Export Plug-In . SVG Version: 6.00 Build 0)  -->
<svg version="1.1" id="Layer_1" xmlns="http://www.w3.org/2000/svg" xmlns:xlink="http://www.w3.org/1999/xlink" x="0px" y="0px"
	 viewBox="0 0 306 344.4" style="enable-background:new 0 0 306 344.4;" xml:space="preserve">
<style type="text/css">
	.st0{fill:#2A528C;}
	.st1{opacity:0.4;fill:#5884BA;}
	.st2{fill:#5884BA;}
	.st3{fill:#FFFFFF;}
</style>
<path class="st0" d="M299.1,256.5c2.4-4.1,3.8-8.7,3.8-12.8V100.6c0-4.1-1.5-8.7-3.8-12.8L153,172.2L299.1,256.5z"/>
<path class="st1" d="M299.1,256.5c2.4-4.1,3.8-8.7,3.8-12.8V100.6c0-4.1-1.5-8.7-3.8-12.8L153,172.2L299.1,256.5z"/>
<path class="st0" d="M166,337.8l124-71.6c3.6-2.1,6.8-5.6,9.2-9.7L153,172.2L6.9,256.5c2.4,4.1,5.6,7.6,9.2,9.7l124,71.6
	C147.2,341.9,158.8,341.9,166,337.8z"/>
<path class="st2" d="M299.1,87.8c-2.4-4.1-5.6-7.6-9.2-9.7L166,6.5c-7.1-4.1-18.8-4.1-26,0L16,78.1c-7.1,4.1-13,14.2-13,22.5v143.1
	c0,4.1,1.5,8.7,3.8,12.8L153,172.2L299.1,87.8z"/>
<g>
	<path class="st3" d="M146,272.1c-55.1,0-100-44.8-100-100s44.8-100,100-100c24.3,0,47.5,8.9,65.4,24.4c12.8,11.1,10.8,31.5-3.9,40
		l-0.8,0.5c-9,5.2-20.3,3.9-28.2-2.9c-8.9-7.7-20.5-12.1-32.5-12.1c-27.6,0-50,22.4-50,50c0,27.6,22.4,50,50,50
		c12.1,0,23.6-4.4,32.5-12.1c7.9-6.8,19.2-8.1,28.2-2.9l0.8,0.5c14.7,8.5,16.7,29,3.9,40C193.5,263.2,170.3,272.1,146,272.1z"/>
</g>
<g>
	<path class="st3" d="M230.1,165.4h-6.8v-6.8c0-3.7-3-6.8-6.8-6.8h0c-3.7,0-6.8,3-6.8,6.8v6.8h-6.8c-3.7,0-6.8,3-6.8,6.8v0
		c0,3.7,3,6.8,6.8,6.8h6.8v6.8c0,3.7,3,6.8,6.8,6.8h0c3.7,0,6.8-3,6.8-6.8v-6.8h6.8c3.7,0,6.8-3,6.8-6.8v0
		C236.9,168.4,233.8,165.4,230.1,165.4z"/>
</g>
<g>
	<path class="st3" d="M280.8,165.4h-6.8v-6.8c0-3.7-3-6.8-6.8-6.8l0,0c-3.7,0-6.8,3-6.8,6.8v6.8h-6.8c-3.7,0-6.8,3-6.8,6.8v0
		c0,3.7,3,6.8,6.8,6.8h6.8v6.8c0,3.7,3,6.8,6.8,6.8l0,0c3.7,0,6.8-3,6.8-6.8v-6.8h6.8c3.7,0,6.8-3,6.8-6.8v0
		C287.6,168.4,284.6,165.4,280.8,165.4z"/>
</g>
</svg>
