<svg xmlns="http://www.w3.org/2000/svg" viewBox="0 0 186.3 209.92"><defs><style>.cls-1{fill:#0069db;}.cls-2{fill:#24a1ff;}.cls-3{fill:#fff;}</style></defs><g id="Calque_2" data-name="Calque 2"><g id="Calque_6" data-name="Calque 6"><path class="cls-1" d="M.05,16.44,13.33,177.62a15.2,15.2,0,0,0,10.79,13.31L82.68,208.4a36.76,36.76,0,0,0,20.94,0l58.54-17.47A15.19,15.19,0,0,0,173,177.62L186.24,16.44A15.19,15.19,0,0,0,171.1,0H15.19A15.19,15.19,0,0,0,.05,16.44Z"/><path class="cls-2" d="M168.89,22.69,155.48,166.17a8.53,8.53,0,0,1-6,7.37L100.1,188.31a8.53,8.53,0,0,1-11-8.17V21.89a8.52,8.52,0,0,1,8.52-8.52H160.4A8.53,8.53,0,0,1,168.89,22.69Z"/><path class="cls-3" d="M93.15,84.57h45.43a6.2,6.2,0,0,1,6.18,6.73l-1.39,16.52-1.85,21.93-1.83,21.8a6.22,6.22,0,0,1-4.29,5.39l-21.31,6.85L91.66,171a6.23,6.23,0,0,1-3.75,0l-23.49-7.37L43.16,157a6.21,6.21,0,0,1-4.32-5.4L37,129.82l-.33-3.92a6.2,6.2,0,0,1,6.18-6.72H55.63A6.21,6.21,0,0,1,61.82,125l.87,12.91,27.1,8.51,26-8.37,2-30.2h-77a6.2,6.2,0,0,1-6.18-5.68L33.57,89a6.19,6.19,0,0,1,3.75-6.23L90.09,60.34H36.85a6.21,6.21,0,0,1-6.18-5.69l-1-11.84a6.22,6.22,0,0,1,6.19-6.73h106.8a6.2,6.2,0,0,1,6.18,6.73l-1.16,13.88A6.19,6.19,0,0,1,144,61.83Z"/></g></g></svg>