<svg xmlns="http://www.w3.org/2000/svg" viewBox="0 0 291.99 212.49"><defs><style>.cls-1{fill:#ff8000;}</style></defs><g id="Calque_2" data-name="Calque 2"><g id="Calque_6" data-name="Calque 6"><path class="cls-1" d="M187.1,186.19c43.35,0,81.68-13.41,104.89-33.93-24.78,35.64-77.46,60.23-138.44,60.23C68.75,212.49,0,164.93,0,106.25S68.75,0,153.55,0c61,0,113.66,24.6,138.44,60.24C268.78,39.72,230.45,26.31,187.1,26.31c-70.84,0-128.26,35.79-128.26,79.94S116.26,186.19,187.1,186.19Z"/><path class="cls-1" d="M110.09,90.66v31.19A17.18,17.18,0,0,0,127.27,139h19.21v7.76a7.75,7.75,0,0,1-7.75,7.76h-26l4,12.13h24.75a17.18,17.18,0,0,0,17.18-17.18v-76H127.27A17.18,17.18,0,0,0,110.09,90.66Zm36.39,36.24H130a7.76,7.76,0,0,1-7.76-7.76V93.37A7.76,7.76,0,0,1,130,85.61h16.5Z"/><path class="cls-1" d="M197.61,127.42l-3,12.13h-3.87a17.94,17.94,0,0,1-17.94-17.94V17h12.13V121.1a6.33,6.33,0,0,0,6.33,6.32Z"/><path class="cls-1" d="M288.41,90.9v48.65H276.28V91.8a6.19,6.19,0,0,0-6.19-6.19H258a6.19,6.19,0,0,0-6.19,6.19v47.75H239.64V91.8a6.19,6.19,0,0,0-6.19-6.19H221.32a6.19,6.19,0,0,0-6.19,6.19v47.75H203V90.9a17.42,17.42,0,0,1,17.42-17.42h13.93a17.3,17.3,0,0,1,11.35,4.21,17.38,17.38,0,0,1,11.36-4.21H271A17.42,17.42,0,0,1,288.41,90.9Z"/></g></g></svg>