<?xml version="1.0" encoding="utf-8"?>
<!-- Generator: Adobe Illustrator 24.1.2, SVG Export Plug-In . SVG Version: 6.00 Build 0)  -->
<svg version="1.1" id="Calque_1" xmlns="http://www.w3.org/2000/svg" xmlns:xlink="http://www.w3.org/1999/xlink" x="0px" y="0px"
	 viewBox="0 0 186.3 209.9" style="enable-background:new 0 0 186.3 209.9;" xml:space="preserve">
<style type="text/css">
	.st0{fill:#FF491F;}
	.st1{fill:#FF7B39;}
	.st2{fill:#FFFFFF;}
</style>
<g id="Calque_2_1_">
	<g id="Calque_6">
		<path class="st0" d="M0.1,16.4l13.3,161.2c0.5,6.2,4.8,11.5,10.8,13.3l58.6,17.5c6.8,2,14.1,2,20.9,0l58.5-17.5
			c6-1.8,10.3-7.1,10.8-13.3l13.2-161.2c0.7-8.4-5.5-15.7-13.9-16.4c-0.4,0-0.8-0.1-1.3-0.1H15.2C6.8,0,0,6.8,0,15.2
			C0,15.6,0,16,0.1,16.4z"/>
		<path class="st1" d="M168.9,22.7l-13.4,143.5c-0.3,3.4-2.7,6.4-6,7.4l-49.4,14.8c-4.5,1.4-9.3-1.2-10.6-5.7
			c-0.2-0.8-0.4-1.6-0.4-2.5V21.9c0-4.7,3.8-8.5,8.5-8.5h62.8c4.7,0,8.5,3.8,8.5,8.5C168.9,22.2,168.9,22.4,168.9,22.7z"/>
		<path class="st2" d="M141.7,60.3H57.5l1.6,24.2h79.5c3.4,0,6.2,2.8,6.2,6.2c0,0.2,0,0.4,0,0.5l-1.4,16.5l-1.9,21.9l-1.8,21.8
			c-0.2,2.5-1.9,4.6-4.3,5.4l-21.3,6.9L91.7,171c-1.2,0.4-2.5,0.4-3.8,0l-23.5-7.4L43.2,157c-2.4-0.8-4.1-2.9-4.3-5.4L37,129.8
			l-0.3-3.9c-0.3-3.4,2.2-6.4,5.7-6.7c0.2,0,0.3,0,0.5,0h12.8c3.3,0,6,2.6,6.2,5.8l0.9,12.9l27.1,8.5l26-8.4l2-30.2h-77
			c-3.2,0-5.9-2.5-6.2-5.7l-1.4-17.6l-2-24.2l-1.5-17.5c-0.3-3.4,2.3-6.4,5.7-6.7c0.2,0,0.3,0,0.5,0h106.8c3.4,0,6.2,2.8,6.2,6.2
			c0,0.2,0,0.4,0,0.5l-1,11.8C147.6,57.9,144.9,60.3,141.7,60.3z"/>
	</g>
</g>
</svg>
