<svg xmlns="http://www.w3.org/2000/svg" viewBox="0 0 117.77 117.77"><defs><style>.cls-1{fill:#ffa426;}.cls-2{fill:#d4850f;}.cls-3{fill:#704639;}.cls-4{fill:#5e382c;}</style></defs><g id="Calque_2" data-name="Calque 2"><g id="Calque_6" data-name="Calque 6"><path class="cls-1" d="M107.42,0H10.35A10.33,10.33,0,0,0,0,10.35v97.07a10.33,10.33,0,0,0,10.35,10.35h97.07a10.33,10.33,0,0,0,10.35-10.35V10.35A10.33,10.33,0,0,0,107.42,0Z"/><path class="cls-2" d="M117.77,10.35v97.07a10.33,10.33,0,0,1-10.35,10.35H58.88V0h48.54A10.33,10.33,0,0,1,117.77,10.35Z"/><path class="cls-3" d="M107.42,6.9H10.35A3.42,3.42,0,0,0,6.9,10.35v97.07a3.42,3.42,0,0,0,3.45,3.45h97.07a3.42,3.42,0,0,0,3.45-3.45V10.35A3.42,3.42,0,0,0,107.42,6.9Z"/><path class="cls-4" d="M110.87,10.35v97.07a3.42,3.42,0,0,1-3.45,3.45H58.88V6.9h48.54A3.42,3.42,0,0,1,110.87,10.35Z"/><path class="cls-2" d="M86.49,89.94A3.45,3.45,0,0,1,83,86.49V58.88a3.45,3.45,0,0,1,6.9,0V86.49A3.46,3.46,0,0,1,86.49,89.94Z"/><path class="cls-1" d="M75.93,85.24,58.88,39.77,55.23,30c-1-2.69-5.45-2.69-6.49,0L28,85.24a3.48,3.48,0,1,0,6.49,2.49l9.52-25.39H59.92l9.52,25.39a3.51,3.51,0,0,0,4.49,2A3.6,3.6,0,0,0,75.93,85.24ZM46.6,55.43,52,41.08l5.39,14.35Z"/><circle class="cls-2" cx="86.49" cy="45.08" r="3.45"/><path class="cls-2" d="M73.93,89.73a3.51,3.51,0,0,1-4.49-2L59.92,62.34h-1V39.77L75.93,85.24A3.6,3.6,0,0,1,73.93,89.73Z"/></g></g></svg>