<?xml version="1.0" encoding="utf-8"?>
<!-- Generator: Adobe Illustrator 24.1.2, SVG Export Plug-In . SVG Version: 6.00 Build 0)  -->
<svg version="1.1" id="Calque_1" xmlns="http://www.w3.org/2000/svg" xmlns:xlink="http://www.w3.org/1999/xlink" x="0px" y="0px"
	 viewBox="0 0 395.6 395.6" style="enable-background:new 0 0 395.6 395.6;" xml:space="preserve">
<style type="text/css">
	.st0{fill:#3758E2;}
	.st1{opacity:0.5;fill:#4270E2;}
	.st2{enable-background:new    ;}
</style>
<g id="Calque_2_1_">
	<g id="Calque_6">
		<circle class="st0" cx="197.8" cy="197.8" r="197.8"/>
		
			<ellipse transform="matrix(0.7071 -0.7071 0.7071 0.7071 -37.9616 216.5118)" class="st1" cx="242.4" cy="154.1" rx="117.7" ry="134.8"/>
		<g class="st2">
			<path d="M134.8,57v120.8h-25.5V57H134.8z"/>
			<path d="M155.4,177.8V87.2h23.9v16h1.1c1.9-5.3,5-9.5,9.5-12.6c4.4-3,9.7-4.6,15.8-4.6c6.2,0,11.5,1.5,15.9,4.6
				c4.4,3.1,7.3,7.3,8.7,12.5h0.9c1.8-5.2,5.2-9.3,10.1-12.5c4.9-3.1,10.6-4.7,17.3-4.7c8.5,0,15.3,2.7,20.6,8.1
				c5.3,5.4,7.9,13,7.9,22.8v60.9H262v-56c0-5-1.3-8.8-4-11.3c-2.7-2.5-6-3.8-10-3.8c-4.6,0-8.1,1.5-10.7,4.4
				c-2.6,2.9-3.8,6.7-3.8,11.4v55.3h-24.4v-56.5c0-4.4-1.3-8-3.8-10.6c-2.5-2.6-5.9-4-10-4c-4.2,0-7.7,1.5-10.5,4.6
				c-2.8,3-4.2,7.1-4.2,12.1v54.4H155.4z"/>
		</g>
		<g class="st2">
			<path d="M151,237.1c-1.6-5.7-4.6-10.1-8.9-13.3c-4.3-3.2-9.8-4.8-16.4-4.8c-9.2,0-16.7,3.4-22.4,10.2c-5.7,6.8-8.6,16.5-8.6,29.1
				c0,12.6,2.8,22.4,8.4,29.3c5.6,6.9,13.2,10.3,22.8,10.3c8.5,0,15.2-2.2,20-6.6c4.9-4.4,7.4-10.4,7.5-17.8h-26v-19.2h50.6v15.2
				c0,10.6-2.2,19.7-6.7,27.3c-4.5,7.6-10.6,13.5-18.5,17.6c-7.8,4.1-16.9,6.1-27,6.1c-11.3,0-21.3-2.5-29.8-7.5
				c-8.6-5-15.2-12.2-20-21.4c-4.8-9.3-7.2-20.3-7.2-33c0-13.1,2.5-24.2,7.5-33.5c5-9.3,11.8-16.4,20.3-21.3
				c8.5-4.9,18.1-7.4,28.7-7.4c9.1,0,17.4,1.7,24.8,5.2c7.4,3.5,13.4,8.2,18.2,14.4c4.7,6.1,7.6,13.2,8.7,21.1H151z"/>
			<path d="M254.9,280.3v-52H280v90.6h-24.1v-16.5h-0.9c-2,5.3-5.4,9.6-10.2,12.8c-4.7,3.2-10.5,4.8-17.3,4.8
				c-9.1,0-16.5-3-22.1-9.1c-5.6-6.1-8.5-14.4-8.5-25v-57.7h25.1v53.2c0,5.3,1.5,9.6,4.3,12.7c2.8,3.1,6.6,4.7,11.4,4.7
				c4.5,0,8.5-1.6,12.1-4.7C253.2,291,254.9,286.3,254.9,280.3z"/>
			<path d="M312.7,216.6c-3.7,0-6.9-1.2-9.6-3.7c-2.7-2.5-4-5.5-4-9c0-3.5,1.3-6.5,4-9c2.7-2.5,5.9-3.7,9.6-3.7
				c3.7,0,6.9,1.2,9.6,3.7c2.7,2.5,4,5.5,4,9c0,3.5-1.3,6.5-4,9C319.6,215.3,316.4,216.6,312.7,216.6z M300.1,318.9v-90.6h25.1v90.6
				H300.1z"/>
		</g>
	</g>
</g>
</svg>
