<svg xmlns="http://www.w3.org/2000/svg" viewBox="0 0 170.58 170.58"><defs><style>.cls-1{fill:#fff;}.cls-2{opacity:0.4;}.cls-3{fill:#ff8000;}.cls-4{fill:#27a3ff;}</style></defs><g id="Calque_2" data-name="Calque 2"><g id="Calque_6" data-name="Calque 6"><circle class="cls-1" cx="85.29" cy="85.29" r="85.29"/><g class="cls-2"><path class="cls-3" d="M82.63,37.53C76.45,41.87,69.44,46.8,65.69,55,59.17,69.17,79,84.68,79.88,85.33a1.11,1.11,0,0,0,.67.23,1.1,1.1,0,0,0,1-1.6c-.07-.14-7.2-14-6.93-23.92.09-3.46,4.93-7.38,10.06-11.54,4.69-3.8,10-8.11,13.12-13.16,6.84-11.11-.76-22-.84-22.13a1.09,1.09,0,0,0-2,.86A23.37,23.37,0,0,1,92.35,28.8C90.66,31.88,86.94,34.49,82.63,37.53Z"/><path class="cls-3" d="M108.66,42.42a1.09,1.09,0,0,0-1-1.9c-1.05.4-25.71,9.91-25.71,21.39,0,7.92,3.38,12.1,5.85,15.15a11.54,11.54,0,0,1,2.08,3.12c.77,2.54-1.06,7.14-1.84,8.7a1.1,1.1,0,0,0,.27,1.32,1.12,1.12,0,0,0,.72.26,1.1,1.1,0,0,0,.62-.19C90,90,100,83,98.19,74.48a20.67,20.67,0,0,0-3.64-7.64C92.39,63.63,90.83,61.3,93.2,57,96,52,108.54,42.52,108.66,42.42Z"/><path class="cls-3" d="M44.48,90.65a3.9,3.9,0,0,0,.58,3.63C47.73,98,57.2,100,71.72,100h0c2,0,4,0,6.17-.11,23.22-.83,31.83-8.07,32.18-8.37a1.1,1.1,0,0,0,.25-1.35,1.08,1.08,0,0,0-1.25-.54c-8.18,2.23-23.45,3-34,3-11.85,0-17.88-.86-19.36-1.49.76-1,5.44-2.9,11.23-4A1.1,1.1,0,0,0,66.69,85C63.29,85,46.26,85.26,44.48,90.65Z"/><path class="cls-3" d="M122.16,83.2a22.92,22.92,0,0,0-9.52,2.5,1.1,1.1,0,0,0,.52,2.06c.1,0,10.21.08,11.13,5.86.81,5-9.57,13.06-13.64,15.75a1.09,1.09,0,0,0-.4,1.34,1.07,1.07,0,0,0,1,.67.93.93,0,0,0,.23,0c1-.21,23.61-5.2,21.22-18.38C131.24,84.89,126.17,83.2,122.16,83.2Z"/><path class="cls-3" d="M106.63,107.76a1.11,1.11,0,0,0-.45-1.1l-5.43-3.8a1.06,1.06,0,0,0-.91-.16,109.34,109.34,0,0,1-14,2.42,96.29,96.29,0,0,1-10.6.56c-8.25,0-13.64-1-14.42-1.68-.1-.2-.07-.29-.05-.34a2.67,2.67,0,0,1,1.4-1,1.1,1.1,0,0,0,.66-1.35,1.09,1.09,0,0,0-1.3-.75c-5.45,1.32-8.11,3.16-7.92,5.47.35,4.09,9.84,6.2,17.86,6.75,1.15.08,2.4.12,3.71.12h0c13.34,0,30.44-4.18,30.61-4.23A1.1,1.1,0,0,0,106.63,107.76Z"/><path class="cls-3" d="M65.69,116.55a1.1,1.1,0,0,0-.63-2c-.73,0-7.15.31-7.6,4.39a4.31,4.31,0,0,0,1,3.32c2.31,2.73,8.52,4.35,19,5,1.24.08,2.5.12,3.75.12,13.32,0,22.3-4.18,22.68-4.35A1.1,1.1,0,0,0,104,121l-6.87-4.19a1.09,1.09,0,0,0-.79-.14s-4.4.92-11,1.81a35.28,35.28,0,0,1-4.63.25c-6.57,0-13.88-1.07-15.28-1.77A.46.46,0,0,1,65.69,116.55Z"/><path class="cls-3" d="M75,139.91c30.52,0,46.9-5.45,50.06-8.87a3.74,3.74,0,0,0,1.14-3.1,4.77,4.77,0,0,0-2.1-3.08,1.09,1.09,0,0,0-1.43,1.62c.19.25.3.66-.26,1.22-1.26,1.18-14,4.76-35.18,5.83-2.9.15-5.94.23-9,.23-19,0-32.86-2.6-34.68-4.11.7-1,5.61-2.62,10.84-3.53a1.11,1.11,0,0,0,.89-1.25,1.09,1.09,0,0,0-1.23-.92c-.15,0-.65,0-1.22.08-8.62.53-18.58,1.7-19.1,6.14a4.51,4.51,0,0,0,1.2,3.65c2.32,2.62,9,6.09,40.11,6.09Z"/><path class="cls-3" d="M131.1,132a1.1,1.1,0,0,0-1.27.25s-4.63,4.84-18.43,7.66c-5.28,1.06-15.2,1.6-29.47,1.6S54,141,53.89,141a1.09,1.09,0,0,0-1.14.94,1.11,1.11,0,0,0,.84,1.22,163.65,163.65,0,0,0,33.9,3.37,158.79,158.79,0,0,0,27-2.25c16-2.81,17.15-10.76,17.19-11.1A1.08,1.08,0,0,0,131.1,132Z"/></g><path class="cls-4" d="M52.91,58.55l-3.4,16.66H81.94L92,89.77H46.54l-6.92,33.89H24.76l6.92-33.89,3-14.56,4.27-20.93A19.2,19.2,0,0,1,57.74,38.92h47l-3.51,14.56H59.12A6.34,6.34,0,0,0,52.91,58.55Z"/><polygon class="cls-4" points="120.63 91.92 142.57 123.66 124.87 123.66 110.36 102.66 90.27 123.66 70.13 123.66 101.91 90.43 81.83 61.4 99.53 61.4 112.18 79.69 129.68 61.4 149.82 61.4 120.63 91.92"/></g></g></svg>