<svg xmlns="http://www.w3.org/2000/svg" viewBox="0 0 186.3 209.92"><defs><style>.cls-1{fill:#ffb31a;}.cls-2{fill:#ffde1d;}.cls-3{fill:#fff;}</style></defs><g id="Calque_2" data-name="Calque 2"><g id="Calque_6" data-name="Calque 6"><path class="cls-1" d="M.05,16.44,13.33,177.62a15.2,15.2,0,0,0,10.79,13.31L82.68,208.4a36.76,36.76,0,0,0,20.94,0l58.54-17.47A15.19,15.19,0,0,0,173,177.62L186.24,16.44A15.19,15.19,0,0,0,171.1,0H15.19A15.19,15.19,0,0,0,.05,16.44Z"/><path class="cls-2" d="M168.89,22.69,155.48,166.17a8.53,8.53,0,0,1-6,7.37L100.1,188.31a8.53,8.53,0,0,1-11-8.17V21.89a8.52,8.52,0,0,1,8.52-8.52H160.4A8.53,8.53,0,0,1,168.89,22.69Z"/><path class="cls-3" d="M118.7,60.34V84.57h19.88a6.2,6.2,0,0,1,6.18,6.72l-1.39,16.53-1.85,21.93-1.83,21.8a6.19,6.19,0,0,1-4.29,5.38l-21.31,6.86-6.64,2.13a6.21,6.21,0,0,1-8.11-5.9V147.37a6.21,6.21,0,0,1,4.2-5.87L123,134.84l1.39-27H105.55a6.21,6.21,0,0,1-6.21-6.21V42.28a6.2,6.2,0,0,1,6.21-6.2h37.11a6.2,6.2,0,0,1,6.19,6.72l-1,11.85a6.21,6.21,0,0,1-6.18,5.69Z"/><path class="cls-3" d="M80.37,42.28v107a6.2,6.2,0,0,1-4.3,5.91l-34.15,11a6.2,6.2,0,0,1-8.08-5.39L31.08,128a6.2,6.2,0,0,1,6.18-6.72H43a6.2,6.2,0,0,1,6.18,5.68l.91,10.81L61,134V42.28a6.2,6.2,0,0,1,6.21-6.2h7A6.19,6.19,0,0,1,80.37,42.28Z"/></g></g></svg>