<svg xmlns="http://www.w3.org/2000/svg" viewBox="0 0 572.28 572.28"><defs><style>.cls-1{fill:#d00000;}.cls-2{fill:#fff;}</style></defs><g id="Calque_2" data-name="Calque 2"><g id="Calque_7" data-name="Calque 7"><path class="cls-1" d="M572.28,473.06c0,54.57-44.65,99.22-99.22,99.22H99.22C44.65,572.28,0,527.63,0,473.06V99.22C0,44.65,44.65,0,99.22,0H473.06c54.58,0,99.22,44.65,99.22,99.22Z"/><path class="cls-2" d="M162.23,443.75a2.18,2.18,0,0,0,.55,1.34l9.79,9.8a2.23,2.23,0,0,0,1.34.55h33.52a2.18,2.18,0,0,0,1.34-.55l9.8-9.8a2.23,2.23,0,0,0,.55-1.34V337.4a2.09,2.09,0,0,1,.57-1.33l42.59-40.67a.63.63,0,0,1,1,.1l107.6,159.3a1.66,1.66,0,0,0,1.22.65h47.49a1.43,1.43,0,0,0,1.15-.69l8.61-16.7a1.44,1.44,0,0,0-.08-1.34L303.41,254.29a1,1,0,0,1,.11-1.2L419.28,137.87a2.14,2.14,0,0,0,.55-1.34v-2.12a4.57,4.57,0,0,0-.31-1.51l-6.68-15.36a1.29,1.29,0,0,0-1.09-.71H364.81a2.2,2.2,0,0,0-1.34.55L219.68,261.71c-.3.31-.55.2-.55-.23V129.07a2.29,2.29,0,0,0-.54-1.36L209,117.41a2,2,0,0,0-1.32-.58H173.91a2.07,2.07,0,0,0-1.32.58L162.75,128a2.35,2.35,0,0,0-.53,1.36V443.75Z"/></g></g></svg>