<?xml version="1.0" encoding="utf-8"?>
<!-- Generator: Adobe Illustrator 25.4.1, SVG Export Plug-In . SVG Version: 6.00 Build 0)  -->
<svg version="1.1" id="Calque_1" xmlns="http://www.w3.org/2000/svg" xmlns:xlink="http://www.w3.org/1999/xlink" x="0px" y="0px"
	 viewBox="0 0 16 16" style="enable-background:new 0 0 16 16;" xml:space="preserve">
<style type="text/css">
	.st0{fill:#FFFFFF;}
</style>
<path class="st0" d="M15.8,9.9l-2.1-4.6h0.4c0.4,0,0.7-0.3,0.7-0.7s-0.3-0.7-0.7-0.7H12c0,0-0.1,0-0.1,0L10.6,3
	C10.3,2.9,10,2.8,9.7,2.8h-1V1.6c0-0.4-0.3-0.7-0.7-0.7c-0.4,0-0.7,0.3-0.7,0.7v1.2h-1C6,2.8,5.7,2.9,5.4,3L4.2,3.8c0,0-0.1,0-0.1,0
	H1.8c-0.4,0-0.7,0.3-0.7,0.7s0.3,0.7,0.7,0.7h0.4L0.2,9.9c-0.1,0.3-0.1,0.6,0.1,0.8v0h0l0.1,0.1c0.2,0.2,0.4,0.3,0.7,0.4
	c0.6,0.3,1.3,0.5,2,0.4c0.9,0,1.5-0.2,2-0.4c0.2-0.1,0.5-0.3,0.7-0.4l0.1-0.1l0,0C5.9,10.6,6,10.4,6,10.2C6,10.1,6,10,6,9.9L3.9,5.3
	H4c0.3,0,0.6-0.1,0.9-0.2l1.3-0.7c0,0,0.1,0,0.1,0h1v9.4H4.8c-0.4,0-0.7,0.3-0.7,0.7c0,0.4,0.3,0.7,0.7,0.7h6.4
	c0.4,0,0.7-0.3,0.7-0.7c0-0.4-0.3-0.7-0.7-0.7H8.7V4.3h1c0,0,0.1,0,0.1,0l1.3,0.7c0.3,0.1,0.6,0.2,0.9,0.2h0.2L10,9.9
	c-0.1,0.3-0.1,0.6,0.1,0.8l0,0l0.1,0.1c0.2,0.2,0.4,0.3,0.7,0.4c0.6,0.3,1.3,0.5,2,0.4c0.9,0,1.5-0.2,2-0.4c0.2-0.1,0.5-0.3,0.7-0.4
	l0.1-0.1l0,0c0.1-0.1,0.2-0.3,0.2-0.5C15.9,10.1,15.9,10,15.8,9.9z M4.3,10c-0.3,0.1-0.7,0.3-1.3,0.3s-1-0.1-1.3-0.3l1.3-2.9L4.3,10
	z M12.9,10.2c-0.6,0-1-0.1-1.3-0.3l1.3-2.9l1.3,2.9C13.9,10.1,13.5,10.2,12.9,10.2z"/>
</svg>
