<?xml version="1.0" encoding="utf-8"?>
<!-- Generator: Adobe Illustrator 24.1.2, SVG Export Plug-In . SVG Version: 6.00 Build 0)  -->
<svg version="1.1" id="Calque_1" xmlns="http://www.w3.org/2000/svg" xmlns:xlink="http://www.w3.org/1999/xlink" x="0px" y="0px"
	 viewBox="0 0 490.7 341.3" style="enable-background:new 0 0 490.7 341.3;" xml:space="preserve">
<style type="text/css">
	.st0{fill:#FFC107;}
	.st1{fill:#FFA000;}
	.st2{fill:#FFD54F;}
</style>
<g id="Capa_1_1_">
	<path class="st0" d="M490.7,53.3V288c0,14.2-5.6,27.7-15.6,37.8c-10,10-23.6,15.6-37.8,15.6h-384c-14.2,0-27.7-5.6-37.8-15.6
		C5.6,315.7,0,302.2,0,288V53.3c-0.1-11.2,3.4-22.1,10-31.1C20,8.2,36.1-0.1,53.3,0h384c17.1,0,33.1,8.2,43.1,22
		C487.1,31.1,490.7,42.1,490.7,53.3z"/>
</g>
<g id="Calque_2_1_">
	<g id="Capa_1">
		<path class="st1" d="M475.1,325.8c-10,10-23.6,15.6-37.8,15.6h-384c-14.2,0-27.7-5.6-37.8-15.6l174.1-174.1l29.4,21.3
			c15.6,11.5,36.9,11.5,52.5,0l29.4-21.3L475.1,325.8z"/>
		<path class="st2" d="M480.4,22L301,151.7L271.6,173c-15.6,11.5-36.9,11.5-52.5,0l-29.4-21.3L10,22.2C20,8.2,36.1-0.1,53.3,0h384
			C454.4,0,470.4,8.2,480.4,22z"/>
		<path class="st0" d="M10,22.2l179.6,129.5L15.6,325.8C5.6,315.7,0,302.2,0,288V53.3C-0.1,42.2,3.4,31.2,10,22.2z"/>
		<path class="st0" d="M490.7,53.3V288c0,14.2-5.6,27.7-15.6,37.8L301,151.7L480.4,22C487.1,31.1,490.7,42.1,490.7,53.3z"/>
	</g>
</g>
</svg>
