<?xml version="1.0" encoding="utf-8"?>
<!-- Generator: Adobe Illustrator 25.4.1, SVG Export Plug-In . SVG Version: 6.00 Build 0)  -->
<svg version="1.1" id="Calque_1" xmlns="http://www.w3.org/2000/svg" xmlns:xlink="http://www.w3.org/1999/xlink" x="0px" y="0px"
	 viewBox="0 0 221.6 252.9" style="enable-background:new 0 0 221.6 252.9;" xml:space="preserve">
<style type="text/css">
	.st0{clip-path:url(#SVGID_00000088830684965185870400000014429722071547302292_);}
	.st1{fill:url(#SVGID_00000106850089276192330520000010084341234806767778_);}
	.st2{clip-path:url(#SVGID_00000039842448460270775050000011836232793731847071_);}
	.st3{fill:url(#SVGID_00000176756632134174944070000010740276125438605194_);}
	.st4{clip-path:url(#SVGID_00000046323008605911636770000010538724791430034347_);}
	.st5{fill:url(#SVGID_00000114055510000582329430000001669191352159254955_);}
</style>
<g id="Calque_2_00000131358551566805908510000005038878930132025733_">
	<g id="Calque_1-2">
		<g>
			<defs>
				<path id="SVGID_1_" d="M105.1,2.8L7,59.4c-3.7,2.1-5.9,6-5.9,10.2v113.2c0,4.3,2.2,8.2,5.9,10.3l98,56.6c3.7,2.1,8.2,2.1,11.9,0
					l98-56.6c3.7-2.1,5.9-6,5.9-10.3V69.7c0-4.2-2.3-8.1-5.9-10.2l-98-56.6C113.3,0.7,108.7,0.7,105.1,2.8"/>
			</defs>
			<clipPath id="SVGID_00000075864351765743270940000004782080944231966128_">
				<use xlink:href="#SVGID_1_"  style="overflow:visible;"/>
			</clipPath>
			<g style="clip-path:url(#SVGID_00000075864351765743270940000004782080944231966128_);">
				
					<linearGradient id="SVGID_00000149357044809378773810000015313210884233039805_" gradientUnits="userSpaceOnUse" x1="-217.1153" y1="572.8438" x2="-214.3404" y2="572.8438" gradientTransform="matrix(-50.75 103.54 -103.54 -50.75 48474.9023 51535.1641)">
					<stop  offset="0.3" style="stop-color:#3E863D"/>
					<stop  offset="0.5" style="stop-color:#55934F"/>
					<stop  offset="0.8" style="stop-color:#5AAD45"/>
				</linearGradient>
				<path style="fill:url(#SVGID_00000149357044809378773810000015313210884233039805_);" d="M320,49.8L43.7-85.6L-97.9,203.3
					l276.2,135.4L320,49.8z"/>
			</g>
		</g>
		<g>
			<defs>
				<path id="SVGID_00000102517562985830609780000015918816322865278349_" d="M3.6,190.1c0.9,1.2,2.1,2.3,3.5,3.1l84.1,48.6l14,8.1
					c2.8,1.6,6.1,2,9.1,1.1L217.7,61.6c-0.8-0.9-1.7-1.6-2.8-2.2l-64.2-37.1L116.8,2.8c-1-0.5-2-1-3.1-1.2L3.6,190.1z"/>
			</defs>
			<clipPath id="SVGID_00000163779173375631720580000016030780385075345059_">
				<use xlink:href="#SVGID_00000102517562985830609780000015918816322865278349_"  style="overflow:visible;"/>
			</clipPath>
			<g style="clip-path:url(#SVGID_00000163779173375631720580000016030780385075345059_);">
				
					<linearGradient id="SVGID_00000039850857052477764530000018316171681713171850_" gradientUnits="userSpaceOnUse" x1="-230.3809" y1="583.7487" x2="-228.5658" y2="583.7487" gradientTransform="matrix(142.41 -105.22 105.22 142.41 -28631.8086 -107150.5078)">
					<stop  offset="0.57" style="stop-color:#3E863D"/>
					<stop  offset="0.72" style="stop-color:#619857"/>
					<stop  offset="1" style="stop-color:#76AC64"/>
				</linearGradient>
				<path style="fill:url(#SVGID_00000039850857052477764530000018316171681713171850_);" d="M-115.8,89.8l195,263.9l258-190.5
					l-195.1-264L-115.8,89.8z"/>
			</g>
		</g>
		<g>
			<defs>
				<path id="SVGID_00000099634526104275930110000015120220247368269703_" d="M109.8,1.2c-1.7,0.2-3.3,0.7-4.7,1.5L7.4,59.2
					l105.4,192c1.5-0.2,2.9-0.7,4.2-1.4l98-56.5c3-1.7,5.1-4.7,5.7-8.1L113.3,1.5c-0.8-0.2-1.6-0.3-2.4-0.3
					C110.5,1.2,110.2,1.2,109.8,1.2"/>
			</defs>
			<clipPath id="SVGID_00000152247068824051494910000006169116831981156494_">
				<use xlink:href="#SVGID_00000099634526104275930110000015120220247368269703_"  style="overflow:visible;"/>
			</clipPath>
			<g style="clip-path:url(#SVGID_00000152247068824051494910000006169116831981156494_);">
				
					<linearGradient id="SVGID_00000170963818245835826370000006036661746425404555_" gradientUnits="userSpaceOnUse" x1="-225.5208" y1="587.4888" x2="-223.8802" y2="587.4888" gradientTransform="matrix(129.89 0 0 129.89 29299.9785 -76182.6719)">
					<stop  offset="0.16" style="stop-color:#6BBF47"/>
					<stop  offset="0.38" style="stop-color:#79B461"/>
					<stop  offset="0.47" style="stop-color:#75AC64"/>
					<stop  offset="0.7" style="stop-color:#659E5A"/>
					<stop  offset="0.9" style="stop-color:#3E863D"/>
				</linearGradient>
				<path style="fill:url(#SVGID_00000170963818245835826370000006036661746425404555_);" d="M7.3,1.2v250h213.4V1.2H7.3z"/>
			</g>
		</g>
	</g>
</g>
</svg>
