<?xml version="1.0" encoding="utf-8"?>
<!-- Generator: Adobe Illustrator 25.4.1, SVG Export Plug-In . SVG Version: 6.00 Build 0)  -->
<svg version="1.1" id="Layer_1" xmlns="http://www.w3.org/2000/svg" xmlns:xlink="http://www.w3.org/1999/xlink" x="0px" y="0px"
	 viewBox="0 0 165.5 165.5" style="enable-background:new 0 0 165.5 165.5;" xml:space="preserve">
<style type="text/css">
	.st0{fill:none;}
	.st1{fill:url(#SVGID_1_);}
	.st2{fill:url(#SVGID_00000109727570362286782930000001588951114359705491_);}
	.st3{fill:url(#SVGID_00000148661680659366592040000004192084470338921352_);}
	.st4{fill:url(#SVGID_00000170956646821686006880000004465496816095575429_);}
</style>
<g>
	<path class="st0" d="M82.9,97.9L82.9,97.9C82.9,97.7,82.9,97.7,82.9,97.9z"/>
	
		<linearGradient id="SVGID_1_" gradientUnits="userSpaceOnUse" x1="-696.735" y1="48.3455" x2="-696.735" y2="3.0484" gradientTransform="matrix(1 0 0 -1 758 147.3714)">
		<stop  offset="0" style="stop-color:#F29100"/>
		<stop  offset="1" style="stop-color:#EC670F"/>
	</linearGradient>
	<path class="st1" d="M82.2,134.1c-0.5-1-1.9-3.5-2.6-4.3c-1.5-1.8-1.9-1.9-2.3-4.2c-0.8-3.9-2.8-11-5.3-15.9
		c-1.3-2.5-3.3-4.6-5.2-6.5c-1.7-1.6-5.4-4.3-6.1-4.2c-6.1,1.2-8,7.2-10.9,12c-1.6,2.6-3.3,4.9-4.5,7.7c-1.2,2.6-1.1,5.4-3,7.6
		c-2,2.3-3.4,4.7-4.4,7.6c-0.2,0.6-0.7,6.4-1.3,7.8l9.1-0.6c8.5,0.6,6,3.8,19.3,3.1l20.9-0.6c-0.6-1.9-1.5-4.1-1.9-4.9
		C83.4,137.5,82.7,135.1,82.2,134.1z"/>
	
		<linearGradient id="SVGID_00000147216583575529646570000013341279343724839819_" gradientUnits="userSpaceOnUse" x1="-666.972" y1="3.9257" x2="-666.972" y2="3.9257" gradientTransform="matrix(1 0 0 -1 758 147.3714)">
		<stop  offset="0" style="stop-color:#F29100"/>
		<stop  offset="1" style="stop-color:#EC670F"/>
	</linearGradient>
	<path style="fill:url(#SVGID_00000147216583575529646570000013341279343724839819_);" d="M91,143.4"/>
	
		<linearGradient id="SVGID_00000005266361060909912040000006522390208202170804_" gradientUnits="userSpaceOnUse" x1="-675.228" y1="147.3257" x2="-675.228" y2="3.0788" gradientTransform="matrix(1 0 0 -1 758 147.3714)">
		<stop  offset="0" style="stop-color:#F29100"/>
		<stop  offset="1" style="stop-color:#EC670F"/>
	</linearGradient>
	<path style="fill:url(#SVGID_00000005266361060909912040000006522390208202170804_);" d="M108.7,90.8c-1.6,1.2-4.7,3.9-11.6,5
		c-3.1,0.5-5.9,0.5-9.1,0.4c-1.5-0.1-3-0.2-4.5-0.2c-0.9,0-4-0.1-3.8,0.2L79.4,97c0.1,0.3,0.2,1,0.2,1.1c0.1,0.7,0.2,1.2,0.2,1.9
		c0,1.3-0.1,2.6,0,4c0.1,2.7,1.1,5.2,1.3,7.9c0.1,3,1.6,6.3,3.1,8.8c0.6,0.9,1.4,1.1,1.8,2.2c0.4,1.3,0,2.8,0.2,4.2
		c0.8,5.5,2.4,11.3,4.9,16.3c0,0,0,0.1,0.1,0.1c3.1-0.5,6.1-1.6,10.1-2.2c7.3-1.1,17.5-0.5,24-1.1c16.5-1.6,25.5,6.8,40.4,3.4V20.9
		c0-11.5-9.3-20.9-20.9-20.9H20.9C9.3,0,0,9.4,0,20.9v45.5c3-1.1,7.3-7.4,8.6-9c2.4-2.7,2.8-6.1,4-8.3c2.7-4.9,3.1-8.3,9.2-8.3
		c2.8,0,4,0.7,5.9,3.2c1.3,1.8,3.6,5.1,4.7,7.3c1.2,2.5,3.3,6,4.2,6.7c0.7,0.5,1.3,0.9,1.9,1.1c1,0.4,1.8-0.3,2.5-0.8
		c0.8-0.7,1.2-2,2-3.8c1.1-2.6,2.3-5.8,3-6.9c1.2-1.9,1.6-4.1,2.9-5.2c1.9-1.6,4.4-1.7,5.1-1.9c3.8-0.8,5.6,1.9,7.5,3.5
		c1.2,1.1,2.9,3.3,4.1,6.3c0.9,2.3,2.1,4.5,2.6,5.8c0.5,1.3,1.7,3.4,2.4,5.9c0.6,2.3,2.4,4,3,5.1c0,0,1,2.8,7.1,5.4
		c1.3,0.6,4,1.5,5.6,2c2.6,1,5.2,0.8,8.5,0.4c2.3,0,3.6-3.4,4.6-6.1c0.6-1.6,1.2-6.2,1.6-7.5c0.4-1.3-0.5-2.2,0.3-3.3
		c0.9-1.3,1.5-1.4,2-3c1.1-3.6,7.7-3.8,11.4-3.8c3.1,0,2.7,3,7.9,2c3-0.6,5.9,0.4,9.1,1.2c2.7,0.7,5.2,1.5,6.7,3.3
		c1,1.1,3.4,6.9,0.9,7.1c0.2,0.3,0.4,0.8,0.9,1.1c-0.6,2.2-2.9,0.6-4.3,0.3c-1.8-0.4-3.1,0.1-4.8,0.8c-3,1.3-7.4,1.2-10,3.4
		c-2.2,1.8-2.2,6-3.2,8.3C117.9,78.9,115,86.3,108.7,90.8z"/>
	
		<linearGradient id="SVGID_00000126299609933956172260000002274267679725777322_" gradientUnits="userSpaceOnUse" x1="-735.137" y1="55.212" x2="-735.137" y2="4.0782" gradientTransform="matrix(1 0 0 -1 758 147.3714)">
		<stop  offset="0" style="stop-color:#F29100"/>
		<stop  offset="1" style="stop-color:#EC670F"/>
	</linearGradient>
	<path style="fill:url(#SVGID_00000126299609933956172260000002274267679725777322_);" d="M39.3,101.3c-1.4-0.1-2.8-0.3-4.1-0.6
		c-2.6-0.5-5.4-1-8-1.6c-1.5-0.4-6.7-2.2-7.8-2.7c-2.6-1.2-4.4-4.5-6.4-4.2c-1.3,0.2-2.6,0.7-3.4,2c-0.7,1.1-0.9,2.9-1.4,4.2
		c-0.5,1.4-1.5,2.8-2.3,4.2c-1.5,2.5-4.2,4.8-5.3,7.3c-0.2,0.5-0.4,1.1-0.6,1.7v9.4v16.3v2.4c1.3,0.2,2.8,0.5,4.3,0.9
		c11.6,3.1,14.5,3.4,25.9,2.1l1.1-0.1c0.9-1.8,1.5-8,2.1-9.9c0.4-1.5,1-2.6,1.3-4.1c0.2-1.4,0-2.8-0.1-4.1c-0.3-3.2,2.4-4.4,3.6-7.2
		c1.2-2.5,1.8-5.4,2.8-8c0.9-2.5,2.3-6,4.8-7.2C45.4,101.6,40.6,101.4,39.3,101.3z"/>
</g>
</svg>
