<?xml version="1.0" encoding="utf-8"?>
<!-- Generator: Adobe Illustrator 25.4.1, SVG Export Plug-In . SVG Version: 6.00 Build 0)  -->
<svg version="1.1"
	 id="vlpa" xmlns:cc="http://creativecommons.org/ns#" xmlns:dc="http://purl.org/dc/elements/1.1/" xmlns:rdf="http://www.w3.org/1999/02/22-rdf-syntax-ns#"
	 xmlns="http://www.w3.org/2000/svg" xmlns:xlink="http://www.w3.org/1999/xlink" x="0px" y="0px" viewBox="0 0 705.3 451.7"
	 style="enable-background:new 0 0 705.3 451.7;" xml:space="preserve">
<style type="text/css">
	.st0{fill:#ABD038;}
	.st1{fill:#EE332D;}
	.st2{fill:#F2BA1A;}
	.st3{fill:#3DAE2B;}
	.st4{fill:#FFFFFF;}
</style>
<desc>A heterogenous computing API from Khronos Group</desc>
<path class="st0" d="M283.4,64.6C298,41.8,315.2,14.8,320.8,6c-63.9,4.8-123,21.4-173,46.7c7.7,14.4,17.7,32.5,25.4,46.5
	c26.5-9.9,55.3-16.7,85.7-19.6C268.9,78.6,277.9,73.1,283.4,64.6L283.4,64.6z"/>
<path class="st1" d="M516.7,156.8c13.9,6.6,27.4,8.6,46.3,8.6c34.6,0,99.9,0.1,135.8,0.2C667.2,113.1,613,69.4,545.1,40.8
	C521,56.9,452,103.1,441,110.4C484.6,131.7,503,150.3,516.7,156.8z"/>
<path class="st2" d="M334,5.2c-1.9,5.6-18.9,56.6-24.3,73.1c27.4,1.2,53.8,5.4,78.5,12.3c14.7,4.1,30.5,2.6,44.1-4.4l99.6-50.8
	C480.4,15.7,421.8,4.5,359.5,4.5C350.9,4.5,342.4,4.8,334,5.2L334,5.2z"/>
<path class="st3" d="M11.1,179.2l32.3,0.1c8.7,0,17-3.6,22.9-10c17.5-19.1,39-35.9,63.7-49.8c8.8-4.9,13.7-14.8,12.1-24.7
	c-2.4-15.6-5-31.7-5.7-36C80.1,89.3,36.3,130.9,11.1,179.2L11.1,179.2z"/>
<g transform="translate(-56.3,-38.2)">
	<polygon class="st4" points="694.2,244 686.7,244 686.7,238.4 708.1,238.4 708.1,244 700.7,244 700.7,263.3 694.2,263.3 	"/>
	<polyline class="st4" points="739.2,238.4 739.2,263.3 732.2,263.3 732.2,244.4 732.2,244.4 727.2,263.3 722.2,263.3 717.2,244.4 
		717.1,244.4 717.1,263.3 711,263.3 711,238.4 711,238.4 720.9,238.4 725.2,255 725.2,255 729.2,238.4 	"/>
</g>
<path class="st4" d="M164,226.6c-7.8-9.2-17.5-16.5-28.9-21.8c-11.3-5.4-24.2-8.1-38.5-8.1s-27.1,2.7-38.5,8.1
	c-11.3,5.4-20.9,12.7-28.9,21.8c-7.8,9.2-13.9,19.9-18.1,32.1s-6.4,25.2-6.4,38.8c0,13.8,2.1,26.9,6.4,39.1
	c4.2,12.2,10.2,22.9,18.1,32.1s17.5,16.4,28.9,21.7c11.3,5.3,24.2,8,38.5,8s27.1-2.7,38.5-8c11.3-5.3,20.9-12.5,28.9-21.7
	c7.8-9.2,13.9-19.9,18.1-32.1c4.2-12.2,6.4-25.3,6.4-39.1c0-13.7-2.1-26.6-6.4-38.8C177.9,246.5,171.8,235.8,164,226.6z
	 M151.5,324.5c-2.3,8.8-5.7,16.7-10.3,23.6s-10.7,12.5-18.1,16.6c-7.4,4.1-16.3,6.2-26.4,6.2c-10.2,0-19-2.1-26.4-6.2
	s-13.5-9.7-18.1-16.6c-4.7-6.9-8.1-14.8-10.3-23.6c-2.3-8.8-3.4-17.8-3.4-27s1.1-18.2,3.4-27c2.3-8.8,5.7-16.7,10.3-23.6
	s10.7-12.4,18.1-16.6c7.4-4.1,16.3-6.2,26.4-6.2c10.2,0,19,2.1,26.4,6.2c7.4,4.1,13.5,9.7,18.1,16.6c4.7,6.9,8.1,14.8,10.3,23.6
	c2.3,8.8,3.4,17.8,3.4,27S153.7,315.7,151.5,324.5z"/>
<path class="st4" d="M330.5,272.3c-5.4-6.7-12.1-12-20.2-15.9s-17.7-5.8-28.6-5.8c-8.9,0-17.3,1.8-24.9,5.3
	c-7.7,3.5-13.7,9.3-18,17.4h-0.5v-19h-29v191h30.6v-69.6h0.5c2.3,3.8,5.3,7.1,8.7,9.8c3.5,2.8,7.2,5.1,11.4,6.9
	c4.1,1.8,8.4,3.1,12.9,3.9c4.5,0.8,8.9,1.2,13.4,1.2c10.2,0,19.1-2,26.6-6.1c7.5-4,13.7-9.4,18.7-16.2c5-6.7,8.6-14.5,11-23.3
	s3.6-17.9,3.6-27.3c0-10.3-1.4-19.9-4.1-28.9C340,286.9,335.9,279,330.5,272.3L330.5,272.3z M314.1,342.1
	c-1.4,5.8-3.6,11.1-6.7,15.7s-7.1,8.3-11.9,11.2c-4.9,2.9-10.7,4.3-17.7,4.3c-6.3,0-11.8-1.3-16.5-3.8c-4.8-2.5-8.8-5.9-12.2-10.3
	c-3.4-4.3-6-9.5-7.6-15.5c-1.7-6-2.6-12.5-2.6-19.6c0-14.9,3.3-26.9,9.8-35.9c6.5-9,16.3-13.5,29.1-13.5c6.3,0,11.8,1.4,16.7,4.2
	c4.9,2.8,8.8,6.5,12.1,11.1c3.3,4.6,5.7,9.8,7.2,15.8c1.6,5.9,2.4,12.1,2.4,18.3C316,330.3,315.4,336.3,314.1,342.1L314.1,342.1z"/>
<path class="st4" d="M501.1,318.4c-1.5,12-5.8,21.9-12.5,29.4c-6.6,7.3-16.1,11.1-28,11.1c-8.9,0-16.5-1.7-22.6-5.2
	c-6.2-3.4-11.2-8-15.1-13.7s-6.7-12.3-8.5-19.6c-1.8-7.3-2.7-14.9-2.7-22.6c0-8.1,0.9-16,2.7-23.6c1.8-7.5,4.7-14.2,8.5-20.1
	c3.9-5.8,8.8-10.4,15.1-13.9c6.2-3.4,13.8-5.2,22.6-5.2c4.8,0,9.5,0.8,13.9,2.4s8.4,3.8,11.9,6.7c3.5,2.8,6.5,6.2,8.7,9.9
	s3.8,7.8,4.5,12.3l0.3,1.9h44.5l-0.3-2.5c-1.3-11.2-4.4-21.3-9.2-30s-11.1-16.1-18.7-22c-7.4-5.9-16-10.4-25.4-13.5
	s-19.6-4.6-30.1-4.6c-14.8,0-28.3,2.6-39.9,7.9c-11.6,5.2-21.6,12.6-29.8,21.8c-8,9.2-14.3,20.1-18.7,32.5
	c-4.3,12.4-6.5,25.8-6.5,39.9c0,13.8,2.2,27,6.5,39.2s10.5,23,18.7,32c8,9,18.1,16.3,29.8,21.5c11.6,5.2,25.1,7.9,39.9,7.9
	c11.8,0,22.8-1.9,32.6-5.6c9.9-3.7,18.7-9.1,26-16c7.3-6.9,13.4-15.3,17.9-25.1c4.5-9.7,7.2-20.8,8.3-32.8l0.2-2.4h-44.4
	L501.1,318.4z"/>
<polygon class="st4" points="562.3,200.2 562.3,393.8 699.8,393.8 699.8,354.4 608.1,354.4 608.1,200.2 "/>
</svg>
