<svg xmlns="http://www.w3.org/2000/svg" viewBox="0 0 302.89 212.61"><defs><style>.cls-1{fill:#3aa2d6;}</style></defs><g id="Calque_2" data-name="Calque 2"><g id="Calque_6" data-name="Calque 6"><path id="path14" class="cls-1" d="M167.52,113.78a22.29,22.29,0,0,0-2.77-6.69,14.28,14.28,0,0,0-4.79-4.68,13.06,13.06,0,0,0-6.83-1.74,12.67,12.67,0,0,0-7,1.85,14.84,14.84,0,0,0-4.68,4.84,21.42,21.42,0,0,0-2.63,6.8,36.94,36.94,0,0,0,0,15.71,21.11,21.11,0,0,0,2.72,6.8,14.47,14.47,0,0,0,4.83,4.73,13.58,13.58,0,0,0,7.17,1.8,12.57,12.57,0,0,0,7-1.85,14,14,0,0,0,4.55-4.9,23.21,23.21,0,0,0,2.48-7,41.86,41.86,0,0,0,.77-8.05,32.76,32.76,0,0,0-.91-7.66Zm-29.18-20v7.63h.17a13.06,13.06,0,0,1,6.32-6.81,21.15,21.15,0,0,1,9.49-2.13,20.08,20.08,0,0,1,10,2.4,21,21,0,0,1,7.09,6.47,30.12,30.12,0,0,1,4.27,9.41,43.29,43.29,0,0,1,1.44,11.32,44.93,44.93,0,0,1-1.39,11.31,27.92,27.92,0,0,1-4.22,9.3,20.39,20.39,0,0,1-7.09,6.26,20.76,20.76,0,0,1-9.93,2.28,21.62,21.62,0,0,1-4.07-.43,20.26,20.26,0,0,1-4.46-1.42,16.75,16.75,0,0,1-4.17-2.67,14.26,14.26,0,0,1-3.3-4.19h-.17v29h-8.22V93.77ZM60,119.07a38.31,38.31,0,0,0,4.82,11.69,26,26,0,0,0,8.43,8.35,23,23,0,0,0,12.27,3.15,23,23,0,0,0,12.26-3.15,26,26,0,0,0,8.43-8.35,38.31,38.31,0,0,0,4.82-11.69,57.49,57.49,0,0,0,0-26.35A38.2,38.2,0,0,0,106.23,81a25.86,25.86,0,0,0-8.43-8.35,23,23,0,0,0-12.26-3.16,23,23,0,0,0-12.27,3.16A25.86,25.86,0,0,0,64.84,81,38.2,38.2,0,0,0,60,92.72a57.49,57.49,0,0,0,0,26.35Zm8.72-55.32.5-.28a33.47,33.47,0,0,1,16.3-3.83,33.43,33.43,0,0,1,16.29,3.83,35.38,35.38,0,0,1,11.7,10.26,45.71,45.71,0,0,1,7,14.77,65.07,65.07,0,0,1,0,34.73,45.81,45.81,0,0,1-7,14.77,34.74,34.74,0,0,1-11.7,10.19A33.87,33.87,0,0,1,85.54,152a33.91,33.91,0,0,1-16.3-3.77c-1-.52-1.92-1.09-2.83-1.69,24.31,25.58,71.11,42.91,124.85,42.91,43.71,0,82.89-10.28,109.05-28.33-28.62,30.22-79.69,51.54-138,51.53C72.66,212.59,0,165,0,106.27S72.69,0,162.35,0c58.53,0,109.73,21.39,138.28,51.83C274.47,33.66,235.14,23.2,191.26,23.2c-52.07,0-97.63,16.26-122.52,40.55"/><polygon class="cls-1" points="277.97 67.88 277.97 129.77 302.89 129.77 302.89 143.88 260.91 143.88 260.91 67.88 277.97 67.88"/><path class="cls-1" d="M231.5,143.35a29.13,29.13,0,0,1-11.22,2.29,40.78,40.78,0,0,1-16.07-3,34.4,34.4,0,0,1-12-8.37,37.1,37.1,0,0,1-7.51-12.53A45,45,0,0,1,182,106.17a46.83,46.83,0,0,1,2.61-15.84,37.93,37.93,0,0,1,7.5-12.74,34.34,34.34,0,0,1,12-8.54A40.05,40.05,0,0,1,220.24,66a38.65,38.65,0,0,1,11.6,1.76A33.16,33.16,0,0,1,242,72.91a28.51,28.51,0,0,1,7.46,8.43,27.72,27.72,0,0,1,3.6,11.5H236.69q-1.53-6.37-5.88-9.58a17.39,17.39,0,0,0-10.57-3.19,20.43,20.43,0,0,0-9.81,2.18,18.47,18.47,0,0,0-6.53,5.87,25.47,25.47,0,0,0-3.65,8.38,40.43,40.43,0,0,0-1.14,9.7,38.08,38.08,0,0,0,1.14,9.33,25,25,0,0,0,3.65,8.16,18.69,18.69,0,0,0,6.55,5.82,20.45,20.45,0,0,0,9.82,2.18q8.5,0,13.14-4.19t5.4-12.16H221.6V102.83h32.63v41.1H243.37l-1.73-8.62A25.49,25.49,0,0,1,231.5,143.35Z"/></g></g></svg>