<svg xmlns="http://www.w3.org/2000/svg" viewBox="0 0 117.77 117.77"><defs><style>.cls-1{fill:#19cffc;}.cls-2{fill:#1ea1e3;}.cls-3{fill:#053791;}.cls-4{fill:#1b2868;}</style></defs><g id="Calque_2" data-name="Calque 2"><g id="Calque_6" data-name="Calque 6"><path class="cls-1" d="M107.42,0H10.35A10.33,10.33,0,0,0,0,10.35v97.07a10.33,10.33,0,0,0,10.35,10.35h97.07a10.33,10.33,0,0,0,10.35-10.35V10.35A10.33,10.33,0,0,0,107.42,0Z"/><path class="cls-2" d="M117.77,10.35v97.07a10.33,10.33,0,0,1-10.35,10.35H58.88V0h48.54A10.33,10.33,0,0,1,117.77,10.35Z"/><path class="cls-3" d="M107.42,6.9H10.35A3.42,3.42,0,0,0,6.9,10.35v97.07a3.42,3.42,0,0,0,3.45,3.45h97.07a3.42,3.42,0,0,0,3.45-3.45V10.35A3.42,3.42,0,0,0,107.42,6.9Z"/><path class="cls-4" d="M110.87,10.35v97.07a3.42,3.42,0,0,1-3.45,3.45H58.88V6.9h48.54A3.42,3.42,0,0,1,110.87,10.35Z"/><path class="cls-1" d="M58.88,34.8a17.14,17.14,0,0,0-13.8-7H24.38a3.42,3.42,0,0,0-3.45,3.45V86.49a3.45,3.45,0,1,0,6.9,0V62.34H45.08A17.29,17.29,0,0,0,62.34,45.08,16.63,16.63,0,0,0,58.88,34.8ZM45.08,55.43H27.83V34.73H45.08a10.35,10.35,0,0,1,0,20.7Z"/><path class="cls-2" d="M83,89.94a13.81,13.81,0,0,1-13.8-13.8,3.45,3.45,0,1,1,6.9,0,6.9,6.9,0,1,0,6.9-6.9,13.81,13.81,0,1,1,13.8-13.81,3.45,3.45,0,0,1-6.9,0A6.9,6.9,0,1,0,83,62.34a13.8,13.8,0,0,1,0,27.6Z"/><path class="cls-2" d="M62.34,45.08a17.24,17.24,0,0,1-3.46,10.35V34.8A16.63,16.63,0,0,1,62.34,45.08Z"/></g></g></svg>