<svg xmlns="http://www.w3.org/2000/svg" viewBox="0 0 221.83 222.05"><defs><style>.cls-1{fill:#249cff;}.cls-2{fill:#ffe91f;}.cls-3{fill:#297bff;}.cls-4{fill:none;}.cls-5{fill:#edb414;}</style></defs><g id="Calque_2" data-name="Calque 2"><g id="Calque_6" data-name="Calque 6"><path class="cls-1" d="M114.36,0H97A39.81,39.81,0,0,0,57.23,39.82a9.61,9.61,0,0,0,9.61,9.61h40.23a3.75,3.75,0,0,1,0,7.5H53.36A53.36,53.36,0,0,0,0,110.29v13.43a40.07,40.07,0,0,0,40.07,40.07,9.61,9.61,0,0,0,9.61-9.61V135.62a29.17,29.17,0,0,1,29.18-29.17h55.79a29.13,29.13,0,0,0,29.14-29.14V49.43A49.43,49.43,0,0,0,114.36,0ZM79.78,36a9.47,9.47,0,1,1,9.47-9.47A9.47,9.47,0,0,1,79.78,36Z"/><path class="cls-2" d="M181.75,58.27a9.61,9.61,0,0,0-9.61,9.61V86.43A29.17,29.17,0,0,1,143,115.61H87.17A29.14,29.14,0,0,0,58,144.74v27.88a49.43,49.43,0,0,0,49.43,49.43h17.32a39.81,39.81,0,0,0,39.82-39.81,9.62,9.62,0,0,0-9.61-9.62H114.76a3.75,3.75,0,1,1,0-7.49h53.7a53.37,53.37,0,0,0,53.37-53.36V98.34A40.07,40.07,0,0,0,181.75,58.27ZM142,186.1a9.47,9.47,0,1,1-9.47,9.47A9.47,9.47,0,0,1,142,186.1Z"/><path class="cls-3" d="M163.79,64.83V77.31a29.13,29.13,0,0,1-29.14,29.14H78.86a29.17,29.17,0,0,0-29.18,29.17V123.14A29.17,29.17,0,0,1,78.86,94h55.79A29.14,29.14,0,0,0,163.79,64.83Z"/><path class="cls-3" d="M49.68,141.69v12.49a9.61,9.61,0,0,1-9.61,9.61A40.07,40.07,0,0,1,0,123.72V111.23A40.07,40.07,0,0,0,40.07,151.3,9.61,9.61,0,0,0,49.68,141.69Z"/><path class="cls-4" d="M114.36,0H97A39.81,39.81,0,0,0,57.23,39.82a9.61,9.61,0,0,0,9.61,9.61h40.23a3.75,3.75,0,0,1,0,7.5H53.36A53.36,53.36,0,0,0,0,110.29v13.43a40.07,40.07,0,0,0,40.07,40.07,9.61,9.61,0,0,0,9.61-9.61V135.62a29.17,29.17,0,0,1,29.18-29.17h55.79a29.13,29.13,0,0,0,29.14-29.14V49.43A49.43,49.43,0,0,0,114.36,0ZM79.78,36a9.47,9.47,0,1,1,9.47-9.47A9.47,9.47,0,0,1,79.78,36Z"/><path class="cls-5" d="M221.83,99.49v12.28a53.37,53.37,0,0,1-53.37,53.36h-53.7a3.74,3.74,0,0,0-3.74,3.55c.06-8.45,4.48-15.83,16.18-15.83h41.26A53.37,53.37,0,0,0,221.83,99.49Z"/><path class="cls-5" d="M164.6,182.24a39.81,39.81,0,0,1-39.82,39.81H107.46A49.43,49.43,0,0,1,58,172.62V160.34a49.43,49.43,0,0,0,49.43,49.43h17.32a39.63,39.63,0,0,0,19.2-4.92,9.53,9.53,0,0,0,6-4c1-.85,2-1.76,3-2.72a39.69,39.69,0,0,0,10.79-19.86A9.53,9.53,0,0,1,164.6,182.24Z"/><path class="cls-4" d="M181.75,58.27a9.61,9.61,0,0,0-9.61,9.61V86.43A29.17,29.17,0,0,1,143,115.61H87.17A29.14,29.14,0,0,0,58,144.74v27.88a49.43,49.43,0,0,0,49.43,49.43h17.32a39.81,39.81,0,0,0,39.82-39.81,9.62,9.62,0,0,0-9.61-9.62H114.76a3.75,3.75,0,1,1,0-7.49h53.7a53.37,53.37,0,0,0,53.37-53.36V98.34A40.07,40.07,0,0,0,181.75,58.27ZM142,186.1a9.47,9.47,0,1,1-9.47,9.47A9.47,9.47,0,0,1,142,186.1Z"/></g></g></svg>