<svg xmlns="http://www.w3.org/2000/svg" viewBox="0 0 217.77 210.95"><defs><style>.cls-1{fill:#97d944;}.cls-2{fill:#80bd32;}.cls-3{fill:#fff;}</style></defs><g id="Calque_2" data-name="Calque 2"><g id="Calque_6" data-name="Calque 6"><path class="cls-1" d="M85.85,7.48,16.16,58.12A39.18,39.18,0,0,0,1.92,101.93l26.62,81.94A39.19,39.19,0,0,0,65.81,211H152a39.18,39.18,0,0,0,37.27-27.08l26.62-81.94a39.19,39.19,0,0,0-14.23-43.81L131.92,7.48A39.22,39.22,0,0,0,85.85,7.48Z"/><path class="cls-2" d="M205.19,134.76l-16,49.11A39.2,39.2,0,0,1,152,211H65.81a39.21,39.21,0,0,1-37.27-27.08L1.92,101.94A39,39,0,0,1,.05,87.86c26,14,64.05,27.31,107.46,36.4C143.77,131.85,177.82,135.25,205.19,134.76Z"/><path class="cls-3" d="M200,99.27,174.8,176.68A26.44,26.44,0,0,1,149.58,195H68.19A26.45,26.45,0,0,1,43,176.68L17.82,99.27a26.46,26.46,0,0,1,9.63-29.65L65,42.32A4.86,4.86,0,0,1,72.59,45l5,18.61a7.48,7.48,0,0,1-2.82,8L46.4,92.17l23.87,73.45h77.24l23.86-73.45L143,71.57a7.45,7.45,0,0,1-2.82-8l5-18.61a4.87,4.87,0,0,1,7.56-2.68l37.58,27.3A26.45,26.45,0,0,1,200,99.27Z"/><path class="cls-3" d="M129.54,25.46a5.24,5.24,0,0,1,2,5.54l-7,27.1L121,71.56,114.13,98a5.8,5.8,0,0,1-5.61,4.35h0A5.81,5.81,0,0,1,102.89,98L96.21,71.56,92.88,58.4,86,31.16a5.25,5.25,0,0,1,2-5.51l5.33-3.87a26.46,26.46,0,0,1,31.17,0Z"/></g></g></svg>