<svg xmlns="http://www.w3.org/2000/svg" viewBox="0 0 991.68 302.55"><defs><style>.cls-1,.cls-2{fill:none;stroke:#fff;stroke-linejoin:round;stroke-width:12px;}.cls-2{stroke-linecap:round;}.cls-3{fill:#fff;}.cls-4{font-size:26.09px;font-family:Inter-ExtraBold, Inter;font-weight:800;}.cls-5{letter-spacing:-0.03em;}.cls-6{letter-spacing:0em;}.cls-7{letter-spacing:-0.01em;}.cls-8{letter-spacing:-0.02em;}.cls-9{letter-spacing:-0.01em;}.cls-10{letter-spacing:-0.02em;}.cls-11{letter-spacing:0em;}.cls-12{letter-spacing:-0.06em;}</style></defs><g id="Calque_2" data-name="Calque 2"><g id="Calque_5" data-name="Calque 5"><line class="cls-1" x1="510.1" y1="6" x2="510.1" y2="173.23"/><line class="cls-2" x1="329.25" y1="6" x2="690.95" y2="6"/><path class="cls-2" d="M510.1,173.23,416.7,79.82a51.35,51.35,0,0,0-36.29-15H205.8"/><rect class="cls-3" y="43.91" width="324.08" height="41.77" rx="20.88"/><text class="cls-4" transform="translate(15.41 73.02)">Softwa<tspan class="cls-5" x="91.79" y="0">r</tspan><tspan class="cls-6" x="102.04" y="0">e d</tspan><tspan class="cls-7" x="140.08" y="0">e</tspan><tspan class="cls-8" x="155.42" y="0">v</tspan><tspan class="cls-6" x="170.5" y="0">elopment</tspan></text><path class="cls-2" d="M510.1,173.23l-93.4,93.4a51.32,51.32,0,0,1-36.29,15H205.8"/><rect class="cls-3" x="24" y="260.78" width="276.08" height="41.77" rx="20.88"/><text class="cls-4" transform="translate(37.21 290.65)">Compu<tspan class="cls-9" x="93.43" y="0">t</tspan><tspan x="103.63" y="0">er g</tspan><tspan class="cls-10" x="152.7" y="0">r</tspan><tspan class="cls-11" x="163.15" y="0">aphics</tspan></text><path class="cls-2" d="M510.1,173.23l93.41-93.41a51.33,51.33,0,0,1,36.29-15H814.41"/><path class="cls-2" d="M510.1,173.23l93.41,93.4a51.3,51.3,0,0,0,36.29,15H814.41"/><rect class="cls-3" x="724.65" y="43.91" width="267.04" height="41.77" rx="20.88"/><text class="cls-4" transform="translate(741.11 74.52)"><tspan class="cls-12">W</tspan><tspan x="26.17" y="0">eb d</tspan><tspan class="cls-7" x="80.91" y="0">e</tspan><tspan class="cls-8" x="96.25" y="0">v</tspan><tspan x="111.32" y="0">elopment</tspan></text><rect class="cls-3" x="789.15" y="260.78" width="138.02" height="41.77" rx="20.88"/><text class="cls-4" transform="translate(806.12 290.65)">Contact</text></g></g></svg>