<?xml version="1.0" encoding="utf-8"?>
<!-- Generator: Adobe Illustrator 25.4.1, SVG Export Plug-In . SVG Version: 6.00 Build 0)  -->
<svg version="1.1" id="Calque_1" xmlns="http://www.w3.org/2000/svg" xmlns:xlink="http://www.w3.org/1999/xlink" x="0px" y="0px"
	 viewBox="0 0 991.7 302.5" style="enable-background:new 0 0 991.7 302.5;" xml:space="preserve">
<style type="text/css">
	.st0{fill:none;stroke:#FFFFFF;stroke-width:12;stroke-linejoin:round;}
	.st1{fill:none;stroke:#FFFFFF;stroke-width:12;stroke-linecap:round;stroke-linejoin:round;}
	.st2{fill:#FFFFFF;}
	.st3{enable-background:new    ;}
</style>
<g id="Calque_2_00000123410549905857126560000005636770104570559658_">
	<g id="Calque_5">
		<line class="st0" x1="510.1" y1="6" x2="510.1" y2="173.2"/>
		<line class="st1" x1="329.2" y1="6" x2="691" y2="6"/>
		<path class="st1" d="M510.1,173.2l-93.4-93.4c-9.6-9.6-22.7-15-36.3-15H205.8"/>
		<path class="st2" d="M20.9,43.9h282.3c11.5,0,20.9,9.3,20.9,20.9v0c0,11.5-9.3,20.9-20.9,20.9H20.9C9.3,85.7,0,76.3,0,64.8v0
			C0,53.3,9.3,43.9,20.9,43.9z"/>
		<g class="st3">
			<path d="M27.1,59.7c-0.1-0.7-0.3-1.2-0.8-1.6c-0.5-0.4-1.2-0.6-2.1-0.6c-0.9,0-1.6,0.2-2,0.5c-0.4,0.3-0.7,0.8-0.7,1.3
				c0,0.6,0.2,1,0.7,1.3s1.2,0.6,2,0.8l1.6,0.4c1.9,0.4,3.3,1.1,4.3,2c1,0.9,1.5,2.2,1.5,3.7c0,1.8-0.7,3.2-2,4.2
				c-1.3,1-3.2,1.5-5.5,1.5c-2.4,0-4.3-0.5-5.7-1.6c-1.4-1.1-2.2-2.7-2.2-4.9h4.4c0,0.9,0.4,1.6,1,2.1c0.6,0.5,1.4,0.7,2.5,0.7
				c0.9,0,1.6-0.2,2.2-0.5s0.8-0.8,0.8-1.4c0-0.5-0.3-1-0.7-1.3c-0.5-0.3-1.3-0.6-2.3-0.8l-2-0.5c-1.6-0.4-2.9-1-3.9-1.8
				c-0.9-0.8-1.4-2-1.4-3.4c0-1.2,0.3-2.2,0.9-3.1c0.6-0.9,1.5-1.6,2.6-2.1c1.1-0.5,2.4-0.7,3.8-0.7c1.5,0,2.7,0.2,3.8,0.7
				s1.9,1.2,2.5,2.1s0.9,1.9,0.9,3.1H27.1z"/>
			<path d="M40.7,73.3c-1.5,0-2.8-0.3-3.8-0.9c-1.1-0.6-1.9-1.5-2.5-2.6c-0.6-1.1-0.9-2.4-0.9-3.8c0-1.5,0.3-2.7,0.9-3.8
				c0.6-1.1,1.4-2,2.5-2.6s2.4-0.9,3.8-0.9c1.5,0,2.8,0.3,3.8,0.9c1.1,0.6,1.9,1.5,2.5,2.6s0.9,2.4,0.9,3.8c0,1.5-0.3,2.7-0.9,3.8
				s-1.4,2-2.5,2.6C43.5,73,42.2,73.3,40.7,73.3z M40.7,69.9c0.8,0,1.4-0.4,1.9-1.1c0.4-0.7,0.7-1.7,0.7-2.9c0-1.2-0.2-2.1-0.7-2.9
				c-0.4-0.7-1.1-1.1-1.9-1.1c-0.8,0-1.5,0.4-1.9,1.1c-0.4,0.7-0.7,1.7-0.7,2.9c0,1.2,0.2,2.1,0.7,2.9
				C39.3,69.5,39.9,69.9,40.7,69.9z"/>
			<path d="M58.3,58.8v3.3h-2.7V73h-4.5V62.1h-1.9v-3.3h1.9v-0.7c0-1.6,0.5-2.9,1.4-3.7s2.1-1.2,3.5-1.2c0.6,0,1.2,0,1.8,0.1
				s1,0.2,1.2,0.3l-0.7,3.3c-0.2,0-0.4-0.1-0.6-0.1c-0.2,0-0.5-0.1-0.7-0.1c-0.5,0-0.9,0.1-1.1,0.4s-0.3,0.6-0.3,1v0.8H58.3z"/>
			<path d="M68.5,58.8v3.3H66v6.4c0,0.4,0.1,0.7,0.3,0.9c0.2,0.2,0.5,0.3,0.8,0.3c0.2,0,0.4,0,0.6-0.1c0.2,0,0.3-0.1,0.4-0.1
				l0.7,3.3c-0.2,0.1-0.5,0.1-0.9,0.2c-0.4,0.1-0.9,0.1-1.4,0.2c-1.6,0.1-2.8-0.2-3.7-1c-0.9-0.7-1.3-1.8-1.3-3.2v-6.9h-1.9v-3.3
				h1.9v-3.4H66v3.4H68.5z"/>
			<path d="M73.5,73l-3.7-14.2h4.5l1.9,9.1h0.1l2.1-9.1h4.4l2.1,9.1h0.1l1.9-9.1h4.5L87.8,73H83l-2.2-8.3h-0.2L78.4,73H73.5z"/>
			<path d="M97.4,73.3c-1.4,0-2.5-0.3-3.4-1c-0.9-0.7-1.3-1.7-1.3-3.2c0-1,0.2-1.9,0.7-2.5s1.1-1.1,1.9-1.4c0.8-0.3,1.7-0.5,2.6-0.6
				c1.2-0.1,2.1-0.2,2.6-0.4c0.5-0.2,0.8-0.4,0.8-0.9v0c0-0.5-0.2-0.8-0.5-1.1c-0.3-0.3-0.8-0.4-1.3-0.4c-0.6,0-1.1,0.1-1.4,0.4
				s-0.6,0.6-0.7,1.1l-4.2-0.1c0.2-1.3,0.8-2.4,1.9-3.2c1.1-0.9,2.6-1.3,4.5-1.3c1.2,0,2.3,0.2,3.2,0.6c0.9,0.4,1.7,0.9,2.2,1.6
				c0.5,0.7,0.8,1.6,0.8,2.6V73h-4.3v-2h-0.1C100.7,72.5,99.3,73.3,97.4,73.3z M98.8,70.3c0.7,0,1.3-0.2,1.8-0.6
				c0.5-0.4,0.8-1,0.8-1.7v-1.4c-0.3,0.1-0.6,0.2-1.1,0.3c-0.5,0.1-0.9,0.2-1.3,0.2c-1.3,0.2-2,0.8-2,1.7c0,0.5,0.2,0.8,0.5,1.1
				S98.2,70.3,98.8,70.3z"/>
		</g>
		<g class="st3">
			<path d="M108.6,73V58.8h4.4v2.6h0.1c0.3-0.9,0.7-1.6,1.3-2.1s1.3-0.7,2-0.7c0.4,0,0.9,0.1,1.3,0.2v3.9c-0.2-0.1-0.5-0.1-0.8-0.2
				c-0.3,0-0.7-0.1-0.9-0.1c-0.8,0-1.5,0.3-2,0.8c-0.5,0.5-0.8,1.2-0.8,2.1V73H108.6z"/>
		</g>
		<g class="st3">
			<path d="M125.5,73.3c-2.2,0-4-0.7-5.3-2c-1.3-1.3-1.9-3.1-1.9-5.4c0-1.5,0.3-2.8,0.9-3.9s1.4-2,2.5-2.6c1.1-0.6,2.3-0.9,3.7-0.9
				c1.3,0,2.5,0.3,3.6,0.8c1,0.6,1.9,1.4,2.4,2.5c0.6,1.1,0.9,2.4,0.9,4V67h-9.5v0.1c0,0.9,0.3,1.6,0.8,2.1s1.2,0.8,2.1,0.8
				c0.6,0,1.1-0.1,1.5-0.4s0.7-0.6,0.9-1.1l4.2,0.1c-0.3,1.4-1,2.5-2.1,3.3C128.9,72.9,127.4,73.3,125.5,73.3z M122.8,64.4h5.3
				c0-0.7-0.3-1.3-0.7-1.8c-0.5-0.5-1.1-0.7-1.8-0.7c-0.8,0-1.4,0.2-1.9,0.7C123.1,63.1,122.8,63.7,122.8,64.4z"/>
			<path d="M145.4,73.2c-1,0-2-0.3-2.9-0.8S141,71,140.5,70s-0.8-2.4-0.8-4c0-1.7,0.3-3,0.8-4.1c0.5-1.1,1.2-1.9,2.1-2.4
				c0.9-0.5,1.8-0.8,2.8-0.8c1.1,0,2,0.3,2.7,0.8c0.6,0.5,1.1,1.1,1.4,1.8h0.1V54h4.5v19h-4.5v-2.3h-0.1c-0.3,0.7-0.8,1.2-1.4,1.7
				C147.4,73,146.5,73.2,145.4,73.2z M147,69.7c0.8,0,1.5-0.3,1.9-1c0.5-0.7,0.7-1.6,0.7-2.8c0-1.2-0.2-2.1-0.7-2.8
				c-0.5-0.7-1.1-1-1.9-1c-0.8,0-1.5,0.3-1.9,1c-0.5,0.7-0.7,1.6-0.7,2.7c0,1.1,0.2,2.1,0.7,2.8C145.5,69.4,146.2,69.7,147,69.7z"/>
		</g>
		<g class="st3">
			<path d="M163.6,73.3c-2.2,0-4-0.7-5.3-2c-1.3-1.3-1.9-3.1-1.9-5.4c0-1.5,0.3-2.8,0.9-3.9s1.4-2,2.5-2.6c1.1-0.6,2.3-0.9,3.7-0.9
				c1.3,0,2.5,0.3,3.6,0.8c1,0.6,1.9,1.4,2.4,2.5c0.6,1.1,0.9,2.4,0.9,4V67h-9.5v0.1c0,0.9,0.3,1.6,0.8,2.1s1.2,0.8,2.1,0.8
				c0.6,0,1.1-0.1,1.5-0.4s0.7-0.6,0.9-1.1l4.2,0.1c-0.3,1.4-1,2.5-2.1,3.3C167,72.9,165.4,73.3,163.6,73.3z M160.8,64.4h5.3
				c0-0.7-0.3-1.3-0.7-1.8c-0.5-0.5-1.1-0.7-1.8-0.7c-0.8,0-1.4,0.2-1.9,0.7C161.1,63.1,160.9,63.7,160.8,64.4z"/>
		</g>
		<g class="st3">
			<path d="M186.1,58.8L181.2,73H176l-4.9-14.2h4.8l2.6,9.8h0.1l2.6-9.8H186.1z"/>
		</g>
		<g class="st3">
			<path d="M194,73.3c-2.2,0-4-0.7-5.3-2c-1.3-1.3-1.9-3.1-1.9-5.4c0-1.5,0.3-2.8,0.9-3.9s1.4-2,2.5-2.6c1.1-0.6,2.3-0.9,3.7-0.9
				c1.3,0,2.5,0.3,3.6,0.8c1,0.6,1.9,1.4,2.4,2.5c0.6,1.1,0.9,2.4,0.9,4V67h-9.5v0.1c0,0.9,0.3,1.6,0.8,2.1s1.2,0.8,2.1,0.8
				c0.6,0,1.1-0.1,1.5-0.4s0.7-0.6,0.9-1.1l4.2,0.1c-0.3,1.4-1,2.5-2.1,3.3C197.4,72.9,195.9,73.3,194,73.3z M191.3,64.4h5.3
				c0-0.7-0.3-1.3-0.7-1.8c-0.5-0.5-1.1-0.7-1.8-0.7c-0.8,0-1.4,0.2-1.9,0.7C191.6,63.1,191.3,63.7,191.3,64.4z"/>
			<path d="M207.6,54v19h-4.5V54H207.6z"/>
			<path d="M217.1,73.3c-1.5,0-2.8-0.3-3.8-0.9c-1.1-0.6-1.9-1.5-2.5-2.6c-0.6-1.1-0.9-2.4-0.9-3.8c0-1.5,0.3-2.7,0.9-3.8
				c0.6-1.1,1.4-2,2.5-2.6s2.4-0.9,3.8-0.9c1.5,0,2.8,0.3,3.8,0.9c1.1,0.6,1.9,1.5,2.5,2.6s0.9,2.4,0.9,3.8c0,1.5-0.3,2.7-0.9,3.8
				s-1.4,2-2.5,2.6C219.9,73,218.6,73.3,217.1,73.3z M217.2,69.9c0.8,0,1.4-0.4,1.9-1.1c0.4-0.7,0.7-1.7,0.7-2.9
				c0-1.2-0.2-2.1-0.7-2.9c-0.4-0.7-1.1-1.1-1.9-1.1c-0.8,0-1.5,0.4-1.9,1.1c-0.4,0.7-0.7,1.7-0.7,2.9c0,1.2,0.2,2.1,0.7,2.9
				C215.7,69.5,216.3,69.9,217.2,69.9z"/>
			<path d="M226.6,78.4V58.8h4.5v2.4h0.1c0.3-0.7,0.7-1.3,1.4-1.8c0.6-0.5,1.5-0.8,2.7-0.8c1,0,1.9,0.3,2.8,0.8
				c0.9,0.5,1.6,1.3,2.1,2.4c0.5,1.1,0.8,2.5,0.8,4.1c0,1.6-0.3,3-0.8,4c-0.5,1.1-1.2,1.9-2.1,2.4s-1.8,0.8-2.9,0.8
				c-1.1,0-1.9-0.3-2.6-0.8c-0.7-0.5-1.1-1.1-1.4-1.7h-0.1v7.6H226.6z M231.1,65.9c0,1.2,0.2,2.1,0.7,2.8c0.5,0.7,1.1,1,1.9,1
				c0.8,0,1.5-0.3,1.9-1c0.4-0.7,0.7-1.6,0.7-2.8c0-1.1-0.2-2.1-0.7-2.7s-1.1-1-1.9-1c-0.8,0-1.5,0.3-1.9,1
				C231.3,63.8,231.1,64.7,231.1,65.9z"/>
			<path d="M243.3,73V58.8h4.3v2.6h0.2c0.3-0.9,0.8-1.5,1.5-2c0.7-0.5,1.5-0.8,2.5-0.8c1,0,1.8,0.3,2.5,0.8c0.7,0.5,1.2,1.2,1.3,2
				h0.1c0.3-0.8,0.8-1.5,1.6-2c0.8-0.5,1.7-0.8,2.7-0.8c1.3,0,2.4,0.4,3.3,1.3c0.8,0.9,1.3,2,1.3,3.5V73h-4.5v-8.5
				c0-0.7-0.2-1.3-0.6-1.6c-0.4-0.4-0.8-0.6-1.4-0.6c-0.6,0-1.1,0.2-1.5,0.6c-0.4,0.4-0.5,0.9-0.5,1.6V73h-4.4v-8.6
				c0-0.7-0.2-1.2-0.5-1.6s-0.8-0.6-1.4-0.6c-0.6,0-1.1,0.2-1.4,0.6c-0.4,0.4-0.6,1-0.6,1.7V73H243.3z"/>
			<path d="M274.1,73.3c-2.2,0-4-0.7-5.3-2c-1.3-1.3-1.9-3.1-1.9-5.4c0-1.5,0.3-2.8,0.9-3.9s1.4-2,2.5-2.6c1.1-0.6,2.3-0.9,3.7-0.9
				c1.3,0,2.5,0.3,3.6,0.8c1,0.6,1.9,1.4,2.4,2.5c0.6,1.1,0.9,2.4,0.9,4V67h-9.5v0.1c0,0.9,0.3,1.6,0.8,2.1s1.2,0.8,2.1,0.8
				c0.6,0,1.1-0.1,1.5-0.4s0.7-0.6,0.9-1.1l4.2,0.1c-0.3,1.4-1,2.5-2.1,3.3C277.5,72.9,276,73.3,274.1,73.3z M271.4,64.4h5.3
				c0-0.7-0.3-1.3-0.7-1.8c-0.5-0.5-1.1-0.7-1.8-0.7c-0.8,0-1.4,0.2-1.9,0.7C271.7,63.1,271.4,63.7,271.4,64.4z"/>
			<path d="M287.8,64.9V73h-4.5V58.8h4.3v2.6h0.2c0.3-0.9,0.9-1.5,1.6-2c0.8-0.5,1.7-0.8,2.7-0.8c1,0,1.9,0.2,2.6,0.7
				c0.7,0.4,1.3,1.1,1.7,1.9c0.4,0.8,0.6,1.7,0.6,2.8V73h-4.5v-8.2c0-0.8-0.2-1.4-0.6-1.9c-0.4-0.4-1-0.7-1.7-0.7
				c-0.7,0-1.3,0.2-1.7,0.7S287.8,64.1,287.8,64.9z"/>
			<path d="M307.8,58.8v3.3h-2.6v6.4c0,0.4,0.1,0.7,0.3,0.9c0.2,0.2,0.5,0.3,0.8,0.3c0.2,0,0.4,0,0.6-0.1c0.2,0,0.3-0.1,0.4-0.1
				l0.7,3.3c-0.2,0.1-0.5,0.1-0.9,0.2c-0.4,0.1-0.9,0.1-1.4,0.2c-1.6,0.1-2.8-0.2-3.7-1c-0.9-0.7-1.3-1.8-1.3-3.2v-6.9h-1.9v-3.3
				h1.9v-3.4h4.5v3.4H307.8z"/>
		</g>
		<path class="st1" d="M510.1,173.2l-93.4,93.4c-9.6,9.6-22.7,15-36.3,15H205.8"/>
		<path class="st2" d="M44.9,260.8h234.3c11.5,0,20.9,9.3,20.9,20.9v0c0,11.5-9.3,20.9-20.9,20.9H44.9c-11.5,0-20.9-9.3-20.9-20.9v0
			C24,270.1,33.3,260.8,44.9,260.8z"/>
		<g class="st3">
			<path d="M55.9,278.6h-4.6c-0.1-1-0.5-1.7-1.1-2.3c-0.6-0.6-1.5-0.8-2.5-0.8c-1.4,0-2.5,0.5-3.3,1.5c-0.8,1-1.2,2.4-1.2,4.2
				c0,1.9,0.4,3.3,1.2,4.3c0.8,1,1.9,1.5,3.2,1.5c1,0,1.8-0.3,2.5-0.8c0.7-0.5,1.1-1.2,1.2-2.1l4.6,0c-0.1,0.8-0.3,1.7-0.7,2.5
				c-0.4,0.8-1,1.6-1.7,2.2c-0.7,0.7-1.6,1.2-2.6,1.6s-2.2,0.6-3.5,0.6c-1.7,0-3.3-0.4-4.6-1.1c-1.4-0.8-2.4-1.9-3.2-3.3
				c-0.8-1.5-1.2-3.2-1.2-5.3c0-2.1,0.4-3.9,1.2-5.3c0.8-1.4,1.9-2.5,3.2-3.3s2.9-1.1,4.6-1.1c1.5,0,2.9,0.3,4.1,0.8
				c1.2,0.6,2.2,1.4,3,2.4C55.3,275.7,55.7,277,55.9,278.6z"/>
			<path d="M65.1,290.9c-1.5,0-2.8-0.3-3.8-0.9c-1.1-0.6-1.9-1.5-2.5-2.6c-0.6-1.1-0.9-2.4-0.9-3.8c0-1.5,0.3-2.7,0.9-3.8
				c0.6-1.1,1.4-2,2.5-2.6s2.4-0.9,3.8-0.9c1.5,0,2.8,0.3,3.8,0.9c1.1,0.6,1.9,1.5,2.5,2.6s0.9,2.4,0.9,3.8c0,1.5-0.3,2.7-0.9,3.8
				s-1.4,2-2.5,2.6C67.9,290.6,66.6,290.9,65.1,290.9z M65.2,287.5c0.8,0,1.4-0.4,1.9-1.1c0.4-0.7,0.7-1.7,0.7-2.9
				c0-1.2-0.2-2.1-0.7-2.9c-0.4-0.7-1.1-1.1-1.9-1.1c-0.8,0-1.5,0.4-1.9,1.1c-0.4,0.7-0.7,1.7-0.7,2.9c0,1.2,0.2,2.1,0.7,2.9
				C63.7,287.1,64.3,287.5,65.2,287.5z"/>
			<path d="M74.6,290.7v-14.2h4.3v2.6h0.2c0.3-0.9,0.8-1.5,1.5-2c0.7-0.5,1.5-0.8,2.5-0.8c1,0,1.8,0.3,2.5,0.8
				c0.7,0.5,1.2,1.2,1.3,2h0.1c0.3-0.8,0.8-1.5,1.6-2c0.8-0.5,1.7-0.8,2.7-0.8c1.3,0,2.4,0.4,3.3,1.3c0.8,0.9,1.3,2,1.3,3.5v9.6
				h-4.5v-8.5c0-0.7-0.2-1.3-0.6-1.6c-0.4-0.4-0.8-0.6-1.4-0.6c-0.6,0-1.1,0.2-1.5,0.6c-0.4,0.4-0.5,0.9-0.5,1.6v8.5h-4.4v-8.6
				c0-0.7-0.2-1.2-0.5-1.6s-0.8-0.6-1.4-0.6c-0.6,0-1.1,0.2-1.4,0.6c-0.4,0.4-0.6,1-0.6,1.7v8.4H74.6z"/>
			<path d="M98.8,296v-19.6h4.5v2.4h0.1c0.3-0.7,0.7-1.3,1.4-1.8c0.6-0.5,1.5-0.8,2.7-0.8c1,0,1.9,0.3,2.8,0.8
				c0.9,0.5,1.6,1.3,2.1,2.4c0.5,1.1,0.8,2.5,0.8,4.1c0,1.6-0.3,3-0.8,4c-0.5,1.1-1.2,1.9-2.1,2.4s-1.8,0.8-2.9,0.8
				c-1.1,0-1.9-0.3-2.6-0.8c-0.7-0.5-1.1-1.1-1.4-1.7h-0.1v7.6H98.8z M103.2,283.5c0,1.2,0.2,2.1,0.7,2.8c0.5,0.7,1.1,1,1.9,1
				c0.8,0,1.5-0.3,1.9-1c0.4-0.7,0.7-1.6,0.7-2.8c0-1.1-0.2-2.1-0.7-2.7s-1.1-1-1.9-1c-0.8,0-1.5,0.3-1.9,1
				C103.5,281.5,103.2,282.4,103.2,283.5z"/>
			<path d="M124.7,284.5v-8.1h4.5v14.2h-4.3V288h-0.1c-0.3,0.9-0.9,1.6-1.6,2.1c-0.8,0.5-1.7,0.8-2.7,0.8c-1,0-1.8-0.2-2.6-0.7
				c-0.7-0.4-1.3-1.1-1.7-1.9c-0.4-0.8-0.6-1.7-0.6-2.8v-9.1h4.5v8.2c0,0.8,0.2,1.4,0.6,1.8c0.4,0.4,0.9,0.7,1.6,0.7
				c0.7,0,1.2-0.2,1.7-0.7C124.4,286,124.7,285.3,124.7,284.5z"/>
		</g>
		<g class="st3">
			<path d="M140.1,276.4v3.3h-2.6v6.4c0,0.4,0.1,0.7,0.3,0.9c0.2,0.2,0.5,0.3,0.8,0.3c0.2,0,0.4,0,0.6-0.1c0.2,0,0.3-0.1,0.4-0.1
				l0.7,3.3c-0.2,0.1-0.5,0.1-0.9,0.2c-0.4,0.1-0.9,0.1-1.4,0.2c-1.6,0.1-2.8-0.2-3.7-1c-0.9-0.7-1.3-1.8-1.3-3.2v-6.9h-1.9v-3.3
				h1.9V273h4.5v3.4H140.1z"/>
		</g>
		<g class="st3">
			<path d="M148.9,290.9c-2.2,0-4-0.7-5.3-2c-1.3-1.3-1.9-3.1-1.9-5.4c0-1.5,0.3-2.8,0.9-3.9s1.4-2,2.5-2.6c1.1-0.6,2.3-0.9,3.7-0.9
				c1.3,0,2.5,0.3,3.6,0.8c1,0.6,1.9,1.4,2.4,2.5c0.6,1.1,0.9,2.4,0.9,4v1.1h-9.5v0.1c0,0.9,0.3,1.6,0.8,2.1s1.2,0.8,2.1,0.8
				c0.6,0,1.1-0.1,1.5-0.4s0.7-0.6,0.9-1.1l4.2,0.1c-0.3,1.4-1,2.5-2.1,3.3C152.3,290.5,150.8,290.9,148.9,290.9z M146.2,282h5.3
				c0-0.7-0.3-1.3-0.7-1.8c-0.5-0.5-1.1-0.7-1.8-0.7c-0.8,0-1.4,0.2-1.9,0.7C146.5,280.7,146.2,281.3,146.2,282z"/>
			<path d="M158,290.7v-14.2h4.4v2.6h0.1c0.3-0.9,0.7-1.6,1.3-2.1s1.3-0.7,2-0.7c0.4,0,0.9,0.1,1.3,0.2v3.9
				c-0.2-0.1-0.5-0.1-0.8-0.2c-0.3,0-0.7-0.1-0.9-0.1c-0.8,0-1.5,0.3-2,0.8c-0.5,0.5-0.8,1.2-0.8,2.1v7.7H158z"/>
			<path d="M181.2,296.2c-2,0-3.6-0.4-4.8-1.2c-1.1-0.8-1.8-1.8-2-3l4.3-0.2c0.1,0.4,0.4,0.7,0.8,0.9c0.4,0.2,1,0.4,1.7,0.4
				c0.8,0,1.4-0.2,1.9-0.5c0.5-0.4,0.7-1,0.7-1.8v-2.5h-0.2c-0.3,0.7-0.7,1.2-1.4,1.6s-1.6,0.7-2.6,0.7c-1,0-2-0.2-2.8-0.7
				c-0.9-0.5-1.6-1.2-2.1-2.3c-0.5-1-0.8-2.3-0.8-4c0-1.7,0.3-3,0.8-4.1c0.5-1.1,1.2-1.9,2.1-2.4c0.9-0.5,1.8-0.8,2.8-0.8
				c1.1,0,2,0.3,2.7,0.8c0.6,0.5,1.1,1.1,1.4,1.8h0.1v-2.4h4.5v14.3c0,1.2-0.3,2.2-0.9,3c-0.6,0.8-1.5,1.4-2.5,1.9
				C183.9,296,182.7,296.2,181.2,296.2z M181.4,287.2c0.8,0,1.5-0.3,1.9-1c0.5-0.6,0.7-1.5,0.7-2.7c0-1.2-0.2-2.1-0.7-2.7
				c-0.5-0.7-1.1-1-1.9-1c-0.8,0-1.5,0.3-1.9,1c-0.5,0.7-0.7,1.6-0.7,2.7s0.2,2,0.7,2.7C179.9,286.8,180.5,287.2,181.4,287.2z"/>
		</g>
		<g class="st3">
			<path d="M191.3,290.7v-14.2h4.4v2.6h0.1c0.3-0.9,0.7-1.6,1.3-2.1s1.3-0.7,2-0.7c0.4,0,0.9,0.1,1.3,0.2v3.9
				c-0.2-0.1-0.5-0.1-0.8-0.2c-0.3,0-0.7-0.1-0.9-0.1c-0.8,0-1.5,0.3-2,0.8c-0.5,0.5-0.8,1.2-0.8,2.1v7.7H191.3z"/>
		</g>
		<g class="st3">
			<path d="M205.8,290.9c-1.4,0-2.5-0.3-3.4-1c-0.9-0.7-1.3-1.7-1.3-3.2c0-1,0.2-1.9,0.7-2.5s1.1-1.1,1.9-1.4
				c0.8-0.3,1.7-0.5,2.6-0.6c1.2-0.1,2.1-0.2,2.6-0.4c0.5-0.2,0.8-0.4,0.8-0.9v0c0-0.5-0.2-0.8-0.5-1.1c-0.3-0.3-0.8-0.4-1.3-0.4
				c-0.6,0-1.1,0.1-1.4,0.4s-0.6,0.6-0.7,1.1l-4.2-0.1c0.2-1.3,0.8-2.4,1.9-3.2c1.1-0.9,2.6-1.3,4.5-1.3c1.2,0,2.3,0.2,3.2,0.6
				c0.9,0.4,1.7,0.9,2.2,1.6c0.5,0.7,0.8,1.6,0.8,2.6v9.7h-4.3v-2h-0.1C209.1,290.2,207.8,290.9,205.8,290.9z M207.2,287.9
				c0.7,0,1.3-0.2,1.8-0.6c0.5-0.4,0.8-1,0.8-1.7v-1.4c-0.3,0.1-0.6,0.2-1.1,0.3c-0.5,0.1-0.9,0.2-1.3,0.2c-1.3,0.2-2,0.8-2,1.7
				c0,0.5,0.2,0.8,0.5,1.1S206.7,287.9,207.2,287.9z"/>
			<path d="M217.1,296v-19.6h4.5v2.4h0.1c0.3-0.7,0.7-1.3,1.4-1.8c0.6-0.5,1.5-0.8,2.7-0.8c1,0,1.9,0.3,2.8,0.8
				c0.9,0.5,1.6,1.3,2.1,2.4c0.5,1.1,0.8,2.5,0.8,4.1c0,1.6-0.3,3-0.8,4c-0.5,1.1-1.2,1.9-2.1,2.4s-1.8,0.8-2.9,0.8
				c-1.1,0-1.9-0.3-2.6-0.8c-0.7-0.5-1.1-1.1-1.4-1.7h-0.1v7.6H217.1z M221.5,283.5c0,1.2,0.2,2.1,0.7,2.8c0.5,0.7,1.1,1,1.9,1
				c0.8,0,1.5-0.3,1.9-1c0.4-0.7,0.7-1.6,0.7-2.8c0-1.1-0.2-2.1-0.7-2.7s-1.1-1-1.9-1c-0.8,0-1.5,0.3-1.9,1
				C221.7,281.5,221.5,282.4,221.5,283.5z"/>
			<path d="M238.3,282.5v8.1h-4.5v-19h4.4v7.4h0.2c0.3-0.9,0.8-1.6,1.6-2.1s1.6-0.7,2.7-0.7c1.5,0,2.7,0.5,3.6,1.5s1.4,2.3,1.3,3.9
				v9.1H243v-8.2c0-0.8-0.2-1.4-0.6-1.9c-0.4-0.4-1-0.7-1.7-0.7c-0.7,0-1.3,0.2-1.7,0.7C238.5,281.1,238.3,281.7,238.3,282.5z"/>
			<path d="M252.6,274.8c-0.6,0-1.2-0.2-1.6-0.6c-0.5-0.4-0.7-0.9-0.7-1.5c0-0.6,0.2-1.1,0.7-1.5s1-0.6,1.6-0.6
				c0.6,0,1.2,0.2,1.6,0.6s0.7,0.9,0.7,1.5c0,0.6-0.2,1.1-0.7,1.5C253.8,274.5,253.3,274.8,252.6,274.8z M250.3,290.7v-14.2h4.5
				v14.2H250.3z"/>
			<path d="M264.4,290.9c-1.5,0-2.8-0.3-3.9-0.9c-1.1-0.6-1.9-1.5-2.5-2.6c-0.6-1.1-0.9-2.4-0.9-3.8c0-1.5,0.3-2.7,0.9-3.8
				c0.6-1.1,1.4-2,2.5-2.6c1.1-0.6,2.4-0.9,3.8-0.9c1.3,0,2.5,0.2,3.4,0.7c1,0.5,1.7,1.1,2.3,2c0.6,0.9,0.8,1.9,0.9,3.1h-4.2
				c-0.1-0.7-0.3-1.3-0.7-1.7c-0.4-0.4-0.9-0.6-1.6-0.6c-0.8,0-1.4,0.3-1.9,1c-0.5,0.7-0.7,1.6-0.7,2.9c0,1.3,0.2,2.2,0.7,2.9
				c0.5,0.7,1.1,1,1.9,1c0.6,0,1.1-0.2,1.6-0.6s0.7-1,0.8-1.7h4.2c0,1.2-0.3,2.2-0.9,3.1c-0.5,0.9-1.3,1.6-2.3,2
				C266.9,290.7,265.7,290.9,264.4,290.9z"/>
			<path d="M285.7,280.8l-4.2,0.1c-0.1-0.5-0.3-0.8-0.7-1.1s-0.9-0.4-1.5-0.4c-0.5,0-1,0.1-1.3,0.3c-0.4,0.2-0.5,0.5-0.5,0.9
				c0,0.3,0.1,0.5,0.3,0.7s0.6,0.4,1.2,0.5l2.7,0.5c2.8,0.5,4.2,1.8,4.2,3.9c0,1-0.3,1.8-0.9,2.5s-1.4,1.3-2.3,1.7s-2.1,0.6-3.4,0.6
				c-2,0-3.6-0.4-4.8-1.3c-1.2-0.8-1.8-2-2-3.4l4.5-0.1c0.1,0.5,0.4,0.9,0.8,1.2c0.4,0.3,0.9,0.4,1.6,0.4c0.6,0,1.1-0.1,1.4-0.3
				s0.5-0.5,0.6-0.9c0-0.6-0.6-1-1.7-1.2l-2.5-0.5c-2.8-0.5-4.2-1.9-4.2-4.1c0-1.4,0.6-2.5,1.7-3.3c1.1-0.8,2.7-1.2,4.6-1.2
				c1.9,0,3.4,0.4,4.6,1.2C285,278.2,285.6,279.4,285.7,280.8z"/>
		</g>
		<path class="st1" d="M510.1,173.2l93.4-93.4c9.6-9.6,22.7-15,36.3-15h174.6"/>
		<path class="st1" d="M510.1,173.2l93.4,93.4c9.6,9.6,22.7,15,36.3,15h174.6"/>
		<path class="st2" d="M745.5,43.9h225.3c11.5,0,20.9,9.3,20.9,20.9v0c0,11.5-9.3,20.9-20.9,20.9H745.5c-11.5,0-20.9-9.3-20.9-20.9
			v0C724.7,53.3,734,43.9,745.5,43.9z"/>
		<g class="st3">
			<path d="M747.1,74.5l-5.5-19h5.1l2.9,12.4h0.2l3.3-12.4h4.1l3.3,12.5h0.2l2.9-12.5h5.1l-5.5,19h-4.4L755.1,63h-0.1l-3.4,11.5
				H747.1z"/>
		</g>
		<g class="st3">
			<path d="M775.4,74.8c-2.2,0-4-0.7-5.3-2c-1.3-1.3-1.9-3.1-1.9-5.4c0-1.5,0.3-2.8,0.9-3.9c0.6-1.1,1.4-2,2.5-2.6
				c1.1-0.6,2.3-0.9,3.7-0.9c1.3,0,2.5,0.3,3.6,0.8c1,0.6,1.8,1.4,2.4,2.5c0.6,1.1,0.9,2.4,0.9,4v1.1h-9.5v0.1
				c0,0.9,0.3,1.6,0.8,2.1c0.5,0.5,1.2,0.8,2.1,0.8c0.6,0,1.1-0.1,1.5-0.4s0.7-0.6,0.9-1.1l4.2,0.1c-0.3,1.4-1,2.5-2.1,3.3
				S777.2,74.8,775.4,74.8z M772.6,65.9h5.3c0-0.7-0.3-1.3-0.7-1.8c-0.5-0.5-1.1-0.7-1.8-0.7c-0.8,0-1.4,0.2-1.9,0.7
				C772.9,64.6,772.7,65.2,772.6,65.9z"/>
			<path d="M784.4,74.5v-19h4.5v7.2h0.1c0.3-0.7,0.7-1.3,1.4-1.8c0.6-0.5,1.5-0.8,2.7-0.8c1,0,1.9,0.3,2.8,0.8
				c0.9,0.5,1.6,1.3,2.1,2.4c0.5,1.1,0.8,2.5,0.8,4.1c0,1.6-0.3,3-0.8,4s-1.2,1.9-2.1,2.4c-0.9,0.5-1.8,0.8-2.9,0.8
				c-1.1,0-1.9-0.3-2.6-0.8c-0.7-0.5-1.1-1.1-1.4-1.7h-0.1v2.3H784.4z M788.9,67.4c0,1.2,0.2,2.1,0.7,2.8s1.1,1,1.9,1
				c0.8,0,1.5-0.3,1.9-1c0.4-0.7,0.7-1.6,0.7-2.8c0-1.1-0.2-2.1-0.7-2.7c-0.4-0.7-1.1-1-1.9-1c-0.8,0-1.5,0.3-1.9,1
				C789.1,65.3,788.9,66.2,788.9,67.4z"/>
			<path d="M812,74.7c-1,0-2-0.3-2.9-0.8c-0.9-0.5-1.5-1.4-2.1-2.4s-0.8-2.4-0.8-4c0-1.7,0.3-3,0.8-4.1c0.5-1.1,1.2-1.9,2.1-2.4
				c0.9-0.5,1.8-0.8,2.8-0.8c1.1,0,2,0.3,2.7,0.8c0.6,0.5,1.1,1.1,1.4,1.8h0.1v-7.2h4.5v19h-4.5v-2.3H816c-0.3,0.7-0.8,1.2-1.4,1.7
				C813.9,74.5,813,74.7,812,74.7z M813.5,71.2c0.8,0,1.5-0.3,1.9-1s0.7-1.6,0.7-2.8c0-1.2-0.2-2.1-0.7-2.8c-0.5-0.7-1.1-1-1.9-1
				c-0.8,0-1.5,0.3-1.9,1s-0.7,1.6-0.7,2.7c0,1.1,0.2,2.1,0.7,2.8C812,70.9,812.7,71.2,813.5,71.2z"/>
		</g>
		<g class="st3">
			<path d="M830.1,74.8c-2.2,0-4-0.7-5.3-2c-1.3-1.3-1.9-3.1-1.9-5.4c0-1.5,0.3-2.8,0.9-3.9s1.4-2,2.5-2.6c1.1-0.6,2.3-0.9,3.7-0.9
				c1.3,0,2.5,0.3,3.6,0.8c1,0.6,1.9,1.4,2.4,2.5c0.6,1.1,0.9,2.4,0.9,4v1.1h-9.5v0.1c0,0.9,0.3,1.6,0.8,2.1
				c0.5,0.5,1.2,0.8,2.1,0.8c0.6,0,1.1-0.1,1.5-0.4c0.4-0.2,0.7-0.6,0.9-1.1l4.2,0.1c-0.3,1.4-1,2.5-2.2,3.3
				C833.5,74.4,832,74.8,830.1,74.8z M827.4,65.9h5.3c0-0.7-0.3-1.3-0.7-1.8c-0.5-0.5-1.1-0.7-1.8-0.7c-0.8,0-1.4,0.2-1.9,0.7
				C827.7,64.6,827.4,65.2,827.4,65.9z"/>
		</g>
		<g class="st3">
			<path d="M852.6,60.3l-4.9,14.2h-5.2l-4.9-14.2h4.8l2.6,9.8h0.1l2.6-9.8H852.6z"/>
		</g>
		<g class="st3">
			<path d="M860.5,74.8c-2.2,0-4-0.7-5.3-2c-1.3-1.3-1.9-3.1-1.9-5.4c0-1.5,0.3-2.8,0.9-3.9c0.6-1.1,1.4-2,2.5-2.6s2.3-0.9,3.7-0.9
				c1.3,0,2.5,0.3,3.6,0.8c1,0.6,1.9,1.4,2.4,2.5c0.6,1.1,0.9,2.4,0.9,4v1.1h-9.5v0.1c0,0.9,0.3,1.6,0.8,2.1
				c0.5,0.5,1.2,0.8,2.1,0.8c0.6,0,1.1-0.1,1.5-0.4s0.7-0.6,0.9-1.1l4.2,0.1c-0.3,1.4-1,2.5-2.1,3.3
				C863.9,74.4,862.4,74.8,860.5,74.8z M857.8,65.9h5.3c0-0.7-0.3-1.3-0.7-1.8c-0.5-0.5-1.1-0.7-1.8-0.7c-0.8,0-1.4,0.2-1.9,0.7
				C858.1,64.6,857.8,65.2,857.8,65.9z"/>
			<path d="M874.1,55.5v19h-4.5v-19H874.1z"/>
			<path d="M883.6,74.8c-1.5,0-2.8-0.3-3.8-0.9c-1.1-0.6-1.9-1.5-2.5-2.6c-0.6-1.1-0.9-2.4-0.9-3.8c0-1.5,0.3-2.7,0.9-3.8
				c0.6-1.1,1.4-2,2.5-2.6c1.1-0.6,2.4-0.9,3.8-0.9c1.5,0,2.8,0.3,3.8,0.9c1.1,0.6,1.9,1.5,2.5,2.6c0.6,1.1,0.9,2.4,0.9,3.8
				c0,1.5-0.3,2.7-0.9,3.8c-0.6,1.1-1.4,2-2.5,2.6C886.4,74.5,885.1,74.8,883.6,74.8z M883.7,71.4c0.8,0,1.4-0.4,1.9-1.1
				s0.7-1.7,0.7-2.9c0-1.2-0.2-2.1-0.7-2.9c-0.4-0.7-1.1-1.1-1.9-1.1c-0.8,0-1.5,0.4-1.9,1.1c-0.4,0.7-0.7,1.7-0.7,2.9
				c0,1.2,0.2,2.1,0.7,2.9S882.8,71.4,883.7,71.4z"/>
			<path d="M893.2,79.9V60.3h4.5v2.4h0.1c0.3-0.7,0.7-1.3,1.4-1.8c0.6-0.5,1.5-0.8,2.7-0.8c1,0,1.9,0.3,2.8,0.8
				c0.9,0.5,1.6,1.3,2.1,2.4c0.5,1.1,0.8,2.5,0.8,4.1c0,1.6-0.3,3-0.8,4s-1.2,1.9-2.1,2.4c-0.9,0.5-1.8,0.8-2.9,0.8
				c-1.1,0-1.9-0.3-2.6-0.8c-0.7-0.5-1.1-1.1-1.4-1.7h-0.1v7.6H893.2z M897.6,67.4c0,1.2,0.2,2.1,0.7,2.8s1.1,1,1.9,1
				c0.8,0,1.5-0.3,1.9-1c0.4-0.7,0.7-1.6,0.7-2.8c0-1.1-0.2-2.1-0.7-2.7c-0.4-0.7-1.1-1-1.9-1c-0.8,0-1.5,0.3-1.9,1
				C897.8,65.3,897.6,66.2,897.6,67.4z"/>
			<path d="M909.9,74.5V60.3h4.3v2.6h0.2c0.3-0.9,0.8-1.5,1.5-2c0.7-0.5,1.5-0.8,2.5-0.8c1,0,1.8,0.3,2.5,0.8c0.7,0.5,1.2,1.2,1.3,2
				h0.1c0.3-0.8,0.8-1.5,1.6-2c0.8-0.5,1.7-0.8,2.7-0.8c1.3,0,2.4,0.4,3.3,1.3c0.8,0.9,1.3,2,1.3,3.5v9.6h-4.5V66
				c0-0.7-0.2-1.3-0.6-1.6c-0.4-0.4-0.8-0.6-1.4-0.6c-0.6,0-1.1,0.2-1.5,0.6c-0.4,0.4-0.5,0.9-0.5,1.6v8.5h-4.4v-8.6
				c0-0.7-0.2-1.2-0.5-1.6s-0.8-0.6-1.4-0.6c-0.6,0-1.1,0.2-1.4,0.6c-0.4,0.4-0.6,1-0.6,1.7v8.4H909.9z"/>
			<path d="M940.7,74.8c-2.2,0-4-0.7-5.3-2c-1.3-1.3-1.9-3.1-1.9-5.4c0-1.5,0.3-2.8,0.9-3.9c0.6-1.1,1.4-2,2.5-2.6
				c1.1-0.6,2.3-0.9,3.7-0.9c1.3,0,2.5,0.3,3.6,0.8c1,0.6,1.8,1.4,2.4,2.5c0.6,1.1,0.9,2.4,0.9,4v1.1h-9.5v0.1
				c0,0.9,0.3,1.6,0.8,2.1c0.5,0.5,1.2,0.8,2.1,0.8c0.6,0,1.1-0.1,1.5-0.4s0.7-0.6,0.9-1.1l4.2,0.1c-0.3,1.4-1,2.5-2.1,3.3
				S942.5,74.8,940.7,74.8z M937.9,65.9h5.3c0-0.7-0.3-1.3-0.7-1.8c-0.5-0.5-1.1-0.7-1.8-0.7c-0.8,0-1.4,0.2-1.9,0.7
				C938.2,64.6,938,65.2,937.9,65.9z"/>
			<path d="M954.3,66.4v8.1h-4.5V60.3h4.3v2.6h0.2c0.3-0.9,0.9-1.5,1.6-2c0.8-0.5,1.7-0.8,2.7-0.8c1,0,1.9,0.2,2.6,0.7
				c0.7,0.4,1.3,1.1,1.7,1.9c0.4,0.8,0.6,1.7,0.6,2.8v9.1h-4.5v-8.2c0-0.8-0.2-1.4-0.6-1.9c-0.4-0.4-1-0.7-1.7-0.7s-1.3,0.2-1.7,0.7
				S954.3,65.6,954.3,66.4z"/>
			<path d="M974.3,60.3v3.3h-2.6V70c0,0.4,0.1,0.7,0.3,0.9c0.2,0.2,0.5,0.3,0.8,0.3c0.2,0,0.4,0,0.6-0.1c0.2,0,0.3-0.1,0.4-0.1
				l0.7,3.3c-0.2,0.1-0.5,0.1-0.9,0.2c-0.4,0.1-0.9,0.1-1.4,0.2c-1.6,0.1-2.8-0.2-3.7-1c-0.9-0.7-1.3-1.8-1.3-3.2v-6.9h-1.9v-3.3
				h1.9v-3.4h4.5v3.4H974.3z"/>
		</g>
		<path class="st2" d="M810,260.8h96.3c11.5,0,20.9,9.3,20.9,20.9v0c0,11.5-9.3,20.9-20.9,20.9H810c-11.5,0-20.9-9.3-20.9-20.9v0
			C789.2,270.1,798.5,260.8,810,260.8z"/>
		<g class="st3">
			<path d="M824.8,278.6h-4.6c-0.1-1-0.5-1.7-1.1-2.3c-0.6-0.6-1.5-0.8-2.5-0.8c-1.4,0-2.5,0.5-3.3,1.5c-0.8,1-1.2,2.4-1.2,4.2
				c0,1.9,0.4,3.3,1.2,4.3c0.8,1,1.9,1.5,3.2,1.5c1,0,1.8-0.3,2.5-0.8s1.1-1.2,1.2-2.1l4.6,0c-0.1,0.8-0.3,1.7-0.7,2.5
				c-0.4,0.8-1,1.6-1.7,2.2c-0.7,0.7-1.6,1.2-2.6,1.6s-2.2,0.6-3.5,0.6c-1.7,0-3.3-0.4-4.6-1.1c-1.4-0.8-2.4-1.9-3.2-3.3
				c-0.8-1.5-1.2-3.2-1.2-5.3c0-2.1,0.4-3.9,1.2-5.3c0.8-1.4,1.9-2.5,3.2-3.3c1.4-0.8,2.9-1.1,4.6-1.1c1.5,0,2.9,0.3,4.1,0.8
				c1.2,0.6,2.2,1.4,3,2.4C824.2,275.7,824.6,277,824.8,278.6z"/>
			<path d="M834,290.9c-1.5,0-2.8-0.3-3.8-0.9c-1.1-0.6-1.9-1.5-2.5-2.6c-0.6-1.1-0.9-2.4-0.9-3.8c0-1.5,0.3-2.7,0.9-3.8
				c0.6-1.1,1.4-2,2.5-2.6c1.1-0.6,2.4-0.9,3.8-0.9c1.5,0,2.8,0.3,3.8,0.9c1.1,0.6,1.9,1.5,2.5,2.6c0.6,1.1,0.9,2.4,0.9,3.8
				c0,1.5-0.3,2.7-0.9,3.8c-0.6,1.1-1.4,2-2.5,2.6C836.8,290.6,835.5,290.9,834,290.9z M834.1,287.5c0.8,0,1.4-0.4,1.9-1.1
				s0.7-1.7,0.7-2.9c0-1.2-0.2-2.1-0.7-2.9c-0.4-0.7-1.1-1.1-1.9-1.1c-0.8,0-1.5,0.4-1.9,1.1c-0.4,0.7-0.7,1.7-0.7,2.9
				c0,1.2,0.2,2.1,0.7,2.9S833.2,287.5,834.1,287.5z"/>
			<path d="M848.1,282.5v8.1h-4.5v-14.2h4.3v2.6h0.2c0.3-0.9,0.9-1.5,1.6-2c0.8-0.5,1.7-0.8,2.7-0.8c1,0,1.9,0.2,2.6,0.7
				c0.7,0.4,1.3,1.1,1.7,1.9c0.4,0.8,0.6,1.7,0.6,2.8v9.1h-4.5v-8.2c0-0.8-0.2-1.4-0.6-1.9c-0.4-0.4-1-0.7-1.7-0.7
				c-0.7,0-1.3,0.2-1.7,0.7S848.1,281.7,848.1,282.5z"/>
			<path d="M868.1,276.4v3.3h-2.6v6.4c0,0.4,0.1,0.7,0.3,0.9c0.2,0.2,0.5,0.3,0.8,0.3c0.2,0,0.4,0,0.6-0.1c0.2,0,0.3-0.1,0.4-0.1
				l0.7,3.3c-0.2,0.1-0.5,0.1-0.9,0.2c-0.4,0.1-0.9,0.1-1.4,0.2c-1.6,0.1-2.8-0.2-3.7-1c-0.9-0.7-1.3-1.8-1.3-3.2v-6.9h-1.9v-3.3
				h1.9V273h4.5v3.4H868.1z"/>
			<path d="M874.5,290.9c-1.4,0-2.5-0.3-3.4-1c-0.9-0.7-1.3-1.7-1.3-3.2c0-1,0.2-1.9,0.7-2.5c0.5-0.6,1.1-1.1,1.9-1.4
				c0.8-0.3,1.7-0.5,2.6-0.6c1.2-0.1,2.1-0.2,2.6-0.4s0.8-0.4,0.8-0.9v0c0-0.5-0.2-0.8-0.5-1.1c-0.3-0.3-0.8-0.4-1.3-0.4
				c-0.6,0-1.1,0.1-1.4,0.4s-0.6,0.6-0.7,1.1l-4.2-0.1c0.2-1.3,0.8-2.4,1.9-3.2c1.1-0.9,2.6-1.3,4.5-1.3c1.2,0,2.3,0.2,3.2,0.6
				c0.9,0.4,1.7,0.9,2.2,1.6c0.5,0.7,0.8,1.6,0.8,2.6v9.7h-4.3v-2h-0.1C877.8,290.2,876.4,290.9,874.5,290.9z M875.9,287.9
				c0.7,0,1.3-0.2,1.8-0.6c0.5-0.4,0.8-1,0.8-1.7v-1.4c-0.3,0.1-0.6,0.2-1.1,0.3s-0.9,0.2-1.3,0.2c-1.3,0.2-2,0.8-2,1.7
				c0,0.5,0.2,0.8,0.5,1.1C874.9,287.8,875.3,287.9,875.9,287.9z"/>
			<path d="M892.4,290.9c-1.5,0-2.8-0.3-3.9-0.9c-1.1-0.6-1.9-1.5-2.5-2.6s-0.9-2.4-0.9-3.8c0-1.5,0.3-2.7,0.9-3.8s1.4-2,2.5-2.6
				c1.1-0.6,2.4-0.9,3.8-0.9c1.3,0,2.5,0.2,3.4,0.7c1,0.5,1.7,1.1,2.3,2c0.6,0.9,0.8,1.9,0.9,3.1h-4.2c-0.1-0.7-0.3-1.3-0.7-1.7
				s-0.9-0.6-1.6-0.6c-0.8,0-1.4,0.3-1.9,1c-0.5,0.7-0.7,1.6-0.7,2.9c0,1.3,0.2,2.2,0.7,2.9c0.5,0.7,1.1,1,1.9,1
				c0.6,0,1.1-0.2,1.6-0.6s0.7-1,0.8-1.7h4.2c0,1.2-0.3,2.2-0.9,3.1c-0.5,0.9-1.3,1.6-2.3,2C894.9,290.7,893.7,290.9,892.4,290.9z"
				/>
			<path d="M909.3,276.4v3.3h-2.6v6.4c0,0.4,0.1,0.7,0.3,0.9s0.5,0.3,0.8,0.3c0.2,0,0.4,0,0.6-0.1c0.2,0,0.3-0.1,0.4-0.1l0.7,3.3
				c-0.2,0.1-0.5,0.1-0.9,0.2c-0.4,0.1-0.9,0.1-1.4,0.2c-1.6,0.1-2.8-0.2-3.7-1c-0.9-0.7-1.3-1.8-1.3-3.2v-6.9h-1.9v-3.3h1.9V273
				h4.5v3.4H909.3z"/>
		</g>
	</g>
</g>
</svg>
