<?xml version="1.0" encoding="utf-8"?>
<!-- Generator: Adobe Illustrator 25.4.1, SVG Export Plug-In . SVG Version: 6.00 Build 0)  -->
<svg version="1.1" id="Calque_1" xmlns="http://www.w3.org/2000/svg" xmlns:xlink="http://www.w3.org/1999/xlink" x="0px" y="0px"
	 viewBox="0 0 2500 2500" style="enable-background:new 0 0 2500 2500;" xml:space="preserve">
<style type="text/css">
	.st0{fill:#3B3B56;}
	.st1{fill:#FFFFFF;}
</style>
<path class="st0" d="M941.9,72.1c315.1-80.8,663.4-33.7,941.3,137.8c350,209.3,578.5,605.2,584.3,1012.8
	c12.8,411.6-201.7,819.8-546.5,1043.6c-383.7,258.1-914.5,268-1306.4,22.7C215.1,2050.6-18,1569.8,41.9,1108.1
	C90.1,620.3,466.9,190.1,941.9,72.1L941.9,72.1z"/>
<path class="st1" d="M893.6,271.5C1489,33.1,2219.2,473.3,2280.8,1111.6c95.9,574.4-380.8,1158.1-962.8,1175
	c-553.5,55.2-1088.4-414-1104.1-969.8C172.7,866.9,469.2,420.4,893.6,271.5L893.6,271.5z"/>
<path class="st0" d="M953.5,1188.4c266.9-218,527.9-443.6,800.6-655.2c-143,219.8-290.1,436.6-433.1,656.4
	C1198.3,1190.1,1075.6,1190.1,953.5,1188.4L953.5,1188.4z M1179.1,1309.9c123.3,0,245.9,0,368.6,1.7
	c-268.6,216.9-528.5,444.2-801.7,655.2C889,1747.1,1036,1529.7,1179.1,1309.9L1179.1,1309.9z"/>
</svg>
