<?xml version="1.0" encoding="utf-8"?>
<!-- Generator: Adobe Illustrator 24.1.2, SVG Export Plug-In . SVG Version: 6.00 Build 0)  -->
<svg version="1.1" id="Calque_1" xmlns="http://www.w3.org/2000/svg" xmlns:xlink="http://www.w3.org/1999/xlink" x="0px" y="0px"
	 viewBox="0 0 214.5 208.4" style="enable-background:new 0 0 214.5 208.4;" xml:space="preserve">
<style type="text/css">
	.st0{fill:#1AC9FF;}
	.st1{fill:#1764FF;}
	.st2{fill:#40E4FF;}
	.st3{fill:#D7D8E0;}
</style>
<g id="Calque_2_1_">
	<g id="Calque_6">
		<path class="st0" d="M142.9,159.7c0,12.6-32,22.8-71.5,22.8C32,182.6,0,172.3,0,159.7V22.8c0,0,142.9,0,142.9,0
			S142.9,159.7,142.9,159.7z"/>
		<path class="st1" d="M71.5,91.3C32,91.3,0,81.1,0,68.5v45.6c0,12.6,32,22.8,71.5,22.8s71.5-10.2,71.5-22.8V68.5
			C142.9,81.1,110.9,91.3,71.5,91.3z"/>
		<path class="st0" d="M71.5,136.9C32,136.9,0,126.7,0,114.1v45.6c0,12.6,32,22.8,71.5,22.8s71.5-10.2,71.5-22.8v-45.6
			C142.9,126.7,110.9,136.9,71.5,136.9z"/>
		<path class="st0" d="M71.5,91.3c39.5,0,71.5-10.2,71.5-22.8V22.8c0,12.6-32,22.8-71.5,22.8S0,35.4,0,22.8v45.6
			C0,81.1,32,91.3,71.5,91.3z"/>
		<ellipse class="st2" cx="71.5" cy="22.8" rx="71.5" ry="22.8"/>
		<path class="st3" d="M214.5,183.6c0,13.7-11.1,24.9-24.9,24.9L42,207.9c-14.1-0.3-25.4-12-25.1-26.1C17.2,168,28.3,157,42,156.7
			c2.2,0,4.4,0.3,6.5,0.9c-6.8-13.3-1.4-29.5,11.9-36.3c6.6-3.3,14.3-3.8,21.2-1.4c8.4-17.9,29.7-25.7,47.6-17.4
			c10.1,4.7,17.4,13.8,19.8,24.6c10.6-8,25.6-5.8,33.6,4.8c6.1,8.1,6.4,19.1,0.9,27.6c2-0.5,4-0.8,6.1-0.8
			C203.4,158.7,214.5,169.8,214.5,183.6z"/>
		<path d="M155.6,143.9c-2.2,0-4,1.7-4,3.9c0,0,0,0,0,0.1v40.5c0,2.2,1.7,4,3.9,4.1c0,0,0.1,0,0.1,0H184c2.2,0,4-1.7,4.1-3.9
			c0,0,0-0.1,0-0.1l0,0c0-2.2-1.8-4-4-4c0,0,0,0-0.1,0h-24.4V148c0-2.2-1.8-4-4-4L155.6,143.9z"/>
		<path d="M142.5,188.5V148c0-2.2-1.8-4-4.1-4h-28.4c-2.2,0-4,1.8-4,4v40.5c0,2.2,1.8,4,4,4.1h22.6l4.1,4.1c1.6,1.6,4.1,1.6,5.7,0
			l0,0c1.6-1.6,1.6-4.1,0-5.7l-0.5-0.5C142.3,189.8,142.5,189.2,142.5,188.5z M114.1,184.5V152h20.3v30.7l-2.7-2.7
			c-1.4-1.4-3.7-1.4-5,0c0,0,0,0,0,0l0,0c-1.8,1.9-1.4,3.7-0.7,4.4L114.1,184.5L114.1,184.5z"/>
		<path d="M92.9,143.9H64.5c-2.2,0-4,1.7-4,3.9c0,0,0,0,0,0.1v18.8c0,3.1,2.4,5.6,5.5,5.6c0,0,0,0,0,0h22.8v12.2H64.5
			c-2.2,0-4,1.8-4.1,4l0,0c0,2.2,1.8,4.1,4,4.1c0,0,0,0,0,0h28.4c2.2,0,4-1.8,4-4.1v-18.7c0-3.1-2.5-5.5-5.6-5.6H68.6V152h24.3
			c2.2,0,4.1-1.8,4.1-4l0,0C97,145.8,95.2,143.9,92.9,143.9C93,143.9,92.9,143.9,92.9,143.9z"/>
	</g>
</g>
</svg>
