<svg xmlns="http://www.w3.org/2000/svg" viewBox="0 0 323.78 327.01"><defs><style>.cls-1{fill:none;stroke:#fff;stroke-linecap:round;stroke-linejoin:round;stroke-width:15px;}</style></defs><g id="Calque_2" data-name="Calque 2"><g id="Calque_6" data-name="Calque 6"><polygon class="cls-1" points="7.5 7.5 26.79 85.5 84.69 29.8 7.5 7.5"/><polygon class="cls-1" points="84.69 29.8 103.98 107.8 161.89 52.1 84.69 29.8"/><polygon class="cls-1" points="26.79 85.5 46.07 163.5 103.98 107.8 26.79 85.5"/><polygon class="cls-1" points="161.89 52.1 181.18 130.1 239.08 74.4 161.89 52.1"/><polygon class="cls-1" points="239.08 74.4 258.37 152.4 316.28 96.7 239.08 74.4"/><polygon class="cls-1" points="181.18 130.1 200.46 208.1 258.37 152.4 181.18 130.1"/><polygon class="cls-1" points="46.07 163.5 65.36 241.51 123.27 185.8 46.07 163.5"/><polygon class="cls-1" points="123.27 185.8 142.55 263.81 200.46 208.1 123.27 185.8"/><polygon class="cls-1" points="65.36 241.51 84.64 319.51 142.55 263.81 65.36 241.51"/><polygon class="cls-1" points="103.98 107.8 123.27 185.8 181.18 130.1 103.98 107.8"/></g></g></svg>