<?xml version="1.0" encoding="utf-8"?>
<!-- Generator: Adobe Illustrator 24.1.2, SVG Export Plug-In . SVG Version: 6.00 Build 0)  -->
<svg version="1.1" id="Capa_1" xmlns="http://www.w3.org/2000/svg" xmlns:xlink="http://www.w3.org/1999/xlink" x="0px" y="0px"
	 viewBox="0 0 112.2 112.2" style="enable-background:new 0 0 112.2 112.2;" xml:space="preserve">
<style type="text/css">
	.st0{fill:#28A1EA;}
	.st1{fill:#F1F2F2;}
</style>
<g>
	<circle class="st0" cx="56.1" cy="56.1" r="56.1"/>
	<g>
		<path class="st1" d="M90.5,40.3c-2.4,1.1-5,1.8-7.7,2.1c2.8-1.7,4.9-4.3,5.9-7.4c-2.6,1.5-5.5,2.7-8.5,3.3
			c-2.4-2.6-5.9-4.2-9.8-4.2c-7.4,0-13.4,6-13.4,13.4c0,1.1,0.1,2.1,0.3,3.1c-11.1-0.6-21-5.9-27.6-14c-1.2,2-1.8,4.3-1.8,6.7
			c0,4.7,2.4,8.8,6,11.2c-2.2-0.1-4.3-0.7-6.1-1.7c0,0.1,0,0.1,0,0.2c0,6.5,4.6,11.9,10.8,13.1c-1.1,0.3-2.3,0.5-3.5,0.5
			c-0.9,0-1.7-0.1-2.5-0.2c1.7,5.3,6.7,9.2,12.5,9.3c-4.6,3.6-10.4,5.7-16.7,5.7c-1.1,0-2.1-0.1-3.2-0.2c5.9,3.8,13,6,20.6,6
			c24.7,0,38.2-20.4,38.2-38.2c0-0.6,0-1.2,0-1.7C86.4,45.4,88.7,43,90.5,40.3L90.5,40.3z"/>
	</g>
</g>
</svg>
